<svg width="160" height="160" viewBox="0 0 160 160" fill="none" xmlns="http://www.w3.org/2000/svg">
<g clip-path="url(#clip0)">
<path d="M0 72C0 46.7976 0 34.1965 4.90471 24.5704C9.21901 16.1031 16.1031 9.21901 24.5704 4.90471C34.1965 0 46.7976 0 72 0H88C113.202 0 125.804 0 135.43 4.90471C143.897 9.21901 150.781 16.1031 155.095 24.5704C160 34.1965 160 46.7976 160 72V88C160 113.202 160 125.804 155.095 135.43C150.781 143.897 143.897 150.781 135.43 155.095C125.804 160 113.202 160 88 160H72C46.7976 160 34.1965 160 24.5704 155.095C16.1031 150.781 9.21901 143.897 4.90471 135.43C0 125.804 0 113.202 0 88V72Z" fill="#F8F0FF"/>
<path fill-rule="evenodd" clip-rule="evenodd" d="M79.2001 33.3549V62.5008C77.8199 62.856 76.8 64.1089 76.8 65.6C76.8 67.3673 78.2327 68.8 80.0001 68.8C81.7674 68.8 83.2001 67.3673 83.2001 65.6C83.2001 64.1089 82.1802 62.856 80.8001 62.5008V33.3541C83.8225 48.6861 94.5039 63.2054 97.0516 66.5032C97.3652 66.9092 97.3219 67.476 96.969 67.8483C89.5576 75.6679 88.8001 84 88.8001 84H71.2001C71.2001 84 70.4427 75.6679 63.0312 67.8483C62.6784 67.476 62.6351 66.9092 62.9487 66.5032C65.4963 63.2054 76.1774 48.6865 79.2001 33.3549Z" fill="#842FFB"/>
<path fill-rule="evenodd" clip-rule="evenodd" d="M64.7999 92.8C64.7999 91.4745 65.8744 90.4 67.1999 90.4H92.7999C94.1254 90.4 95.1999 91.4745 95.1999 92.8C95.1999 94.1255 94.1254 95.2 92.7999 95.2H67.1999C65.8744 95.2 64.7999 94.1255 64.7999 92.8ZM66.2475 96.8L58.3999 179.2H101.6L93.7523 96.8H66.2475Z" fill="white"/>
</g>
<defs>
<clipPath id="clip0">
<path d="M0 72C0 46.7976 0 34.1965 4.90471 24.5704C9.21901 16.1031 16.1031 9.21901 24.5704 4.90471C34.1965 0 46.7976 0 72 0H88C113.202 0 125.804 0 135.43 4.90471C143.897 9.21901 150.781 16.1031 155.095 24.5704C160 34.1965 160 46.7976 160 72V88C160 113.202 160 125.804 155.095 135.43C150.781 143.897 143.897 150.781 135.43 155.095C125.804 160 113.202 160 88 160H72C46.7976 160 34.1965 160 24.5704 155.095C16.1031 150.781 9.21901 143.897 4.90471 135.43C0 125.804 0 113.202 0 88V72Z" fill="white"/>
</clipPath>
</defs>
</svg>
