<svg width="160" height="160" viewBox="0 0 160 160" fill="none" xmlns="http://www.w3.org/2000/svg">
<g clip-path="url(#clip0)">
<path d="M0 72C0 46.7976 0 34.1965 4.90471 24.5704C9.21901 16.1031 16.1031 9.21901 24.5704 4.90471C34.1965 0 46.7976 0 72 0H88C113.202 0 125.804 0 135.43 4.90471C143.897 9.21901 150.781 16.1031 155.095 24.5704C160 34.1965 160 46.7976 160 72V88C160 113.202 160 125.804 155.095 135.43C150.781 143.897 143.897 150.781 135.43 155.095C125.804 160 113.202 160 88 160H72C46.7976 160 34.1965 160 24.5704 155.095C16.1031 150.781 9.21901 143.897 4.90471 135.43C0 125.804 0 113.202 0 88V72Z" fill="#F8F0FF"/>
<path d="M58.4 82.3999H101.6V104H58.4V82.3999Z" fill="white"/>
<rect x="68" y="104" width="24" height="66.4" fill="white"/>
<path d="M68 104H92V106.4H68V104Z" fill="#F8F0FF"/>
<rect x="62.4" y="86.3999" width="1.6" height="13.6" rx="0.799999" fill="#F8F0FF"/>
<rect x="68" y="86.3999" width="1.6" height="13.6" rx="0.799999" fill="#F8F0FF"/>
<rect x="73.6" y="86.3999" width="1.60001" height="13.6" rx="0.800007" fill="#F8F0FF"/>
<rect x="79.2001" y="86.3999" width="1.59999" height="13.6" rx="0.799995" fill="#F8F0FF"/>
<rect x="84.8" y="86.3999" width="1.59998" height="13.6" rx="0.799992" fill="#F8F0FF"/>
<rect x="90.4" y="86.3999" width="1.60001" height="13.6" rx="0.800003" fill="#F8F0FF"/>
<rect x="96" y="86.3999" width="1.60001" height="13.6" rx="0.800007" fill="#F8F0FF"/>
<path fill-rule="evenodd" clip-rule="evenodd" d="M60 55.1999C60 52.5972 60 51.2959 60.2408 50.2185C61.0859 46.4381 64.0382 43.4858 67.8186 42.6407C68.896 42.3999 70.1973 42.3999 72.8 42.3999H87.2C89.8027 42.3999 91.104 42.3999 92.1814 42.6407C95.9618 43.4858 98.9142 46.4381 99.7592 50.2185C100 51.2959 100 52.5972 100 55.1999C100 57.8026 100 59.1039 99.7592 60.1813C98.9142 63.9617 95.9618 66.914 92.1814 67.7591C91.104 67.9999 89.8027 67.9999 87.2 67.9999H72.8L68.1071 72.6928C67.4771 73.3228 66.4 72.8766 66.4 71.9857V67.3297C63.3117 66.1388 60.9769 63.4742 60.2408 60.1813C60 59.1039 60 57.8026 60 55.1999ZM70.4 57.5999C71.7255 57.5999 72.8 56.5254 72.8 55.1999C72.8 53.8744 71.7255 52.7999 70.4 52.7999C69.0745 52.7999 68 53.8744 68 55.1999C68 56.5254 69.0745 57.5999 70.4 57.5999ZM82.4 55.1999C82.4 56.5254 81.3255 57.5999 80 57.5999C78.6745 57.5999 77.6 56.5254 77.6 55.1999C77.6 53.8744 78.6745 52.7999 80 52.7999C81.3255 52.7999 82.4 53.8744 82.4 55.1999ZM89.6 57.5999C90.9255 57.5999 92 56.5254 92 55.1999C92 53.8744 90.9255 52.7999 89.6 52.7999C88.2745 52.7999 87.2 53.8744 87.2 55.1999C87.2 56.5254 88.2745 57.5999 89.6 57.5999Z" fill="#842FFB"/>
</g>
<defs>
<clipPath id="clip0">
<path d="M0 72C0 46.7976 0 34.1965 4.90471 24.5704C9.21901 16.1031 16.1031 9.21901 24.5704 4.90471C34.1965 0 46.7976 0 72 0H88C113.202 0 125.804 0 135.43 4.90471C143.897 9.21901 150.781 16.1031 155.095 24.5704C160 34.1965 160 46.7976 160 72V88C160 113.202 160 125.804 155.095 135.43C150.781 143.897 143.897 150.781 135.43 155.095C125.804 160 113.202 160 88 160H72C46.7976 160 34.1965 160 24.5704 155.095C16.1031 150.781 9.21901 143.897 4.90471 135.43C0 125.804 0 113.202 0 88V72Z" fill="white"/>
</clipPath>
</defs>
</svg>
