<svg width="160" height="160" viewBox="0 0 160 160" fill="none" xmlns="http://www.w3.org/2000/svg">
<g clip-path="url(#clip0_319:17043)">
<path d="M0 72C0 46.7976 0 34.1965 4.90471 24.5704C9.21901 16.1031 16.1031 9.21901 24.5704 4.90471C34.1965 0 46.7976 0 72 0H88C113.202 0 125.804 0 135.43 4.90471C143.897 9.21901 150.781 16.1031 155.095 24.5704C160 34.1965 160 46.7976 160 72V88C160 113.202 160 125.804 155.095 135.43C150.781 143.897 143.897 150.781 135.43 155.095C125.804 160 113.202 160 88 160H72C46.7976 160 34.1965 160 24.5704 155.095C16.1031 150.781 9.21901 143.897 4.90471 135.43C0 125.804 0 113.202 0 88V72Z" fill="#F8F0FF"/>
<path fill-rule="evenodd" clip-rule="evenodd" d="M97.8002 48C99.457 48 100.8 49.3432 100.8 51V55.2H59.2002V51C59.2002 49.3432 60.5433 48 62.2002 48H64.8002H67.2002V46.4C67.2014 45.2865 67.6128 44.3874 68.4002 43.6C69.1876 42.8126 70.0866 42.4012 71.2002 42.4H88.8002C89.9137 42.4012 90.8128 42.8126 91.6002 43.6C92.3876 44.3874 92.799 45.2865 92.8002 46.4V48H95.2002H97.8002ZM69.6002 48H90.4002V46.4C90.4002 46.0287 90.4002 45.6 90.0002 45.2C89.6002 44.8 89.1715 44.8 88.8002 44.8H71.2002C70.8289 44.8 70.4002 44.8 70.0002 45.2C69.6002 45.6 69.6002 46.0287 69.6002 46.4V48ZM83.0003 60.8C83.5525 60.8 84.0003 60.3523 84.0003 59.8V56.8H100.8V71.4C100.8 73.0569 99.4571 74.4 97.8003 74.4H62.2005C60.5436 74.4 59.2005 73.0569 59.2005 71.4V56.8H77.6003V59.8C77.6003 60.3523 78.048 60.8 78.6003 60.8H83.0003Z" fill="#842FFB"/>
<path fill-rule="evenodd" clip-rule="evenodd" d="M55.2002 83.4C55.2002 82.8477 55.6479 82.4 56.2002 82.4H103.8C104.352 82.4 104.8 82.8477 104.8 83.4V85.4C104.8 85.9523 104.352 86.4 103.8 86.4H56.2002C55.6479 86.4 55.2002 85.9523 55.2002 85.4V83.4ZM56.5549 89.4104C56.2571 88.7486 56.7411 88 57.4668 88H102.534C103.259 88 103.743 88.7486 103.446 89.4104L97.8655 101.81C97.704 102.169 97.3471 102.4 96.9536 102.4L63.0468 102.4C62.6533 102.4 62.2963 102.169 62.1349 101.81L56.5549 89.4104ZM63.4002 104C62.8479 104 62.4002 104.448 62.4002 105V113.4C62.4002 113.952 62.8479 114.4 63.4002 114.4H96.6002C97.1525 114.4 97.6002 113.952 97.6002 113.4V105C97.6002 104.448 97.1525 104 96.6002 104H63.4002ZM63.4002 126.4C62.8479 126.4 62.4002 125.952 62.4002 125.4V117C62.4002 116.448 62.8479 116 63.4002 116H96.6002C97.1525 116 97.6002 116.448 97.6002 117V125.4C97.6002 125.952 97.1525 126.4 96.6002 126.4H63.4002ZM63.4002 128C62.8479 128 62.4002 128.448 62.4002 129V144C62.4002 144.552 61.9525 145 61.4002 145H54C53.4477 145 53 145.448 53 146V148.741C53 148.911 53.0433 149.078 53.1258 149.227L57.7142 157.486C57.8906 157.803 58.2252 158 58.5884 158H61.4002C61.9525 158 62.4002 158.448 62.4002 159V173.4C62.4002 173.952 62.8479 174.4 63.4002 174.4H96.6002C97.1525 174.4 97.6002 173.952 97.6002 173.4V159C97.6002 158.448 98.0479 158 98.6002 158H101.412C101.775 158 102.109 157.803 102.286 157.486L106.874 149.227C106.957 149.078 107 148.911 107 148.741V146C107 145.448 106.552 145 106 145H98.6002C98.0479 145 97.6002 144.552 97.6002 144L97.6002 129C97.6002 128.448 97.1525 128 96.6002 128H63.4002Z" fill="white"/>
</g>
<defs>
<clipPath id="clip0_319:17043">
<path d="M0 72C0 46.7976 0 34.1965 4.90471 24.5704C9.21901 16.1031 16.1031 9.21901 24.5704 4.90471C34.1965 0 46.7976 0 72 0H88C113.202 0 125.804 0 135.43 4.90471C143.897 9.21901 150.781 16.1031 155.095 24.5704C160 34.1965 160 46.7976 160 72V88C160 113.202 160 125.804 155.095 135.43C150.781 143.897 143.897 150.781 135.43 155.095C125.804 160 113.202 160 88 160H72C46.7976 160 34.1965 160 24.5704 155.095C16.1031 150.781 9.21901 143.897 4.90471 135.43C0 125.804 0 113.202 0 88V72Z" fill="white"/>
</clipPath>
</defs>
</svg>
