<svg width="60" height="1" viewBox="0 0 60 1" fill="none" xmlns="http://www.w3.org/2000/svg">
<path opacity="0.3" fill-rule="evenodd" clip-rule="evenodd" d="M1.01695 1H0V0H1.01695V1ZM3.05085 1H2.0339V0H3.05085V1ZM5.08475 1H4.0678V0H5.08475V1ZM7.11864 1H6.1017V0H7.11864V1ZM9.15254 1H8.13559V0H9.15254V1ZM11.1864 1H10.1695V0H11.1864V1ZM13.2203 1H12.2034V0H13.2203V1ZM15.2542 1H14.2373V0H15.2542V1ZM17.2881 1H16.2712V0H17.2881V1ZM19.322 1H18.3051V0H19.322V1ZM21.3559 1H20.339V0H21.3559V1ZM23.3898 1H22.3729V0H23.3898V1ZM25.4237 1H24.4068V0H25.4237V1ZM27.4576 1H26.4407V0H27.4576V1ZM29.4915 1H28.4746V0H29.4915V1ZM31.5254 1H30.5085V0H31.5254V1ZM33.5593 1H32.5424V0H33.5593V1ZM35.5932 1H34.5763V0H35.5932V1ZM37.6271 1H36.6102V0H37.6271V1ZM39.661 1H38.6441V0H39.661V1ZM41.6949 1H40.678V0H41.6949V1ZM43.7288 1H42.7119V0H43.7288V1ZM45.7627 1H44.7458V0H45.7627V1ZM47.7966 1H46.7797V0H47.7966V1ZM49.8305 1H48.8136V0H49.8305V1ZM51.8644 1H50.8475V0H51.8644V1ZM53.8983 1H52.8814V0H53.8983V1ZM55.9322 1H54.9153V0H55.9322V1ZM57.9661 1H56.9492V0H57.9661V1ZM60 1H58.9831V0H60V1Z" fill="white"/>
</svg>
