<svg width="14" height="14" viewBox="0 0 14 14" fill="none"
								xmlns="http://www.w3.org/2000/svg">
								<path
									d="M7 14C5.73307 14 4.56185 13.6878 3.48633 13.0635C2.41081 12.4391 1.56087 11.5892 0.936523 10.5137C0.312174 9.43815 0 8.26693 0 7C0 5.73307 0.312174 4.56185 0.936523 3.48633C1.56087 2.41081 2.41081 1.56087 3.48633 0.936523C4.56185 0.312174 5.73307 0 7 0C8.26693 0 9.43815 0.312174 10.5137 0.936523C11.5892 1.56087 12.4391 2.41081 13.0635 3.48633C13.6878 4.56185 14 5.73307 14 7C14 8.26693 13.6878 9.43815 13.0635 10.5137C12.4391 11.5892 11.5892 12.4391 10.5137 13.0635C9.43815 13.6878 8.26693 14 7 14ZM11.8262 9.05078C11.2155 8.85938 10.623 8.76367 10.0488 8.76367C9.95768 8.76367 9.78906 8.7819 9.54297 8.81836C9.71615 9.66602 9.80729 10.5319 9.81641 11.416C10.7279 10.8327 11.3978 10.0443 11.8262 9.05078ZM8.25781 12.0859C8.27604 11.1562 8.19401 10.2174 8.01172 9.26953C7.73828 9.40625 7.48763 9.55664 7.25977 9.7207C6.27539 10.4134 5.62826 11.1608 5.31836 11.9629C5.86523 12.1543 6.42578 12.25 7 12.25C7.41016 12.25 7.82943 12.1953 8.25781 12.0859ZM1.77734 6.53516C1.75911 6.70833 1.75 6.86328 1.75 7C1.75 7.84766 1.93913 8.63835 2.31738 9.37207C2.69564 10.1058 3.21289 10.7142 3.86914 11.1973C4.33398 10.0033 5.07682 9.04622 6.09766 8.32617C6.58073 7.98893 7.0638 7.71549 7.54688 7.50586C7.40104 7.0957 7.25521 6.72201 7.10938 6.38477C6.23438 6.80404 5.32292 7.00911 4.375 7C3.50911 6.99089 2.64323 6.83594 1.77734 6.53516ZM4.18359 2.58398C3.30859 3.13997 2.6569 3.88737 2.22852 4.82617C2.95768 5.10872 3.67318 5.25 4.375 5.25C5.02214 5.25 5.65104 5.10417 6.26172 4.8125C5.65104 3.85547 4.95833 3.11263 4.18359 2.58398ZM7 1.75C6.58984 1.75 6.16146 1.80924 5.71484 1.92773C6.38932 2.45638 7.00911 3.13997 7.57422 3.97852C8.28516 3.42253 8.77734 2.82096 9.05078 2.17383C8.39453 1.89128 7.71094 1.75 7 1.75ZM10.4453 3.04883C10.0078 4.06055 9.35156 4.89909 8.47656 5.56445C8.69531 6.03841 8.89583 6.53971 9.07812 7.06836C9.41536 7.02279 9.73893 7 10.0488 7C10.7507 7.00911 11.4753 7.11849 12.2227 7.32812C12.2409 7.11849 12.25 7.00911 12.25 7C12.25 6.22526 12.0905 5.49609 11.7715 4.8125C11.4525 4.12891 11.0104 3.54102 10.4453 3.04883Z"
									fill="white" />
							</svg>