<svg width="60" height="60" viewBox="0 0 60 60" fill="none" xmlns="http://www.w3.org/2000/svg">
<circle cx="30" cy="30" r="30" fill="white"/>
<path fill-rule="evenodd" clip-rule="evenodd" d="M21 38H18.7604C17.2001 38 15.9003 36.804 15.7708 35.2491L15.2708 29.2491C15.125 27.5001 16.5053 26 18.2604 26H21V29H19C18.4477 29 18 29.4477 18 30V34C18 34.5523 18.4477 35 19 35H21V38Z" fill="#D9A6FD"/>
<path d="M41 42V22H20V42H41Z" fill="#EFD2FE"/>
<ellipse cx="30.5" cy="22" rx="10.5" ry="3" fill="#D9A6FD"/>
<path fill-rule="evenodd" clip-rule="evenodd" d="M21.4048 23.5C23.2203 22.6033 26.6136 22 30.5001 22C34.3865 22 37.7799 22.6033 39.5954 23.5C37.7799 24.3967 34.3866 25 30.5001 25C26.6136 25 23.2203 24.3967 21.4048 23.5Z" fill="#C17AFC"/>
<ellipse cx="30.5" cy="42" rx="10.5" ry="3" fill="#EFD2FE"/>
<path opacity="0.3" fill-rule="evenodd" clip-rule="evenodd" d="M31.5996 13.5C30.8717 15.0188 29.8994 16.3938 29.4772 17.3891C28.9939 18.3844 29.0609 19 29 19C29.0609 19 27.6941 18.3844 26.8775 17.3891C25.9998 16.3938 25.6725 15.0188 26.4004 13.5C27.1282 11.9812 28.1006 10.6063 28.5227 9.61092C29.006 8.61558 28.939 8 29 8C28.9391 8 30.3059 8.61558 31.1224 9.61092C32.0002 10.6063 32.3275 11.9812 31.5996 13.5Z" fill="white"/>
<path opacity="0.3" fill-rule="evenodd" clip-rule="evenodd" d="M34.7998 16C34.4359 16.8284 33.9497 17.5784 33.7386 18.1213C33.497 18.6642 33.5305 19 33.5 19C33.5305 19 32.847 18.6642 32.4388 18.1213C31.9999 17.5784 31.8363 16.8284 32.2002 16C32.5641 15.1716 33.0503 14.4216 33.2614 13.8787C33.503 13.3358 33.4695 13 33.5 13C33.4696 13 34.1529 13.3358 34.5612 13.8787C35.0001 14.4216 35.1638 15.1716 34.7998 16Z" fill="white"/>
<path d="M36.7983 31.1203C35.4131 27.5765 30.9112 29.1608 30.5 30.9327C29.9373 29.0566 25.5436 27.6599 24.2017 31.1203C22.7083 34.9768 29.9806 38.4372 30.5 39C31.0194 38.5414 38.2917 34.9142 36.7983 31.1203Z" fill="white"/>
</svg>
