<svg width="60" height="60" viewBox="0 0 60 60" fill="none" xmlns="http://www.w3.org/2000/svg">
<circle cx="30" cy="30" r="30" fill="white"/>
<path d="M23 39H34V45C34 45.5523 33.5523 46 33 46H24C23.4477 46 23 45.5523 23 45V39Z" fill="#A95AFC"/>
<path d="M23 24L20.2305 17.6697C19.8087 16.7057 18.7528 16.1868 17.7319 16.442C16.5233 16.7442 15.8215 18.0047 16.2012 19.1912L19.5 29.5L19.866 35.7227C19.9523 37.1897 20.574 38.574 21.613 39.6131L23 41H32.5778C34.1572 41 35.7013 40.5325 37.0154 39.6564L38 39L42 34L43.7105 32.8597C44.4324 32.3784 44.649 31.415 44.2026 30.671C43.7964 29.994 42.9623 29.7068 42.2254 29.9902L37 32V29L40.5442 16.5954C40.7991 15.7033 40.3061 14.7687 39.4259 14.4753C38.6077 14.2026 37.7135 14.573 37.3278 15.3443L33 24H23Z" fill="#EFD2FE"/>
<path d="M23 23.5C23 22.1193 24.1193 21 25.5 21C26.8807 21 28 22.1193 28 23.5V28.5C28 29.8807 26.8807 31 25.5 31C24.1193 31 23 29.8807 23 28.5V23.5Z" fill="#F8F0FF"/>
<path d="M28 23.5C28 22.1193 29.1193 21 30.5 21C31.8807 21 33 22.1193 33 23.5V28.5C33 29.8807 31.8807 31 30.5 31C29.1193 31 28 29.8807 28 28.5V23.5Z" fill="#F8F0FF"/>
</svg>
