<svg width="60" height="60" viewBox="0 0 60 60" fill="none" xmlns="http://www.w3.org/2000/svg">
<circle cx="30" cy="30" r="30" fill="white"/>
<mask id="mask0" mask-type="alpha" maskUnits="userSpaceOnUse" x="0" y="0" width="60" height="60">
<circle cx="30" cy="30" r="30" fill="white"/>
</mask>
<g mask="url(#mask0)">
<mask id="mask1" mask-type="alpha" maskUnits="userSpaceOnUse" x="11" y="11" width="38" height="38">
<circle cx="30" cy="30" r="19" fill="white"/>
</mask>
<g mask="url(#mask1)">
<path d="M15 26H44V51C44 54.866 40.866 58 37 58H22C18.134 58 15 54.866 15 51V26Z" fill="#D9A6FD"/>
</g>
</g>
<rect x="49" y="26" width="1" height="8" fill="#C17AFC"/>
<path d="M7.78885 25.8944C7.0518 25.5259 7.05181 24.4741 7.78885 24.1056L28.6584 13.6708C29.5029 13.2485 30.4971 13.2485 31.3416 13.6708L52.2112 24.1056C52.9482 24.4741 52.9482 25.5259 52.2112 25.8944L31.3416 36.3292C30.4971 36.7515 29.5029 36.7515 28.6584 36.3292L7.78885 25.8944Z" fill="#F8F0FF"/>
<path d="M47.6868 38.5962L49 34H50L51.3132 38.5962C51.6574 39.8008 50.7529 41 49.5 41C48.2471 41 47.3426 39.8008 47.6868 38.5962Z" fill="#C17AFC"/>
<mask id="mask2" mask-type="alpha" maskUnits="userSpaceOnUse" x="7" y="13" width="46" height="24">
<path d="M7.78885 25.8944C7.0518 25.5259 7.05181 24.4741 7.78885 24.1056L29.1056 13.4472C29.6686 13.1657 30.3314 13.1657 30.8944 13.4472L52.2112 24.1056C52.9482 24.4741 52.9482 25.5259 52.2112 25.8944L30.8944 36.5528C30.3314 36.8343 29.6686 36.8343 29.1056 36.5528L7.78885 25.8944Z" fill="#F8F0FF"/>
</mask>
<g mask="url(#mask2)">
<path fill-rule="evenodd" clip-rule="evenodd" d="M51.0824 22.4932L30.0824 25.9932L29.918 25.0068L50.918 21.5068L51.0824 22.4932Z" fill="#C17AFC"/>
</g>
<ellipse cx="30" cy="25.5" rx="4" ry="1.5" fill="#C17AFC"/>
</svg>
