<svg width="15" height="15" viewBox="0 0 15 15" fill="none" xmlns="http://www.w3.org/2000/svg">
<path d="M11.1094 8.8125H10.4531C10.3661 8.8125 10.2826 8.84707 10.2211 8.90861C10.1596 8.97014 10.125 9.0536 10.125 9.14062V11.4375H3.5625V4.875H6.51562C6.60265 4.875 6.68611 4.84043 6.74764 4.77889C6.80918 4.71736 6.84375 4.6339 6.84375 4.54688V3.89062C6.84375 3.8036 6.80918 3.72014 6.74764 3.65861C6.68611 3.59707 6.60265 3.5625 6.51562 3.5625H3.23438C2.9733 3.5625 2.72292 3.66621 2.53832 3.85082C2.35371 4.03542 2.25 4.2858 2.25 4.54688V11.7656C2.25 12.0267 2.35371 12.2771 2.53832 12.4617C2.72292 12.6463 2.9733 12.75 3.23438 12.75H10.4531C10.7142 12.75 10.9646 12.6463 11.1492 12.4617C11.3338 12.2771 11.4375 12.0267 11.4375 11.7656V9.14062C11.4375 9.0536 11.4029 8.97014 11.3414 8.90861C11.2799 8.84707 11.1964 8.8125 11.1094 8.8125ZM12.2578 2.25H9.63281C9.19456 2.25 8.97554 2.78136 9.28418 3.09082L10.0169 3.82356L5.01855 8.82009C4.97267 8.86581 4.93626 8.92015 4.91142 8.97997C4.88658 9.0398 4.87379 9.10394 4.87379 9.16872C4.87379 9.2335 4.88658 9.29764 4.91142 9.35747C4.93626 9.41729 4.97267 9.47163 5.01855 9.51735L5.48347 9.98145C5.52919 10.0273 5.58353 10.0637 5.64335 10.0886C5.70318 10.1134 5.76732 10.1262 5.8321 10.1262C5.89688 10.1262 5.96102 10.1134 6.02085 10.0886C6.08067 10.0637 6.13501 10.0273 6.18073 9.98145L11.1766 4.9841L11.9092 5.71582C12.2168 6.02344 12.75 5.80811 12.75 5.36719V2.74219C12.75 2.61165 12.6981 2.48646 12.6058 2.39416C12.5135 2.30186 12.3883 2.25 12.2578 2.25V2.25Z" fill="#58BAFC"/>
</svg>
