<svg width="30" height="30" viewBox="0 0 30 30" fill="none" xmlns="http://www.w3.org/2000/svg">
<g opacity="0.5">
<path d="M25.0292 21.11L21.7861 17.8592C21.1401 17.2143 20.0704 17.2339 19.4019 17.9041L17.768 19.5414C17.6648 19.4844 17.5579 19.4248 17.4456 19.3616C16.4138 18.7886 15.0016 18.0033 13.5156 16.5128C12.0252 15.0191 11.2409 13.6016 10.6674 12.5668C10.6069 12.4572 10.5489 12.3515 10.4917 12.2511L11.5883 11.1537L12.1274 10.6126C12.7969 9.94144 12.8153 8.86958 12.1709 8.22288L8.92775 4.97168C8.28329 4.32588 7.21307 4.34547 6.54357 5.01667L5.62955 5.93802L5.65453 5.96287C5.34804 6.35483 5.09193 6.80689 4.90135 7.29438C4.72566 7.75842 4.61628 8.20123 4.56627 8.64494C4.13803 12.2031 5.76035 15.4551 10.1631 19.8679C16.249 25.9672 21.1535 25.5064 21.3651 25.4839C21.8259 25.4287 22.2675 25.3183 22.7163 25.1437C23.1985 24.9549 23.6493 24.6985 24.0401 24.392L24.0601 24.4098L24.986 23.501C25.6541 22.83 25.6734 21.7577 25.0292 21.11Z" fill="white"/>
</g>
</svg>
