<svg width="30" height="30" viewBox="0 0 30 30" fill="none" xmlns="http://www.w3.org/2000/svg">
<path d="M13.3823 20.3277L9.55708 18.4654L8.60073 15.6468V12.1739L9.55708 9.80826L4.42297 7.44266L14.7914 3.86911L25.1096 7.44266L20.0763 9.55663L21.4353 12.1739V15.0429L20.3783 17.7105L17.7611 20.3277H13.3823Z" fill="#EFD2FE"/>
<path d="M26.5465 6.61057L15.2965 2.86057C15.104 2.79648 14.896 2.79648 14.7035 2.86057L3.47156 6.60471L3.47039 6.60506L3.45352 6.61069C3.45023 6.61186 3.4473 6.61362 3.44414 6.61479C3.40349 6.62874 3.36387 6.6455 3.32555 6.66495C3.32121 6.66729 3.31664 6.66905 3.3123 6.67139C3.27441 6.69163 3.23796 6.71446 3.2032 6.73971C3.19558 6.74522 3.18804 6.75085 3.18059 6.75659C3.14672 6.78218 3.11462 6.81001 3.08449 6.83991C3.0818 6.84284 3.07934 6.84588 3.07664 6.8487C3.04889 6.8776 3.02302 6.90825 2.99918 6.94045C2.99426 6.94702 2.98922 6.95335 2.98453 6.96002C2.95993 6.9948 2.93773 7.03121 2.91809 7.06901C2.91504 7.07487 2.91246 7.08073 2.90953 7.08659C2.8912 7.12366 2.87534 7.16191 2.86207 7.20108C2.8609 7.20471 2.85926 7.20823 2.85809 7.21198C2.84485 7.25359 2.83455 7.29608 2.82727 7.33913C2.82574 7.34815 2.82445 7.35717 2.82316 7.36608C2.81642 7.41042 2.81286 7.45518 2.8125 7.50003V16.875C2.8125 17.1237 2.91127 17.3621 3.08709 17.5379C3.2629 17.7138 3.50136 17.8125 3.75 17.8125C3.99864 17.8125 4.2371 17.7138 4.41291 17.5379C4.58873 17.3621 4.6875 17.1237 4.6875 16.875V8.80081L8.62324 10.1127C7.57989 11.7975 7.24604 13.8268 7.69468 15.757C8.14332 17.6872 9.33795 19.3613 11.0174 20.4132C8.78103 21.2588 6.87272 22.7957 5.56992 24.8004C5.501 24.9035 5.45322 25.0193 5.42935 25.141C5.40548 25.2627 5.40599 25.3879 5.43086 25.5094C5.45572 25.6309 5.50445 25.7463 5.57422 25.8488C5.64398 25.9513 5.7334 26.039 5.83729 26.1068C5.94118 26.1745 6.05748 26.2209 6.17944 26.2434C6.30141 26.2659 6.42662 26.2639 6.54783 26.2377C6.66904 26.2114 6.78383 26.1614 6.88556 26.0904C6.98729 26.0195 7.07393 25.9291 7.14047 25.8244C7.99218 24.5159 9.15711 23.4408 10.5296 22.6966C11.902 21.9523 13.4386 21.5625 14.9998 21.5625C16.5611 21.5625 18.0976 21.9523 19.4701 22.6966C20.8425 23.4408 22.0075 24.5159 22.8592 25.8244C22.9261 25.9282 23.0129 26.0178 23.1145 26.088C23.2162 26.1582 23.3307 26.2076 23.4515 26.2334C23.5723 26.2591 23.697 26.2608 23.8185 26.2382C23.9399 26.2156 24.0557 26.1693 24.1592 26.1018C24.2627 26.0344 24.3518 25.9471 24.4214 25.8451C24.4911 25.7431 24.5399 25.6283 24.565 25.5074C24.5902 25.3865 24.5912 25.2617 24.568 25.1404C24.5448 25.0191 24.4978 24.9035 24.4298 24.8004C23.1271 22.7957 21.2188 21.2589 18.9825 20.4133C20.662 19.3614 21.8566 17.6873 22.3053 15.7571C22.7539 13.8268 22.42 11.7975 21.3766 10.1127L26.5465 8.38948C26.7332 8.32728 26.8956 8.20791 27.0107 8.04827C27.1258 7.88863 27.1877 7.69682 27.1877 7.50003C27.1877 7.30323 27.1258 7.11142 27.0107 6.95178C26.8956 6.79214 26.7332 6.67277 26.5465 6.61057V6.61057ZM20.625 14.0625C20.6252 14.9518 20.4146 15.8284 20.0104 16.6206C19.6063 17.4127 19.02 18.0977 18.2999 18.6193C17.5797 19.141 16.7461 19.4845 15.8675 19.6217C14.9888 19.7588 14.0902 19.6857 13.2453 19.4083C12.4004 19.1309 11.6333 18.6571 11.007 18.0258C10.3806 17.3946 9.91289 16.6238 9.64211 15.7768C9.37133 14.9297 9.30524 14.0305 9.44925 13.153C9.59326 12.2755 9.94328 11.4446 10.4706 10.7285L14.7035 12.1395C14.896 12.2036 15.104 12.2036 15.2965 12.1395L19.5294 10.7285C20.2419 11.694 20.6259 12.8626 20.625 14.0625V14.0625ZM19.5354 8.75006C19.533 8.75088 19.5307 8.75147 19.5284 8.75241L15 10.2618L10.4715 8.75241C10.4692 8.75147 10.4668 8.75077 10.4645 8.75006L6.71473 7.50003L15 4.73827L23.2854 7.50003L19.5354 8.75006Z" fill="#842FFB"/>
</svg>
