<svg width="60" height="60" viewBox="0 0 60 60" fill="none" xmlns="http://www.w3.org/2000/svg">
<circle cx="30" cy="30" r="30" fill="white"/>
<path d="M21.5 39H35L33.8388 44.4191C33.6412 45.3412 32.8262 46 31.8832 46H24.6168C23.6738 46 22.8588 45.3412 22.6612 44.4191L21.5 39Z" fill="#C766FF"/>
<path d="M14.8464 18.8094C14.6362 17.7682 15.1603 16.7173 16.1185 16.2587C17.3752 15.6572 18.8749 16.2919 19.3182 17.6128L22.3757 26.7237C23.484 30.0262 21.3704 33.5355 17.933 34.1004L14.8464 18.8094Z" fill="#F2CCFF"/>
<path d="M36.1679 15.5483C36.6225 14.3505 37.9325 13.7153 39.1545 14.1002C40.3832 14.4872 41.0926 15.7695 40.7677 17.016L37.9462 27.8388C37.5266 29.4483 35.8849 30.4157 34.2737 30.003C32.5282 29.5558 31.5598 27.6897 32.1992 26.005L36.1679 15.5483Z" fill="#F2CCFF"/>
<path d="M17.0356 29.2341C16.5731 26.8383 18.1992 24.5398 20.6123 24.1785L33.195 22.2944C35.9143 21.8872 38.3092 24.1075 38.1085 26.8499L37.2957 37.9582C37.129 40.2366 35.2319 42 32.9474 42H24.7496C21.7019 42 19.0826 39.838 18.5049 36.8455L17.0356 29.2341Z" fill="#F2CCFF"/>
<path d="M21.549 23.9123C21.369 22.1128 22.7822 20.5513 24.5907 20.5513C26.2789 20.5513 27.6475 21.9199 27.6475 23.6081V28.4608C27.6475 30.0154 26.3873 31.2756 24.8327 31.2756C23.3866 31.2756 22.1757 30.1798 22.0319 28.7409L21.549 23.9123Z" fill="#FCF0FF"/>
<path d="M27.6475 23.6081C27.6475 21.9199 29.0161 20.5513 30.7043 20.5513C32.5128 20.5513 33.9259 22.1128 33.746 23.9123L33.2631 28.7409C33.1192 30.1798 31.9084 31.2756 30.4623 31.2756C28.9077 31.2756 27.6475 30.0154 27.6475 28.4608V23.6081Z" fill="#FCF0FF"/>
<path d="M44.0001 29.5002C46.5002 30.3166 46.4308 33.0395 43.0001 35C39.5 37.0001 38.0002 40.14 35.0001 41.1399C31.8733 42.182 31.0002 36 31.0002 36C31.0002 36 40.937 28.5 44.0001 29.5002Z" fill="#F2CCFF"/>
</svg>
