<svg width="82" height="81" viewBox="0 0 82 81" fill="none" xmlns="http://www.w3.org/2000/svg">
<path d="M81.5 40.5C81.5 35.1815 80.4524 29.915 78.4171 25.0013C76.3818 20.0876 73.3986 15.6229 69.6378 11.8622C65.8771 8.1014 61.4124 5.11819 56.4987 3.08288C51.585 1.04756 46.3185 -2.32481e-07 41 0C35.6815 2.32481e-07 30.415 1.04756 25.5013 3.08288C20.5876 5.1182 16.1229 8.1014 12.3622 11.8622C8.6014 15.623 5.61819 20.0876 3.58288 25.0013C1.54756 29.915 0.5 35.1815 0.5 40.5L22.9854 40.5C22.9854 38.1343 23.4514 35.7918 24.3567 33.6061C25.262 31.4205 26.589 29.4346 28.2618 27.7618C29.9346 26.089 31.9205 24.762 34.1061 23.8567C36.2918 22.9514 38.6343 22.4854 41 22.4854C43.3657 22.4854 45.7082 22.9514 47.8939 23.8567C50.0795 24.762 52.0654 26.089 53.7382 27.7618C55.411 29.4346 56.738 31.4205 57.6433 33.6061C58.5486 35.7918 59.0146 38.1343 59.0146 40.5H81.5Z" fill="#FCF0FF"/>
<path d="M69.6454 7.48105C70.1513 7.0632 70.8918 7.09838 71.3558 7.56231C71.8197 8.02624 71.8549 8.76683 71.437 9.27265L44.7663 41.5583C42.7903 43.9502 39.1842 44.1215 36.9904 41.9277C34.7965 39.7339 34.9679 36.1277 37.3598 34.1518L69.6454 7.48105Z" fill="url(#paint0_linear)"/>
<defs>
<linearGradient id="paint0_linear" x1="90.839" y1="-12.4746" x2="53.193" y2="-25.6424" gradientUnits="userSpaceOnUse">
<stop stop-color="#33AAFF"/>
<stop offset="1" stop-color="#CC30CF"/>
</linearGradient>
</defs>
</svg>
