<svg width="200" height="200" viewBox="0 0 200 200" fill="none" xmlns="http://www.w3.org/2000/svg">
<circle cx="100" cy="100" r="100" fill="#FCF0FF"/>
<mask id="mask0" mask-type="alpha" maskUnits="userSpaceOnUse" x="0" y="0" width="200" height="200">
<circle cx="100" cy="100" r="100" fill="#B333CC"/>
<circle cx="100" cy="100" r="100" fill="url(#paint0_radial)"/>
<circle cx="100" cy="100" r="100" fill="url(#paint1_radial)"/>
<circle cx="100" cy="100" r="100" fill="url(#paint2_radial)"/>
</mask>
<g mask="url(#mask0)">
<rect x="78" y="116" width="44" height="112" fill="white"/>
<circle cx="69" cy="124" r="11" fill="white"/>
<circle cx="131" cy="124" r="11" fill="white"/>
<rect x="69" y="113" width="62" height="11" fill="white"/>
<rect x="99" y="145" width="2" height="84" rx="1" fill="#FCF0FF"/>
<rect x="87" y="145" width="2" height="84" rx="1" fill="#FCF0FF"/>
<rect x="111" y="145" width="2" height="84" rx="1" fill="#FCF0FF"/>
<path fill-rule="evenodd" clip-rule="evenodd" d="M127.146 78.8536C127.461 78.5386 127.238 78 126.793 78H112.15C111.943 78 111.758 78.1277 111.683 78.321L102.578 102.069C102.385 102.573 103.017 102.983 103.399 102.601L127.146 78.8536ZM96.6011 102.601C96.9828 102.983 97.6147 102.573 97.4215 102.069L88.3163 78.321C88.2422 78.1277 88.0565 78 87.8494 78H73.207C72.7615 78 72.5385 78.5386 72.8534 78.8536L96.6011 102.601ZM72.398 75.194C72.1437 75.5225 72.3779 76 72.7934 76H86.2173C86.607 76 86.8469 75.574 86.6449 75.2408L80.7495 65.5161C80.5676 65.2161 80.1413 65.1918 79.9266 65.4692L72.398 75.194ZM83.057 64C82.6674 64 82.4275 64.426 82.6295 64.7592L88.7047 74.7806C88.8818 75.0727 89.2933 75.1052 89.514 74.8443L97.9936 64.823C98.2685 64.498 98.0376 64 97.6119 64H83.057ZM102.388 64C101.962 64 101.731 64.498 102.006 64.823L110.486 74.8443C110.706 75.1051 111.118 75.0727 111.295 74.7806L117.37 64.7592C117.572 64.426 117.332 64 116.943 64H102.388ZM120.073 65.4692C119.858 65.1917 119.432 65.216 119.25 65.5161L113.355 75.2408C113.153 75.574 113.393 76 113.782 76H127.206C127.622 76 127.856 75.5225 127.602 75.194L120.073 65.4692ZM91.0624 78C90.7117 78 90.47 78.3516 90.5955 78.679L99.533 101.989C99.6971 102.417 100.303 102.417 100.467 101.989L109.404 78.679C109.53 78.3516 109.288 78 108.937 78H91.0624ZM99.6182 65.9992C99.8179 65.7632 100.182 65.7632 100.382 65.9992L108.147 75.1771C108.422 75.502 108.191 76 107.766 76H92.234C91.8083 76 91.5774 75.502 91.8523 75.1771L99.6182 65.9992Z" fill="url(#paint3_linear)"/>
</g>
<circle cx="78" cy="140" r="3" fill="white"/>
<circle cx="122" cy="140" r="3" fill="white"/>
<defs>
<radialGradient id="paint0_radial" cx="0" cy="0" r="1" gradientUnits="userSpaceOnUse" gradientTransform="translate(34.2188 309.674) rotate(-79.2479) scale(286.995 271.71)">
<stop offset="0.150617" stop-color="#1AC4E6"/>
<stop offset="0.379643" stop-color="#1AA1E6"/>
<stop offset="1" stop-color="#BC36C7" stop-opacity="0"/>
</radialGradient>
<radialGradient id="paint1_radial" cx="0" cy="0" r="1" gradientUnits="userSpaceOnUse" gradientTransform="translate(144.041 -28.8637) rotate(105.313) scale(171.87 75.2252)">
<stop stop-color="#FF66E6"/>
<stop offset="0.980994" stop-color="#F20DCC" stop-opacity="0"/>
</radialGradient>
<radialGradient id="paint2_radial" cx="0" cy="0" r="1" gradientUnits="userSpaceOnUse" gradientTransform="translate(177.876 200) rotate(-125.041) scale(114.336 82.7799)">
<stop stop-color="#5E1AE6"/>
<stop offset="1" stop-color="#8B34A5" stop-opacity="0"/>
</radialGradient>
<linearGradient id="paint3_linear" x1="98.1249" y1="41.7182" x2="75.502" y2="107.172" gradientUnits="userSpaceOnUse">
<stop stop-color="#33AAFF"/>
<stop offset="1" stop-color="#CC30CF"/>
</linearGradient>
</defs>
</svg>
