<svg width="9" height="15" viewBox="0 0 9 15" fill="none" xmlns="http://www.w3.org/2000/svg">
<path d="M8.52 10.225C8.52 8.215 6.735 7.735 5.04 7.33V3.355C5.91 3.4 6.87 3.685 7.71 4.225L8.085 3.34C7.29 2.785 6.165 2.455 5.04 2.41V0.699999H4.29V2.425C1.995 2.605 0.96 3.85 0.96 5.29C0.96 7.27 2.64 7.78 4.29 8.185V12.13C3.03 12.055 1.83 11.545 1.14 10.87L0.705 11.725C1.44 12.475 2.82 13.015 4.29 13.09V14.8H5.04V13.075C7.425 12.94 8.52 11.68 8.52 10.225ZM2.055 5.26C2.055 4.315 2.745 3.52 4.29 3.385V7.135C3.06 6.82 2.055 6.4 2.055 5.26ZM5.04 12.13V8.38C6.33 8.695 7.425 9.1 7.425 10.285C7.425 11.245 6.69 12.01 5.04 12.13Z" fill="#9D98A3"/>
</svg>
