<svg width="266" height="321" viewBox="0 0 266 321" fill="none" xmlns="http://www.w3.org/2000/svg">
<g opacity="0.15">
<path d="M263.348 153.402C239.348 291.402 122.347 324.402 112.347 420.402C102.347 516.402 67.3142 576.583 -67.1692 596.402C-201.653 616.22 -250.169 575.402 -324.169 488.402C-398.169 401.402 -397.214 257.048 -343.653 161.402C-273.653 36.4019 -138.653 -4.59833 -41.6526 0.401672C55.3474 5.40167 287.347 15.4019 263.348 153.402Z" fill="#B333CC"/>
<path d="M263.348 153.402C239.348 291.402 122.347 324.402 112.347 420.402C102.347 516.402 67.3142 576.583 -67.1692 596.402C-201.653 616.22 -250.169 575.402 -324.169 488.402C-398.169 401.402 -397.214 257.048 -343.653 161.402C-273.653 36.4019 -138.653 -4.59833 -41.6526 0.401672C55.3474 5.40167 287.347 15.4019 263.348 153.402Z" fill="url(#paint0_radial)"/>
<path d="M263.348 153.402C239.348 291.402 122.347 324.402 112.347 420.402C102.347 516.402 67.3142 576.583 -67.1692 596.402C-201.653 616.22 -250.169 575.402 -324.169 488.402C-398.169 401.402 -397.214 257.048 -343.653 161.402C-273.653 36.4019 -138.653 -4.59833 -41.6526 0.401672C55.3474 5.40167 287.347 15.4019 263.348 153.402Z" fill="url(#paint1_radial)"/>
<path d="M263.348 153.402C239.348 291.402 122.347 324.402 112.347 420.402C102.347 516.402 67.3142 576.583 -67.1692 596.402C-201.653 616.22 -250.169 575.402 -324.169 488.402C-398.169 401.402 -397.214 257.048 -343.653 161.402C-273.653 36.4019 -138.653 -4.59833 -41.6526 0.401672C55.3474 5.40167 287.347 15.4019 263.348 153.402Z" fill="url(#paint2_radial)"/>
</g>
<defs>
<radialGradient id="paint0_radial" cx="0" cy="0" r="1" gradientUnits="userSpaceOnUse" gradientTransform="translate(154.367 -329.748) rotate(101.549) scale(865.255 876.68)">
<stop offset="0.150617" stop-color="#1AC4E6"/>
<stop offset="0.379643" stop-color="#1AA1E6"/>
<stop offset="1" stop-color="#BC36C7" stop-opacity="0"/>
</radialGradient>
<radialGradient id="paint1_radial" cx="0" cy="0" r="1" gradientUnits="userSpaceOnUse" gradientTransform="translate(-200.952 688.107) rotate(-73.5829) scale(519.587 242.053)">
<stop stop-color="#FF66E6"/>
<stop offset="0.980994" stop-color="#F20DCC" stop-opacity="0"/>
</radialGradient>
<radialGradient id="paint2_radial" cx="0" cy="0" r="1" gradientUnits="userSpaceOnUse" gradientTransform="translate(-310.419) rotate(52.9604) scale(352.602 261.113)">
<stop stop-color="#5E1AE6"/>
<stop offset="1" stop-color="#8B34A5" stop-opacity="0"/>
</radialGradient>
</defs>
</svg>
