<svg width="75" height="45" viewBox="0 0 75 45" fill="none" xmlns="http://www.w3.org/2000/svg">
<path d="M37.5 -0.00012207C31.0609 0.0284404 24.3866 1.596 18.0685 4.59719C13.3774 6.91732 8.80562 10.1907 4.83712 14.231C2.888 16.2934 0.401938 19.2798 0 22.4661C0.0475 25.2262 3.00812 28.6329 4.83712 30.7013C8.55856 34.5829 13.0113 37.7649 18.0685 40.3375C23.9604 43.1969 30.482 44.8433 37.5 44.9348C43.9452 44.9058 50.618 43.3202 56.9291 40.3375C61.6203 38.0174 66.1943 34.7416 70.1629 30.7013C72.1119 28.6389 74.598 25.6524 75 22.4661C74.9525 19.7061 71.9919 16.2992 70.1629 14.2309C66.4414 10.3493 61.9864 7.16969 56.9291 4.59706C51.0403 1.73981 44.5026 0.104815 37.5 -0.00012207Z" fill="#FCF0FF"/>
<circle cx="37" cy="22" r="16" fill="white"/>
<circle cx="37" cy="22" r="9" fill="url(#paint0_linear)"/>
<defs>
<linearGradient id="paint0_linear" x1="36.391" y1="2.65" x2="22.8713" y2="30.0036" gradientUnits="userSpaceOnUse">
<stop stop-color="#33AAFF"/>
<stop offset="1" stop-color="#CC30CF"/>
</linearGradient>
</defs>
</svg>
