<svg width="20" height="11" viewBox="0 0 20 11" fill="none" xmlns="http://www.w3.org/2000/svg">
<path d="M19.3985 9.5311C19.3753 9.48536 19.3537 9.44742 19.3336 9.41702C19.001 8.86934 18.3656 8.19709 17.4275 7.4001L17.4077 7.38185L17.3978 7.3729L17.3878 7.36373H17.3777C16.952 6.99261 16.6824 6.74307 16.5695 6.61532C16.3629 6.37195 16.3166 6.12561 16.4295 5.87601C16.5093 5.68743 16.8089 5.28918 17.3277 4.6807C17.6005 4.35823 17.8167 4.09977 17.9763 3.90506C19.1273 2.50572 19.6263 1.61153 19.4732 1.22213L19.4138 1.13113C19.3738 1.07634 19.2707 1.02622 19.1046 0.980518C18.938 0.934907 18.7252 0.927364 18.4657 0.95776L15.5917 0.975915C15.5452 0.960829 15.4787 0.962235 15.3921 0.980518C15.3056 0.998801 15.2623 1.00797 15.2623 1.00797L15.2123 1.03083L15.1726 1.05828C15.1393 1.07644 15.1027 1.10837 15.0628 1.15401C15.023 1.1995 14.9898 1.25287 14.9632 1.3137C14.6503 2.04984 14.2946 2.73426 13.8953 3.36693C13.6491 3.74419 13.4231 4.07114 13.2166 4.34797C13.0104 4.6247 12.8374 4.82859 12.6978 4.95929C12.558 5.09011 12.4318 5.19492 12.3185 5.27409C12.2054 5.35329 12.119 5.38676 12.0592 5.37452C11.9993 5.36228 11.9428 5.35013 11.8894 5.33798C11.7963 5.2832 11.7214 5.20869 11.665 5.1144C11.6083 5.02011 11.5701 4.90144 11.5502 4.75847C11.5303 4.6154 11.5186 4.49234 11.5152 4.38888C11.5121 4.28554 11.5135 4.13938 11.5203 3.9508C11.5272 3.76212 11.5303 3.63446 11.5303 3.56753C11.5303 3.33631 11.5352 3.08537 11.5451 2.81464C11.5552 2.54392 11.5633 2.32941 11.5701 2.17139C11.5769 2.01321 11.5801 1.84585 11.5801 1.66941C11.5801 1.49298 11.5683 1.35461 11.5451 1.25418C11.5222 1.15388 11.487 1.05653 11.4406 0.962139C11.3939 0.867849 11.3256 0.794909 11.236 0.74313C11.1462 0.691414 11.0346 0.650373 10.9017 0.619881C10.5491 0.546909 10.1001 0.507435 9.55442 0.501298C8.31706 0.489153 7.52199 0.56222 7.16938 0.720404C7.02968 0.787238 6.90325 0.878556 6.79021 0.99407C6.67043 1.12796 6.65372 1.20103 6.7402 1.21305C7.13943 1.26774 7.42206 1.39856 7.5884 1.60539L7.64834 1.71499C7.69497 1.79407 7.74152 1.93407 7.78812 2.13479C7.83464 2.33552 7.86466 2.55757 7.87787 2.8008C7.91108 3.24499 7.91108 3.62522 7.87787 3.94153C7.84456 4.25796 7.81311 4.5043 7.78308 4.68073C7.75306 4.85717 7.70818 5.00014 7.64834 5.10961C7.5884 5.21911 7.54851 5.28604 7.52852 5.31034C7.50856 5.33463 7.49193 5.34994 7.47871 5.35595C7.39224 5.38625 7.30231 5.40169 7.20923 5.40169C7.11601 5.40169 7.00297 5.35905 6.86994 5.27383C6.73695 5.18862 6.59892 5.07157 6.45586 4.9225C6.31279 4.77339 6.15145 4.56503 5.97176 4.29737C5.79221 4.02971 5.60591 3.71338 5.41297 3.34836L5.25334 3.08364C5.15355 2.91334 5.01724 2.66538 4.84425 2.33996C4.67117 2.01442 4.51818 1.69952 4.38518 1.39533C4.33202 1.26758 4.25215 1.17031 4.14572 1.10338L4.09578 1.07593C4.06257 1.05164 4.00927 1.02584 3.93615 0.998353C3.86292 0.970897 3.78651 0.951208 3.70661 0.939094L0.972293 0.957249C0.69288 0.957249 0.503297 1.01513 0.403472 1.13074L0.363521 1.18543C0.343562 1.21589 0.333496 1.26454 0.333496 1.3315C0.333496 1.39843 0.353454 1.48058 0.393405 1.57784C0.792566 2.43572 1.22664 3.26308 1.69564 4.06004C2.16464 4.85701 2.57219 5.49898 2.91804 5.98539C3.26397 6.47215 3.61657 6.93156 3.97585 7.36338C4.33513 7.79535 4.57295 8.07218 4.68931 8.1938C4.80581 8.31565 4.89731 8.40674 4.96383 8.46756L5.21336 8.68654C5.37302 8.83258 5.60748 9.00748 5.91685 9.21124C6.22629 9.41514 6.56886 9.61586 6.94474 9.81375C7.32069 10.0113 7.75806 10.1725 8.25708 10.2972C8.75603 10.422 9.24166 10.4721 9.71405 10.448H10.8617C11.0944 10.4296 11.2708 10.3626 11.3906 10.2471L11.4303 10.2014C11.457 10.1651 11.482 10.1087 11.5051 10.0328C11.5284 9.95672 11.54 9.87294 11.54 9.78181C11.5332 9.52026 11.555 9.28454 11.6048 9.07467C11.6545 8.86486 11.7112 8.70668 11.7746 8.60015C11.838 8.49371 11.9095 8.40389 11.9891 8.33108C12.0689 8.25811 12.1257 8.21391 12.159 8.19869C12.1922 8.18338 12.2186 8.173 12.2386 8.16676C12.3982 8.11811 12.5862 8.16523 12.8026 8.30833C13.0188 8.4513 13.2217 8.62783 13.4114 8.83763C13.601 9.04763 13.8288 9.28323 14.0949 9.54478C14.3611 9.80643 14.5939 10.0009 14.7934 10.1289L14.9929 10.2384C15.1262 10.3114 15.2991 10.3784 15.5121 10.4392C15.7246 10.5 15.9109 10.5152 16.0708 10.4848L18.6254 10.4484C18.878 10.4484 19.0746 10.4101 19.2141 10.3342C19.3538 10.2582 19.4369 10.1744 19.4636 10.0833C19.4903 9.99203 19.4918 9.88854 19.4687 9.77283C19.445 9.65741 19.4217 9.57671 19.3985 9.5311Z" fill="#45668E"/>
</svg>
