<svg width="16" height="16" viewBox="0 0 16 16" fill="none" xmlns="http://www.w3.org/2000/svg">
<path fill-rule="evenodd" clip-rule="evenodd" d="M7.41105 2.69662L8.00022 2.10745C8.78227 1.32729 9.84182 0.88916 10.9465 0.88916C12.0511 0.88916 13.1107 1.32729 13.8927 2.10745C14.6725 2.88972 15.1103 3.94919 15.1103 5.0537C15.1103 6.15822 14.6725 7.21769 13.8927 7.99995L12.1244 9.76746C11.3386 10.5541 10.2919 10.9883 9.17855 10.9883C8.06522 10.9883 7.01855 10.5541 6.23272 9.76746L5.64355 9.17829L6.82189 7.99995L7.41105 8.58912C8.35522 9.53329 10.0019 9.53329 10.9461 8.58912L12.7144 6.82162C13.1823 6.35223 13.4451 5.71648 13.4451 5.0537C13.4451 4.39093 13.1823 3.75518 12.7144 3.28579C12.2448 2.81828 11.6091 2.55581 10.9465 2.55581C10.2838 2.55581 9.64816 2.81828 9.17855 3.28579L8.58939 3.87495L7.41105 2.69662ZM9.17858 7.99996L8.58941 7.41079C7.64524 6.46663 5.99858 6.46663 5.05441 7.41079L3.28608 9.17829C2.81816 9.64769 2.55542 10.2834 2.55542 10.9462C2.55542 11.609 2.81816 12.2447 3.28608 12.7141C3.75568 13.1816 4.39135 13.4441 5.05399 13.4441C5.71664 13.4441 6.3523 13.1816 6.82191 12.7141L7.41108 12.125L8.58941 13.3033L8.00024 13.8925C7.61361 14.2797 7.15424 14.5867 6.64854 14.7958C6.14284 15.0049 5.60079 15.1119 5.05358 15.1108C4.50651 15.1118 3.96463 15.0047 3.45909 14.7956C2.95355 14.5865 2.4943 14.2796 2.10774 13.8925C1.32799 13.1102 0.890137 12.0507 0.890137 10.9462C0.890137 9.8417 1.32799 8.78222 2.10774 7.99996L3.87608 6.23246C4.66191 5.44579 5.70858 5.01163 6.82191 5.01163C7.93524 5.01163 8.98191 5.44579 9.76774 6.23246L10.3569 6.82163L9.17858 7.99996Z" fill="white"/>
</svg>
