<svg width="200" height="200" viewBox="0 0 200 200" fill="none" xmlns="http://www.w3.org/2000/svg">
<circle cx="100" cy="100" r="100" fill="#FCF0FF"/>
<mask id="mask0" mask-type="alpha" maskUnits="userSpaceOnUse" x="0" y="0" width="200" height="200">
<circle cx="100" cy="100" r="100" fill="#B333CC"/>
<circle cx="100" cy="100" r="100" fill="url(#paint0_radial)"/>
<circle cx="100" cy="100" r="100" fill="url(#paint1_radial)"/>
<circle cx="100" cy="100" r="100" fill="url(#paint2_radial)"/>
</mask>
<g mask="url(#mask0)">
<path d="M81 116C81 114.343 82.3431 113 84 113H116C117.657 113 119 114.343 119 116C119 117.657 117.657 119 116 119H84C82.3431 119 81 117.657 81 116Z" fill="white"/>
<path fill-rule="evenodd" clip-rule="evenodd" d="M99 41.6931V78.126C97.2748 78.5701 96 80.1362 96 82C96 84.2091 97.7909 86 100 86C102.209 86 104 84.2091 104 82C104 80.1362 102.725 78.5701 101 78.126V41.6931C105.3 63.5045 122 84 122 84C112 94 111 105 111 105H89C89 105 88 94 78 84C78 84 94.7001 63.5045 99 41.6931Z" fill="url(#paint3_linear)"/>
<path d="M83 119H117L127 224H73L83 119Z" fill="white"/>
<rect x="117" y="119" width="1" height="34" rx="0.5" transform="rotate(90 117 119)" fill="#FCF0FF"/>
</g>
<defs>
<radialGradient id="paint0_radial" cx="0" cy="0" r="1" gradientUnits="userSpaceOnUse" gradientTransform="translate(34.2188 309.674) rotate(-79.2479) scale(286.995 271.71)">
<stop offset="0.150617" stop-color="#1AC4E6"/>
<stop offset="0.379643" stop-color="#1AA1E6"/>
<stop offset="1" stop-color="#BC36C7" stop-opacity="0"/>
</radialGradient>
<radialGradient id="paint1_radial" cx="0" cy="0" r="1" gradientUnits="userSpaceOnUse" gradientTransform="translate(144.041 -28.8637) rotate(105.313) scale(171.87 75.2252)">
<stop stop-color="#FF66E6"/>
<stop offset="0.980994" stop-color="#F20DCC" stop-opacity="0"/>
</radialGradient>
<radialGradient id="paint2_radial" cx="0" cy="0" r="1" gradientUnits="userSpaceOnUse" gradientTransform="translate(177.876 200) rotate(-125.041) scale(114.336 82.7799)">
<stop stop-color="#5E1AE6"/>
<stop offset="1" stop-color="#8B34A5" stop-opacity="0"/>
</radialGradient>
<linearGradient id="paint3_linear" x1="98.5113" y1="5.29164" x2="41.9754" y2="84.7928" gradientUnits="userSpaceOnUse">
<stop stop-color="#33AAFF"/>
<stop offset="1" stop-color="#CC30CF"/>
</linearGradient>
</defs>
</svg>
