<svg width="36" height="61" viewBox="0 0 36 61" fill="none" xmlns="http://www.w3.org/2000/svg">
<path fill-rule="evenodd" clip-rule="evenodd" d="M26.3507 8.43634C25.2987 10.7477 23.8934 12.8402 23.2833 14.3548C22.5848 15.8695 22.6816 16.8063 22.5936 16.8063C22.6816 16.8063 20.7062 15.8695 19.526 14.3548C18.2575 12.8402 17.7845 10.7477 18.8364 8.43634C19.8883 6.12503 21.2937 4.03263 21.9038 2.51792C22.6023 1.00321 22.5054 0.0664062 22.5936 0.0664062C22.5056 0.0664062 24.4809 1.00321 25.661 2.51792C26.9296 4.03263 27.4027 6.12503 26.3507 8.43634Z" fill="#FCF0FF"/>
<path fill-rule="evenodd" clip-rule="evenodd" d="M17.2815 11.0342C16.4926 12.947 15.4386 14.6787 14.9811 15.9322C14.4571 17.1857 14.5298 17.961 14.4637 17.961C14.5298 17.961 13.0482 17.1857 12.163 15.9322C11.2117 14.6787 10.8569 12.947 11.6459 11.0342C12.4349 9.12138 13.4889 7.38964 13.9464 6.13612C14.4703 4.88272 14.3976 4.10742 14.4637 4.10742C14.3978 4.10742 15.8792 4.88272 16.7643 6.13612C17.7157 7.38975 18.0706 9.12138 17.2815 11.0342Z" fill="#FCF0FF"/>
<path d="M0 21H36L30 61H6L0 21Z" fill="#FCF0FF"/>
<mask id="mask0" mask-type="alpha" maskUnits="userSpaceOnUse" x="0" y="21" width="36" height="40">
<path d="M0 21H36L30 61H6L0 21Z" fill="#C4C4C4"/>
</mask>
<g mask="url(#mask0)">
<rect x="-7" y="21" width="50" height="3" fill="#F2CCFF"/>
<rect x="-7" y="58" width="50" height="3" fill="#F2CCFF"/>
</g>
<path d="M26.7218 36.9634C24.8033 32.0287 18.5755 34.2427 17.9995 36.707C17.2075 34.0808 11.1325 32.1217 9.27849 36.9669C7.21418 42.3633 17.2795 47.2064 17.9998 48C18.7189 47.3694 28.7852 42.272 26.7218 36.9634Z" fill="url(#paint0_linear)"/>
<defs>
<linearGradient id="paint0_linear" x1="17.391" y1="25.95" x2="8.52471" y2="49.0139" gradientUnits="userSpaceOnUse">
<stop stop-color="#33AAFF"/>
<stop offset="1" stop-color="#CC30CF"/>
</linearGradient>
</defs>
</svg>
