<svg width="104" height="160" viewBox="0 0 104 160" fill="none" xmlns="http://www.w3.org/2000/svg">
<rect width="104" height="150" rx="5" fill="#DF99FF"/>
<rect x="5" y="5" width="94" height="140" rx="2" fill="white"/>
<path d="M68 126.698C68.0019 128.539 68.4313 130.354 69.2533 131.993C70.0752 133.633 71.2664 135.053 72.7298 136.135L72.7314 136.137C73.6735 136.839 74.7156 137.391 75.8216 137.773L75.9054 137.805C76.5283 138.012 77.1675 138.163 77.8161 138.258C78.3725 138.348 78.9349 138.396 79.4984 138.4H79.5C80.075 138.4 80.6336 138.343 81.1872 138.26L81.4862 138.213C82.0382 138.114 82.5771 137.98 83.0979 137.807L83.1669 137.78C87.7143 136.215 91 131.845 91 126.698C91 120.248 85.8414 115 79.5 115C73.1586 115 68 120.248 68 126.698ZM72.1416 139.729V160L79.5 155.95L86.8584 160L86.86 139.729C84.624 141.047 82.0853 141.742 79.5008 141.742C76.9163 141.742 74.3776 141.047 72.1416 139.729Z" fill="url(#paint0_linear)"/>
<rect x="15" y="25" width="74" height="10" rx="5" fill="#FCF0FF"/>
<rect x="26" y="40" width="53" height="10" rx="5" fill="#FCF0FF"/>
<defs>
<linearGradient id="paint0_linear" x1="78.7218" y1="89.125" x2="36.2009" y2="133.096" gradientUnits="userSpaceOnUse">
<stop stop-color="#33AAFF"/>
<stop offset="1" stop-color="#CC30CF"/>
</linearGradient>
</defs>
</svg>
