<svg width="16" height="8" viewBox="0 0 16 8" fill="none"
								xmlns="http://www.w3.org/2000/svg">
								<path
									d="M15.9185 7.22488C15.9 7.18829 15.8826 7.15793 15.8666 7.13362C15.6005 6.69547 15.0921 6.15768 14.3417 5.52008L14.3259 5.50548L14.3179 5.49832L14.3099 5.49098H14.3019C13.9613 5.19409 13.7456 4.99446 13.6553 4.89225C13.49 4.69756 13.453 4.50049 13.5433 4.30081C13.6071 4.14995 13.8468 3.83134 14.2618 3.34456C14.4801 3.08658 14.653 2.87982 14.7807 2.72405C15.7015 1.60458 16.1007 0.889223 15.9783 0.5777L15.9307 0.504902C15.8987 0.461074 15.8163 0.42098 15.6834 0.384414C15.5501 0.347925 15.3799 0.341891 15.1723 0.366208L12.8731 0.380732C12.8359 0.368663 12.7827 0.369788 12.7134 0.384414C12.6442 0.39904 12.6096 0.406379 12.6096 0.406379L12.5695 0.424662L12.5378 0.446627C12.5112 0.461151 12.4819 0.486695 12.4499 0.52321C12.4181 0.559596 12.3915 0.602299 12.3703 0.650959C12.12 1.23987 11.8354 1.78741 11.516 2.29354C11.319 2.59535 11.1382 2.85691 10.973 3.07837C10.808 3.29976 10.6696 3.46287 10.558 3.56743C10.4461 3.67209 10.3452 3.75593 10.2545 3.81927C10.164 3.88264 10.0949 3.90941 10.0471 3.89961C9.99911 3.88982 9.95395 3.8801 9.9112 3.87039C9.83674 3.82656 9.77684 3.76696 9.73168 3.69152C9.68633 3.61609 9.65579 3.52115 9.63983 3.40677C9.62394 3.29232 9.61455 3.19387 9.61186 3.1111C9.60938 3.02843 9.61052 2.9115 9.61592 2.76064C9.62146 2.60969 9.62394 2.50757 9.62394 2.45402C9.62394 2.26905 9.62789 2.0683 9.6358 1.85171C9.64385 1.63513 9.65037 1.46353 9.65582 1.33711C9.66125 1.21057 9.66376 1.07668 9.66376 0.935531C9.66376 0.794383 9.65437 0.683689 9.6358 0.603347C9.61746 0.523108 9.5893 0.44522 9.55219 0.369711C9.51486 0.294279 9.46023 0.235928 9.38853 0.194504C9.3167 0.153131 9.22738 0.120299 9.1211 0.0959046C8.83899 0.0375276 8.47976 0.00594826 8.04324 0.00103876C7.05335 -0.00867795 6.41729 0.0497758 6.13521 0.176323C6.02345 0.229791 5.92231 0.302845 5.83188 0.395256C5.73605 0.50237 5.72269 0.560824 5.79186 0.570438C6.11125 0.614189 6.33735 0.718848 6.47042 0.884314L6.51838 0.971994C6.55568 1.03526 6.59293 1.14725 6.6302 1.30783C6.66742 1.46842 6.69144 1.64605 6.70201 1.84064C6.72857 2.19599 6.72857 2.50018 6.70201 2.75322C6.67536 3.00637 6.65019 3.20344 6.62617 3.34459C6.60215 3.48573 6.56625 3.60011 6.51838 3.68769C6.47042 3.77529 6.43852 3.82884 6.42252 3.84827C6.40656 3.8677 6.39325 3.87995 6.38268 3.88476C6.3135 3.909 6.24155 3.92135 6.16709 3.92135C6.09251 3.92135 6.00208 3.88724 5.89566 3.81907C5.78926 3.7509 5.67884 3.65726 5.56439 3.538C5.44994 3.41871 5.32087 3.25202 5.17712 3.0379C5.03347 2.82377 4.88443 2.5707 4.73008 2.27869L4.60238 2.06691C4.52255 1.93068 4.4135 1.7323 4.27511 1.47197C4.13664 1.21154 4.01425 0.959618 3.90785 0.716266C3.86532 0.614061 3.80143 0.536251 3.71629 0.482706L3.67633 0.460742C3.64976 0.441308 3.60712 0.420673 3.54862 0.398682C3.49004 0.376718 3.42892 0.360966 3.365 0.351275L1.17754 0.365799C0.954011 0.365799 0.802344 0.412107 0.722484 0.504595L0.690523 0.548345C0.674557 0.572714 0.666504 0.611632 0.666504 0.665202C0.666504 0.718746 0.68247 0.784462 0.714431 0.862272C1.03376 1.54858 1.38102 2.21047 1.75622 2.84804C2.13142 3.48561 2.45746 3.99919 2.73414 4.38831C3.01088 4.77772 3.29297 5.14525 3.58039 5.4907C3.86781 5.83628 4.05807 6.05775 4.15115 6.15504C4.24435 6.25252 4.31756 6.32539 4.37077 6.37405L4.57039 6.54923C4.69812 6.66607 4.88569 6.80599 5.13319 6.969C5.38074 7.13211 5.65479 7.29269 5.9555 7.451C6.25626 7.60905 6.60615 7.73802 7.00537 7.83777C7.40453 7.93762 7.79304 7.97769 8.17094 7.95836H9.08906C9.27526 7.94366 9.41633 7.89012 9.51221 7.7977L9.54397 7.76111C9.56534 7.73207 9.58533 7.68693 9.60378 7.6262C9.62246 7.56537 9.63175 7.49835 9.63175 7.42545C9.62629 7.21621 9.64371 7.02763 9.68353 6.85973C9.72332 6.69189 9.76868 6.56534 9.8194 6.48012C9.8701 6.39497 9.92731 6.32312 9.99098 6.26487C10.0548 6.20649 10.1003 6.17113 10.1269 6.15895C10.1534 6.14671 10.1746 6.1384 10.1906 6.13341C10.3183 6.09449 10.4686 6.13218 10.6418 6.24666C10.8148 6.36104 10.977 6.50226 11.1288 6.67011C11.2805 6.8381 11.4628 7.02658 11.6756 7.23582C11.8886 7.44514 12.0748 7.60074 12.2344 7.70309L12.394 7.7907C12.5006 7.84915 12.639 7.9027 12.8094 7.95136C12.9794 7.99999 13.1284 8.01216 13.2563 7.98784L15.3 7.95869C15.5021 7.95869 15.6594 7.92809 15.771 7.86736C15.8828 7.80653 15.9492 7.73951 15.9706 7.66661C15.992 7.59363 15.9931 7.51083 15.9747 7.41827C15.9557 7.32593 15.9371 7.26137 15.9185 7.22488Z"
									fill="white" />
							</svg>