<svg width="50" height="50" viewBox="0 0 50 50" fill="none" xmlns="http://www.w3.org/2000/svg">
<path d="M22.9175 43.7502V41.521C19.4464 41.0191 16.2723 39.2835 13.9766 36.632C11.681 33.9805 10.4174 30.5907 10.4175 27.0835V16.6668C10.4175 14.7517 10.7947 12.8554 11.5276 11.086C12.2605 9.3167 13.3347 7.70904 14.6888 6.35485C16.043 5.00067 17.6507 3.92647 19.42 3.19359C21.1893 2.46071 23.0857 2.0835 25.0008 2.0835C26.9159 2.0835 28.8123 2.46071 30.5816 3.19359C32.351 3.92647 33.9586 5.00067 35.3128 6.35485C36.667 7.70904 37.7412 9.3167 38.4741 11.086C39.2069 12.8554 39.5842 14.7517 39.5842 16.6668V27.0835C39.5842 30.5907 38.3206 33.9805 36.025 36.632C33.7293 39.2835 30.5552 41.0191 27.0842 41.521V43.7502H35.4175V47.9168H14.5841V43.7502H22.9175ZM25.0008 6.25016C22.2381 6.25016 19.5886 7.34763 17.6351 9.30113C15.6816 11.2546 14.5841 13.9042 14.5841 16.6668V27.0835C14.5841 29.8462 15.6816 32.4957 17.6351 34.4492C19.5886 36.4027 22.2381 37.5002 25.0008 37.5002C27.7635 37.5002 30.413 36.4027 32.3665 34.4492C34.32 32.4957 35.4175 29.8462 35.4175 27.0835V16.6668C35.4175 13.9042 34.32 11.2546 32.3665 9.30113C30.413 7.34763 27.7635 6.25016 25.0008 6.25016ZM25.0008 18.7502C25.5534 18.7502 26.0833 18.5307 26.474 18.14C26.8647 17.7493 27.0842 17.2194 27.0842 16.6668C27.0842 16.1143 26.8647 15.5844 26.474 15.1937C26.0833 14.803 25.5534 14.5835 25.0008 14.5835C24.4483 14.5835 23.9184 14.803 23.5277 15.1937C23.137 15.5844 22.9175 16.1143 22.9175 16.6668C22.9175 17.2194 23.137 17.7493 23.5277 18.14C23.9184 18.5307 24.4483 18.7502 25.0008 18.7502ZM25.0008 22.9168C23.3432 22.9168 21.7535 22.2583 20.5814 21.0862C19.4093 19.9141 18.7508 18.3244 18.7508 16.6668C18.7508 15.0092 19.4093 13.4195 20.5814 12.2474C21.7535 11.0753 23.3432 10.4168 25.0008 10.4168C26.6584 10.4168 28.2481 11.0753 29.4202 12.2474C30.5923 13.4195 31.2508 15.0092 31.2508 16.6668C31.2508 18.3244 30.5923 19.9141 29.4202 21.0862C28.2481 22.2583 26.6584 22.9168 25.0008 22.9168Z" fill="#C17AFC"/>
</svg>
