<svg width="8" height="14" viewBox="0 0 8 14" fill="none" xmlns="http://www.w3.org/2000/svg">
<path d="M3.73535 13.5454V12.2271C3.07617 12.144 2.53906 11.9976 2.12402 11.7876C1.71387 11.5728 1.35742 11.2285 1.05469 10.7549C0.756836 10.2812 0.583496 9.70264 0.534668 9.01904L1.86035 8.77002C1.96289 9.47803 2.14355 9.99805 2.40234 10.3301C2.77344 10.7988 3.21777 11.0601 3.73535 11.1138V6.91699C3.19336 6.81445 2.63916 6.60449 2.07275 6.28711C1.65283 6.05273 1.32812 5.72803 1.09863 5.31299C0.874023 4.89795 0.761719 4.42676 0.761719 3.89941C0.761719 2.96191 1.09375 2.20264 1.75781 1.62158C2.20215 1.23096 2.86133 0.991699 3.73535 0.903809V0.273926H4.51172V0.903809C5.27832 0.977051 5.88623 1.20166 6.33545 1.57764C6.91162 2.05615 7.2583 2.71289 7.37549 3.54785L6.01318 3.75293C5.93506 3.23535 5.77148 2.83984 5.52246 2.56641C5.27832 2.28809 4.94141 2.10498 4.51172 2.01709V5.81836C5.17578 5.98438 5.61523 6.11377 5.83008 6.20654C6.24023 6.38721 6.57471 6.60693 6.8335 6.86572C7.09229 7.12451 7.29004 7.43213 7.42676 7.78857C7.56836 8.14502 7.63916 8.53076 7.63916 8.9458C7.63916 9.85889 7.34863 10.6206 6.76758 11.231C6.18652 11.8413 5.43457 12.1685 4.51172 12.2124V13.5454H3.73535ZM3.73535 2.00244C3.22266 2.08057 2.81738 2.28564 2.51953 2.61768C2.22656 2.94971 2.08008 3.34277 2.08008 3.79688C2.08008 4.24609 2.20459 4.62207 2.45361 4.9248C2.70752 5.22754 3.13477 5.46924 3.73535 5.6499V2.00244ZM4.51172 11.1138C5.02441 11.0503 5.44678 10.8281 5.77881 10.4473C6.11572 10.0664 6.28418 9.59521 6.28418 9.03369C6.28418 8.55518 6.16455 8.17188 5.92529 7.88379C5.69092 7.59082 5.21973 7.32959 4.51172 7.1001V11.1138Z" fill="#211130"/>
</svg>
