<svg width="9" height="11" viewBox="0 0 9 11" fill="none" xmlns="http://www.w3.org/2000/svg">
<path opacity="0.5" d="M0.15 7.985H1.455V6.65H0.15V5.51H1.455V0.289999H4.275C5.585 0.289999 6.555 0.554999 7.185 1.085C7.825 1.615 8.145 2.385 8.145 3.395C8.145 4.415 7.795 5.215 7.095 5.795C6.405 6.365 5.395 6.65 4.065 6.65H2.805V7.985H5.28V8.96H2.805V11H1.455V8.96H0.15V7.985ZM4.155 1.43H2.805V5.51H3.87C4.78 5.51 5.485 5.36 5.985 5.06C6.495 4.76 6.75 4.22 6.75 3.44C6.75 2.76 6.54 2.255 6.12 1.925C5.7 1.595 5.045 1.43 4.155 1.43Z" fill="white"/>
</svg>
