<svg width="1920" height="450" viewBox="0 0 1920 450" fill="none" xmlns="http://www.w3.org/2000/svg">
<rect x="1920" y="450" width="1920" height="450" transform="rotate(-180 1920 450)" fill="#B333CC"/>
<rect x="1920" y="450" width="1920" height="450" transform="rotate(-180 1920 450)" fill="url(#paint0_radial)"/>
<rect x="1920" y="450" width="1920" height="450" transform="rotate(-180 1920 450)" fill="url(#paint1_radial)"/>
<rect x="1920" y="450" width="1920" height="450" transform="rotate(-180 1920 450)" fill="url(#paint2_radial)"/>
<g opacity="0.1">
<path d="M310 411.701C337.743 252.203 472.991 214.062 484.551 103.107C496.111 -7.84765 536.608 -77.404 692.066 -100.31C847.524 -123.216 903.608 -76.0387 989.15 24.5144C1074.69 125.067 1073.59 291.909 1011.67 402.455C930.754 546.927 774.698 594.315 662.57 588.536C550.441 582.757 282.257 571.199 310 411.701Z" fill="#B333CC"/>
<path d="M310 411.701C337.743 252.203 472.991 214.062 484.551 103.107C496.111 -7.84765 536.608 -77.404 692.066 -100.31C847.524 -123.216 903.608 -76.0387 989.15 24.5144C1074.69 125.067 1073.59 291.909 1011.67 402.455C930.754 546.927 774.698 594.315 662.57 588.536C550.441 582.757 282.257 571.199 310 411.701Z" fill="url(#paint3_radial)"/>
<path d="M310 411.701C337.743 252.203 472.991 214.062 484.551 103.107C496.111 -7.84765 536.608 -77.404 692.066 -100.31C847.524 -123.216 903.608 -76.0387 989.15 24.5144C1074.69 125.067 1073.59 291.909 1011.67 402.455C930.754 546.927 774.698 594.315 662.57 588.536C550.441 582.757 282.257 571.199 310 411.701Z" fill="url(#paint4_radial)"/>
<path d="M310 411.701C337.743 252.203 472.991 214.062 484.551 103.107C496.111 -7.84765 536.608 -77.404 692.066 -100.31C847.524 -123.216 903.608 -76.0387 989.15 24.5144C1074.69 125.067 1073.59 291.909 1011.67 402.455C930.754 546.927 774.698 594.315 662.57 588.536C550.441 582.757 282.257 571.199 310 411.701Z" fill="url(#paint5_radial)"/>
</g>
<g opacity="0.05">
<path d="M1076.17 -133.172C1092.42 -39.7679 1171.61 -17.4323 1178.38 47.5443C1185.15 112.521 1208.86 153.254 1299.89 166.668C1390.92 180.082 1423.77 152.454 1473.86 93.5693C1523.94 34.6842 1523.3 -63.0201 1487.04 -127.757C1439.66 -212.362 1348.28 -240.112 1282.62 -236.728C1216.96 -233.344 1059.93 -226.575 1076.17 -133.172Z" fill="#B333CC"/>
<path d="M1076.17 -133.172C1092.42 -39.7679 1171.61 -17.4323 1178.38 47.5443C1185.15 112.521 1208.86 153.254 1299.89 166.668C1390.92 180.082 1423.77 152.454 1473.86 93.5693C1523.94 34.6842 1523.3 -63.0201 1487.04 -127.757C1439.66 -212.362 1348.28 -240.112 1282.62 -236.728C1216.96 -233.344 1059.93 -226.575 1076.17 -133.172Z" fill="url(#paint6_radial)"/>
<path d="M1076.17 -133.172C1092.42 -39.7679 1171.61 -17.4323 1178.38 47.5443C1185.15 112.521 1208.86 153.254 1299.89 166.668C1390.92 180.082 1423.77 152.454 1473.86 93.5693C1523.94 34.6842 1523.3 -63.0201 1487.04 -127.757C1439.66 -212.362 1348.28 -240.112 1282.62 -236.728C1216.96 -233.344 1059.93 -226.575 1076.17 -133.172Z" fill="url(#paint7_radial)"/>
<path d="M1076.17 -133.172C1092.42 -39.7679 1171.61 -17.4323 1178.38 47.5443C1185.15 112.521 1208.86 153.254 1299.89 166.668C1390.92 180.082 1423.77 152.454 1473.86 93.5693C1523.94 34.6842 1523.3 -63.0201 1487.04 -127.757C1439.66 -212.362 1348.28 -240.112 1282.62 -236.728C1216.96 -233.344 1059.93 -226.575 1076.17 -133.172Z" fill="url(#paint8_radial)"/>
</g>
<g opacity="0.05">
<path d="M2218 269.299C2190.26 428.797 2055.01 466.938 2043.45 577.893C2031.89 688.848 1991.39 758.404 1835.93 781.31C1680.48 804.216 1624.39 757.039 1538.85 656.486C1453.31 555.933 1454.41 389.091 1516.33 278.545C1597.25 134.073 1753.3 86.6854 1865.43 92.4644C1977.56 98.2432 2245.74 109.801 2218 269.299Z" fill="#B333CC"/>
<path d="M2218 269.299C2190.26 428.797 2055.01 466.938 2043.45 577.893C2031.89 688.848 1991.39 758.404 1835.93 781.31C1680.48 804.216 1624.39 757.039 1538.85 656.486C1453.31 555.933 1454.41 389.091 1516.33 278.545C1597.25 134.073 1753.3 86.6854 1865.43 92.4644C1977.56 98.2432 2245.74 109.801 2218 269.299Z" fill="url(#paint9_radial)"/>
<path d="M2218 269.299C2190.26 428.797 2055.01 466.938 2043.45 577.893C2031.89 688.848 1991.39 758.404 1835.93 781.31C1680.48 804.216 1624.39 757.039 1538.85 656.486C1453.31 555.933 1454.41 389.091 1516.33 278.545C1597.25 134.073 1753.3 86.6854 1865.43 92.4644C1977.56 98.2432 2245.74 109.801 2218 269.299Z" fill="url(#paint10_radial)"/>
<path d="M2218 269.299C2190.26 428.797 2055.01 466.938 2043.45 577.893C2031.89 688.848 1991.39 758.404 1835.93 781.31C1680.48 804.216 1624.39 757.039 1538.85 656.486C1453.31 555.933 1454.41 389.091 1516.33 278.545C1597.25 134.073 1753.3 86.6854 1865.43 92.4644C1977.56 98.2432 2245.74 109.801 2218 269.299Z" fill="url(#paint11_radial)"/>
</g>
<g opacity="0.1">
<path d="M-475 -198.701C-447.257 -39.2031 -312.009 -1.0625 -300.449 109.893C-288.889 220.848 -248.392 290.404 -92.9338 313.31C62.5245 336.216 118.608 289.039 204.15 188.486C289.691 87.9326 288.587 -78.9089 226.672 -189.455C145.754 -333.927 -10.3015 -381.315 -122.43 -375.536C-234.559 -369.757 -502.743 -358.199 -475 -198.701Z" fill="#B333CC"/>
<path d="M-475 -198.701C-447.257 -39.2031 -312.009 -1.0625 -300.449 109.893C-288.889 220.848 -248.392 290.404 -92.9338 313.31C62.5245 336.216 118.608 289.039 204.15 188.486C289.691 87.9326 288.587 -78.9089 226.672 -189.455C145.754 -333.927 -10.3015 -381.315 -122.43 -375.536C-234.559 -369.757 -502.743 -358.199 -475 -198.701Z" fill="url(#paint12_radial)"/>
<path d="M-475 -198.701C-447.257 -39.2031 -312.009 -1.0625 -300.449 109.893C-288.889 220.848 -248.392 290.404 -92.9338 313.31C62.5245 336.216 118.608 289.039 204.15 188.486C289.691 87.9326 288.587 -78.9089 226.672 -189.455C145.754 -333.927 -10.3015 -381.315 -122.43 -375.536C-234.559 -369.757 -502.743 -358.199 -475 -198.701Z" fill="url(#paint13_radial)"/>
<path d="M-475 -198.701C-447.257 -39.2031 -312.009 -1.0625 -300.449 109.893C-288.889 220.848 -248.392 290.404 -92.9338 313.31C62.5245 336.216 118.608 289.039 204.15 188.486C289.691 87.9326 288.587 -78.9089 226.672 -189.455C145.754 -333.927 -10.3015 -381.315 -122.43 -375.536C-234.559 -369.757 -502.743 -358.199 -475 -198.701Z" fill="url(#paint14_radial)"/>
</g>
<defs>
<radialGradient id="paint0_radial" cx="0" cy="0" r="1" gradientUnits="userSpaceOnUse" gradientTransform="translate(2248.5 1146.77) rotate(-50.9852) scale(816.494 2062.91)">
<stop offset="0.150617" stop-color="#1AC4E6"/>
<stop offset="0.379643" stop-color="#1AA1E6"/>
<stop offset="1" stop-color="#BC36C7" stop-opacity="0"/>
</radialGradient>
<radialGradient id="paint1_radial" cx="0" cy="0" r="1" gradientUnits="userSpaceOnUse" gradientTransform="translate(3302.8 385.057) rotate(139.437) scale(573.563 486.896)">
<stop stop-color="#FF66E6"/>
<stop offset="0.980994" stop-color="#F20DCC" stop-opacity="0"/>
</radialGradient>
<radialGradient id="paint2_radial" cx="0" cy="0" r="1" gradientUnits="userSpaceOnUse" gradientTransform="translate(3627.61 900) rotate(-161.52) scale(664.483 307.664)">
<stop stop-color="#5E1AE6"/>
<stop offset="1" stop-color="#8B34A5" stop-opacity="0"/>
</radialGradient>
<radialGradient id="paint3_radial" cx="0" cy="0" r="1" gradientUnits="userSpaceOnUse" gradientTransform="translate(435.978 970.117) rotate(-78.4493) scale(1000.05 1013.41)">
<stop offset="0.150617" stop-color="#1AC4E6"/>
<stop offset="0.379643" stop-color="#1AA1E6"/>
<stop offset="1" stop-color="#BC36C7" stop-opacity="0"/>
</radialGradient>
<radialGradient id="paint4_radial" cx="0" cy="0" r="1" gradientUnits="userSpaceOnUse" gradientTransform="translate(846.715 -206.301) rotate(106.42) scale(600.537 279.802)">
<stop stop-color="#FF66E6"/>
<stop offset="0.980994" stop-color="#F20DCC" stop-opacity="0"/>
</radialGradient>
<radialGradient id="paint5_radial" cx="0" cy="0" r="1" gradientUnits="userSpaceOnUse" gradientTransform="translate(973.255 589) rotate(-127.044) scale(407.554 301.82)">
<stop stop-color="#5E1AE6"/>
<stop offset="1" stop-color="#8B34A5" stop-opacity="0"/>
</radialGradient>
<radialGradient id="paint6_radial" cx="0" cy="0" r="1" gradientUnits="userSpaceOnUse" gradientTransform="translate(1149.94 -460.186) rotate(78.4502) scale(585.64 593.413)">
<stop offset="0.150617" stop-color="#1AC4E6"/>
<stop offset="0.379643" stop-color="#1AA1E6"/>
<stop offset="1" stop-color="#BC36C7" stop-opacity="0"/>
</radialGradient>
<radialGradient id="paint7_radial" cx="0" cy="0" r="1" gradientUnits="userSpaceOnUse" gradientTransform="translate(1390.45 228.738) rotate(-106.418) scale(351.679 163.842)">
<stop stop-color="#FF66E6"/>
<stop offset="0.980994" stop-color="#F20DCC" stop-opacity="0"/>
</radialGradient>
<radialGradient id="paint8_radial" cx="0" cy="0" r="1" gradientUnits="userSpaceOnUse" gradientTransform="translate(1464.55 -237) rotate(127.042) scale(238.661 176.74)">
<stop stop-color="#5E1AE6"/>
<stop offset="1" stop-color="#8B34A5" stop-opacity="0"/>
</radialGradient>
<radialGradient id="paint9_radial" cx="0" cy="0" r="1" gradientUnits="userSpaceOnUse" gradientTransform="translate(2092.02 -289.117) rotate(101.551) scale(1000.05 1013.41)">
<stop offset="0.150617" stop-color="#1AC4E6"/>
<stop offset="0.379643" stop-color="#1AA1E6"/>
<stop offset="1" stop-color="#BC36C7" stop-opacity="0"/>
</radialGradient>
<radialGradient id="paint10_radial" cx="0" cy="0" r="1" gradientUnits="userSpaceOnUse" gradientTransform="translate(1681.28 887.301) rotate(-73.5804) scale(600.537 279.802)">
<stop stop-color="#FF66E6"/>
<stop offset="0.980994" stop-color="#F20DCC" stop-opacity="0"/>
</radialGradient>
<radialGradient id="paint11_radial" cx="0" cy="0" r="1" gradientUnits="userSpaceOnUse" gradientTransform="translate(1554.75 92) rotate(52.956) scale(407.554 301.82)">
<stop stop-color="#5E1AE6"/>
<stop offset="1" stop-color="#8B34A5" stop-opacity="0"/>
</radialGradient>
<radialGradient id="paint12_radial" cx="0" cy="0" r="1" gradientUnits="userSpaceOnUse" gradientTransform="translate(-349.022 -757.117) rotate(78.4493) scale(1000.05 1013.41)">
<stop offset="0.150617" stop-color="#1AC4E6"/>
<stop offset="0.379643" stop-color="#1AA1E6"/>
<stop offset="1" stop-color="#BC36C7" stop-opacity="0"/>
</radialGradient>
<radialGradient id="paint13_radial" cx="0" cy="0" r="1" gradientUnits="userSpaceOnUse" gradientTransform="translate(61.715 419.301) rotate(-106.42) scale(600.537 279.802)">
<stop stop-color="#FF66E6"/>
<stop offset="0.980994" stop-color="#F20DCC" stop-opacity="0"/>
</radialGradient>
<radialGradient id="paint14_radial" cx="0" cy="0" r="1" gradientUnits="userSpaceOnUse" gradientTransform="translate(188.255 -376) rotate(127.044) scale(407.554 301.82)">
<stop stop-color="#5E1AE6"/>
<stop offset="1" stop-color="#8B34A5" stop-opacity="0"/>
</radialGradient>
</defs>
</svg>
