<svg width="60" height="60" viewBox="0 0 60 60" fill="none" xmlns="http://www.w3.org/2000/svg">
<path d="M0 24C0 15.5992 0 11.3988 1.6349 8.19014C3.073 5.36771 5.36771 3.073 8.19014 1.6349C11.3988 0 15.5992 0 24 0H36C44.4008 0 48.6012 0 51.8099 1.6349C54.6323 3.073 56.927 5.36771 58.3651 8.19014C60 11.3988 60 15.5992 60 24V36C60 44.4008 60 48.6012 58.3651 51.8099C56.927 54.6323 54.6323 56.927 51.8099 58.3651C48.6012 60 44.4008 60 36 60H24C15.5992 60 11.3988 60 8.19014 58.3651C5.36771 56.927 3.073 54.6323 1.6349 51.8099C0 48.6012 0 44.4008 0 36V24Z" fill="white"/>
<path fill-rule="evenodd" clip-rule="evenodd" d="M19.6538 40L15.5541 39.3839C14.086 39.1632 13 37.9018 13 36.4172V28.459C13 26.6334 14.617 25.231 16.4243 25.4892L20 26V28L16.3341 27.2668C15.6439 27.1288 15 27.6567 15 28.3606V36.0988C15 36.6245 15.3671 37.0789 15.8811 37.1893L19.6538 38V40Z" fill="#842FFB"/>
<path fill-rule="evenodd" clip-rule="evenodd" d="M42.0002 21.6152V43.9229C42.0002 45.771 36.7568 47.2691 30.2887 47.2691C23.8206 47.2691 18.5771 45.771 18.5771 43.9229V21.6152H42.0002Z" fill="#842FFB"/>
<ellipse cx="30.2884" cy="21.6152" rx="11.7115" ry="3.34615" fill="#D9A6FD"/>
<path fill-rule="evenodd" clip-rule="evenodd" d="M20.1434 23.2883C22.1684 22.2881 25.9533 21.6152 30.2882 21.6152C34.6231 21.6152 38.4079 22.2881 40.4329 23.2883C38.4079 24.2885 34.6231 24.9614 30.2882 24.9614C25.9533 24.9614 22.1684 24.2885 20.1434 23.2883Z" fill="white"/>
<path fill-rule="evenodd" clip-rule="evenodd" d="M33.5153 10.1346C32.7034 11.8287 31.6188 13.3623 31.148 14.4724C30.6089 15.5826 30.6836 16.2692 30.6157 16.2692C30.6836 16.2692 29.1591 15.5826 28.2483 14.4724C27.2693 13.3623 26.9043 11.8287 27.7161 10.1346C28.5279 8.44057 29.6125 6.90698 30.0833 5.7968C30.6224 4.68661 30.5476 4 30.6157 4C30.5478 4 32.0722 4.68661 32.983 5.7968C33.962 6.90698 34.3272 8.44057 33.5153 10.1346Z" fill="#EFD2FE"/>
<path d="M37.3135 31.7878C35.7685 27.8351 30.7471 29.6022 30.2885 31.5785C29.5004 29.9998 24.7602 27.9281 23.2634 31.7878C21.5977 36.0892 29.7091 39.9489 30.2885 40.5767C30.8678 40.0652 38.9792 36.0195 37.3135 31.7878Z" fill="white"/>
</svg>
