<svg width="60" height="60" viewBox="0 0 60 60" fill="none" xmlns="http://www.w3.org/2000/svg">
<path d="M0 15C0 6.71573 6.71573 0 15 0H45C53.2843 0 60 6.71573 60 15V45C60 53.2843 53.2843 60 45 60H15C6.71573 60 0 53.2843 0 45V15Z" fill="white"/>
<path d="M20.4989 39L31.7519 39.5L29.999 48H17.999L20.4989 39Z" fill="#842FFB"/>
<path d="M21.4996 23.5L18.0147 16.1326C17.5604 15.1721 16.4602 14.7022 15.4521 15.0382C14.3854 15.3938 13.788 16.5264 14.0969 17.6076L17.2186 28.5335L18.4548 37.1868C18.7995 39.6002 20.8664 41.3928 23.3043 41.3928H30.9421C32.7784 41.3928 34.5777 40.8768 36.1348 39.9036L38.6508 38.3311L41.2601 36.8683C41.9583 36.4769 42.7453 36.2713 43.5457 36.2713H44.0417C45.1227 36.2713 45.9991 35.395 45.9991 34.314C45.9991 33.4318 45.4088 32.6586 44.5578 32.426L44.0292 32.2815C43.3501 32.0958 42.64 32.0529 41.9435 32.1554L38.0009 32.7354C37.625 32.7907 37.2412 32.7412 36.8916 32.5924C36.0629 32.2397 35.5583 31.3906 35.6446 30.4941L37.2258 14.0803C37.3332 12.9651 36.4566 12 35.3363 12C34.4189 12 33.6328 12.6561 33.4686 13.5587L31.3026 25.4717L21.4996 23.5Z" fill="#D9A6FD"/>
<path d="M20.7766 23.1037C20.5072 21.3975 21.7278 19.8157 23.4466 19.6439C25.0299 19.4855 26.4038 20.7289 26.4038 22.32V29.2838C26.4038 30.5603 25.3689 31.5952 24.0924 31.5952C22.955 31.5952 21.9867 30.7677 21.8093 29.6443L20.7766 23.1037Z" fill="#842FFB"/>
<path d="M26.4038 21.8965C26.4038 20.6241 27.6275 19.7094 28.8479 20.0696L30.2775 20.4916C31.2739 20.7857 31.916 21.7519 31.8012 22.7844L31.2196 28.0193C31.0918 29.1693 30.1665 30.0671 29.0132 30.1601C27.6073 30.2734 26.4038 29.1631 26.4038 27.7526V21.8965Z" fill="#842FFB"/>
</svg>
