<svg width="160" height="160" viewBox="0 0 160 160" fill="none" xmlns="http://www.w3.org/2000/svg">
<g clip-path="url(#clip0_319:21824)">
<path d="M0 72C0 46.7976 0 34.1965 4.90471 24.5704C9.21901 16.1031 16.1031 9.21901 24.5704 4.90471C34.1965 0 46.7976 0 72 0H88C113.202 0 125.804 0 135.43 4.90471C143.897 9.21901 150.781 16.1031 155.095 24.5704C160 34.1965 160 46.7976 160 72V88C160 113.202 160 125.804 155.095 135.43C150.781 143.897 143.897 150.781 135.43 155.095C125.804 160 113.202 160 88 160H72C46.7976 160 34.1965 160 24.5704 155.095C16.1031 150.781 9.21901 143.897 4.90471 135.43C0 125.804 0 113.202 0 88V72Z" fill="#F8F0FF"/>
<rect x="64.8003" y="84.8" width="30.4" height="89.6" fill="white"/>
<rect x="58.4004" y="84.8" width="2.39999" height="89.6" fill="white"/>
<rect x="99.2002" y="84.8" width="2.4" height="89.6" fill="white"/>
<rect x="55.2002" y="82.4" width="49.6" height="8.8" fill="white"/>
<path d="M64.8003 91.2H95.2003V93.6H64.8003V91.2Z" fill="#F8F0FF"/>
<path d="M64.8003 107.2H95.2003V109.6H64.8003V107.2Z" fill="#F8F0FF"/>
<path d="M64.8003 131.2H95.2003V133.6H64.8003V131.2Z" fill="#F8F0FF"/>
<path d="M64.8003 112H95.2003V114.4H64.8003V112Z" fill="#F8F0FF"/>
<path d="M64.8003 136H95.2003V138.4H64.8003V136Z" fill="#F8F0FF"/>
<path d="M58.4004 91.2H60.8004V93.6H58.4004V91.2Z" fill="#F8F0FF"/>
<path d="M99.2002 91.2H101.6V93.6H99.2002V91.2Z" fill="#F8F0FF"/>
<path d="M96.6999 39.675C91.101 39.699 86.9388 40.47 83.9269 41.8024C81.6794 42.7962 80.7999 43.5481 80.7999 46.0954V72.8C84.2424 69.6945 87.2974 68.825 99.3499 68.825V39.675H96.6999Z" fill="#842FFB"/>
<path d="M63.2999 39.675C68.8989 39.699 73.061 40.47 76.0729 41.8024C78.3204 42.7962 79.1999 43.5481 79.1999 46.0954V72.8C75.7574 69.6945 72.7024 68.825 60.6499 68.825V39.675H63.2999Z" fill="#842FFB"/>
</g>
<defs>
<clipPath id="clip0_319:21824">
<path d="M0 72C0 46.7976 0 34.1965 4.90471 24.5704C9.21901 16.1031 16.1031 9.21901 24.5704 4.90471C34.1965 0 46.7976 0 72 0H88C113.202 0 125.804 0 135.43 4.90471C143.897 9.21901 150.781 16.1031 155.095 24.5704C160 34.1965 160 46.7976 160 72V88C160 113.202 160 125.804 155.095 135.43C150.781 143.897 143.897 150.781 135.43 155.095C125.804 160 113.202 160 88 160H72C46.7976 160 34.1965 160 24.5704 155.095C16.1031 150.781 9.21901 143.897 4.90471 135.43C0 125.804 0 113.202 0 88V72Z" fill="white"/>
</clipPath>
</defs>
</svg>
