<svg width="160" height="160" viewBox="0 0 160 160" fill="none" xmlns="http://www.w3.org/2000/svg">
<g clip-path="url(#clip0)">
<path d="M0 72C0 46.7976 0 34.1965 4.90471 24.5704C9.21901 16.1031 16.1031 9.21901 24.5704 4.90471C34.1965 0 46.7976 0 72 0H88C113.202 0 125.804 0 135.43 4.90471C143.897 9.21901 150.781 16.1031 155.095 24.5704C160 34.1965 160 46.7976 160 72V88C160 113.202 160 125.804 155.095 135.43C150.781 143.897 143.897 150.781 135.43 155.095C125.804 160 113.202 160 88 160H72C46.7976 160 34.1965 160 24.5704 155.095C16.1031 150.781 9.21901 143.897 4.90471 135.43C0 125.804 0 113.202 0 88V72Z" fill="#F8F0FF"/>
<rect x="62.3999" y="84.7999" width="35.2" height="89.6" fill="white"/>
<circle cx="55.1999" cy="91.1999" r="8.8" fill="white"/>
<circle cx="104.8" cy="91.1999" r="8.8" fill="white"/>
<rect x="55.1997" y="82.3999" width="49.6" height="8.8" fill="white"/>
<path d="M79.2001 108.8C79.2001 108.358 79.5583 108 80.0001 108C80.4419 108 80.8001 108.358 80.8001 108.8V174.4C80.8001 174.842 80.4419 175.2 80.0001 175.2C79.5583 175.2 79.2001 174.842 79.2001 174.4V108.8Z" fill="#F8F0FF"/>
<path d="M69.6001 108.8C69.6001 108.358 69.9583 108 70.4001 108C70.8419 108 71.2001 108.358 71.2001 108.8V174.4C71.2001 174.842 70.8419 175.2 70.4001 175.2C69.9583 175.2 69.6001 174.842 69.6001 174.4V108.8Z" fill="#F8F0FF"/>
<path d="M88.8001 108.8C88.8001 108.358 89.1583 108 89.6001 108C90.0419 108 90.4001 108.358 90.4001 108.8V174.4C90.4001 174.842 90.0419 175.2 89.6001 175.2C89.1583 175.2 88.8001 174.842 88.8001 174.4V108.8Z" fill="#F8F0FF"/>
<path fill-rule="evenodd" clip-rule="evenodd" d="M101.546 55.2535C101.861 54.9385 101.638 54.4 101.193 54.4H89.7888C89.5817 54.4 89.3961 54.5276 89.3219 54.721L82.2306 73.2161C82.0374 73.7201 82.6694 74.1303 83.051 73.7487L101.546 55.2535ZM76.9484 73.7486C77.33 74.1303 77.962 73.72 77.7688 73.2161L70.6775 54.721C70.6033 54.5276 70.4177 54.4 70.2106 54.4H58.8068C58.3614 54.4 58.1383 54.9385 58.4533 55.2535L76.9484 73.7486ZM58.0431 51.9939C57.7887 52.3225 58.0229 52.8 58.4384 52.8H68.7961C69.1858 52.8 69.4257 52.374 69.2237 52.0408L64.6749 44.5373C64.493 44.2373 64.0667 44.213 63.8519 44.4904L58.0431 51.9939ZM66.623 43.2C66.2333 43.2 65.9934 43.6259 66.1954 43.9592L70.8915 51.7055C71.0686 51.9977 71.4801 52.0301 71.7008 51.7693L78.2554 44.0229C78.5304 43.698 78.2994 43.2 77.8737 43.2H66.623ZM82.1257 43.2C81.7 43.2 81.469 43.698 81.744 44.0229L88.2986 51.7693C88.5193 52.0301 88.9308 51.9977 89.1079 51.7055L93.8039 43.9592C94.006 43.6259 93.766 43.2 93.3764 43.2H82.1257ZM96.1475 44.4904C95.9327 44.213 95.5064 44.2373 95.3245 44.5373L90.7757 52.0408C90.5737 52.374 90.8136 52.8 91.2033 52.8H101.561C101.977 52.8 102.211 52.3225 101.956 51.9939L96.1475 44.4904ZM79.5328 73.3478C79.6969 73.7758 80.3025 73.7758 80.4666 73.3478L87.4711 55.079C87.5966 54.7516 87.3549 54.4 87.0042 54.4H72.9952C72.6445 54.4 72.4028 54.7516 72.5283 55.079L79.5328 73.3478ZM79.618 44.8896C79.8177 44.6535 80.1817 44.6535 80.3814 44.8896L86.3785 51.977C86.6534 52.302 86.4224 52.8 85.9968 52.8H74.0026C73.577 52.8 73.346 52.302 73.621 51.977L79.618 44.8896Z" fill="#842FFB"/>
<circle cx="62.4" cy="104" r="2.4" fill="white"/>
<ellipse cx="97.6002" cy="104" rx="2.40001" ry="2.4" fill="white"/>
</g>
<defs>
<clipPath id="clip0">
<path d="M0 72C0 46.7976 0 34.1965 4.90471 24.5704C9.21901 16.1031 16.1031 9.21901 24.5704 4.90471C34.1965 0 46.7976 0 72 0H88C113.202 0 125.804 0 135.43 4.90471C143.897 9.21901 150.781 16.1031 155.095 24.5704C160 34.1965 160 46.7976 160 72V88C160 113.202 160 125.804 155.095 135.43C150.781 143.897 143.897 150.781 135.43 155.095C125.804 160 113.202 160 88 160H72C46.7976 160 34.1965 160 24.5704 155.095C16.1031 150.781 9.21901 143.897 4.90471 135.43C0 125.804 0 113.202 0 88V72Z" fill="white"/>
</clipPath>
</defs>
</svg>
