<svg width="160" height="160" viewBox="0 0 160 160" fill="none" xmlns="http://www.w3.org/2000/svg">
<g clip-path="url(#clip0)">
<path d="M0 72C0 46.7976 0 34.1965 4.90471 24.5704C9.21901 16.1031 16.1031 9.21901 24.5704 4.90471C34.1965 0 46.7976 0 72 0H88C113.202 0 125.804 0 135.43 4.90471C143.897 9.21901 150.781 16.1031 155.095 24.5704C160 34.1965 160 46.7976 160 72V88C160 113.202 160 125.804 155.095 135.43C150.781 143.897 143.897 150.781 135.43 155.095C125.804 160 113.202 160 88 160H72C46.7976 160 34.1965 160 24.5704 155.095C16.1031 150.781 9.21901 143.897 4.90471 135.43C0 125.804 0 113.202 0 88V72Z" fill="#F8F0FF"/>
<rect x="72.8003" y="96" width="3.2" height="70.4" fill="white"/>
<rect x="96.8003" y="96" width="3.19999" height="70.4" fill="white"/>
<rect x="60.8003" y="96" width="3.20001" height="70.4" fill="white"/>
<rect x="84.8003" y="96" width="3.19997" height="70.4" fill="white"/>
<path d="M104.8 123.2V126.4L55.2002 126.4L55.2002 123.2L104.8 123.2Z" fill="white"/>
<path fill-rule="evenodd" clip-rule="evenodd" d="M40 82.4C47.9844 92.9213 62.9077 100 80 100C97.0923 100 112.016 92.9213 120 82.4H40Z" fill="white"/>
<path fill-rule="evenodd" clip-rule="evenodd" d="M58.3999 69.3538V45.2923C58.3999 45.2923 63.4214 43.2 68.8614 43.2C72.2133 43.2 75.0729 43.826 78.2378 44.5189C82.1589 45.3774 86.5485 46.3384 92.923 46.3384C100.246 46.3384 102.338 45.2923 102.338 45.2923V68.3076C101.292 69.0051 97.9445 70.4 92.923 70.4C89.9054 70.4 85.9207 69.7955 81.7825 69.1678C77.3128 68.4898 72.664 67.7846 68.8614 67.7846C63.003 67.7846 58.3999 69.3538 58.3999 69.3538ZM80.3999 63.1999C83.2718 63.1999 85.5999 60.3346 85.5999 56.7999C85.5999 53.2653 83.2718 50.3999 80.3999 50.3999C77.528 50.3999 75.1999 53.2653 75.1999 56.7999C75.1999 60.3346 77.528 63.1999 80.3999 63.1999Z" fill="#842FFB"/>
</g>
<defs>
<clipPath id="clip0">
<path d="M0 72C0 46.7976 0 34.1965 4.90471 24.5704C9.21901 16.1031 16.1031 9.21901 24.5704 4.90471C34.1965 0 46.7976 0 72 0H88C113.202 0 125.804 0 135.43 4.90471C143.897 9.21901 150.781 16.1031 155.095 24.5704C160 34.1965 160 46.7976 160 72V88C160 113.202 160 125.804 155.095 135.43C150.781 143.897 143.897 150.781 135.43 155.095C125.804 160 113.202 160 88 160H72C46.7976 160 34.1965 160 24.5704 155.095C16.1031 150.781 9.21901 143.897 4.90471 135.43C0 125.804 0 113.202 0 88V72Z" fill="white"/>
</clipPath>
</defs>
</svg>
