<svg width="160" height="160" viewBox="0 0 160 160" fill="none" xmlns="http://www.w3.org/2000/svg">
<g clip-path="url(#clip0)">
<path d="M0 72C0 46.7976 0 34.1965 4.90471 24.5704C9.21901 16.1031 16.1031 9.21901 24.5704 4.90471C34.1965 0 46.7976 0 72 0H88C113.202 0 125.804 0 135.43 4.90471C143.897 9.21901 150.781 16.1031 155.095 24.5704C160 34.1965 160 46.7976 160 72V88C160 113.202 160 125.804 155.095 135.43C150.781 143.897 143.897 150.781 135.43 155.095C125.804 160 113.202 160 88 160H72C46.7976 160 34.1965 160 24.5704 155.095C16.1031 150.781 9.21901 143.897 4.90471 135.43C0 125.804 0 113.202 0 88V72Z" fill="#F8F0FF"/>
<rect x="86.4004" y="96" width="9.6" height="77.6" fill="white"/>
<rect x="64" y="96" width="9.60001" height="77.6" fill="white"/>
<path d="M99.016 123.069C99.8956 122.985 100.677 123.629 100.762 124.509C100.847 125.388 100.202 126.17 99.3227 126.255L61.0995 129.935C60.2199 130.02 59.4382 129.375 59.3535 128.496C59.2689 127.616 59.9132 126.834 60.7928 126.75L99.016 123.069Z" fill="white"/>
<path d="M99.016 114.297C99.8956 114.212 100.677 114.856 100.762 115.736C100.847 116.616 100.202 117.397 99.3228 117.482L61.0995 121.163C60.2199 121.247 59.4382 120.603 59.3535 119.723C59.2689 118.844 59.9132 118.062 60.7928 117.977L99.016 114.297Z" fill="white"/>
<path d="M99.016 105.524C99.8956 105.44 100.677 106.084 100.762 106.964C100.847 107.843 100.202 108.625 99.3227 108.71L61.0995 112.39C60.2199 112.475 59.4382 111.83 59.3535 110.951C59.2689 110.071 59.9132 109.289 60.7928 109.205L99.016 105.524Z" fill="white"/>
<path d="M99.016 140.614C99.8956 140.529 100.677 141.174 100.762 142.053C100.847 142.933 100.202 143.715 99.3227 143.799L61.0995 147.48C60.2199 147.565 59.4382 146.92 59.3535 146.041C59.2689 145.161 59.9132 144.379 60.7928 144.295L99.016 140.614Z" fill="white"/>
<path d="M99.016 131.842C99.8956 131.757 100.677 132.401 100.762 133.281C100.847 134.161 100.202 134.942 99.3227 135.027L61.0995 138.707C60.2199 138.792 59.4382 138.148 59.3535 137.268C59.2689 136.389 59.9132 135.607 60.7928 135.522L99.016 131.842Z" fill="white"/>
<path d="M48 82.4H112L96 99.2H64L48 82.4Z" fill="white"/>
<path d="M59.8251 54.1806C58.9476 54.5214 58.9842 55.7754 59.8801 56.0644L69.6002 59.2L90.7241 46.0886C90.9329 45.959 91.1462 46.2472 90.9613 46.409L73.6002 61.6L73.2571 68.5409C73.2141 69.4105 74.2258 69.9158 74.8952 69.3592L79.2787 65.7148L89.5642 73.1112C90.1483 73.5312 90.9715 73.2155 91.125 72.5126L98.0028 41.0198C98.1729 40.2407 97.4072 39.5856 96.6638 39.8743L59.8251 54.1806Z" fill="#842FFB"/>
</g>
<defs>
<clipPath id="clip0">
<path d="M0 72C0 46.7976 0 34.1965 4.90471 24.5704C9.21901 16.1031 16.1031 9.21901 24.5704 4.90471C34.1965 0 46.7976 0 72 0H88C113.202 0 125.804 0 135.43 4.90471C143.897 9.21901 150.781 16.1031 155.095 24.5704C160 34.1965 160 46.7976 160 72V88C160 113.202 160 125.804 155.095 135.43C150.781 143.897 143.897 150.781 135.43 155.095C125.804 160 113.202 160 88 160H72C46.7976 160 34.1965 160 24.5704 155.095C16.1031 150.781 9.21901 143.897 4.90471 135.43C0 125.804 0 113.202 0 88V72Z" fill="white"/>
</clipPath>
</defs>
</svg>
