<svg width="120" height="120" viewBox="0 0 120 120" fill="none" xmlns="http://www.w3.org/2000/svg">
<circle cx="60" cy="60" r="60" fill="white"/>
<path d="M34.4707 69.9117C34.4707 55.5361 46.1245 43.8823 60.5001 43.8823C74.8758 43.8823 86.5295 55.5361 86.5295 69.9117V78.5882H34.4707V69.9117Z" fill="#D9A6FD"/>
<mask id="mask0" mask-type="alpha" maskUnits="userSpaceOnUse" x="34" y="43" width="53" height="36">
<path d="M34.4707 69.9117C34.4707 55.5361 46.1245 43.8823 60.5001 43.8823C74.8758 43.8823 86.5295 55.5361 86.5295 69.9117V78.5882H34.4707V69.9117Z" fill="#F0FBFF"/>
</mask>
<g mask="url(#mask0)">
<rect x="34.4707" y="43.8823" width="25.451" height="34.7059" fill="#D9A6FD"/>
</g>
<path d="M59.9996 44C41.5996 47.2 37.9996 67.6667 38.4996 77.5L59.9996 75.5V44Z" fill="#F8F0FF"/>
<path d="M60 44C78.7898 47.2478 82.4661 68.0199 81.9555 78L60 75.9701V44Z" fill="white"/>
<path d="M60 73C48.4314 73 34.4707 78.5883 34.4707 78.5883C45 96 44.6511 81 59.9217 81C75.1923 81 75 96 86.5295 78.5883C86.5295 78.5883 71.5686 73 60 73Z" fill="url(#paint0_linear)"/>
<path d="M41 32.0001C41 27.3754 53 29.1097 59 30.5549V33.445C53 34.8902 41 36.6247 41 32.0001Z" fill="url(#paint1_linear)"/>
<path d="M78 32.0001C78 27.3754 66.6667 29.1097 61 30.5549V33.445C66.6667 34.8902 78 36.6247 78 32.0001Z" fill="url(#paint2_linear)"/>
<rect x="59" y="34" width="2" height="10" fill="#C17AFC"/>
<circle cx="60" cy="32" r="3" fill="url(#paint3_linear)"/>
<defs>
<linearGradient id="paint0_linear" x1="54.4331" y1="73" x2="54.4331" y2="90.8572" gradientUnits="userSpaceOnUse">
<stop stop-color="#3D9FF5"/>
<stop offset="1" stop-color="#4C2AD5"/>
</linearGradient>
<linearGradient id="paint1_linear" x1="47.9023" y1="29" x2="47.9023" y2="36.65" gradientUnits="userSpaceOnUse">
<stop stop-color="#3D9FF5"/>
<stop offset="1" stop-color="#4C2AD5"/>
</linearGradient>
<linearGradient id="paint2_linear" x1="71.4812" y1="29" x2="71.4812" y2="36.65" gradientUnits="userSpaceOnUse">
<stop stop-color="#3D9FF5"/>
<stop offset="1" stop-color="#4C2AD5"/>
</linearGradient>
<linearGradient id="paint3_linear" x1="59.3008" y1="29" x2="59.3008" y2="36.65" gradientUnits="userSpaceOnUse">
<stop stop-color="#3D9FF5"/>
<stop offset="1" stop-color="#4C2AD5"/>
</linearGradient>
</defs>
</svg>
