<svg width="16" height="10" viewBox="0 0 16 10" fill="none"
								xmlns="http://www.w3.org/2000/svg">
								<path
									d="M4.62677 0C5.09589 0 5.52001 0.0390098 5.90862 0.125031C6.29172 0.211053 6.62231 0.344086 6.89839 0.531633C7.17196 0.71918 7.38552 0.964241 7.53906 1.27932C7.6876 1.5919 7.76563 1.97999 7.76563 2.43311C7.76563 2.92523 7.65109 3.33984 7.42703 3.67292C7.20047 4.0065 6.86938 4.27207 6.42426 4.48562C7.02842 4.66017 7.47655 4.96474 7.77363 5.39985C8.07321 5.83996 8.21625 6.36609 8.21625 6.97324C8.21625 7.47337 8.13022 7.90047 7.94267 8.26006C7.76259 8.61938 7.49688 8.92889 7.16896 9.16129C6.84837 9.39335 6.46827 9.55989 6.05666 9.67192C5.64131 9.78404 5.21302 9.84104 4.78281 9.84146H0V0.00550122H4.62627L4.62677 0ZM11.2981 8.10903C11.5897 8.3956 12.0118 8.53863 12.5614 8.53863C12.9545 8.53863 13.2936 8.43961 13.5797 8.23906C13.8638 8.04651 14.0328 7.83246 14.1009 7.6139H15.8253C15.5573 8.46562 15.1271 9.08027 14.5595 9.44786C13.9918 9.82045 13.3041 10 12.5069 10C11.9468 10 11.4491 9.91398 10.991 9.73443C10.5596 9.56437 10.169 9.30515 9.84469 8.97374C9.53461 8.64816 9.29504 8.25456 9.1255 7.79395C8.95595 7.33333 8.87543 6.82771 8.87543 6.28057C8.87543 5.74394 8.96645 5.25431 9.1465 4.7932C9.31398 4.35043 9.56722 3.94508 9.89171 3.6004C10.2223 3.25932 10.6004 3.00375 11.051 2.8032C11.4991 2.60265 11.9838 2.51413 12.5304 2.51413C13.1376 2.51413 13.6582 2.62366 14.1169 2.86322C14.5526 3.08504 14.9315 3.40419 15.2242 3.79595C15.5187 4.18655 15.7243 4.63716 15.8518 5.14529C15.9794 5.64541 16.0184 6.17154 15.9924 6.73168H10.8635C10.8635 7.29182 11.051 7.82045 11.3376 8.10703L11.2831 8.12803L11.2981 8.10903ZM4.46772 8.14254C4.67878 8.14254 4.88184 8.12153 5.07189 8.08002C5.25206 8.04464 5.42426 7.97668 5.58003 7.87947C5.72057 7.79095 5.8406 7.66041 5.92912 7.49137C6.01515 7.33233 6.05416 7.11128 6.05416 6.85071C6.05416 6.35059 5.90812 5.991 5.62704 5.77244C5.34046 5.55889 4.96786 5.45186 4.50173 5.45186H2.16009V8.15304H4.46822V8.13203L4.46772 8.14254ZM13.5432 4.37609C13.3061 4.11803 12.9155 3.98 12.4359 3.98C12.1258 3.98 11.8682 4.02951 11.6597 4.13903C11.4681 4.23259 11.2991 4.36673 11.1646 4.53213C11.0447 4.67945 10.956 4.8496 10.904 5.03226C10.8575 5.18665 10.8278 5.34561 10.8155 5.50638H13.9908C13.9438 5.00625 13.7693 4.63916 13.5377 4.37859V4.3866L13.5432 4.37609ZM4.34819 3.96449C4.73129 3.96449 5.04888 3.87597 5.29895 3.69092C5.54902 3.51138 5.66905 3.2088 5.66905 2.7977C5.66905 2.56864 5.62204 2.3811 5.54902 2.23506C5.46794 2.09537 5.35328 1.97813 5.21543 1.89397C5.06653 1.80776 4.90314 1.74945 4.7333 1.72193C4.54867 1.687 4.36104 1.67042 4.17314 1.67242H2.15459V3.96449H4.34819ZM10.4148 0.659165H14.3949V1.62791H10.4148V0.651163V0.659165Z"
									fill="white" />
							</svg>