<svg width="20" height="20" viewBox="0 0 20 20" fill="none" xmlns="http://www.w3.org/2000/svg">
<path d="M0 8C0 5.19974 0 3.79961 0.544967 2.73005C1.02433 1.78924 1.78924 1.02433 2.73005 0.544967C3.79961 0 5.19974 0 8 0H12C14.8003 0 16.2004 0 17.27 0.544967C18.2108 1.02433 18.9757 1.78924 19.455 2.73005C20 3.79961 20 5.19974 20 8V12C20 14.8003 20 16.2004 19.455 17.27C18.9757 18.2108 18.2108 18.9757 17.27 19.455C16.2004 20 14.8003 20 12 20H8C5.19974 20 3.79961 20 2.73005 19.455C1.78924 18.9757 1.02433 18.2108 0.544967 17.27C0 16.2004 0 14.8003 0 12V8Z" fill="#D2F3FE"/>
<path fill-rule="evenodd" clip-rule="evenodd" d="M4.85348 8.85348C4.65822 8.65822 4.65822 8.34163 4.85348 8.14637L5.64637 7.35348C5.84163 7.15822 6.15822 7.15822 6.35348 7.35348L9.64637 10.6464C9.84163 10.8416 10.1582 10.8416 10.3535 10.6464L13.6464 7.35348C13.8416 7.15822 14.1582 7.15822 14.3535 7.35348L15.1464 8.14637C15.3416 8.34163 15.3416 8.65822 15.1464 8.85348L10.3535 13.6464C10.1582 13.8416 9.84163 13.8416 9.64637 13.6464L4.85348 8.85348Z" fill="#2698FC"/>
</svg>
