<svg width="30" height="30" viewBox="0 0 30 30" fill="none" xmlns="http://www.w3.org/2000/svg">
<g clip-path="url(#clip0_3273_9837)">
<path fill-rule="evenodd" clip-rule="evenodd" d="M6.91846 6.65637L7.24365 17.1472L9.66754 19.2092L21.4245 19.5709L25.5485 16.0619L25.042 6.65637H6.91846ZM12.3809 10.1654V13.1317L14.298 14.8681L16.1429 13.1317V10.1654H12.3809Z" fill="#EFD2FE"/>
<path d="M25.5 6.25H26.5C26.5 5.69772 26.0523 5.25 25.5 5.25V6.25ZM6.75 6.25V5.25C6.19772 5.25 5.75 5.69772 5.75 6.25H6.75ZM16.125 10H17.125C17.125 9.44772 16.6773 9 16.125 9V10ZM12.375 10V9C11.8227 9 11.375 9.44772 11.375 10H12.375ZM12.375 13.125H11.375C11.375 13.3902 11.4804 13.6446 11.6679 13.8321L12.375 13.125ZM14.25 15L13.5429 15.7071C13.9334 16.0976 14.5666 16.0976 14.9571 15.7071L14.25 15ZM16.125 13.125L16.8321 13.8321C17.0196 13.6446 17.125 13.3902 17.125 13.125H16.125ZM13.25 10C13.25 10.5523 13.6977 11 14.25 11C14.8023 11 15.25 10.5523 15.25 10H13.25ZM15.25 6.25C15.25 5.69772 14.8023 5.25 14.25 5.25C13.6977 5.25 13.25 5.69772 13.25 6.25H15.25ZM7.375 24C6.82272 24 6.375 24.4477 6.375 25C6.375 25.5523 6.82272 26 7.375 26V24ZM24.875 26C25.4273 26 25.875 25.5523 25.875 25C25.875 24.4477 25.4273 24 24.875 24V26ZM0.5 8.75V7.75C0.200407 7.75 -0.0834034 7.88432 -0.273342 8.11601C-0.463281 8.3477 -0.539336 8.65234 -0.480581 8.94612L0.5 8.75ZM1.75 13.75L2.69887 13.4343L2.69868 13.4338L1.75 13.75ZM5.75 15.625C5.75 16.4646 5.99507 17.9031 7.57459 19.0825C9.08416 20.2097 11.6867 21 16.125 21V19C11.8577 19 9.77272 18.2278 8.77119 17.48C7.83962 16.7844 7.75 16.0354 7.75 15.625H5.75ZM16.125 21C20.5633 21 23.1658 20.2097 24.6754 19.0825C26.2549 17.9031 26.5 16.4646 26.5 15.625H24.5C24.5 16.0354 24.4104 16.7844 23.4788 17.48C22.4773 18.2278 20.3923 19 16.125 19V21ZM26.5 15.625V6.25H24.5V15.625H26.5ZM25.5 5.25H6.75V7.25H25.5V5.25ZM5.75 6.25V15.625H7.75V6.25H5.75ZM16.125 9H12.375V11H16.125V9ZM11.375 10V13.125H13.375V10H11.375ZM11.6679 13.8321L13.5429 15.7071L14.9571 14.2929L13.0821 12.4179L11.6679 13.8321ZM14.9571 15.7071L16.8321 13.8321L15.4179 12.4179L13.5429 14.2929L14.9571 15.7071ZM17.125 13.125V10H15.125V13.125H17.125ZM15.25 10V6.25H13.25V10H15.25ZM7.375 26H24.875V24H7.375V26ZM6.75 7.75H0.5V9.75H6.75V7.75ZM0.5 8.75C-0.480581 8.94612 -0.480571 8.94616 -0.480559 8.94623C-0.480552 8.94626 -0.480537 8.94633 -0.480523 8.94641C-0.480494 8.94655 -0.480455 8.94674 -0.480407 8.94698C-0.480311 8.94746 -0.480178 8.94813 -0.480006 8.94898C-0.479663 8.95069 -0.479169 8.95315 -0.478527 8.95634C-0.477243 8.96272 -0.475365 8.97203 -0.472913 8.98413C-0.468009 9.00833 -0.460807 9.04372 -0.451459 9.08921C-0.432765 9.18019 -0.405475 9.31167 -0.370812 9.47508C-0.301527 9.80171 -0.202579 10.2569 -0.0837662 10.7717C0.151732 11.7922 0.472928 13.0811 0.801317 14.0662L2.69868 13.4338C2.40207 12.5439 2.09827 11.3328 1.86502 10.322C1.74945 9.82125 1.65309 9.37798 1.58566 9.06007C1.55196 8.90122 1.52554 8.77391 1.50761 8.68667C1.49865 8.64305 1.49181 8.60946 1.48726 8.58697C1.48498 8.57573 1.48327 8.56726 1.48215 8.5617C1.48159 8.55892 1.48118 8.55687 1.48092 8.55556C1.48079 8.55491 1.48069 8.55444 1.48064 8.55416C1.48061 8.55402 1.48059 8.55392 1.48058 8.55388C1.48058 8.55386 1.48058 8.55386 1.48057 8.55385C1.48058 8.55386 1.48058 8.55388 0.5 8.75ZM0.801127 14.0657C1.08432 14.9169 1.77168 15.3966 2.41361 15.661C3.05499 15.9251 3.78287 16.0336 4.4174 16.0759C5.06349 16.119 5.67837 16.0972 6.12605 16.0659C6.35158 16.0502 6.53871 16.0318 6.67114 16.0171C6.73744 16.0097 6.79026 16.0033 6.82759 15.9985C6.84626 15.9961 6.86108 15.9941 6.87179 15.9927C6.87715 15.9919 6.88148 15.9913 6.88475 15.9909C6.88639 15.9907 6.88776 15.9905 6.88887 15.9903C6.88942 15.9902 6.88991 15.9902 6.89033 15.9901C6.89054 15.9901 6.8908 15.99 6.89091 15.99C6.89115 15.99 6.89138 15.99 6.75 15C6.60862 14.01 6.60881 14.01 6.60899 14.01C6.60903 14.01 6.6092 14.01 6.60927 14.01C6.60942 14.0099 6.60951 14.0099 6.60953 14.0099C6.60958 14.0099 6.60937 14.0099 6.6089 14.01C6.60796 14.0101 6.60601 14.0104 6.60306 14.0108C6.59717 14.0116 6.58734 14.0129 6.57381 14.0146C6.54673 14.0181 6.50492 14.0232 6.45034 14.0293C6.34101 14.0415 6.18137 14.0572 5.98688 14.0708C5.59452 14.0982 5.07635 14.1154 4.55042 14.0803C4.01291 14.0445 3.52977 13.9577 3.17518 13.8117C2.82114 13.6659 2.72756 13.5206 2.69887 13.4343L0.801127 14.0657Z" fill="#842FFB"/>
</g>
<defs>
<clipPath id="clip0_3273_9837">
<rect width="30" height="30" fill="white"/>
</clipPath>
</defs>
</svg>
