<svg width="100" height="20" viewBox="0 0 100 20" fill="none" xmlns="http://www.w3.org/2000/svg">
									<path d="M10 2L12.3463 6.77062L17.6085 7.52786L13.7964 11.2335L14.7023 16.4721L10 13.9917L5.29772 16.4721L6.20364 11.2335L2.39155 7.52786L7.65372 6.77062L10 2Z" fill="white"/>
									<path d="M30 2L32.3463 6.77062L37.6085 7.52786L33.7964 11.2335L34.7023 16.4721L30 13.9917L25.2977 16.4721L26.2036 11.2335L22.3915 7.52786L27.6537 6.77062L30 2Z" fill="white"/>
									<path d="M50 2L52.3463 6.77062L57.6085 7.52786L53.7964 11.2335L54.7023 16.4721L50 13.9917L45.2977 16.4721L46.2036 11.2335L42.3915 7.52786L47.6537 6.77062L50 2Z" fill="white"/>
									<path d="M70 2L72.3463 6.77062L77.6085 7.52786L73.7964 11.2335L74.7023 16.4721L70 13.9917L65.2977 16.4721L66.2036 11.2335L62.3915 7.52786L67.6537 6.77062L70 2Z" fill="white"/>
									<path d="M90 2L92.3463 6.77062L97.6085 7.52786L93.7964 11.2335L94.7023 16.4721L90 13.9917L85.2977 16.4721L86.2036 11.2335L82.3915 7.52786L87.6537 6.77062L90 2Z" fill="white"/>
								</svg>