<svg width="20" height="20" viewBox="0 0 20 20" fill="none" xmlns="http://www.w3.org/2000/svg">
<path d="M9.99812 7.66567C8.71277 7.66567 7.66383 8.71463 7.66383 10C7.66383 11.2854 8.71277 12.3343 9.99812 12.3343C11.2835 12.3343 12.3324 11.2854 12.3324 10C12.3324 8.71463 11.2835 7.66567 9.99812 7.66567ZM16.9992 10C16.9992 9.03335 17.008 8.07545 16.9537 7.11055C16.8994 5.98979 16.6437 4.99512 15.8242 4.17556C15.0029 3.35426 14.01 3.10034 12.8893 3.04605C11.9226 2.99176 10.9648 3.00052 9.99987 3.00052C9.03323 3.00052 8.07536 2.99176 7.11047 3.04605C5.98973 3.10034 4.99508 3.35601 4.17554 4.17556C3.35425 4.99687 3.10034 5.98979 3.04605 7.11055C2.99177 8.0772 3.00052 9.0351 3.00052 10C3.00052 10.9649 2.99177 11.9246 3.04605 12.8895C3.10034 14.0102 3.356 15.0049 4.17554 15.8244C4.99683 16.6457 5.98973 16.8997 7.11047 16.9539C8.07711 17.0082 9.03499 16.9995 9.99987 16.9995C10.9665 16.9995 11.9244 17.0082 12.8893 16.9539C14.01 16.8997 15.0047 16.644 15.8242 15.8244C16.6455 15.0031 16.8994 14.0102 16.9537 12.8895C17.0097 11.9246 16.9992 10.9667 16.9992 10ZM9.99812 13.5917C8.01056 13.5917 6.40651 11.9876 6.40651 10C6.40651 8.01241 8.01056 6.40832 9.99812 6.40832C11.9857 6.40832 13.5897 8.01241 13.5897 10C13.5897 11.9876 11.9857 13.5917 9.99812 13.5917ZM13.7368 7.10004C13.2728 7.10004 12.898 6.72529 12.898 6.26122C12.898 5.79716 13.2728 5.42241 13.7368 5.42241C14.2009 5.42241 14.5756 5.79716 14.5756 6.26122C14.5758 6.37142 14.5542 6.48056 14.5121 6.58239C14.47 6.68422 14.4082 6.77675 14.3303 6.85467C14.2523 6.93258 14.1598 6.99437 14.058 7.03647C13.9562 7.07858 13.847 7.10018 13.7368 7.10004Z" fill="url(#paint0_radial_25_25)"/>
<defs>
<radialGradient id="paint0_radial_25_25" cx="0" cy="0" r="1" gradientUnits="userSpaceOnUse" gradientTransform="translate(7.99655 17) rotate(-88.8193) scale(15.2282 33.7055)">
<stop stop-color="#F9D26D"/>
<stop offset="0.221099" stop-color="#EE592F"/>
<stop offset="0.624008" stop-color="#A71889"/>
<stop offset="1" stop-color="#4438DE"/>
</radialGradient>
</defs>
</svg>
