<svg width="30" height="30" viewBox="0 0 30 30" fill="none" xmlns="http://www.w3.org/2000/svg">
<path fill-rule="evenodd" clip-rule="evenodd" d="M2.76074 10.9446V22.1538L3.61515 23.64H5.17567H22.4108L23.9194 19.9276L27.3574 18.6933V7.88618L25.7597 6.36279H7.53066L6.15922 9.84748L2.76074 10.9446ZM15.0213 18.2572C16.6937 18.2572 18.0494 16.736 18.0494 14.8595C18.0494 12.983 16.6937 11.4618 15.0213 11.4618C13.3489 11.4618 11.9932 12.983 11.9932 14.8595C11.9932 16.736 13.3489 18.2572 15.0213 18.2572Z" fill="#EFD2FE"/>
<path d="M2.5 11.25C3.82608 11.25 5.09785 10.7232 6.03553 9.78553C6.97322 8.84785 7.5 7.57608 7.5 6.25M22.5 23.75C22.5 22.4239 23.0268 21.1521 23.9645 20.2145C24.9021 19.2768 26.1739 18.75 27.5 18.75M2.5 8.75C2.5 8.08696 2.76339 7.45107 3.23223 6.98223C3.70107 6.51339 4.33696 6.25 5 6.25H25C25.663 6.25 26.2989 6.51339 26.7678 6.98223C27.2366 7.45107 27.5 8.08696 27.5 8.75V21.25C27.5 21.913 27.2366 22.5489 26.7678 23.0178C26.2989 23.4866 25.663 23.75 25 23.75H5C4.33696 23.75 3.70107 23.4866 3.23223 23.0178C2.76339 22.5489 2.5 21.913 2.5 21.25V8.75ZM18.75 15C18.75 17.0711 17.0711 18.75 15 18.75C12.9289 18.75 11.25 17.0711 11.25 15C11.25 12.9289 12.9289 11.25 15 11.25C17.0711 11.25 18.75 12.9289 18.75 15Z" stroke="#842FFB" stroke-width="2" stroke-linecap="round" stroke-linejoin="round"/>
</svg>
