<svg width="30" height="30" viewBox="0 0 30 30" fill="none" xmlns="http://www.w3.org/2000/svg">
<path d="M7.89107 23.7356L3.87252 15.9268L3.44519 14.8437L5.55416 13.8462L8.66062 15.5847L8.94562 13.8462V8.7448V4.92585L10.5986 3.64331L12.6791 4.92585V11.3098L16.1845 11.7943L18.1795 11.5378L20.2885 11.3098V8.26031L20.659 5.35328L23.2524 5.49579L23.6229 8.0323L23.9934 20.4011L22.7394 23.7926L19.9465 26.4146L14.7595 27.4405L10.7126 26.2721L7.89107 23.7356Z" fill="#EFD2FE"/>
<path d="M12.7502 14.375V13.125C12.7502 12.6277 12.9477 12.1508 13.2994 11.7992C13.651 11.4475 14.1279 11.25 14.6252 11.25C15.1225 11.25 15.5994 11.4475 15.951 11.7992C16.3026 12.1508 16.5002 12.6277 16.5002 13.125M16.5002 13.125V15M16.5002 13.125C16.5002 12.6277 16.6977 12.1508 17.0494 11.7992C17.401 11.4475 17.8779 11.25 18.3752 11.25C18.8725 11.25 19.3494 11.4475 19.701 11.7992C20.0526 12.1508 20.2502 12.6277 20.2502 13.125L20.2502 15V6.875C20.2502 6.37772 20.4478 5.90081 20.7994 5.54917C21.151 5.19754 21.6279 5 22.1252 5C22.6225 5 23.0994 5.19754 23.4511 5.54917C23.8027 5.90081 24.0002 6.37772 24.0002 6.875V20C24.0002 21.9891 23.2101 23.8968 21.8035 25.3033C20.397 26.7098 18.4894 27.5 16.5002 27.5H14.0002H14.2602C13.0181 27.5002 11.7955 27.1919 10.702 26.6029C9.60846 26.0138 8.67837 25.1623 7.99523 24.125C7.91324 24.0002 7.83157 23.8752 7.75023 23.75C7.36023 23.1513 5.99148 20.765 3.64273 16.59C3.40329 16.1644 3.33933 15.6622 3.46446 15.1902C3.58958 14.7182 3.89391 14.3136 4.31273 14.0625C4.75883 13.7948 5.28157 13.6839 5.79793 13.7473C6.31429 13.8107 6.79465 14.0448 7.16273 14.4125L9.00023 16.25L9.00018 5.625C9.00018 5.12772 9.19773 4.65081 9.54936 4.29917C9.90099 3.94754 10.3779 3.75 10.8752 3.75C11.3725 3.75 11.8494 3.94754 12.201 4.29917C12.5526 4.65081 12.7502 5.12772 12.7502 5.625V15" stroke="#842FFB" stroke-width="2" stroke-linecap="round" stroke-linejoin="round"/>
</svg>
