<svg width="50" height="50" viewBox="0 0 50 50" fill="none" xmlns="http://www.w3.org/2000/svg">
<path fill-rule="evenodd" clip-rule="evenodd" d="M3.125 25C3.125 12.9199 12.9199 3.125 25 3.125C37.0801 3.125 46.875 12.9199 46.875 25C46.875 37.0801 37.0801 46.875 25 46.875C12.9199 46.875 3.125 37.0801 3.125 25ZM6.83594 25C6.83594 35.0293 14.9707 43.1641 25 43.1641C35.0293 43.1641 43.1641 35.0293 43.1641 25C43.1641 14.9707 35.0293 6.83594 25 6.83594C14.9707 6.83594 6.83594 14.9707 6.83594 25ZM20.669 13.8721L35.127 24.3702C35.2268 24.4421 35.3081 24.5367 35.3642 24.6462C35.4202 24.7558 35.4495 24.877 35.4495 25.0001C35.4495 25.1231 35.4202 25.2444 35.3642 25.3539C35.3081 25.4634 35.2268 25.558 35.127 25.6299L20.669 36.128C20.1563 36.4991 19.4336 36.1378 19.4336 35.4981V14.502C19.4329 14.3582 19.4722 14.2171 19.547 14.0943C19.6218 13.9715 19.7292 13.872 19.8573 13.8066C19.9854 13.7413 20.1291 13.7129 20.2724 13.7244C20.4157 13.736 20.553 13.7871 20.669 13.8721ZM22.5488 19.087V30.9132L30.6885 25.0001L22.5488 19.087Z" fill="#C17AFC"/>
</svg>
