<svg width="200" height="200" viewBox="0 0 200 200" fill="none" xmlns="http://www.w3.org/2000/svg">
<circle cx="100" cy="100" r="100" fill="#F8F0FF"/>
<mask id="mask0" mask-type="alpha" maskUnits="userSpaceOnUse" x="0" y="0" width="200" height="200">
<circle cx="100" cy="100" r="100" fill="#B333CC"/>
<circle cx="100" cy="100" r="100" fill="url(#paint0_radial)"/>
<circle cx="100" cy="100" r="100" fill="url(#paint1_radial)"/>
<circle cx="100" cy="100" r="100" fill="url(#paint2_radial)"/>
</mask>
<g mask="url(#mask0)">
<rect x="81" y="116" width="38" height="112" fill="white"/>
<rect x="73" y="116" width="3" height="112" fill="white"/>
<rect x="124" y="116" width="3" height="112" fill="white"/>
<rect x="69" y="113" width="62" height="11" fill="white"/>
<path d="M81 124H119V127H81V124Z" fill="#F8F0FF"/>
<path d="M81 144H119V147H81V144Z" fill="#F8F0FF"/>
<path d="M81 174H119V177H81V174Z" fill="#F8F0FF"/>
<path d="M81 150H119V153H81V150Z" fill="#F8F0FF"/>
<path d="M81 180H119V183H81V180Z" fill="#F8F0FF"/>
<path d="M73 124H76V127H73V124Z" fill="#F8F0FF"/>
<path d="M124 124H127V127H124V124Z" fill="#F8F0FF"/>
<rect x="76" y="147" width="48" height="3" fill="white"/>
<rect x="76" y="177" width="48" height="3" fill="white"/>
<path d="M120.875 59.5938C113.876 59.6238 108.674 60.5875 104.909 62.2531C102.099 63.4953 101 64.4352 101 67.6193V101C105.303 97.1182 109.122 96.0312 124.188 96.0312V59.5938H120.875Z" fill="url(#paint3_linear)"/>
<path d="M79.125 59.5938C86.1237 59.6238 91.3264 60.5875 95.0913 62.2531C97.9007 63.4953 99 64.4352 99 67.6193V101C94.6969 97.1182 90.8782 96.0312 75.8125 96.0312V59.5938H79.125Z" fill="url(#paint4_linear)"/>
</g>
<defs>
<radialGradient id="paint0_radial" cx="0" cy="0" r="1" gradientUnits="userSpaceOnUse" gradientTransform="translate(34.2188 309.674) rotate(-79.2479) scale(286.995 271.71)">
<stop offset="0.150617" stop-color="#1AC4E6"/>
<stop offset="0.379643" stop-color="#1AA1E6"/>
<stop offset="1" stop-color="#BC36C7" stop-opacity="0"/>
</radialGradient>
<radialGradient id="paint1_radial" cx="0" cy="0" r="1" gradientUnits="userSpaceOnUse" gradientTransform="translate(144.041 -28.8637) rotate(105.313) scale(171.87 75.2252)">
<stop stop-color="#FF66E6"/>
<stop offset="0.980994" stop-color="#F20DCC" stop-opacity="0"/>
</radialGradient>
<radialGradient id="paint2_radial" cx="0" cy="0" r="1" gradientUnits="userSpaceOnUse" gradientTransform="translate(177.876 200) rotate(-125.041) scale(114.336 82.7799)">
<stop stop-color="#5E1AE6"/>
<stop offset="1" stop-color="#8B34A5" stop-opacity="0"/>
</radialGradient>
<linearGradient id="paint3_linear" x1="94.3623" y1="59.5938" x2="94.3623" y2="112.387" gradientUnits="userSpaceOnUse">
<stop stop-color="#3D9FF5"/>
<stop offset="1" stop-color="#4C2AD5"/>
</linearGradient>
<linearGradient id="paint4_linear" x1="94.3623" y1="59.5938" x2="94.3623" y2="112.387" gradientUnits="userSpaceOnUse">
<stop stop-color="#3D9FF5"/>
<stop offset="1" stop-color="#4C2AD5"/>
</linearGradient>
</defs>
</svg>
