<svg width="200" height="200" viewBox="0 0 200 200" fill="none" xmlns="http://www.w3.org/2000/svg">
<circle cx="100" cy="100" r="100" fill="#F8F0FF"/>
<mask id="mask0" mask-type="alpha" maskUnits="userSpaceOnUse" x="0" y="0" width="200" height="200">
<circle cx="100" cy="100" r="100" fill="#B333CC"/>
<circle cx="100" cy="100" r="100" fill="url(#paint0_radial)"/>
<circle cx="100" cy="100" r="100" fill="url(#paint1_radial)"/>
<circle cx="100" cy="100" r="100" fill="url(#paint2_radial)"/>
</mask>
<g mask="url(#mask0)">
<path d="M81 116C81 114.343 82.3431 113 84 113H116C117.657 113 119 114.343 119 116C119 117.657 117.657 119 116 119H84C82.3431 119 81 117.657 81 116Z" fill="white"/>
<path fill-rule="evenodd" clip-rule="evenodd" d="M98.9996 41.6931V78.126C97.2744 78.5701 95.9996 80.1362 95.9996 82C95.9996 84.2091 97.7905 86 99.9996 86C102.209 86 104 84.2091 104 82C104 80.1362 102.725 78.5701 101 78.126V41.6931C104.831 61.1264 118.505 79.5152 121.442 83.294C121.757 83.699 121.72 84.2775 121.365 84.648C111.957 94.4691 111 105 111 105H88.9996C88.9996 105 88.0423 94.4691 78.6338 84.648C78.279 84.2775 78.2427 83.699 78.5575 83.294C81.4938 79.5152 95.1685 61.1264 98.9996 41.6931Z" fill="url(#paint3_linear)"/>
<path d="M83 119H117L127 224H73L83 119Z" fill="white"/>
<rect x="117" y="119" width="1" height="34" transform="rotate(90 117 119)" fill="#F8F0FF"/>
</g>
<defs>
<radialGradient id="paint0_radial" cx="0" cy="0" r="1" gradientUnits="userSpaceOnUse" gradientTransform="translate(34.2188 309.674) rotate(-79.2479) scale(286.995 271.71)">
<stop offset="0.150617" stop-color="#1AC4E6"/>
<stop offset="0.379643" stop-color="#1AA1E6"/>
<stop offset="1" stop-color="#BC36C7" stop-opacity="0"/>
</radialGradient>
<radialGradient id="paint1_radial" cx="0" cy="0" r="1" gradientUnits="userSpaceOnUse" gradientTransform="translate(144.041 -28.8637) rotate(105.313) scale(171.87 75.2252)">
<stop stop-color="#FF66E6"/>
<stop offset="0.980994" stop-color="#F20DCC" stop-opacity="0"/>
</radialGradient>
<radialGradient id="paint2_radial" cx="0" cy="0" r="1" gradientUnits="userSpaceOnUse" gradientTransform="translate(177.876 200) rotate(-125.041) scale(114.336 82.7799)">
<stop stop-color="#5E1AE6"/>
<stop offset="1" stop-color="#8B34A5" stop-opacity="0"/>
</radialGradient>
<linearGradient id="paint3_linear" x1="94.9518" y1="41.6931" x2="94.9518" y2="122.409" gradientUnits="userSpaceOnUse">
<stop stop-color="#3D9FF5"/>
<stop offset="1" stop-color="#4C2AD5"/>
</linearGradient>
</defs>
</svg>
