<svg width="200" height="200" viewBox="0 0 200 200" fill="none" xmlns="http://www.w3.org/2000/svg">
<circle cx="100" cy="100" r="100" fill="#F8F0FF"/>
<mask id="mask0" mask-type="alpha" maskUnits="userSpaceOnUse" x="0" y="0" width="200" height="200">
<circle cx="100" cy="100" r="100" fill="#B333CC"/>
<circle cx="100" cy="100" r="100" fill="url(#paint0_radial)"/>
<circle cx="100" cy="100" r="100" fill="url(#paint1_radial)"/>
<circle cx="100" cy="100" r="100" fill="url(#paint2_radial)"/>
</mask>
<g mask="url(#mask0)">
<rect x="78" y="116" width="44" height="112" fill="white"/>
<circle cx="69" cy="124" r="11" fill="white"/>
<circle cx="131" cy="124" r="11" fill="white"/>
<rect x="69" y="113" width="62" height="11" fill="white"/>
<path d="M99 146C99 145.448 99.4477 145 100 145C100.552 145 101 145.448 101 146V228C101 228.552 100.552 229 100 229C99.4477 229 99 228.552 99 228V146Z" fill="#F8F0FF"/>
<path d="M87 146C87 145.448 87.4477 145 88 145C88.5523 145 89 145.448 89 146V228C89 228.552 88.5523 229 88 229C87.4477 229 87 228.552 87 228V146Z" fill="#F8F0FF"/>
<path d="M111 146C111 145.448 111.448 145 112 145C112.552 145 113 145.448 113 146V228C113 228.552 112.552 229 112 229C111.448 229 111 228.552 111 228V146Z" fill="#F8F0FF"/>
<path fill-rule="evenodd" clip-rule="evenodd" d="M127.147 78.8536C127.462 78.5386 127.239 78 126.793 78H112.151C111.944 78 111.758 78.1277 111.684 78.321L102.579 102.069C102.385 102.573 103.017 102.983 103.399 102.601L127.147 78.8536ZM96.6016 102.601C96.9832 102.983 97.6152 102.573 97.422 102.069L88.3168 78.321C88.2426 78.1277 88.057 78 87.8499 78H73.2075C72.762 78 72.539 78.5386 72.8539 78.8536L96.6016 102.601ZM72.3985 75.194C72.1441 75.5225 72.3783 76 72.7939 76H86.2178C86.6075 76 86.8474 75.574 86.6454 75.2408L80.75 65.5161C80.5681 65.2161 80.1418 65.1918 79.9271 65.4692L72.3985 75.194ZM83.0575 64C82.6679 64 82.428 64.426 82.63 64.7592L88.7052 74.7806C88.8823 75.0727 89.2938 75.1052 89.5144 74.8443L97.9941 64.823C98.269 64.498 98.038 64 97.6124 64H83.0575ZM102.388 64C101.963 64 101.732 64.498 102.007 64.823L110.486 74.8443C110.707 75.1051 111.118 75.0727 111.295 74.7806L117.371 64.7592C117.573 64.426 117.333 64 116.943 64H102.388ZM120.074 65.4692C119.859 65.1917 119.433 65.216 119.251 65.5161L113.355 75.2408C113.153 75.574 113.393 76 113.783 76H127.207C127.622 76 127.857 75.5225 127.602 75.194L120.074 65.4692ZM91.0629 78C90.7122 78 90.4705 78.3516 90.596 78.679L99.5335 101.989C99.6976 102.417 100.303 102.417 100.467 101.989L109.405 78.679C109.53 78.3516 109.288 78 108.938 78H91.0629ZM99.6187 65.9992C99.8184 65.7632 100.182 65.7632 100.382 65.9992L108.148 75.1771C108.423 75.502 108.192 76 107.766 76H92.2345C91.8088 76 91.5779 75.502 91.8528 75.1771L99.6187 65.9992Z" fill="url(#paint3_linear)"/>
</g>
<circle cx="78" cy="140" r="3" fill="white"/>
<circle cx="122" cy="140" r="3" fill="white"/>
<defs>
<radialGradient id="paint0_radial" cx="0" cy="0" r="1" gradientUnits="userSpaceOnUse" gradientTransform="translate(34.2188 309.674) rotate(-79.2479) scale(286.995 271.71)">
<stop offset="0.150617" stop-color="#1AC4E6"/>
<stop offset="0.379643" stop-color="#1AA1E6"/>
<stop offset="1" stop-color="#BC36C7" stop-opacity="0"/>
</radialGradient>
<radialGradient id="paint1_radial" cx="0" cy="0" r="1" gradientUnits="userSpaceOnUse" gradientTransform="translate(144.041 -28.8637) rotate(105.313) scale(171.87 75.2252)">
<stop stop-color="#FF66E6"/>
<stop offset="0.980994" stop-color="#F20DCC" stop-opacity="0"/>
</radialGradient>
<radialGradient id="paint2_radial" cx="0" cy="0" r="1" gradientUnits="userSpaceOnUse" gradientTransform="translate(177.876 200) rotate(-125.041) scale(114.336 82.7799)">
<stop stop-color="#5E1AE6"/>
<stop offset="1" stop-color="#8B34A5" stop-opacity="0"/>
</radialGradient>
<linearGradient id="paint3_linear" x1="93.5422" y1="64" x2="93.5422" y2="113.408" gradientUnits="userSpaceOnUse">
<stop stop-color="#3D9FF5"/>
<stop offset="1" stop-color="#4C2AD5"/>
</linearGradient>
</defs>
</svg>
