<svg width="200" height="200" viewBox="0 0 200 200" fill="none" xmlns="http://www.w3.org/2000/svg">
<circle cx="100" cy="100" r="100" fill="#F8F0FF"/>
<mask id="mask0" mask-type="alpha" maskUnits="userSpaceOnUse" x="0" y="0" width="200" height="200">
<circle cx="100" cy="100" r="100" fill="#B333CC"/>
<circle cx="100" cy="100" r="100" fill="url(#paint0_radial)"/>
<circle cx="100" cy="100" r="100" fill="url(#paint1_radial)"/>
<circle cx="100" cy="100" r="100" fill="url(#paint2_radial)"/>
</mask>
<g mask="url(#mask0)">
<rect x="78" y="116" width="44" height="112" fill="white"/>
<rect x="69" y="113" width="62" height="5" fill="white"/>
<path d="M69 118H131L122 138H78L69 118Z" fill="white"/>
<rect x="69" y="118" width="62" height="2" fill="#EFD2FE"/>
<rect x="69" y="138" width="62" height="2" fill="#EFD2FE"/>
<rect x="69" y="153" width="62" height="2" fill="#EFD2FE"/>
<rect x="69" y="168" width="62" height="2" fill="#EFD2FE"/>
</g>
<path fill-rule="evenodd" clip-rule="evenodd" d="M123 70C124.657 70 126 71.3431 126 73V79H74V73C74 71.3431 75.3431 70 77 70H81H84V68C84.0014 66.6081 84.5157 65.4843 85.5 64.5C86.4843 63.5157 87.6081 63.0014 89 63H111C112.392 63.0014 113.516 63.5157 114.5 64.5C115.484 65.4843 115.999 66.6081 116 68V70H119H123ZM87 70H113V68C113 67.5359 113 67 112.5 66.5C112 66 111.464 66 111 66H89C88.5359 66 88 66 87.5 66.5C87 67 87 67.5359 87 68V70ZM104 86C104.552 86 105 85.5523 105 85V81H126V100C126 101.657 124.657 103 123 103H77.0003C75.3434 103 74.0003 101.657 74.0003 100V81H97V85C97 85.5523 97.4477 86 98 86H104Z" fill="url(#paint3_linear)"/>
<rect x="73" y="155" width="54" height="4" fill="white"/>
<path d="M78 168H122L127 159H73L78 168Z" fill="white"/>
<path d="M115 126L120 128L115 130L110 128L115 126Z" fill="#EFD2FE"/>
<path d="M101 126L106 128L101 130L96 128L101 126Z" fill="#EFD2FE"/>
<path d="M87 126L92 128L87 130L82 128L87 126Z" fill="#EFD2FE"/>
<defs>
<radialGradient id="paint0_radial" cx="0" cy="0" r="1" gradientUnits="userSpaceOnUse" gradientTransform="translate(34.2188 309.674) rotate(-79.2479) scale(286.995 271.71)">
<stop offset="0.150617" stop-color="#1AC4E6"/>
<stop offset="0.379643" stop-color="#1AA1E6"/>
<stop offset="1" stop-color="#BC36C7" stop-opacity="0"/>
</radialGradient>
<radialGradient id="paint1_radial" cx="0" cy="0" r="1" gradientUnits="userSpaceOnUse" gradientTransform="translate(144.041 -28.8637) rotate(105.313) scale(171.87 75.2252)">
<stop stop-color="#FF66E6"/>
<stop offset="0.980994" stop-color="#F20DCC" stop-opacity="0"/>
</radialGradient>
<radialGradient id="paint2_radial" cx="0" cy="0" r="1" gradientUnits="userSpaceOnUse" gradientTransform="translate(177.876 200) rotate(-125.041) scale(114.336 82.7799)">
<stop stop-color="#5E1AE6"/>
<stop offset="1" stop-color="#8B34A5" stop-opacity="0"/>
</radialGradient>
<linearGradient id="paint3_linear" x1="93.9399" y1="63" x2="93.9399" y2="114" gradientUnits="userSpaceOnUse">
<stop stop-color="#3D9FF5"/>
<stop offset="1" stop-color="#4C2AD5"/>
</linearGradient>
</defs>
</svg>
