<svg width="200" height="200" viewBox="0 0 200 200" fill="none" xmlns="http://www.w3.org/2000/svg">
<circle cx="100" cy="100" r="100" fill="#F8F0FF"/>
<mask id="mask0" mask-type="alpha" maskUnits="userSpaceOnUse" x="0" y="0" width="200" height="200">
<circle cx="100" cy="100" r="100" fill="#B333CC"/>
<circle cx="100" cy="100" r="100" fill="url(#paint0_radial)"/>
<circle cx="100" cy="100" r="100" fill="url(#paint1_radial)"/>
<circle cx="100" cy="100" r="100" fill="url(#paint2_radial)"/>
</mask>
<g mask="url(#mask0)">
<rect x="91" y="130" width="4" height="73" fill="white"/>
<rect x="121" y="130" width="4" height="73" fill="white"/>
<rect x="76" y="130" width="4" height="73" fill="white"/>
<rect x="106" y="130" width="4" height="73" fill="white"/>
<path d="M131 164V168L69 168L69 164L131 164Z" fill="white"/>
</g>
<path fill-rule="evenodd" clip-rule="evenodd" d="M50 113C59.9804 126.152 78.6346 135 100 135C121.365 135 140.02 126.152 150 113H50Z" fill="white"/>
<path fill-rule="evenodd" clip-rule="evenodd" d="M73 96.6923V66.6154C73 66.6154 79.2769 64 86.0769 64C90.2667 64 93.8413 64.7826 97.7974 65.6487C102.699 66.7218 108.186 67.9231 116.154 67.9231C125.308 67.9231 127.923 66.6154 127.923 66.6154V95.3846C126.615 96.2564 122.431 98 116.154 98C112.382 98 107.401 97.2444 102.228 96.4598C96.6411 95.6123 90.8301 94.7308 86.0769 94.7308C78.7538 94.7308 73 96.6923 73 96.6923ZM100.5 89C104.09 89 107 85.4183 107 81C107 76.5817 104.09 73 100.5 73C96.9101 73 94 76.5817 94 81C94 85.4183 96.9101 89 100.5 89Z" fill="url(#paint3_linear)"/>
<defs>
<radialGradient id="paint0_radial" cx="0" cy="0" r="1" gradientUnits="userSpaceOnUse" gradientTransform="translate(34.2188 309.674) rotate(-79.2479) scale(286.995 271.71)">
<stop offset="0.150617" stop-color="#1AC4E6"/>
<stop offset="0.379643" stop-color="#1AA1E6"/>
<stop offset="1" stop-color="#BC36C7" stop-opacity="0"/>
</radialGradient>
<radialGradient id="paint1_radial" cx="0" cy="0" r="1" gradientUnits="userSpaceOnUse" gradientTransform="translate(144.041 -28.8637) rotate(105.313) scale(171.87 75.2252)">
<stop stop-color="#FF66E6"/>
<stop offset="0.980994" stop-color="#F20DCC" stop-opacity="0"/>
</radialGradient>
<radialGradient id="paint2_radial" cx="0" cy="0" r="1" gradientUnits="userSpaceOnUse" gradientTransform="translate(177.876 200) rotate(-125.041) scale(114.336 82.7799)">
<stop stop-color="#5E1AE6"/>
<stop offset="1" stop-color="#8B34A5" stop-opacity="0"/>
</radialGradient>
<linearGradient id="paint3_linear" x1="94.0607" y1="64" x2="94.0607" y2="107.35" gradientUnits="userSpaceOnUse">
<stop stop-color="#3D9FF5"/>
<stop offset="1" stop-color="#4C2AD5"/>
</linearGradient>
</defs>
</svg>
