<svg width="200" height="200" viewBox="0 0 200 200" fill="none" xmlns="http://www.w3.org/2000/svg">
<circle cx="100" cy="100" r="100" fill="#F8F0FF"/>
<mask id="mask0" mask-type="alpha" maskUnits="userSpaceOnUse" x="0" y="0" width="200" height="200">
<circle cx="100" cy="100" r="100" fill="#B333CC"/>
<circle cx="100" cy="100" r="100" fill="url(#paint0_radial)"/>
<circle cx="100" cy="100" r="100" fill="url(#paint1_radial)"/>
<circle cx="100" cy="100" r="100" fill="url(#paint2_radial)"/>
</mask>
<g mask="url(#mask0)">
<path d="M73 113H127V140H73V113Z" fill="white"/>
<rect x="85" y="140" width="30" height="62" fill="white"/>
<path d="M85 140H115V143H85V140Z" fill="#F8F0FF"/>
<rect x="78" y="118" width="2" height="17" rx="1" fill="#F8F0FF"/>
<rect x="85" y="118" width="2" height="17" rx="1" fill="#F8F0FF"/>
<rect x="92" y="118" width="2" height="17" rx="1" fill="#F8F0FF"/>
<rect x="99" y="118" width="2" height="17" rx="1" fill="#F8F0FF"/>
<rect x="106" y="118" width="2" height="17" rx="1" fill="#F8F0FF"/>
<rect x="113" y="118" width="2" height="17" rx="1" fill="#F8F0FF"/>
<rect x="120" y="118" width="2" height="17" rx="1" fill="#F8F0FF"/>
</g>
<path fill-rule="evenodd" clip-rule="evenodd" d="M75 79C75 73.3995 75 70.5992 76.0899 68.4601C77.0487 66.5785 78.5785 65.0487 80.4601 64.0899C82.5992 63 85.3995 63 91 63H109C114.601 63 117.401 63 119.54 64.0899C121.422 65.0487 122.951 66.5785 123.91 68.4601C125 70.5992 125 73.3995 125 79C125 84.6005 125 87.4008 123.91 89.5399C122.951 91.4215 121.422 92.9513 119.54 93.9101C117.401 95 114.601 95 109 95H91L84.7071 101.293C84.0771 101.923 83 101.477 83 100.586V94.694C82.0159 94.5327 81.1986 94.2863 80.4601 93.9101C78.5785 92.9513 77.0487 91.4215 76.0899 89.5399C75 87.4008 75 84.6005 75 79ZM88 82C89.6569 82 91 80.6569 91 79C91 77.3431 89.6569 76 88 76C86.3431 76 85 77.3431 85 79C85 80.6569 86.3431 82 88 82ZM103 79C103 80.6569 101.657 82 100 82C98.3431 82 97 80.6569 97 79C97 77.3431 98.3431 76 100 76C101.657 76 103 77.3431 103 79ZM112 82C113.657 82 115 80.6569 115 79C115 77.3431 113.657 76 112 76C110.343 76 109 77.3431 109 79C109 80.6569 110.343 82 112 82Z" fill="url(#paint3_linear)"/>
<defs>
<radialGradient id="paint0_radial" cx="0" cy="0" r="1" gradientUnits="userSpaceOnUse" gradientTransform="translate(34.2188 309.674) rotate(-79.2479) scale(286.995 271.71)">
<stop offset="0.150617" stop-color="#1AC4E6"/>
<stop offset="0.379643" stop-color="#1AA1E6"/>
<stop offset="1" stop-color="#BC36C7" stop-opacity="0"/>
</radialGradient>
<radialGradient id="paint1_radial" cx="0" cy="0" r="1" gradientUnits="userSpaceOnUse" gradientTransform="translate(144.041 -28.8637) rotate(105.313) scale(171.87 75.2252)">
<stop stop-color="#FF66E6"/>
<stop offset="0.980994" stop-color="#F20DCC" stop-opacity="0"/>
</radialGradient>
<radialGradient id="paint2_radial" cx="0" cy="0" r="1" gradientUnits="userSpaceOnUse" gradientTransform="translate(177.876 200) rotate(-125.041) scale(114.336 82.7799)">
<stop stop-color="#5E1AE6"/>
<stop offset="1" stop-color="#8B34A5" stop-opacity="0"/>
</radialGradient>
<linearGradient id="paint3_linear" x1="94.1729" y1="63" x2="94.1729" y2="112.199" gradientUnits="userSpaceOnUse">
<stop stop-color="#3D9FF5"/>
<stop offset="1" stop-color="#4C2AD5"/>
</linearGradient>
</defs>
</svg>
