<svg width="38" height="40" fill="none" xmlns="http://www.w3.org/2000/svg"><path d="M19 37.798c10.493 0 19-8.462 19-18.9C38 8.462 29.493 0 19 0S0 8.461 0 18.899c0 10.437 8.507 18.899 19 18.899z" fill="#FFCB4C"/><path d="M15.114 23.366a1.017 1.017 0 01-.349-.516.888.888 0 01.66-1.135c5.06-1.135 8.468 1.515 8.613 1.628.429.34.512.94.193 1.34-.32.398-.926.446-1.354.108-.122-.094-2.82-2.138-6.909-1.221a1.022 1.022 0 01-.854-.204zM13.545 15.355c1.312 0 2.375-1.322 2.375-2.953 0-1.63-1.063-2.953-2.375-2.953s-2.375 1.322-2.375 2.953c0 1.63 1.063 2.953 2.375 2.953zM26.125 16.535c1.312 0 2.375-1.322 2.375-2.952 0-1.631-1.063-2.953-2.375-2.953s-2.375 1.322-2.375 2.953c0 1.63 1.063 2.952 2.375 2.952z" fill="#65471B"/><path d="M18.19 39.055s1.414-.457 1.597-1.503c.194-1.08-.697-1.297-.697-1.297s1.163-.231 1.31-1.53c.137-1.224-.962-1.515-.962-1.515s1.084-.445 1.135-1.71c.043-1.067-1.112-1.588-1.112-1.588s5.63-1.358 6.21-1.491c.576-.134 1.475-.684 1.194-1.883-.278-1.201-1.345-1.243-1.896-1.116-.552.128-7.538 1.741-9.947 2.3l-1.609.37c-.603.142-.877-.121-.451-.568.568-.596.93-1.256 1.057-2.35.133-1.15-.26-2.57-.484-3.122-.418-1.024-1.123-1.833-1.938-2.111-1.27-.434-2.174.357-1.723 1.735.675 2.061.232 3.752-.931 4.773-2.737 2.398-4.01 4.107-3.163 7.751.925 3.975 4.892 6.533 8.887 5.612l3.523-.757z" fill="#F19020"/><path d="M9.272 7.04a1.03 1.03 0 01-.437-.443.886.886 0 01.439-1.236c4.768-2.036 8.605-.048 8.766.038.483.256.68.83.437 1.282-.242.45-.828.607-1.311.354-.138-.07-3.166-1.592-7.017.052a1.027 1.027 0 01-.877-.046zm13.562 4.17a1.03 1.03 0 01-.404-.472.888.888 0 01.523-1.205c4.896-1.708 8.589.534 8.743.63.464.29.62.875.349 1.31-.27.433-.868.55-1.331.264-.134-.08-3.048-1.802-7.005-.42a1.038 1.038 0 01-.875-.108z" fill="#65471B"/></svg>