<svg width="1920" height="760" viewBox="0 0 1920 760" fill="none" xmlns="http://www.w3.org/2000/svg">
<g clip-path="url(#clip0)">
<path fill-rule="evenodd" clip-rule="evenodd" d="M0 0V560C0 560 375 680 960 680C1545 680 1920 560 1920 560V0H0Z" fill="#B333CC"/>
<path fill-rule="evenodd" clip-rule="evenodd" d="M0 0V560C0 560 375 680 960 680C1545 680 1920 560 1920 560V0H0Z" fill="url(#paint0_radial)"/>
<path fill-rule="evenodd" clip-rule="evenodd" d="M0 0V560C0 560 375 680 960 680C1545 680 1920 560 1920 560V0H0Z" fill="url(#paint1_radial)"/>
<path fill-rule="evenodd" clip-rule="evenodd" d="M0 0V560C0 560 375 680 960 680C1545 680 1920 560 1920 560V0H0Z" fill="url(#paint2_radial)"/>
<mask id="mask0" style="mask-type:alpha" maskUnits="userSpaceOnUse" x="0" y="-80" width="1920" height="760">
<path fill-rule="evenodd" clip-rule="evenodd" d="M0 -80V560C0 560 375 680 960 680C1545 680 1920 560 1920 560V-80H0Z" fill="#B333CC"/>
<path fill-rule="evenodd" clip-rule="evenodd" d="M0 -80V560C0 560 375 680 960 680C1545 680 1920 560 1920 560V-80H0Z" fill="url(#paint3_radial)"/>
<path fill-rule="evenodd" clip-rule="evenodd" d="M0 -80V560C0 560 375 680 960 680C1545 680 1920 560 1920 560V-80H0Z" fill="url(#paint4_radial)"/>
<path fill-rule="evenodd" clip-rule="evenodd" d="M0 -80V560C0 560 375 680 960 680C1545 680 1920 560 1920 560V-80H0Z" fill="url(#paint5_radial)"/>
</mask>
<g mask="url(#mask0)">
<g opacity="0.15">
<path d="M263.348 512.402C239.348 650.402 122.347 683.402 112.347 779.402C102.347 875.402 67.3142 935.583 -67.1692 955.402C-201.653 975.22 -250.169 934.402 -324.169 847.402C-398.169 760.402 -397.214 616.048 -343.653 520.402C-273.653 395.402 -138.653 354.402 -41.6526 359.402C55.3474 364.402 287.347 374.402 263.348 512.402Z" fill="#B333CC"/>
<path d="M263.348 512.402C239.348 650.402 122.347 683.402 112.347 779.402C102.347 875.402 67.3142 935.583 -67.1692 955.402C-201.653 975.22 -250.169 934.402 -324.169 847.402C-398.169 760.402 -397.214 616.048 -343.653 520.402C-273.653 395.402 -138.653 354.402 -41.6526 359.402C55.3474 364.402 287.347 374.402 263.348 512.402Z" fill="url(#paint6_radial)"/>
<path d="M263.348 512.402C239.348 650.402 122.347 683.402 112.347 779.402C102.347 875.402 67.3142 935.583 -67.1692 955.402C-201.653 975.22 -250.169 934.402 -324.169 847.402C-398.169 760.402 -397.214 616.048 -343.653 520.402C-273.653 395.402 -138.653 354.402 -41.6526 359.402C55.3474 364.402 287.347 374.402 263.348 512.402Z" fill="url(#paint7_radial)"/>
<path d="M263.348 512.402C239.348 650.402 122.347 683.402 112.347 779.402C102.347 875.402 67.3142 935.583 -67.1692 955.402C-201.653 975.22 -250.169 934.402 -324.169 847.402C-398.169 760.402 -397.214 616.048 -343.653 520.402C-273.653 395.402 -138.653 354.402 -41.6526 359.402C55.3474 364.402 287.347 374.402 263.348 512.402Z" fill="url(#paint8_radial)"/>
</g>
<g opacity="0.3">
<path d="M2003.09 231.685C1882.17 302.384 1892.13 423.541 1805.67 466.45C1719.21 509.359 1675.06 563.209 1703.48 696.142C1731.89 829.076 1787.09 860.275 1894.46 899.217C2001.83 938.16 2136.75 886.833 2207.66 803.231C2300.33 693.972 2291.58 553.154 2253.01 464.013C2214.43 374.872 2124.01 160.985 2003.09 231.685Z" fill="#B333CC"/>
<path d="M2003.09 231.685C1882.17 302.384 1892.13 423.541 1805.67 466.45C1719.21 509.359 1675.06 563.209 1703.48 696.142C1731.89 829.076 1787.09 860.275 1894.46 899.217C2001.83 938.16 2136.75 886.833 2207.66 803.231C2300.33 693.972 2291.58 553.154 2253.01 464.013C2214.43 374.872 2124.01 160.985 2003.09 231.685Z" fill="url(#paint9_radial)"/>
<path d="M2003.09 231.685C1882.17 302.384 1892.13 423.541 1805.67 466.45C1719.21 509.359 1675.06 563.209 1703.48 696.142C1731.89 829.076 1787.09 860.275 1894.46 899.217C2001.83 938.16 2136.75 886.833 2207.66 803.231C2300.33 693.972 2291.58 553.154 2253.01 464.013C2214.43 374.872 2124.01 160.985 2003.09 231.685Z" fill="url(#paint10_radial)"/>
<path d="M2003.09 231.685C1882.17 302.384 1892.13 423.541 1805.67 466.45C1719.21 509.359 1675.06 563.209 1703.48 696.142C1731.89 829.076 1787.09 860.275 1894.46 899.217C2001.83 938.16 2136.75 886.833 2207.66 803.231C2300.33 693.972 2291.58 553.154 2253.01 464.013C2214.43 374.872 2124.01 160.985 2003.09 231.685Z" fill="url(#paint11_radial)"/>
</g>
</g>
</g>
<defs>
<radialGradient id="paint0_radial" cx="0" cy="0" r="1" gradientUnits="userSpaceOnUse" gradientTransform="translate(328.5 1052.89) rotate(-61.8012) scale(1087.75 2339.91)">
<stop offset="0.150617" stop-color="#1AC4E6"/>
<stop offset="0.379643" stop-color="#1AA1E6"/>
<stop offset="1" stop-color="#BC36C7" stop-opacity="0"/>
</radialGradient>
<radialGradient id="paint1_radial" cx="0" cy="0" r="1" gradientUnits="userSpaceOnUse" gradientTransform="translate(1382.8 -98.1364) rotate(127.708) scale(712.405 592.362)">
<stop stop-color="#FF66E6"/>
<stop offset="0.980994" stop-color="#F20DCC" stop-opacity="0"/>
</radialGradient>
<radialGradient id="paint2_radial" cx="0" cy="0" r="1" gradientUnits="userSpaceOnUse" gradientTransform="translate(1707.61 680) rotate(-153.205) scale(706.028 437.558)">
<stop stop-color="#5E1AE6"/>
<stop offset="1" stop-color="#8B34A5" stop-opacity="0"/>
</radialGradient>
<radialGradient id="paint3_radial" cx="0" cy="0" r="1" gradientUnits="userSpaceOnUse" gradientTransform="translate(328.5 1096.76) rotate(-64.3715) scale(1188.35 2393.82)">
<stop offset="0.150617" stop-color="#1AC4E6"/>
<stop offset="0.379643" stop-color="#1AA1E6"/>
<stop offset="1" stop-color="#BC36C7" stop-opacity="0"/>
</radialGradient>
<radialGradient id="paint4_radial" cx="0" cy="0" r="1" gradientUnits="userSpaceOnUse" gradientTransform="translate(1382.8 -189.682) rotate(124.673) scale(765.938 615.779)">
<stop stop-color="#FF66E6"/>
<stop offset="0.980994" stop-color="#F20DCC" stop-opacity="0"/>
</radialGradient>
<radialGradient id="paint5_radial" cx="0" cy="0" r="1" gradientUnits="userSpaceOnUse" gradientTransform="translate(1707.61 680) rotate(-150.558) scale(723.68 477.106)">
<stop stop-color="#5E1AE6"/>
<stop offset="1" stop-color="#8B34A5" stop-opacity="0"/>
</radialGradient>
<radialGradient id="paint6_radial" cx="0" cy="0" r="1" gradientUnits="userSpaceOnUse" gradientTransform="translate(154.367 29.2517) rotate(101.549) scale(865.255 876.68)">
<stop offset="0.150617" stop-color="#1AC4E6"/>
<stop offset="0.379643" stop-color="#1AA1E6"/>
<stop offset="1" stop-color="#BC36C7" stop-opacity="0"/>
</radialGradient>
<radialGradient id="paint7_radial" cx="0" cy="0" r="1" gradientUnits="userSpaceOnUse" gradientTransform="translate(-200.952 1047.11) rotate(-73.5829) scale(519.587 242.053)">
<stop stop-color="#FF66E6"/>
<stop offset="0.980994" stop-color="#F20DCC" stop-opacity="0"/>
</radialGradient>
<radialGradient id="paint8_radial" cx="0" cy="0" r="1" gradientUnits="userSpaceOnUse" gradientTransform="translate(-310.419 359) rotate(52.9604) scale(352.602 261.113)">
<stop stop-color="#5E1AE6"/>
<stop offset="1" stop-color="#8B34A5" stop-opacity="0"/>
</radialGradient>
<radialGradient id="paint9_radial" cx="0" cy="0" r="1" gradientUnits="userSpaceOnUse" gradientTransform="translate(2493.87 165.004) rotate(148.003) scale(865.255 876.68)">
<stop offset="0.150617" stop-color="#1AC4E6"/>
<stop offset="0.379643" stop-color="#1AA1E6"/>
<stop offset="1" stop-color="#BC36C7" stop-opacity="0"/>
</radialGradient>
<radialGradient id="paint10_radial" cx="0" cy="0" r="1" gradientUnits="userSpaceOnUse" gradientTransform="translate(1664.29 853.534) rotate(-36.8655) scale(519.587 242.053)">
<stop stop-color="#FF66E6"/>
<stop offset="0.980994" stop-color="#F20DCC" stop-opacity="0"/>
</radialGradient>
<radialGradient id="paint11_radial" cx="0" cy="0" r="1" gradientUnits="userSpaceOnUse" gradientTransform="translate(2347.28 715.704) rotate(-163.409) scale(352.602 261.113)">
<stop stop-color="#5E1AE6"/>
<stop offset="1" stop-color="#8B34A5" stop-opacity="0"/>
</radialGradient>
<clipPath id="clip0">
<rect width="1920" height="760" fill="white"/>
</clipPath>
</defs>
</svg>
