<svg width="120" height="120" viewBox="0 0 120 120" fill="none" xmlns="http://www.w3.org/2000/svg">
<circle cx="60" cy="60" r="60" fill="white"/>
<path d="M100.5 68.5C100.5 63.1815 99.4524 57.915 97.4171 53.0013C95.3818 48.0876 92.3986 43.6229 88.6378 39.8622C84.8771 36.1014 80.4124 33.1182 75.4987 31.0829C70.585 29.0476 65.3185 28 60 28C54.6815 28 49.415 29.0476 44.5013 31.0829C39.5876 33.1182 35.1229 36.1014 31.3622 39.8622C27.6014 43.623 24.6182 48.0876 22.5829 53.0013C20.5476 57.915 19.5 63.1815 19.5 68.5L41.9854 68.5C41.9854 66.1343 42.4514 63.7918 43.3567 61.6061C44.262 59.4205 45.589 57.4346 47.2618 55.7618C48.9346 54.089 50.9205 52.762 53.1061 51.8567C55.2918 50.9514 57.6343 50.4854 60 50.4854C62.3657 50.4854 64.7082 50.9514 66.8939 51.8567C69.0795 52.762 71.0654 54.089 72.7382 55.7618C74.411 57.4346 75.738 59.4205 76.6433 61.6061C77.5486 63.7918 78.0146 66.1343 78.0146 68.5H100.5Z" fill="#F8F0FF"/>
<path d="M88.6454 35.481C89.1513 35.0632 89.8918 35.0984 90.3558 35.5623C90.8197 36.0262 90.8549 36.7668 90.437 37.2726L63.7663 69.5583C61.7903 71.9502 58.1842 72.1215 55.9904 69.9277C53.7965 67.7339 53.9679 64.1277 56.3598 62.1518L88.6454 35.481Z" fill="url(#paint0_linear)"/>
<defs>
<linearGradient id="paint0_linear" x1="89.4022" y1="34.6087" x2="45.5863" y2="78.4246" gradientUnits="userSpaceOnUse">
<stop stop-color="#3D9FF5"/>
<stop offset="1" stop-color="#4C2AD5"/>
</linearGradient>
</defs>
</svg>
