<svg width="630" height="450" viewBox="0 0 630 450" fill="none" xmlns="http://www.w3.org/2000/svg">
<path d="M0 128C0 83.1958 0 60.7937 8.71948 43.6808C16.3893 28.6278 28.6278 16.3893 43.6808 8.71948C60.7937 0 83.1958 0 128 0H502C546.804 0 569.206 0 586.319 8.71948C601.372 16.3893 613.611 28.6278 621.281 43.6808C630 60.7937 630 83.1958 630 128V322C630 366.804 630 389.206 621.281 406.319C613.611 421.372 601.372 433.611 586.319 441.281C569.206 450 546.804 450 502 450H128C83.1958 450 60.7937 450 43.6808 441.281C28.6278 433.611 16.3893 421.372 8.71948 406.319C0 389.206 0 366.804 0 322V128Z" fill="#B333CC"/>
<path d="M0 128C0 83.1958 0 60.7937 8.71948 43.6808C16.3893 28.6278 28.6278 16.3893 43.6808 8.71948C60.7937 0 83.1958 0 128 0H502C546.804 0 569.206 0 586.319 8.71948C601.372 16.3893 613.611 28.6278 621.281 43.6808C630 60.7937 630 83.1958 630 128V322C630 366.804 630 389.206 621.281 406.319C613.611 421.372 601.372 433.611 586.319 441.281C569.206 450 546.804 450 502 450H128C83.1958 450 60.7937 450 43.6808 441.281C28.6278 433.611 16.3893 421.372 8.71948 406.319C0 389.206 0 366.804 0 322V128Z" fill="url(#paint0_radial)"/>
<path d="M0 128C0 83.1958 0 60.7937 8.71948 43.6808C16.3893 28.6278 28.6278 16.3893 43.6808 8.71948C60.7937 0 83.1958 0 128 0H502C546.804 0 569.206 0 586.319 8.71948C601.372 16.3893 613.611 28.6278 621.281 43.6808C630 60.7937 630 83.1958 630 128V322C630 366.804 630 389.206 621.281 406.319C613.611 421.372 601.372 433.611 586.319 441.281C569.206 450 546.804 450 502 450H128C83.1958 450 60.7937 450 43.6808 441.281C28.6278 433.611 16.3893 421.372 8.71948 406.319C0 389.206 0 366.804 0 322V128Z" fill="url(#paint1_radial)"/>
<path d="M0 128C0 83.1958 0 60.7937 8.71948 43.6808C16.3893 28.6278 28.6278 16.3893 43.6808 8.71948C60.7937 0 83.1958 0 128 0H502C546.804 0 569.206 0 586.319 8.71948C601.372 16.3893 613.611 28.6278 621.281 43.6808C630 60.7937 630 83.1958 630 128V322C630 366.804 630 389.206 621.281 406.319C613.611 421.372 601.372 433.611 586.319 441.281C569.206 450 546.804 450 502 450H128C83.1958 450 60.7937 450 43.6808 441.281C28.6278 433.611 16.3893 421.372 8.71948 406.319C0 389.206 0 366.804 0 322V128Z" fill="url(#paint2_radial)"/>
<defs>
<radialGradient id="paint0_radial" cx="0" cy="0" r="1" gradientUnits="userSpaceOnUse" gradientTransform="translate(107.789 696.766) rotate(-75.1122) scale(656.438 841.936)">
<stop offset="0.150617" stop-color="#1AC4E6"/>
<stop offset="0.379643" stop-color="#1AA1E6"/>
<stop offset="1" stop-color="#BC36C7" stop-opacity="0"/>
</radialGradient>
<radialGradient id="paint1_radial" cx="0" cy="0" r="1" gradientUnits="userSpaceOnUse" gradientTransform="translate(453.731 -64.9432) rotate(110.973) scale(399.443 229.404)">
<stop stop-color="#FF66E6"/>
<stop offset="0.980994" stop-color="#F20DCC" stop-opacity="0"/>
</radialGradient>
<radialGradient id="paint2_radial" cx="0" cy="0" r="1" gradientUnits="userSpaceOnUse" gradientTransform="translate(560.308 450) rotate(-134.474) scale(295.17 227.263)">
<stop stop-color="#5E1AE6"/>
<stop offset="1" stop-color="#8B34A5" stop-opacity="0"/>
</radialGradient>
</defs>
</svg>
