<svg width="128" height="128" viewBox="0 0 128 128" fill="none" xmlns="http://www.w3.org/2000/svg">
<path opacity="0.5" d="M70.4809 29.0911L70.7343 30.1446L71.3715 29.2682L87.6733 6.84756L83.3466 34.2285L83.1775 35.2988L84.1016 34.733L107.743 20.2574L93.267 43.8984L92.7012 44.8225L93.7715 44.6534L121.152 40.3267L98.7318 56.6285L97.8554 57.2658L98.9089 57.5191L125.861 64L98.9089 70.4809L97.8554 70.7343L98.7318 71.3715L121.152 87.6733L93.7715 83.3466L92.7012 83.1775L93.267 84.1016L107.743 107.743L84.1016 93.267L83.1775 92.7012L83.3466 93.7715L87.6733 121.152L71.3715 98.7318L70.7343 97.8554L70.4809 98.9089L64 125.861L57.5191 98.9089L57.2658 97.8554L56.6285 98.7318L40.3267 121.152L44.6534 93.7715L44.8225 92.7012L43.8984 93.267L20.2574 107.743L34.733 84.1016L35.2988 83.1775L34.2285 83.3466L6.84756 87.6733L29.2682 71.3715L30.1446 70.7343L29.0911 70.4809L2.13865 64L29.0911 57.5191L30.1446 57.2658L29.2682 56.6285L6.84756 40.3267L34.2285 44.6534L35.2988 44.8225L34.733 43.8984L20.2574 20.2574L43.8984 34.733L44.8225 35.2988L44.6534 34.2285L40.3267 6.84756L56.6285 29.2682L57.2658 30.1446L57.5191 29.0911L64 2.13865L70.4809 29.0911Z" stroke="white"/>
</svg>
