<svg width="1920" height="700" viewBox="0 0 1920 700" fill="none" xmlns="http://www.w3.org/2000/svg">
<rect width="1920" height="700" transform="matrix(1 0 0 -1 0 700)" fill="#B333CC"/>
<rect width="1920" height="700" transform="matrix(1 0 0 -1 0 700)" fill="url(#paint0_radial)"/>
<rect width="1920" height="700" transform="matrix(1 0 0 -1 0 700)" fill="url(#paint1_radial)"/>
<rect width="1920" height="700" transform="matrix(1 0 0 -1 0 700)" fill="url(#paint2_radial)"/>
<mask id="mask0" mask-type="alpha" maskUnits="userSpaceOnUse" x="0" y="0" width="1920" height="700">
<rect width="1920" height="700" transform="matrix(1 0 0 -1 0 700)" fill="#F0FBFF"/>
</mask>
<g mask="url(#mask0)">
<g opacity="0.23">
<path d="M251.348 598.402C227.348 736.402 110.347 769.402 100.347 865.402C90.3474 961.402 55.3142 1021.58 -79.1692 1041.4C-213.653 1061.22 -262.169 1020.4 -336.169 933.402C-410.169 846.402 -409.214 702.048 -355.653 606.402C-285.653 481.402 -150.653 440.402 -53.6526 445.402C43.3474 450.402 275.347 460.402 251.348 598.402Z" fill="#B333CC"/>
<path d="M251.348 598.402C227.348 736.402 110.347 769.402 100.347 865.402C90.3474 961.402 55.3142 1021.58 -79.1692 1041.4C-213.653 1061.22 -262.169 1020.4 -336.169 933.402C-410.169 846.402 -409.214 702.048 -355.653 606.402C-285.653 481.402 -150.653 440.402 -53.6526 445.402C43.3474 450.402 275.347 460.402 251.348 598.402Z" fill="url(#paint3_radial)"/>
<path d="M251.348 598.402C227.348 736.402 110.347 769.402 100.347 865.402C90.3474 961.402 55.3142 1021.58 -79.1692 1041.4C-213.653 1061.22 -262.169 1020.4 -336.169 933.402C-410.169 846.402 -409.214 702.048 -355.653 606.402C-285.653 481.402 -150.653 440.402 -53.6526 445.402C43.3474 450.402 275.347 460.402 251.348 598.402Z" fill="url(#paint4_radial)"/>
<path d="M251.348 598.402C227.348 736.402 110.347 769.402 100.347 865.402C90.3474 961.402 55.3142 1021.58 -79.1692 1041.4C-213.653 1061.22 -262.169 1020.4 -336.169 933.402C-410.169 846.402 -409.214 702.048 -355.653 606.402C-285.653 481.402 -150.653 440.402 -53.6526 445.402C43.3474 450.402 275.347 460.402 251.348 598.402Z" fill="url(#paint5_radial)"/>
</g>
<g opacity="0.2">
<path d="M2029.3 -245.786C1908.38 -175.086 1918.34 -53.9296 1831.88 -11.0208C1745.42 31.8879 1709.42 123.844 1729.69 218.672C1749.96 313.5 1813.3 382.804 1920.67 421.747C2028.04 460.689 2162.96 409.362 2233.87 325.76C2326.54 216.501 2317.79 75.6836 2279.22 -13.4574C2240.64 -102.598 2150.22 -316.486 2029.3 -245.786Z" fill="#B333CC"/>
<path d="M2029.3 -245.786C1908.38 -175.086 1918.34 -53.9296 1831.88 -11.0208C1745.42 31.8879 1709.42 123.844 1729.69 218.672C1749.96 313.5 1813.3 382.804 1920.67 421.747C2028.04 460.689 2162.96 409.362 2233.87 325.76C2326.54 216.501 2317.79 75.6836 2279.22 -13.4574C2240.64 -102.598 2150.22 -316.486 2029.3 -245.786Z" fill="url(#paint6_radial)"/>
<path d="M2029.3 -245.786C1908.38 -175.086 1918.34 -53.9296 1831.88 -11.0208C1745.42 31.8879 1709.42 123.844 1729.69 218.672C1749.96 313.5 1813.3 382.804 1920.67 421.747C2028.04 460.689 2162.96 409.362 2233.87 325.76C2326.54 216.501 2317.79 75.6836 2279.22 -13.4574C2240.64 -102.598 2150.22 -316.486 2029.3 -245.786Z" fill="url(#paint7_radial)"/>
<path d="M2029.3 -245.786C1908.38 -175.086 1918.34 -53.9296 1831.88 -11.0208C1745.42 31.8879 1709.42 123.844 1729.69 218.672C1749.96 313.5 1813.3 382.804 1920.67 421.747C2028.04 460.689 2162.96 409.362 2233.87 325.76C2326.54 216.501 2317.79 75.6836 2279.22 -13.4574C2240.64 -102.598 2150.22 -316.486 2029.3 -245.786Z" fill="url(#paint8_radial)"/>
</g>
<g opacity="0.25">
<path d="M881.089 753.247C852.091 576.817 1036.52 533.871 1048.12 422.441C1059.72 311.012 1143.81 232.637 1258.36 215.744C1372.91 198.852 1473.83 225.119 1559.66 326.102C1645.5 427.085 1641.2 609.639 1579.07 720.658C1497.87 865.748 1341.28 913.337 1228.76 907.534C1116.25 901.73 910.087 929.676 881.089 753.247Z" fill="#B333CC"/>
<path d="M881.089 753.247C852.091 576.817 1036.52 533.871 1048.12 422.441C1059.72 311.012 1143.81 232.637 1258.36 215.744C1372.91 198.852 1473.83 225.119 1559.66 326.102C1645.5 427.085 1641.2 609.639 1579.07 720.658C1497.87 865.748 1341.28 913.337 1228.76 907.534C1116.25 901.73 910.087 929.676 881.089 753.247Z" fill="url(#paint9_radial)"/>
<path d="M881.089 753.247C852.091 576.817 1036.52 533.871 1048.12 422.441C1059.72 311.012 1143.81 232.637 1258.36 215.744C1372.91 198.852 1473.83 225.119 1559.66 326.102C1645.5 427.085 1641.2 609.639 1579.07 720.658C1497.87 865.748 1341.28 913.337 1228.76 907.534C1116.25 901.73 910.087 929.676 881.089 753.247Z" fill="url(#paint10_radial)"/>
<path d="M881.089 753.247C852.091 576.817 1036.52 533.871 1048.12 422.441C1059.72 311.012 1143.81 232.637 1258.36 215.744C1372.91 198.852 1473.83 225.119 1559.66 326.102C1645.5 427.085 1641.2 609.639 1579.07 720.658C1497.87 865.748 1341.28 913.337 1228.76 907.534C1116.25 901.73 910.087 929.676 881.089 753.247Z" fill="url(#paint11_radial)"/>
</g>
</g>
<defs>
<radialGradient id="paint0_radial" cx="0" cy="0" r="1" gradientUnits="userSpaceOnUse" gradientTransform="translate(328.5 1083.86) rotate(-62.4872) scale(1112.68 2354.76)">
<stop offset="0.150617" stop-color="#1AC4E6"/>
<stop offset="0.379643" stop-color="#1AA1E6"/>
<stop offset="1" stop-color="#BC36C7" stop-opacity="0"/>
</radialGradient>
<radialGradient id="paint1_radial" cx="0" cy="0" r="1" gradientUnits="userSpaceOnUse" gradientTransform="translate(1382.8 -101.023) rotate(126.907) scale(725.59 598.703)">
<stop stop-color="#FF66E6"/>
<stop offset="0.980994" stop-color="#F20DCC" stop-opacity="0"/>
</radialGradient>
<radialGradient id="paint2_radial" cx="0" cy="0" r="1" gradientUnits="userSpaceOnUse" gradientTransform="translate(1707.61 700) rotate(-152.531) scale(710.297 447.72)">
<stop stop-color="#5E1AE6"/>
<stop offset="1" stop-color="#8B34A5" stop-opacity="0"/>
</radialGradient>
<radialGradient id="paint3_radial" cx="0" cy="0" r="1" gradientUnits="userSpaceOnUse" gradientTransform="translate(142.367 115.252) rotate(101.549) scale(865.255 876.68)">
<stop offset="0.150617" stop-color="#1AC4E6"/>
<stop offset="0.379643" stop-color="#1AA1E6"/>
<stop offset="1" stop-color="#BC36C7" stop-opacity="0"/>
</radialGradient>
<radialGradient id="paint4_radial" cx="0" cy="0" r="1" gradientUnits="userSpaceOnUse" gradientTransform="translate(-212.952 1133.11) rotate(-73.5829) scale(519.587 242.053)">
<stop stop-color="#FF66E6"/>
<stop offset="0.980994" stop-color="#F20DCC" stop-opacity="0"/>
</radialGradient>
<radialGradient id="paint5_radial" cx="0" cy="0" r="1" gradientUnits="userSpaceOnUse" gradientTransform="translate(-322.419 445) rotate(52.9604) scale(352.602 261.113)">
<stop stop-color="#5E1AE6"/>
<stop offset="1" stop-color="#8B34A5" stop-opacity="0"/>
</radialGradient>
<radialGradient id="paint6_radial" cx="0" cy="0" r="1" gradientUnits="userSpaceOnUse" gradientTransform="translate(2519.11 -312.105) rotate(147.967) scale(862.647 876.569)">
<stop offset="0.150617" stop-color="#1AC4E6"/>
<stop offset="0.379643" stop-color="#1AA1E6"/>
<stop offset="1" stop-color="#BC36C7" stop-opacity="0"/>
</radialGradient>
<radialGradient id="paint7_radial" cx="0" cy="0" r="1" gradientUnits="userSpaceOnUse" gradientTransform="translate(1692.52 375.308) rotate(-36.9144) scale(518.086 241.992)">
<stop stop-color="#FF66E6"/>
<stop offset="0.980994" stop-color="#F20DCC" stop-opacity="0"/>
</radialGradient>
<radialGradient id="paint8_radial" cx="0" cy="0" r="1" gradientUnits="userSpaceOnUse" gradientTransform="translate(2373.49 238.233) rotate(-163.322) scale(351.897 260.814)">
<stop stop-color="#5E1AE6"/>
<stop offset="1" stop-color="#8B34A5" stop-opacity="0"/>
</radialGradient>
<radialGradient id="paint9_radial" cx="0" cy="0" r="1" gradientUnits="userSpaceOnUse" gradientTransform="translate(1005.81 1290.21) rotate(-78.4965) scale(1002.76 1012.22)">
<stop offset="0.150617" stop-color="#1AC4E6"/>
<stop offset="0.379643" stop-color="#1AA1E6"/>
<stop offset="1" stop-color="#BC36C7" stop-opacity="0"/>
</radialGradient>
<radialGradient id="paint10_radial" cx="0" cy="0" r="1" gradientUnits="userSpaceOnUse" gradientTransform="translate(1415.99 110.41) rotate(106.354) scale(602.063 279.521)">
<stop stop-color="#FF66E6"/>
<stop offset="0.980994" stop-color="#F20DCC" stop-opacity="0"/>
</radialGradient>
<radialGradient id="paint11_radial" cx="0" cy="0" r="1" gradientUnits="userSpaceOnUse" gradientTransform="translate(1542.37 908) rotate(-126.928) scale(408.104 301.876)">
<stop stop-color="#5E1AE6"/>
<stop offset="1" stop-color="#8B34A5" stop-opacity="0"/>
</radialGradient>
</defs>
</svg>
