<svg width="60" height="60" viewBox="0 0 60 60" fill="none" xmlns="http://www.w3.org/2000/svg">
<path d="M0 24C0 15.5992 0 11.3988 1.6349 8.19014C3.073 5.36771 5.36771 3.073 8.19014 1.6349C11.3988 0 15.5992 0 24 0H36C44.4008 0 48.6012 0 51.8099 1.6349C54.6323 3.073 56.927 5.36771 58.3651 8.19014C60 11.3988 60 15.5992 60 24V36C60 44.4008 60 48.6012 58.3651 51.8099C56.927 54.6323 54.6323 56.927 51.8099 58.3651C48.6012 60 44.4008 60 36 60H24C15.5992 60 11.3988 60 8.19014 58.3651C5.36771 56.927 3.073 54.6323 1.6349 51.8099C0 48.6012 0 44.4008 0 36V24Z" fill="white"/>
<path d="M38.9999 42.0625C38.9999 43.6158 34.9705 44.875 30 44.875C25.0294 44.875 21 43.6158 21 42.0625C21 41.6625 21 39.8125 21 39.8125C22.3888 38.8192 26.3094 38.6875 30 38.6875C33.6905 38.6875 37.6111 38.8192 38.9999 39.8125C38.9999 39.8125 38.9999 41.6625 38.9999 42.0625Z" fill="#842FFB"/>
<path fill-rule="evenodd" clip-rule="evenodd" d="M23.4333 37.8892C21.9242 38.3921 21 39.0686 21 39.8125C21 41.3658 25.0294 42.625 30 42.625C34.9705 42.625 38.9999 41.3658 38.9999 39.8125C38.9999 39.0686 38.0757 38.3921 36.5666 37.8892C34.6799 38.2754 32.4238 38.4999 29.9999 38.4999C27.5761 38.4999 25.32 38.2754 23.4333 37.8892Z" fill="#EFD2FE"/>
<path d="M41.9999 34.75C41.9999 36.821 36.6273 38.5 29.9999 38.5C23.3726 38.5 18 36.821 18 34.75C18 34.2167 18 31.75 18 31.75C19.8517 30.4256 25.0792 30.25 29.9999 30.25C34.9207 30.25 40.1482 30.4256 41.9999 31.75C41.9999 31.75 41.9999 34.2167 41.9999 34.75Z" fill="#842FFB"/>
<ellipse cx="30.0001" cy="31.75" rx="11.9999" ry="3.74998" fill="#EFD2FE"/>
<path d="M46 26C46 28.7614 38.8366 31 30 31C21.1634 31 14 28.7614 14 26C14 25.2889 14 22 14 22C16.469 20.2341 23.439 20 30 20C36.561 20 43.531 20.2341 46 22C46 22 46 25.2889 46 26Z" fill="#842FFB"/>
<ellipse cx="30" cy="22" rx="16" ry="5" fill="#EFD2FE"/>
<path d="M30 21.1429C32.0417 21.1429 33.5486 21.3109 34.5208 21.6471C35.5069 21.9832 36 22.4314 36 22.9916C36 23.3557 35.7639 23.6919 35.2917 24C34.8333 24.3025 34.125 24.5462 33.1667 24.7311C32.2222 24.9104 31.0486 25 29.6458 25C28.6181 25 27.5972 24.9496 26.5833 24.8487C25.5833 24.7479 24.7222 24.605 24 24.4202L25.4792 23.1681C26.0625 23.3249 26.7014 23.4454 27.3958 23.5294C28.1042 23.6134 28.8125 23.6555 29.5208 23.6555C30.2292 23.6555 30.7917 23.6022 31.2083 23.4958C31.6389 23.3838 31.8542 23.2297 31.8542 23.0336C31.8542 22.8375 31.6458 22.6891 31.2292 22.5882C30.8125 22.4874 30.0764 22.437 29.0208 22.437H25.0625L25.7917 19H35.0833V20.2857H29.2083L29.0208 21.1429H30Z" fill="#842FFB"/>
</svg>
