<svg width="60" height="60" viewBox="0 0 60 60" fill="none" xmlns="http://www.w3.org/2000/svg">
<path d="M0 24C0 15.5992 0 11.3988 1.6349 8.19014C3.073 5.36771 5.36771 3.073 8.19014 1.6349C11.3988 0 15.5992 0 24 0H36C44.4008 0 48.6012 0 51.8099 1.6349C54.6323 3.073 56.927 5.36771 58.3651 8.19014C60 11.3988 60 15.5992 60 24V36C60 44.4008 60 48.6012 58.3651 51.8099C56.927 54.6323 54.6323 56.927 51.8099 58.3651C48.6012 60 44.4008 60 36 60H24C15.5992 60 11.3988 60 8.19014 58.3651C5.36771 56.927 3.073 54.6323 1.6349 51.8099C0 48.6012 0 44.4008 0 36V24Z" fill="white"/>
<mask id="mask0" mask-type="alpha" maskUnits="userSpaceOnUse" x="13" y="13" width="34" height="33">
<circle cx="29.9994" cy="29.5" r="16.5" fill="white"/>
</mask>
<g mask="url(#mask0)">
<path d="M16.973 26.0264H42.1572V47.7369C42.1572 51.0942 39.4356 53.8158 36.0783 53.8158H23.052C19.6947 53.8158 16.973 51.0942 16.973 47.7369V26.0264Z" fill="#842FFB"/>
</g>
<rect x="46.4994" y="26.0264" width="0.868421" height="6.94737" fill="#842FFB"/>
<path d="M10.7107 25.9346C10.0706 25.6146 10.0706 24.7012 10.7107 24.3811L28.8342 15.3194C29.5677 14.9526 30.431 14.9526 31.1644 15.3194L49.288 24.3811C49.928 24.7012 49.928 25.6146 49.288 25.9346L31.1644 34.9964C30.431 35.3631 29.5677 35.3631 28.8342 34.9964L10.7107 25.9346Z" fill="#EFD2FE"/>
<path d="M45.3589 36.9651L46.4993 32.9736H47.3677L48.5081 36.9651C48.807 38.0112 48.0215 39.0526 46.9335 39.0526C45.8455 39.0526 45.06 38.0112 45.3589 36.9651Z" fill="#842FFB"/>
<mask id="mask1" mask-type="alpha" maskUnits="userSpaceOnUse" x="10" y="14" width="40" height="22">
<path d="M10.7107 25.9346C10.0706 25.6146 10.0706 24.7012 10.7107 24.3811L29.2226 15.1252C29.7116 14.8807 30.2871 14.8807 30.7761 15.1252L49.288 24.3811C49.928 24.7012 49.928 25.6146 49.288 25.9346L30.7761 35.1906C30.2871 35.435 29.7116 35.435 29.2226 35.1906L10.7107 25.9346Z" fill="#F8F0FF"/>
</mask>
<g mask="url(#mask1)">
<path fill-rule="evenodd" clip-rule="evenodd" d="M48.3073 22.9811L30.0705 26.0206L29.9277 25.164L48.1646 22.1245L48.3073 22.9811Z" fill="#842FFB"/>
</g>
<ellipse cx="29.9993" cy="25.5922" rx="3.47368" ry="1.30263" fill="#842FFB"/>
</svg>
