<svg width="134" height="25" viewBox="0 0 134 25" fill="none" xmlns="http://www.w3.org/2000/svg">
						<g opacity="0.7">
							<path
								d="M87.755 6.08521C87.818 5.9764 87.9358 5.90918 88.0633 5.90918C88.3352 5.90918 88.506 6.197 88.3717 6.42891L78.2792 23.8548C78.2162 23.9636 78.0984 24.0308 77.9709 24.0308C77.699 24.0308 77.5282 23.743 77.6625 23.5111L87.755 6.08521Z"
								fill="white" />
							<path
								d="M91.0878 24.1128C93.0194 24.1128 93.9173 23.1705 93.9173 22.0745C93.9173 19.4421 89.4903 20.5381 89.4903 18.7866C89.4903 18.1618 90.0228 17.6497 91.2653 17.6497C91.9126 17.6497 92.633 17.834 93.2699 18.2335L93.6145 17.4141C93.0089 17.0044 92.1214 16.7791 91.2653 16.7791C89.3441 16.7791 88.467 17.7214 88.467 18.8276C88.467 21.4907 92.8941 20.3845 92.8941 22.136C92.8941 22.7608 92.3511 23.2422 91.0878 23.2422C90.1481 23.2422 89.2188 22.8939 88.6759 22.4125L88.2896 23.2115C88.8743 23.7441 89.9706 24.1128 91.0878 24.1128Z"
								fill="white" />
							<path
								d="M98.7107 24.1128C99.8488 24.1128 100.83 23.7236 101.498 22.9861L100.82 22.3408C100.256 22.9247 99.5669 23.2012 98.7629 23.2012C97.1132 23.2012 95.8916 22.0335 95.8916 20.4459C95.8916 18.8583 97.1132 17.6906 98.7629 17.6906C99.5669 17.6906 100.256 17.957 100.82 18.5408L101.498 17.8955C100.83 17.158 99.8488 16.7791 98.7211 16.7791C96.4972 16.7791 94.8475 18.3257 94.8475 20.4459C94.8475 22.5662 96.4972 24.1128 98.7107 24.1128Z"
								fill="white" />
							<path
								d="M108.229 16.861V19.944H104.032V16.861H102.988V24.0309H104.032V20.8352H108.229V24.0309H109.273V16.861H108.229Z"
								fill="white" />
							<path
								d="M114.76 24.1128C116.984 24.1128 118.634 22.5559 118.634 20.4459C118.634 18.3359 116.984 16.7791 114.76 16.7791C112.516 16.7791 110.866 18.3462 110.866 20.4459C110.866 22.5457 112.516 24.1128 114.76 24.1128ZM114.76 23.2012C113.121 23.2012 111.91 22.0335 111.91 20.4459C111.91 18.8583 113.121 17.6906 114.76 17.6906C116.379 17.6906 117.59 18.8583 117.59 20.4459C117.59 22.0335 116.379 23.2012 114.76 23.2012Z"
								fill="white" />
							<path
								d="M123.529 24.1128C125.753 24.1128 127.403 22.5559 127.403 20.4459C127.403 18.3359 125.753 16.7791 123.529 16.7791C121.285 16.7791 119.635 18.3462 119.635 20.4459C119.635 22.5457 121.285 24.1128 123.529 24.1128ZM123.529 23.2012C121.89 23.2012 120.679 22.0335 120.679 20.4459C120.679 18.8583 121.89 17.6906 123.529 17.6906C125.148 17.6906 126.359 18.8583 126.359 20.4459C126.359 22.0335 125.148 23.2012 123.529 23.2012Z"
								fill="white" />
							<path d="M128.999 24.0309H134V23.1398H130.043V16.861H128.999V24.0309Z" fill="white" />
							<path
								d="M5.84213 19.8551V23.3691H3.97077V19.8551H3.19974V23.3691H1.32035V19.8551H0.549316V24.0309H6.61316V19.8551H5.84213Z"
								fill="white" />
							<path
								d="M11.1944 24.0309H12.102L10.3752 21.8642L11.9896 19.8551H11.1623L9.78087 21.62H8.88133V19.8551H8.1103V24.0309H8.88133V22.266H9.76481L11.1944 24.0309Z"
								fill="white" />
							<path
								d="M14.5924 24.0782C15.8694 24.0782 16.8011 23.1879 16.8011 21.943C16.8011 20.6981 15.8694 19.8157 14.5924 19.8157C13.3154 19.8157 12.3757 20.6981 12.3757 21.943C12.3757 23.1879 13.3154 24.0782 14.5924 24.0782ZM14.5924 23.4164C13.7732 23.4164 13.1548 22.8333 13.1548 21.943C13.1548 21.0527 13.7732 20.4775 14.5924 20.4775C15.4116 20.4775 16.022 21.0527 16.022 21.943C16.022 22.8333 15.4116 23.4164 14.5924 23.4164Z"
								fill="white" />
							<path
								d="M18.2686 19.8551L18.1963 21.3994C18.1401 22.3842 18.108 23.4085 17.4173 23.4085C17.3611 23.4085 17.2968 23.4006 17.2245 23.3849L17.1763 24.0231C17.353 24.0703 17.5056 24.094 17.6502 24.094C18.614 24.094 18.8148 22.92 18.8871 21.4466L18.9352 20.5169H20.7664V24.0309H21.5375V19.8551H18.2686Z"
								fill="white" />
							<path
								d="M24.5463 19.8157C23.8636 19.8157 23.2291 20.0048 22.7874 20.3514L23.1087 20.9187C23.438 20.643 23.952 20.4696 24.458 20.4696C25.221 20.4696 25.5985 20.8399 25.5985 21.4781V21.6278H24.3777C23.1087 21.6278 22.6669 22.1794 22.6669 22.8491C22.6669 23.5739 23.2773 24.0782 24.2411 24.0782C24.9077 24.0782 25.3816 23.8576 25.6386 23.4794V24.0309H26.3695V21.5097C26.3695 20.3672 25.7109 19.8157 24.5463 19.8157ZM24.3696 23.4952C23.7833 23.4952 23.4299 23.2352 23.4299 22.8176C23.4299 22.463 23.6468 22.1715 24.4098 22.1715H25.5985V22.7545C25.4057 23.2352 24.9479 23.4952 24.3696 23.4952Z"
								fill="white" />
							<path
								d="M33.5933 23.3691V19.8551H30.2923L30.228 21.2654C30.1718 22.3212 30.0674 23.3376 29.457 23.3691H29.2321V25H29.963V24.0309H33.521V25H34.2438V23.3691H33.5933ZM30.9348 21.3206L30.975 20.5169H32.8222V23.3691H30.4369C30.8224 23.0382 30.9027 22.1872 30.9348 21.3206Z"
								fill="white" />
							<path
								d="M35.2483 24.0309H35.9551L38.5573 20.9896V24.0309H39.3283V19.8551H38.6296L36.0193 22.8964V19.8551H35.2483V24.0309Z"
								fill="white" />
							<path
								d="M43.0594 21.8563C43.5252 21.6909 43.8304 21.3521 43.8304 20.9345C43.8304 20.2569 43.0674 19.7999 42.0313 19.7999C41.4852 19.7999 40.9551 19.9102 40.4009 20.186L40.6097 20.769C41.0756 20.5563 41.5173 20.446 41.951 20.446C42.6016 20.446 43.0353 20.6666 43.0353 21.0448C43.0353 21.3993 42.6739 21.6042 42.1036 21.6042H41.3808V22.1479H42.1598C42.7863 22.1479 43.1558 22.3685 43.1558 22.7545C43.1558 23.18 42.6819 23.44 41.959 23.44C41.437 23.44 40.8748 23.2982 40.4652 23.0382L40.2323 23.6133C40.7061 23.9127 41.3326 24.0861 41.9671 24.0861C43.0995 24.0861 43.9509 23.5739 43.9509 22.8176C43.9509 22.3369 43.6296 21.9982 43.0594 21.8563Z"
								fill="white" />
							<path
								d="M46.641 19.8157C45.9583 19.8157 45.3238 20.0048 44.8821 20.3514L45.2034 20.9187C45.5327 20.643 46.0467 20.4696 46.5527 20.4696C47.3157 20.4696 47.6932 20.8399 47.6932 21.4781V21.6278H46.4724C45.2034 21.6278 44.7616 22.1794 44.7616 22.8491C44.7616 23.5739 45.372 24.0782 46.3358 24.0782C47.0024 24.0782 47.4763 23.8576 47.7333 23.4794V24.0309H48.4642V21.5097C48.4642 20.3672 47.8056 19.8157 46.641 19.8157ZM46.4643 23.4952C45.878 23.4952 45.5246 23.2352 45.5246 22.8176C45.5246 22.463 45.7415 22.1715 46.5045 22.1715H47.6932V22.7545C47.5004 23.2352 47.0426 23.4952 46.4643 23.4952Z"
								fill="white" />
							<path
								d="M51.8444 19.3114C52.6235 19.3114 53.0974 18.9332 53.1134 18.2241H52.5753C52.5673 18.6181 52.2781 18.8702 51.8364 18.8702C51.4027 18.8702 51.1135 18.6181 51.1055 18.2241H50.5835C50.5915 18.9332 51.0654 19.3114 51.8444 19.3114ZM49.8526 24.0309H50.5594L53.1616 20.9896V24.0309H53.9326V19.8551H53.2339L50.6236 22.8964V19.8551H49.8526V24.0309Z"
								fill="white" />
							<path
								d="M55.4292 24.0309H56.2002V22.2818H58.6258V24.0309H59.3968V19.8551H58.6258V21.6278H56.2002V19.8551H55.4292V24.0309Z"
								fill="white" />
							<path
								d="M62.414 19.8157C61.7313 19.8157 61.0968 20.0048 60.6551 20.3514L60.9763 20.9187C61.3056 20.643 61.8197 20.4696 62.3256 20.4696C63.0886 20.4696 63.4661 20.8399 63.4661 21.4781V21.6278H62.2453C60.9763 21.6278 60.5346 22.1794 60.5346 22.8491C60.5346 23.5739 61.145 24.0782 62.1088 24.0782C62.7754 24.0782 63.2493 23.8576 63.5063 23.4794V24.0309H64.2372V21.5097C64.2372 20.3672 63.5786 19.8157 62.414 19.8157ZM62.2373 23.4952C61.651 23.4952 61.2976 23.2352 61.2976 22.8176C61.2976 22.463 61.5145 22.1715 62.2775 22.1715H63.4661V22.7545C63.2734 23.2352 62.8156 23.4952 62.2373 23.4952Z"
								fill="white" />
							<path
								d="M6.16424 13.9852C9.99933 13.9852 12.3084 11.7988 12.3084 7.78049V0H9.7383V7.682C9.7383 10.5184 8.45324 11.7397 6.18432 11.7397C3.9154 11.7397 2.61027 10.5184 2.61027 7.682V0H0V7.78049C0 11.7988 2.30908 13.9852 6.16424 13.9852Z"
								fill="white" />
							<path
								d="M25.948 13.7882L20.6672 6.65774L25.5866 0H22.7554L19.2015 4.90466L15.6073 0H12.6557L17.5951 6.75623L12.3746 13.7882H15.3463L19.1211 8.54869L22.9361 13.7882H25.948Z"
								fill="white" />
							<path
								d="M44.7435 13.7882L44.7234 0H43.8801L37.5954 10.6563L31.3106 0H30.4472V13.7882H31.4512V2.02884L37.3343 11.9564H37.8363L43.7194 1.98944L43.7395 13.7882H44.7435Z"
								fill="white" />
							<path d="M47.6359 13.7882H48.66V0H47.6359V13.7882Z" fill="white" />
							<path
								d="M61.9707 0V11.976L52.4132 0H51.5498V13.7882H52.5738V1.81217L62.1515 13.7882H62.9948V0H61.9707Z"
								fill="white" />
							<path
								d="M65.8952 13.7882H71.4571C75.9146 13.7882 78.9265 10.9124 78.9265 6.89411C78.9265 2.87583 75.9146 0 71.4571 0H65.8952V13.7882ZM66.9193 12.8821V0.906083H71.3768C75.3524 0.906083 77.9025 3.38796 77.9025 6.89411C77.9025 10.4003 75.3524 12.8821 71.3768 12.8821H66.9193Z"
								fill="white" />
							</g>
						</svg>