<svg width="200" height="200" viewBox="0 0 200 200" fill="none" xmlns="http://www.w3.org/2000/svg">
<path d="M121.792 39.0633C123.478 39.0633 125.163 39.0633 127.001 39.0633C128.38 40.2888 127.001 41.9739 127.92 43.5058C129.146 44.1185 130.678 43.5058 132.363 43.659C132.516 45.4972 132.516 47.3355 132.516 49.1738C134.048 49.9397 135.733 48.7142 137.112 50.2461C137.112 54.3822 137.112 58.6715 137.112 63.5736C138.644 62.8076 140.329 64.0331 141.555 62.6544C141.708 61.4289 141.095 60.0502 142.168 58.6715C143.7 58.6715 145.385 58.6715 147.53 58.6715C146.917 56.9864 147.989 55.6077 146.764 54.0758C145.232 54.0758 143.547 54.0758 141.861 54.0758C141.555 52.3908 141.402 51.012 142.168 49.4802C143.853 49.4802 145.538 49.4802 147.223 49.4802C147.683 47.1823 147.836 45.1909 145.691 43.8122C141.402 43.8122 136.959 43.8122 132.669 43.8122C132.516 42.4335 132.516 41.2079 132.516 39.2165C137.265 39.0633 142.168 39.2165 147.376 39.0633C147.376 35.9995 147.376 33.0889 147.376 30.0251C149.062 30.0251 150.287 30.0251 151.666 30.0251C152.432 31.2507 151.972 32.6294 152.126 34.0081C153.351 34.9272 154.883 34.4676 156.262 34.4676C157.028 33.2421 156.568 31.8634 156.722 30.4847C158.1 29.5656 159.479 30.0251 161.318 30.1783C161.318 33.2421 161.318 36.1527 161.318 39.2165C158.254 39.2165 155.343 39.2165 152.279 39.2165C152.126 41.0548 151.666 42.4335 152.585 43.8122C155.496 43.8122 158.407 43.8122 161.318 43.8122C161.318 45.6504 161.318 47.4887 161.318 49.7865C157.947 49.7865 155.036 49.7865 152.279 49.7865C152.279 53.0035 152.279 55.7609 152.279 58.6715C155.343 59.2843 158.407 58.3651 161.318 59.2843C161.318 60.8162 161.318 62.1949 161.318 63.5736C159.939 63.5736 158.713 63.5736 157.334 63.5736C156.109 65.2586 157.181 67.0969 156.568 69.0884C155.343 69.5479 153.811 69.3947 152.279 69.0884C152.279 67.4033 152.279 65.7182 152.279 64.0331C150.747 63.4204 149.368 63.5736 147.53 63.8799C147.53 67.2501 147.53 70.6203 147.53 73.9904C145.691 73.9904 143.853 73.9904 141.402 73.9904C142.321 75.8287 141.095 77.3606 142.474 78.5861C144.159 78.5861 145.998 78.5861 147.683 78.5861C147.683 80.118 147.683 81.6499 147.683 83.1818C142.781 83.1818 137.725 83.1818 132.669 83.1818C132.669 81.6499 132.669 80.118 132.669 78.5861C134.201 78.4329 135.733 78.8925 137.265 78.1265C137.265 76.901 137.112 75.5223 136.959 74.2968C136.959 74.1436 136.653 73.9904 136.499 73.8372C135.121 73.8372 133.895 73.8372 132.516 73.8372C132.516 70.4671 132.516 67.0969 132.516 63.4204C128.84 63.4204 125.469 63.4204 122.099 63.4204C122.099 61.8885 122.099 60.3566 122.099 58.8247C125.469 58.8247 128.84 58.8247 132.21 58.8247C132.363 56.9864 132.823 55.6077 132.057 54.5354C130.525 53.9226 129.146 54.6886 127.92 53.9226C127.154 52.5439 128.533 50.8589 127.308 49.9397C118.882 49.9397 110.762 49.9397 102.643 49.9397C102.489 51.6248 102.03 53.0035 103.102 54.5354C106.319 54.5354 109.383 54.5354 113.06 54.5354C112.294 56.0673 113.52 57.5992 111.988 59.1311C108.924 59.1311 105.707 59.1311 102.643 59.1311C101.877 60.663 103.102 62.348 101.723 63.5736C100.345 63.5736 98.9659 63.5736 97.7403 63.5736C97.7403 58.9779 97.7403 54.5354 97.7403 50.2461C96.0551 49.327 94.37 50.5525 93.1444 49.327C93.1444 47.6419 93.1444 45.8036 93.1444 44.1185C94.5232 44.1185 95.7487 44.1185 97.1275 44.1185C98.3531 42.893 97.1275 41.2079 97.8935 39.8292C99.2723 39.2165 100.804 39.8292 102.183 39.5229C102.336 41.0548 101.877 42.5866 102.489 44.1185C104.328 44.1185 106.166 44.5781 107.851 43.8122C107.851 42.2803 107.851 40.9016 107.851 39.5229C109.383 39.5229 110.915 39.5229 112.447 39.5229C112.601 41.0548 111.988 42.5866 112.907 44.1185C115.818 43.9653 118.882 44.2717 121.639 43.9653C121.792 41.8207 121.792 40.442 121.792 39.0633Z" fill="#112230"/>
<path d="M132.21 186.125C130.678 186.125 129.146 186.125 127.614 186.125C127.614 184.286 127.614 182.448 127.614 180.303C125.469 180.303 123.631 180.303 121.792 180.303C121.946 178.772 121.333 177.24 122.099 175.861C123.937 175.095 125.929 176.321 127.614 175.095C127.614 170.193 127.614 165.444 127.614 160.695C129.146 160.695 130.678 160.695 132.21 160.695C132.21 162.534 132.21 164.372 132.21 166.516C135.427 166.516 138.491 166.516 141.249 166.516C141.095 168.048 141.095 169.427 141.095 171.265C138.031 171.265 134.967 171.265 132.057 171.265C132.057 172.95 131.75 174.176 132.363 175.401C137.265 175.401 142.015 175.401 147.07 175.401C146.764 172.184 147.376 169.274 146.764 166.363C144.619 166.363 142.934 166.363 141.249 166.363C141.402 164.525 141.402 162.687 141.402 160.542C138.185 160.542 135.121 160.542 132.21 160.542C132.21 155.946 132.21 151.351 132.21 146.755C133.742 146.908 135.274 146.296 136.653 147.061C137.265 150.125 136.193 153.189 137.419 156.253C142.321 156.253 147.07 156.253 151.819 156.253C151.819 157.785 151.972 159.01 151.972 160.848C153.504 160.236 155.036 161.308 156.415 160.236C156.415 158.857 156.568 157.632 156.568 156.406C158.1 155.334 159.786 156.712 161.011 155.487C161.011 154.108 161.318 152.883 160.552 151.351C159.939 151.351 159.173 151.351 158.407 151.351C157.641 151.351 156.875 151.504 156.415 150.738C156.415 149.359 156.415 148.134 156.415 146.755C159.786 146.755 163.156 146.755 166.373 146.755C167.292 148.44 166.067 150.125 167.292 151.351C168.671 151.351 170.05 151.351 171.275 151.351C171.275 152.729 171.275 153.955 171.275 155.793C177.71 156.253 184.297 155.946 190.885 155.946C190.885 159.317 190.885 162.687 190.885 166.363C192.57 166.363 194.102 166.363 195.481 166.363C195.481 167.742 195.481 168.967 195.481 170.806C192.57 171.112 189.659 170.806 186.442 170.959C186.442 167.589 186.442 164.372 186.442 161.002C184.45 160.236 182.612 160.695 180.467 160.695C180.467 167.282 180.467 173.716 180.467 180.15C172.501 180.15 164.381 180.15 156.262 180.15C156.109 178.618 156.568 177.087 155.802 175.401C154.424 176.014 152.892 174.635 151.666 176.167C151.666 177.546 151.666 178.772 151.666 180.15C150.134 180.303 148.602 179.691 147.223 180.457C146.764 183.827 147.53 187.197 146.764 190.567C144.772 190.567 142.934 190.567 141.249 190.567C141.249 187.197 141.249 183.827 141.249 180.15C137.878 180.457 134.967 179.997 132.057 180.457C132.21 182.755 132.21 184.44 132.21 186.125ZM161.164 161.002C161.164 166.21 161.164 170.959 161.164 175.861C163.769 175.861 166.22 175.861 168.671 175.861C171.122 175.861 173.573 176.167 175.565 175.708C175.565 170.653 175.565 165.904 175.565 161.155C170.663 161.002 166.067 161.002 161.164 161.002Z" fill="#112230"/>
<path d="M29.8736 43.659C29.8736 42.2803 29.8736 41.0548 29.8736 39.6761C30.0268 39.5229 30.0268 39.3697 30.18 39.2165C30.3332 39.0633 30.4864 39.0633 30.6396 39.0633C38.4527 39.0633 46.1126 39.0633 53.9257 39.0633C53.9257 42.4335 53.9257 45.8036 53.9257 49.1738C57.2961 49.1738 60.2068 49.1738 62.9644 49.1738C62.9644 47.1823 62.9644 45.4972 62.9644 43.9654C61.4324 43.1994 59.7472 44.4249 58.5216 43.0462C58.5216 41.6675 58.5216 40.2888 58.5216 39.0633C61.892 39.0633 65.4156 39.0633 68.9391 39.0633C68.9391 40.442 68.9391 41.6675 68.9391 43.0462C70.1647 44.2717 71.8499 43.0462 73.3819 43.9654C73.3819 45.4972 73.3819 47.1823 73.3819 49.1738C76.4458 49.1738 79.5098 49.1738 82.5737 49.1738C82.5737 47.6419 82.5737 45.9568 82.5737 44.1185C81.5014 42.893 79.8162 44.2717 78.2842 43.3526C78.2842 39.0633 78.2842 34.774 78.2842 30.3315C79.5098 29.7188 80.8886 29.872 82.5737 30.1783C82.5737 32.9357 82.5737 35.8463 82.5737 38.9101C84.5653 38.9101 86.4037 38.9101 88.3953 38.9101C88.3953 29.4124 88.3953 19.9147 88.3953 10.4169C89.774 10.4169 90.9996 10.4169 92.5316 10.4169C93.4508 13.3275 92.5316 16.3913 93.1444 19.3019C94.5232 19.9147 96.0552 19.4551 97.5871 19.6083C97.5871 21.2934 97.5871 22.9784 97.5871 24.8167C96.3615 26.0422 94.6764 24.8167 92.9912 25.7358C92.9912 31.557 92.9912 37.6846 92.9912 43.659C91.4592 43.8122 89.9272 43.1994 88.5485 43.9654C88.5485 47.3355 88.5485 50.3993 88.5485 53.6163C88.5485 53.7695 88.8549 53.9226 89.008 53.9226C90.2336 54.0758 91.6124 53.4631 92.838 54.3822C92.838 55.6077 92.838 56.9864 92.838 58.6715C89.4677 58.6715 86.0973 58.6715 82.7269 58.6715C82.5737 60.3566 82.5737 61.5821 82.5737 62.8076C81.195 63.8799 79.3566 62.5012 78.2842 63.5736C78.2842 65.2586 78.2842 66.9437 78.2842 68.4756C79.663 69.3947 81.5014 68.1692 82.5737 69.2416C82.5737 70.6203 82.5737 71.999 82.5737 73.0713C81.0418 73.9904 79.3566 72.6117 78.131 73.9904C78.2842 75.3691 77.8246 76.5946 78.5906 77.9733C81.0418 77.9733 83.4929 77.9733 85.9441 77.9733C88.3953 77.9733 90.6932 77.9733 93.1444 77.9733C93.1444 79.8116 93.1444 81.1903 93.1444 82.569C86.7101 82.569 80.1226 82.569 73.535 82.569C73.535 81.1903 73.535 79.6584 73.535 77.9733C71.8499 77.9733 70.3179 77.9733 68.9391 77.9733C68.9391 75.0627 68.9391 72.3053 68.9391 69.3947C70.1647 68.016 71.8499 69.2416 73.3819 68.4756C73.3819 66.9437 73.3819 65.2586 73.3819 63.4204C72.3095 62.348 70.6243 63.5736 69.2455 62.8076C68.6327 61.4289 69.2455 59.897 69.0923 58.3651C70.4711 58.2119 71.8499 58.2119 73.3819 58.2119C73.6883 56.68 73.8415 55.1482 73.2287 53.9226C71.8499 53.9226 70.6243 53.9226 69.0923 53.9226C69.0923 55.4545 69.0923 56.9864 68.9391 58.3651C67.1007 58.5183 65.4156 58.5183 63.7304 58.5183C62.5048 57.2928 63.7304 55.6077 62.8112 53.9226C58.5216 53.9226 53.9257 53.9226 49.483 53.9226C49.483 52.3908 49.483 51.0121 49.483 49.327C47.4914 49.327 45.8062 49.327 44.121 49.327C43.0486 47.4887 44.2742 45.4972 43.355 43.659C42.1295 43.659 40.9039 43.659 39.5251 43.659C38.6059 45.1909 39.6783 47.1823 38.7591 49.327C37.3803 49.327 36.0015 49.327 34.4696 49.327C34.4696 47.4887 34.4696 45.6504 34.4696 43.5058C32.7844 43.659 31.4056 43.659 29.8736 43.659Z" fill="#112230"/>
<path d="M29.8736 141.394C29.8736 140.015 29.8736 138.789 29.8736 137.411C31.0992 136.185 32.7844 137.411 34.1632 136.645C34.9292 135.419 34.3164 134.194 34.4696 132.815C33.244 131.436 31.5588 132.662 30.18 132.049C29.5672 130.67 30.0268 129.139 29.8736 127.607C31.2524 127.607 32.7844 127.607 34.4696 127.607C34.4696 125.462 34.4696 123.624 34.4696 121.785C37.3803 121.785 40.4443 121.785 43.6614 121.785C43.6614 120.1 43.6614 118.568 43.6614 117.19C47.0318 117.19 50.4022 117.19 53.7725 117.19C53.9257 115.351 54.3853 113.973 53.4661 112.594C50.0958 112.594 46.8786 112.594 43.6614 112.594C43.6614 111.215 43.6614 109.683 43.6614 107.998C41.9763 107.998 40.4443 107.998 39.0655 107.998C39.0655 106.16 39.0655 104.169 39.0655 102.177C40.4443 102.177 41.6699 102.177 43.0487 102.177C44.2742 100.952 43.0487 99.2666 43.9678 97.7347C45.4998 97.7347 47.185 97.7347 49.0234 97.7347C50.0958 98.8071 48.8702 100.492 49.6362 102.024C50.8618 102.024 52.0873 102.024 53.3129 102.024C54.3853 103.862 53.4661 105.854 54.0789 107.998C58.9813 107.998 63.8836 107.998 68.7859 107.998C68.6327 109.53 69.2455 111.062 68.3263 112.594C65.1092 112.594 61.892 112.594 58.6749 112.594C58.6749 115.811 58.6749 118.722 58.6749 121.632C60.2068 121.785 61.4324 121.939 62.9644 121.326C63.5772 120.1 62.3516 118.415 63.424 117.343C65.2624 117.343 66.9475 117.343 68.4795 117.343C69.3987 118.875 68.0199 120.56 68.9391 121.326C70.7775 122.245 72.1563 121.173 73.5351 122.398C73.5351 123.93 73.5351 125.615 73.5351 127.3C75.067 128.066 76.7522 126.841 77.8246 127.913C77.8246 129.292 77.8246 130.67 77.8246 132.355C74.7607 132.355 71.6967 132.355 68.7859 132.355C68.7859 134.041 68.7859 135.419 68.7859 136.798C65.4156 136.798 62.0452 136.798 58.6749 136.798C58.5217 134.96 58.0621 133.581 58.9813 132.202C60.36 132.049 61.7388 132.509 62.9644 131.743C63.1176 130.364 63.5772 128.832 62.658 127.76C59.594 127.76 56.8365 127.76 54.0789 127.76C53.3129 129.292 54.5385 130.977 53.1597 132.202C51.7809 132.202 50.4022 132.202 49.0234 132.202C48.8702 130.824 48.8702 129.292 48.8702 127.913C45.3466 127.913 42.1295 127.913 38.9123 127.913C38.9123 129.445 38.9123 130.67 38.9123 132.049C42.4359 132.049 45.8062 132.049 49.0234 132.049C48.8702 133.581 49.483 135.113 48.717 136.951C45.4998 136.951 42.1295 136.951 38.7591 136.951C38.9123 138.636 38.4527 140.015 39.2187 141.24C42.5891 141.7 45.9594 140.934 49.1766 141.7C49.1766 143.845 49.1766 145.53 49.1766 147.215C44.2742 147.215 39.2187 147.215 34.1632 147.215C34.1632 145.377 34.1632 143.538 34.1632 141.394C32.7844 141.394 31.4056 141.394 29.8736 141.394Z" fill="#112230"/>
<path d="M147.07 82.7221C151.513 82.7221 155.802 82.7221 160.245 82.7221C161.624 81.4966 160.398 79.8115 161.164 78.2796C162.696 78.2796 164.381 78.2796 166.22 78.2796C167.445 79.1987 166.067 80.8838 166.833 82.4157C171.122 82.4157 175.412 82.4157 180.008 82.4157C180.774 85.7859 180.008 89.3092 180.467 92.6794C181.999 92.6794 183.684 92.6794 185.216 92.6794C186.902 94.0581 185.523 95.7432 186.289 97.1219C187.514 97.8878 188.893 97.275 190.272 97.4282C191.191 94.5176 190.272 91.4539 190.732 88.5433C192.11 87.9305 193.642 88.3901 195.174 88.2369C195.174 91.3007 195.174 94.2113 195.174 97.275C196.706 97.275 198.085 97.4282 199.617 97.4282C199.617 100.798 199.617 104.015 199.617 107.539C198.238 107.539 197.013 107.539 195.634 107.539C194.715 105.854 195.787 103.862 194.868 101.871C190.119 101.871 185.216 101.871 180.314 101.871C180.314 100.492 180.314 98.9601 180.314 97.275C178.629 97.275 177.097 97.275 175.718 97.275C175.718 94.2113 175.718 91.3007 175.718 88.2369C173.88 88.0837 172.501 87.6241 171.122 88.5433C171.122 91.4539 171.122 94.3645 171.122 97.275C167.752 97.275 164.228 97.275 160.705 97.275C160.705 95.7432 160.705 94.2113 160.858 92.5262C162.543 92.373 164.381 92.373 166.373 92.373C166.679 90.8411 166.833 89.3092 166.22 88.0837C164.381 88.0837 162.849 88.0837 161.011 88.0837C161.011 89.6156 161.011 91.1475 160.858 92.5262C159.173 92.6794 157.641 92.6794 156.109 92.5262C155.956 91.1475 155.956 89.7688 155.956 88.2369C154.424 87.9305 152.892 87.7773 151.666 88.3901C151.666 89.7688 151.666 90.9943 151.666 92.5262C153.198 92.5262 154.73 92.5262 156.109 92.6794C156.262 94.3645 156.262 95.8963 156.262 97.4282C154.883 97.4282 153.351 97.4282 151.666 97.4282C151.666 99.1133 151.666 100.645 151.666 102.024C145.232 102.024 138.951 102.024 132.057 102.024C132.057 104.015 132.057 105.854 132.057 107.845C130.525 107.845 128.993 107.845 127.461 107.845C127.461 106.007 127.461 104.169 127.461 102.024C125.316 102.024 123.478 102.024 121.639 102.024C121.639 100.492 121.639 98.9601 121.639 97.4282C123.478 97.4282 125.316 97.4282 127.001 97.4282C128.074 95.8963 126.848 94.2113 127.92 92.9858C129.299 92.5262 130.984 93.4453 132.057 92.2198C132.057 90.8411 132.057 89.6156 132.057 88.2369C133.589 88.3901 135.121 87.7773 136.653 88.6965C136.653 91.4539 136.653 94.3645 136.653 97.275C140.176 97.275 143.547 97.275 146.764 97.275C146.764 95.7432 146.764 94.5176 146.764 93.1389C144.925 92.6794 142.934 93.4453 141.249 92.5262C141.249 91.1475 140.942 89.7688 141.555 88.3901C143.24 87.9305 145.232 88.8496 146.917 87.7773C147.07 86.2454 147.07 84.4072 147.07 82.7221Z" fill="#112230"/>
<path d="M0.153207 34.3143C0.153207 22.8252 0.153207 11.6424 0.153207 0.306364C11.4899 0.306364 22.6733 0.306364 34.1632 0.306364C34.1632 0.153175 34.3164 0.306364 34.3164 0.459553C34.4696 0.612742 34.4696 0.765931 34.4696 0.91912C34.4696 11.9487 34.4696 22.9784 34.4696 34.3143C23.1329 34.3143 11.9495 34.3143 0.153207 34.3143ZM5.97473 29.7187C14.2474 29.7187 22.0605 29.7187 30.0268 29.7187C29.8736 21.5996 30.18 13.6338 29.7204 5.97436C21.6009 5.97436 13.7878 5.97436 5.82153 5.97436C5.97473 13.9402 5.97473 21.7528 5.97473 29.7187Z" fill="#112230"/>
<path d="M199.77 34.4675C188.74 34.4675 177.863 34.4675 166.833 34.4675C166.833 23.1315 166.833 11.9487 166.833 0.45953C166.833 0.45953 166.833 0.306341 166.986 0.306341C167.139 0.153152 167.292 0.153152 167.445 0.153152C178.169 0.153152 188.74 0.153152 199.617 0.153152C199.77 11.4891 199.77 22.6719 199.77 34.4675ZM195.327 5.82115C187.208 5.97434 179.242 5.66796 171.429 5.97434C171.429 14.2465 171.429 22.0592 171.429 30.025C179.548 29.8718 187.514 30.1782 195.327 29.8718C195.327 21.5996 195.327 13.9402 195.327 5.82115Z" fill="#112230"/>
<path d="M0.153207 199.759C0.153207 188.729 0.153207 177.853 0.153207 166.823C11.4899 166.823 22.6733 166.823 34.1632 166.823C34.1632 166.823 34.3164 166.823 34.3164 166.976C34.4696 167.129 34.4696 167.283 34.4696 167.436C34.4696 178.159 34.4696 188.729 34.4696 199.605C23.1329 199.759 11.9495 199.759 0.153207 199.759ZM29.8736 171.419C21.6009 171.419 13.7878 171.419 5.82153 171.419C5.97473 179.538 5.66834 187.504 5.97473 195.163C14.2474 195.163 22.0605 195.163 29.8736 195.163C29.8736 187.197 29.8736 179.384 29.8736 171.419Z" fill="#112230"/>
<path d="M195.327 49.4802C195.327 54.0758 195.327 58.6715 195.327 63.2672C190.425 63.2672 185.523 63.2672 180.467 63.2672C180.467 65.1054 180.467 66.7905 180.467 68.3224C179.088 69.7011 177.403 68.6288 175.718 69.3947C175.718 70.7734 175.718 72.1521 175.718 73.684C170.816 73.684 165.913 73.684 160.705 73.684C160.705 70.0075 160.705 66.6373 160.705 63.2672C162.237 63.4204 163.769 62.8076 164.994 63.7267C167.752 64.7991 165.76 67.2501 166.833 68.9352C168.211 69.2416 169.59 69.3947 171.122 68.6288C171.122 65.4118 171.122 62.1949 171.122 59.1311C172.654 58.0587 174.339 59.4375 175.565 58.2119C175.565 56.8332 175.871 55.6077 175.259 54.3822C173.88 53.6163 172.195 54.8418 170.969 53.6163C170.816 52.2376 171.275 51.0121 170.663 49.7865C169.284 49.0206 167.599 50.2461 166.373 49.0206C166.373 47.3355 166.373 45.4972 166.373 43.8122C167.752 43.8122 168.977 43.8122 170.356 43.8122C171.582 42.5866 170.356 40.9016 171.122 39.5229C172.348 38.9101 173.727 39.2165 174.952 39.2165C176.178 40.442 174.799 42.1271 175.871 43.659C177.097 43.659 178.322 43.659 179.701 43.659C180.774 42.4335 179.548 40.7484 180.62 39.3697C182.152 39.3697 183.838 39.3697 185.676 39.3697C185.676 42.5867 185.676 45.8036 185.676 49.1738C184.144 50.2461 182.152 49.0206 180.467 49.7865C179.854 51.0121 180.161 52.3908 180.161 53.7695C181.846 54.8418 183.838 53.6163 185.676 54.5354C185.676 55.7609 185.829 56.9864 185.829 58.5183C187.208 58.9779 188.74 58.9779 190.272 58.5183C190.272 55.6077 190.272 52.8503 190.272 49.9397C192.417 49.0206 193.949 49.6333 195.327 49.4802Z" fill="#112230"/>
<path d="M63.2708 160.849C63.2708 162.534 63.2708 164.219 63.2708 166.517C61.126 166.517 58.8281 166.67 56.6833 166.67C54.3853 166.67 52.0873 166.67 50.0958 166.67C49.0234 168.048 49.9426 169.427 49.483 170.653C50.8618 172.031 52.5469 170.806 54.2321 171.725C54.2321 176.474 54.2321 181.376 54.2321 186.278C52.8533 186.278 51.6277 186.278 50.0958 186.278C49.0234 184.593 49.9426 182.601 49.3298 180.763C47.6446 180.763 45.9594 180.763 43.9678 180.763C43.9678 185.512 43.9678 190.261 43.9678 195.316C45.653 195.316 47.185 195.316 48.717 195.316C50.0958 196.848 49.0234 198.38 49.6362 199.912C45.9594 199.912 42.7423 199.912 39.3719 199.912C39.3719 192.099 39.3719 184.133 39.3719 176.014C40.7507 176.014 41.9763 175.861 43.3551 175.861C44.4274 174.482 43.3551 172.951 43.9678 171.419C42.1295 171.265 40.9039 171.265 39.3719 171.265C39.3719 168.048 39.3719 164.831 39.3719 161.461C36.3079 160.389 33.244 161.461 30.18 160.695C29.5672 159.317 30.0268 157.785 29.8736 156.253C31.2524 156.253 32.7844 156.253 34.4696 156.253C34.4696 154.568 34.4696 153.036 34.4696 151.657C37.5335 151.657 40.4443 151.657 43.8146 151.657C43.8146 155.027 43.8146 157.938 43.8146 160.849C50.7086 160.849 56.9897 160.849 63.2708 160.849Z" fill="#112230"/>
<path d="M15.0134 127.607C15.0134 128.985 15.0134 130.211 15.0134 131.59C13.7878 132.815 12.1027 131.59 10.5707 132.509C10.5707 135.266 10.5707 138.023 10.5707 140.628C9.19189 142.006 7.35351 140.781 5.97473 141.7C5.97473 147.828 5.97473 154.108 5.97473 160.389C3.98316 161.461 2.14478 160.542 0.306405 161.155C0.153207 141.24 0.153207 122.092 0.153207 102.637C2.14478 102.024 3.98316 101.718 5.82153 104.015C5.82153 108.152 5.82153 112.441 5.82153 117.19C9.03869 117.19 11.9495 117.19 15.0134 117.19C15.0134 118.722 15.0134 120.254 15.0134 121.785C13.4814 121.939 11.9495 121.479 10.4175 122.092C10.4175 123.93 9.95788 125.768 10.7239 127.453C12.409 127.607 13.6346 127.607 15.0134 127.607Z" fill="#112230"/>
<path d="M25.2777 78.1264C28.1884 78.1264 30.946 78.1264 34.01 78.1264C34.9292 76.7477 34.4696 75.369 34.3164 73.6839C32.9376 73.6839 31.712 73.6839 30.6396 73.6839C29.2608 72.152 30.3332 70.6201 29.7204 69.0882C31.4056 68.935 32.7844 68.935 34.3164 68.7818C34.3164 66.9436 34.3164 65.1053 34.3164 63.1138C31.4056 63.1138 28.4948 63.1138 25.7373 63.1138C24.9713 61.4288 25.5841 59.8969 25.2777 58.5182C29.7204 58.5182 34.01 58.5182 38.9123 58.5182C38.9123 61.8883 38.9123 65.1053 38.9123 68.7818C40.5975 68.7818 41.8231 68.7818 43.0486 68.7818C44.4274 70.1605 43.2018 71.9988 44.121 73.3775C45.653 73.3775 47.3382 73.3775 49.0234 73.3775C50.0958 72.152 48.8702 70.4669 49.9426 69.0882C51.1681 69.0882 52.3937 69.0882 53.9257 69.0882C53.9257 71.9988 53.9257 74.7562 53.9257 77.82C52.8533 78.8923 51.1681 77.6668 49.6362 78.4327C49.6362 83.0284 49.6362 87.7773 49.6362 92.8325C47.6446 92.8325 45.8062 92.8325 43.8146 92.8325C43.8146 88.0837 43.8146 83.3348 43.8146 78.5859C42.2827 77.9732 40.7507 78.1264 39.2187 78.4327C39.2187 79.8114 39.2187 81.037 39.2187 82.722C34.4696 82.722 29.8736 82.722 25.4309 82.722C25.2777 81.1902 25.2777 79.6583 25.2777 78.1264Z" fill="#112230"/>
<path d="M29.8736 49.48C28.4948 49.48 26.9629 49.48 25.2777 49.48C25.2777 52.697 25.2777 55.7608 25.2777 58.6714C23.5925 58.6714 21.9073 58.6714 19.6094 58.6714C19.6094 56.2203 19.4562 53.9225 19.4562 51.4715C19.4562 49.0204 19.4562 46.5694 19.4562 44.2716C17.9242 43.5056 16.6986 43.9652 15.0134 43.9652C15.0134 48.8672 15.0134 53.7693 15.0134 58.6714C13.3282 58.6714 12.1027 58.6714 10.5707 58.6714C10.5707 55.9139 10.5707 53.0034 10.5707 50.246C9.03869 49.1736 7.50671 49.6332 6.12793 49.6332C5.36194 50.8587 5.97473 52.2374 5.66834 53.6161C3.98316 54.5352 2.14478 53.7693 0.153207 54.2289C0.153207 49.0204 0.153207 44.4248 0.153207 39.3695C8.2727 39.3695 16.3922 39.3695 24.9713 39.3695C26.1969 40.2887 24.6649 41.9737 25.7373 43.5056C26.9629 44.1184 28.4948 43.5058 29.8736 43.659C29.8736 45.6504 29.8736 47.4885 29.8736 49.48Z" fill="#112230"/>
<path d="M93.1444 160.849C86.7101 160.849 80.1226 160.849 73.535 160.849C73.535 154.415 73.535 147.981 73.535 141.7C71.8499 140.781 70.1647 142.006 68.9391 140.781C68.9391 139.402 68.9391 138.023 68.9391 136.798C73.535 136.798 78.131 136.798 82.7269 136.798C82.7269 138.33 82.7269 139.709 82.7269 141.087C81.0418 141.853 79.3566 140.628 78.2842 141.853C78.2842 143.691 78.2842 145.223 78.2842 147.215C81.8077 147.215 85.1781 147.215 88.5485 147.215C88.3953 148.747 89.0081 150.279 88.0889 151.964C84.8717 151.964 81.5014 151.964 78.131 151.964C78.2842 153.649 77.8246 155.027 78.5906 156.406C81.0418 156.406 83.4929 156.406 85.9441 156.406C88.3953 156.406 90.6932 156.406 93.1444 156.406C93.1444 158.244 93.1444 159.623 93.1444 160.849Z" fill="#112230"/>
<path d="M102.336 195.316C102.336 190.414 102.336 185.359 102.336 180.304C108.771 180.304 115.358 180.304 121.946 180.304C121.946 182.295 121.946 184.133 121.946 186.125C117.35 186.125 112.907 186.125 108.311 186.125C108.158 187.963 107.698 189.342 108.617 190.72C113.06 190.72 117.503 190.72 121.946 190.72C121.946 192.252 121.946 193.784 121.946 195.316C119.035 195.316 116.277 195.316 113.367 195.316C111.988 196.542 113.213 198.227 112.601 199.605C111.375 200.371 110.149 199.759 108.771 199.912C107.545 198.686 108.771 197.001 107.851 195.316C106.013 195.316 104.175 195.316 102.336 195.316Z" fill="#112230"/>
<path d="M43.6614 10.4169C45.3466 10.4169 47.0318 10.4169 49.1766 10.4169C49.1766 13.3275 49.1766 16.2381 49.1766 19.1487C51.0149 20.0678 52.5469 19.4551 53.9257 19.6083C53.9257 24.6635 53.9257 29.5656 53.9257 34.6208C52.5469 34.6208 51.3213 34.6208 49.9426 34.6208C48.717 33.3953 49.9426 31.7102 49.0234 30.1783C47.4914 30.1783 45.8062 30.1783 43.9678 30.1783C42.8954 31.2507 44.121 32.9357 43.2018 34.4676C41.9763 34.4676 40.7507 34.4676 39.2187 34.4676C39.2187 31.557 39.2187 28.6464 39.2187 25.5827C40.4443 25.5827 41.8231 25.4295 43.355 25.4295C43.355 23.5912 43.355 19.9147 43.355 19.9147H39.2187L38.9123 15.7786L43.355 15.5C43.355 15.5 43.5082 11.7956 43.6614 10.4169Z" fill="#112230"/>
<path d="M15.0134 68.9351C16.3922 68.9351 17.9242 68.9351 19.4562 68.9351C19.6093 70.467 19.6093 71.8457 19.6093 73.0712C21.2945 73.9903 23.2861 72.918 25.2777 73.8372C25.2777 75.2159 25.2777 76.5945 25.2777 78.1264C23.4393 78.1264 21.6009 78.1264 19.4562 78.1264C19.4562 79.8115 19.4562 81.3434 19.4562 82.7221C15.0134 82.7221 10.4175 82.7221 5.82153 82.7221C5.82153 84.5604 5.82153 86.2455 5.82153 88.0837C6.89391 89.1561 8.57909 87.9305 10.2643 88.8497C10.2643 90.0752 10.2643 91.6071 10.2643 92.9858C6.89391 92.9858 3.52355 92.9858 0 92.9858C0 87.9306 0 83.1817 0 78.1264C4.74914 78.1264 9.65148 78.1264 14.8602 78.1264C15.0134 74.9095 15.0134 71.9989 15.0134 68.9351Z" fill="#112230"/>
<path d="M180.467 102.33C180.467 105.701 180.467 109.071 180.467 112.747C182.612 112.747 184.45 112.747 186.289 112.747C186.289 115.658 186.289 118.722 186.289 121.939C184.144 121.939 182.306 121.939 180.467 121.939C180.467 120.56 180.467 119.028 180.467 117.343C178.782 117.343 177.25 117.343 175.871 117.343C175.718 115.811 176.178 114.279 175.412 112.594C174.033 113.36 172.501 111.981 171.275 113.36C171.275 114.739 171.275 116.117 171.275 117.343C167.905 117.343 164.535 117.343 160.858 117.343C160.858 115.658 160.858 114.126 160.858 112.747C162.696 112.747 164.535 112.747 166.373 112.747C167.139 111.062 165.913 109.377 167.292 107.998C169.897 107.998 172.654 107.998 175.871 107.998C175.871 106.007 175.871 104.169 175.871 102.33C177.403 102.33 178.935 102.33 180.467 102.33Z" fill="#112230"/>
<path d="M68.9391 107.998C68.9391 106.313 68.9391 104.628 68.9391 102.79C70.1647 101.564 71.8499 102.637 73.2286 102.024C73.9946 100.799 73.3818 99.573 73.535 98.1943C72.3094 96.9688 70.6243 98.1943 69.2455 97.4283C68.4795 96.2028 69.0923 94.9773 68.9391 93.5986C70.1647 92.3731 71.8499 93.5986 73.535 92.6795C73.535 91.454 73.535 89.9221 73.535 88.5434C76.599 88.5434 79.5098 88.5434 82.4205 88.5434C82.4205 91.9135 82.4205 94.8241 82.4205 97.4283C80.8885 98.0411 79.5098 97.2752 78.2842 98.0411C78.2842 99.4198 77.6714 100.952 78.7438 102.177C80.1226 102.33 81.5013 101.718 82.7269 102.637C82.7269 104.322 82.7269 106.007 82.7269 107.998C77.9778 107.998 73.535 107.998 68.9391 107.998Z" fill="#112230"/>
<path d="M29.8736 156.253C26.6565 156.253 23.4393 156.253 20.2221 156.253C18.8433 157.479 20.0689 159.164 19.3029 160.695C16.5454 160.695 13.7878 160.695 10.5706 160.695C10.2642 157.938 10.5706 155.027 10.4174 152.27C11.7962 151.351 13.175 152.117 14.8602 151.504C14.8602 148.44 14.8602 145.223 14.8602 142.006C16.6986 141.087 18.2305 141.7 19.6093 141.547C19.6093 143.385 19.6093 145.223 19.6093 147.368C21.7541 147.368 23.5925 147.368 25.4309 147.368C25.4309 148.747 25.4309 150.279 25.4309 151.964C27.116 151.964 28.648 151.964 30.0268 151.964C29.8736 153.189 29.8736 154.721 29.8736 156.253Z" fill="#112230"/>
<path d="M180.467 127.606C178.935 127.606 177.557 127.606 175.871 127.606C175.871 132.355 175.871 136.951 175.871 141.393C174.339 141.24 172.807 141.853 171.275 141.087C171.275 138.789 171.275 136.491 171.275 134.347C171.275 132.202 171.122 129.904 171.122 127.76C169.284 127.76 168.058 127.76 166.679 127.76C166.679 125.921 166.679 124.083 166.679 122.398C168.365 121.479 170.05 122.704 171.275 121.479C171.275 120.1 171.275 118.721 171.275 117.496C172.807 117.496 174.339 117.496 175.871 117.496C175.871 118.875 175.871 120.407 175.871 122.092C177.557 122.092 179.088 122.092 180.467 122.092C180.467 123.777 180.467 125.615 180.467 127.606Z" fill="#112230"/>
<path d="M73.3819 5.82126C74.9138 5.82126 76.2926 5.82126 77.6714 5.82126C77.8246 5.97445 77.9778 6.12764 77.9778 6.28083C77.9778 10.5701 77.9778 15.0126 77.9778 19.1487C79.5098 20.0678 80.8886 19.6083 82.4205 19.7615C83.0333 21.4465 82.7269 23.2848 82.5737 25.2763C78.131 25.2763 73.6882 25.2763 69.0923 25.2763C68.6327 23.5912 68.9391 21.7529 68.9391 19.7615C70.4711 19.7615 71.6967 19.6083 73.0755 19.6083C74.1478 18.2296 73.0755 16.8509 73.6882 15.1658C71.8499 15.0126 70.6243 15.0126 69.2455 14.8594C68.7859 13.4807 68.7859 11.9488 69.2455 10.4169C70.6243 10.4169 71.8499 10.4169 73.3819 10.4169C73.3819 8.73185 73.3819 7.19996 73.3819 5.82126Z" fill="#112230"/>
<path d="M136.806 19.6082C131.903 19.6082 126.848 19.6082 121.792 19.6082C121.792 18.0763 121.792 16.5444 121.792 15.0125C123.478 15.0125 125.163 15.0125 127.461 15.0125C127.461 12.5615 127.461 10.2637 127.461 7.81264C127.461 5.36162 127.461 2.91059 127.461 0.459567C128.993 -0.306378 130.372 0.153189 131.75 0C132.823 1.68508 131.75 3.67654 132.516 5.668C133.742 5.668 134.967 5.668 136.346 5.668C137.112 7.19989 136.959 8.73178 136.653 10.2637C135.274 10.2637 134.048 10.4169 132.669 10.4169C131.75 11.6424 132.363 13.0211 132.21 14.2466C133.435 15.6253 135.121 14.3998 136.499 15.1657C137.112 16.5444 136.653 18.0763 136.806 19.6082Z" fill="#112230"/>
<path d="M175.871 190.72C175.871 193.631 175.871 196.695 175.871 199.759C172.807 199.759 170.05 199.759 166.833 199.759C166.833 196.848 166.833 193.937 166.833 190.72C164.688 190.72 162.85 190.72 161.011 190.72C161.011 189.189 161.011 187.81 161.011 186.278C164.688 186.278 167.905 186.278 171.275 186.278C171.275 187.81 171.429 189.035 171.429 190.72C172.961 190.72 174.339 190.72 175.871 190.72Z" fill="#112230"/>
<path d="M180.467 141.393C180.467 140.015 180.467 138.789 180.467 136.798C183.684 136.645 187.055 136.798 190.272 136.645C191.498 138.023 190.272 139.708 191.344 141.24C193.949 141.24 196.859 141.24 199.77 141.24C199.77 143.232 199.77 144.917 199.77 147.061C195.174 147.061 190.732 147.061 186.289 147.061C186.289 145.223 186.289 143.385 186.289 141.24C184.144 141.393 182.306 141.393 180.467 141.393Z" fill="#112230"/>
<path d="M78.131 175.861C78.131 177.24 78.131 178.465 78.131 179.844C78.5906 180.61 79.3566 180.457 80.1226 180.457C80.8886 180.457 81.6546 180.457 82.5737 180.457C82.5737 182.295 82.5737 183.98 82.5737 185.818C79.9694 186.738 76.9054 185.665 73.9947 186.278C73.2287 187.504 73.8415 188.882 73.5351 190.261C72.1563 191.18 70.7775 190.721 69.0923 190.567C69.0923 187.35 69.0923 184.133 69.0923 180.763C70.1647 179.691 71.8499 180.916 73.2287 180.15C73.8415 178.772 73.2287 177.24 73.5351 175.861C75.067 175.861 76.599 175.861 78.131 175.861Z" fill="#112230"/>
<path d="M151.666 5.82119C151.666 4.13611 151.666 2.45103 151.666 0.306378C154.577 -0.153189 157.488 0.306378 160.705 0C160.705 6.43394 160.705 12.8679 160.705 19.6082C159.326 19.6082 157.794 19.6082 156.262 19.6082C156.262 15.1657 156.262 10.57 156.262 5.82119C154.577 5.82119 153.198 5.82119 151.666 5.82119Z" fill="#112230"/>
<path d="M97.7403 19.6081C97.7403 16.6975 97.7403 13.9401 97.7403 11.0295C98.9659 9.65084 100.651 10.8764 101.877 10.2636C102.796 9.03808 101.877 7.65938 102.643 6.12749C104.021 5.20835 105.86 6.12749 107.545 5.66792C108.464 7.19981 107.851 8.42533 108.005 9.80403C109.23 11.0295 110.915 9.80403 112.294 10.57C112.907 11.7955 112.447 13.1742 112.601 14.7061C109.23 14.7061 105.86 14.7061 102.643 14.7061C101.877 16.5443 102.336 18.0762 102.183 19.4549C100.804 19.6081 99.2723 19.6081 97.7403 19.6081Z" fill="#112230"/>
<path d="M88.5485 190.874C90.0805 190.874 91.4592 190.874 92.838 190.874C92.838 193.784 92.838 196.542 92.838 199.912C90.6932 199.912 88.2421 199.912 85.7909 199.912C83.3397 199.912 80.8886 199.912 78.2842 199.912C78.2842 196.848 78.2842 193.937 78.2842 190.874C79.663 190.874 81.0418 190.874 82.2673 190.874C83.0333 192.099 82.5737 193.478 82.7269 195.01C84.4121 195.622 86.2505 195.316 87.9357 195.316C88.8549 193.937 88.3953 192.559 88.5485 190.874Z" fill="#112230"/>
<path d="M121.792 19.6082C121.792 21.2933 121.792 22.9784 121.792 25.2763C118.882 25.4295 115.971 25.2763 112.907 25.2763C109.843 25.2763 106.779 25.2763 104.021 25.2763C103.255 24.6635 102.796 24.0508 102.183 23.5912C102.183 22.2125 102.183 20.8338 102.183 19.6083C108.771 19.6083 115.358 19.6082 121.792 19.6082Z" fill="#112230"/>
<path d="M93.1444 166.67C93.1444 164.831 93.1444 162.84 93.1444 160.849C98.0467 160.849 103.102 160.849 108.158 160.849C108.158 162.687 108.158 164.525 108.158 166.21C106.013 166.976 104.021 165.904 102.336 167.129C102.336 168.508 102.336 169.887 102.336 171.265C100.804 171.265 99.2723 171.265 97.7403 171.265C97.7403 169.887 97.7403 168.355 97.7403 166.67C96.0551 166.67 94.5232 166.67 93.1444 166.67Z" fill="#112230"/>
<path d="M186.136 147.062C186.136 148.594 186.136 149.972 186.136 151.657C180.927 151.657 176.025 151.657 171.122 151.657C171.275 150.125 170.816 148.594 171.429 147.368C172.961 146.602 174.646 147.828 175.718 146.602C175.718 144.917 175.718 143.079 175.718 141.394C177.25 141.394 178.782 141.394 180.314 141.394C180.314 143.232 180.314 145.07 180.314 147.215C182.612 147.062 184.297 147.062 186.136 147.062Z" fill="#112230"/>
<path d="M151.666 19.6083C148.296 19.6083 144.772 19.6083 141.249 19.6083C141.249 18.0764 141.249 16.6977 141.249 15.0126C143.24 15.0126 144.925 15.0126 146.917 15.0126C146.917 11.9488 146.917 9.03823 146.917 5.82126C148.755 5.82126 150.134 5.82119 151.666 5.82119C151.666 10.4169 151.666 15.0126 151.666 19.6083Z" fill="#112230"/>
<path d="M15.0134 117.19C15.0134 115.811 15.0134 114.585 15.0134 113.207C13.7878 111.828 12.1027 113.053 10.8771 112.441C9.95789 111.215 10.8771 109.837 10.2643 108.305C15.3198 108.305 20.2222 108.305 25.1245 108.305C25.7373 109.377 25.2777 110.756 25.4309 112.134C23.7457 113.36 21.7541 112.134 19.9158 112.9C19.303 114.279 19.9158 115.811 19.6094 117.19C18.0774 117.19 16.5454 117.19 15.0134 117.19Z" fill="#112230"/>
<path d="M190.732 112.594C192.11 112.594 193.336 112.594 194.715 112.594C195.94 113.82 194.715 115.505 195.481 116.883C196.706 117.802 198.085 116.883 199.617 117.496C199.617 120.56 199.617 123.93 199.617 127.3C198.238 127.913 196.706 127.3 195.327 127.607C195.327 125.768 195.327 123.93 195.327 122.245C193.642 121.326 191.957 122.551 190.732 121.326C190.732 118.415 190.732 115.505 190.732 112.594Z" fill="#112230"/>
<path d="M54.2321 186.278C57.1429 186.278 60.0536 186.278 63.1176 186.278C63.1176 187.657 63.1176 189.035 63.1176 190.261C61.892 191.333 60.2068 190.108 58.6748 191.18C58.6748 193.784 58.6748 196.695 58.6748 199.452C57.1428 200.218 55.7641 199.912 54.0789 199.759C54.2321 195.163 54.2321 190.72 54.2321 186.278Z" fill="#112230"/>
<path d="M180.467 180.457C182.306 180.457 184.297 180.457 186.289 180.457C186.289 183.827 186.289 187.197 186.289 190.874C182.612 190.874 179.242 190.874 175.871 190.874C176.025 189.342 175.565 187.81 176.178 186.584C177.71 185.818 179.395 187.044 180.467 185.818C180.467 183.827 180.467 182.142 180.467 180.457Z" fill="#112230"/>
<path d="M195.327 127.607C195.327 128.985 195.327 130.211 195.327 132.202C192.876 132.202 190.578 132.202 188.127 132.202C185.676 132.202 183.225 132.202 180.774 132.202C180.008 130.67 180.62 129.138 180.467 127.606C185.37 127.606 190.425 127.607 195.327 127.607Z" fill="#112230"/>
<path d="M73.535 171.266C73.535 169.734 73.535 168.202 73.535 166.67C76.4458 166.67 79.2034 166.67 82.4205 166.67C83.0333 169.58 82.4205 172.491 82.7269 175.402C81.0418 176.168 79.5098 175.555 78.131 175.861C78.131 174.482 78.131 172.951 78.131 171.266C76.4458 171.266 75.067 171.266 73.535 171.266Z" fill="#112230"/>
<path d="M112.601 34.4676C113.979 34.4676 115.205 34.4676 116.584 34.4676C117.962 33.2421 116.737 31.7102 117.35 30.3315C118.728 29.2592 120.107 30.3315 121.792 29.7187C121.792 33.2421 121.792 36.1527 121.792 39.0633C118.728 39.0633 115.665 39.0633 112.601 39.0633C112.601 37.5314 112.601 35.9995 112.601 34.4676Z" fill="#112230"/>
<path d="M54.2321 5.66792C54.2321 3.82965 54.2321 2.14457 54.2321 0.306303C57.1429 0.306303 59.9004 0.306303 63.1176 0.306303C63.7304 1.83819 63.2708 3.67646 63.2708 5.66792C60.2068 5.66792 57.4493 5.66792 54.2321 5.66792Z" fill="#112230"/>
<path d="M63.1176 82.8753C63.1176 84.5604 63.1176 86.3986 63.1176 88.3901C60.2068 88.3901 57.4492 88.3901 54.3853 88.3901C53.6193 86.705 54.3853 84.8667 53.9257 82.8753C57.296 82.8753 60.2068 82.8753 63.1176 82.8753Z" fill="#112230"/>
<path d="M15.1666 97.8879C18.3838 97.8879 21.7541 97.8879 25.1245 97.8879C25.1245 99.2666 25.1245 100.645 25.1245 102.024C21.9073 102.024 18.537 102.024 15.1666 102.024C15.1666 100.645 15.1666 99.1134 15.1666 97.8879Z" fill="#112230"/>
<path d="M190.732 195.469C190.732 196.695 190.732 197.92 190.732 199.759C187.514 199.912 184.144 199.759 180.774 199.912C180.161 198.38 180.314 197.001 180.62 195.469C184.144 195.469 187.361 195.469 190.732 195.469Z" fill="#112230"/>
<path d="M151.666 195.316C151.666 196.695 151.666 197.92 151.666 199.759C148.449 200.065 145.079 199.759 141.708 199.912C140.942 198.227 141.555 196.695 141.402 195.316C144.772 195.316 148.296 195.316 151.666 195.316Z" fill="#112230"/>
<path d="M186.136 73.5308C186.136 74.9095 186.136 76.135 186.136 77.9733C182.918 78.2796 179.548 77.9733 176.178 78.1264C175.412 76.4414 176.025 74.9095 175.871 73.5308C179.242 73.5308 182.765 73.5308 186.136 73.5308Z" fill="#112230"/>
<path d="M39.0655 112.594C36.1547 112.594 33.3971 112.594 30.4864 112.594C28.9544 111.368 30.3332 109.837 29.5672 107.998C33.0908 107.998 36.1547 107.998 39.0655 107.998C39.0655 109.53 39.0655 111.062 39.0655 112.594Z" fill="#112230"/>
<path d="M195.327 180.457C192.264 180.457 189.2 180.457 186.136 180.457C186.136 179.078 186.136 177.852 186.136 176.014C189.046 175.401 191.957 176.014 194.868 175.708C195.787 177.393 195.174 178.925 195.327 180.457Z" fill="#112230"/>
<path d="M121.792 15.0125C120.414 15.0125 118.882 15.0126 117.196 15.0126C117.196 11.7956 117.196 8.73185 117.196 5.82126C118.575 5.82126 120.107 5.82126 121.792 5.82126C121.792 9.03823 121.792 11.9488 121.792 15.0125Z" fill="#112230"/>
<path d="M69.0923 38.91C69.0923 36.1526 69.0923 33.0888 69.0923 30.025C70.4711 30.025 71.8499 30.025 73.2287 30.025C73.2287 32.9356 73.2287 35.8462 73.2287 38.91C71.8499 38.91 70.4711 38.91 69.0923 38.91Z" fill="#112230"/>
<path d="M49.4829 58.6715C52.3937 58.6715 55.4577 58.6715 58.6748 58.6715C58.6748 60.3566 58.6748 61.8885 58.6748 63.2672C55.7641 63.2672 52.7001 63.2672 49.4829 63.2672C49.4829 61.5821 49.4829 60.0502 49.4829 58.6715Z" fill="#112230"/>
<path d="M160.858 190.72C160.858 192.099 160.858 193.631 160.858 195.316C157.641 195.316 154.577 195.316 151.666 195.316C151.666 193.937 151.666 192.406 151.666 190.72C155.036 190.72 157.947 190.72 160.858 190.72Z" fill="#112230"/>
<path d="M30.0268 93.139C30.0268 91.4539 30.0268 90.2284 30.0268 88.6965C32.9376 88.6965 35.6952 88.6965 38.7591 88.6965C39.5251 89.1561 39.0655 90.2284 39.0655 90.9944C39.2187 92.2199 39.0655 93.139 37.3803 93.139C35.0824 92.9858 32.7844 93.139 30.0268 93.139Z" fill="#112230"/>
<path d="M63.1176 92.9857C63.1176 96.2027 63.1176 99.1133 63.1176 101.717C61.892 102.637 60.5132 101.871 58.828 102.483C58.828 99.2665 58.828 96.3559 58.828 93.2921C60.0536 92.6793 61.4324 93.2921 63.1176 92.9857Z" fill="#112230"/>
<path d="M38.9123 102.177C36.1547 102.177 33.0908 102.177 30.0268 102.177C30.0268 100.798 30.0268 99.4197 30.0268 98.041C32.9376 98.041 35.8483 98.041 38.9123 98.041C38.9123 99.4197 38.9123 100.798 38.9123 102.177Z" fill="#112230"/>
<path d="M58.6748 180.457C58.6748 177.24 58.6748 174.329 58.6748 171.572C60.0536 170.806 61.2792 171.265 62.9644 171.112C63.2708 174.023 62.9644 177.087 63.1176 179.844C61.892 180.763 60.5132 180.304 58.6748 180.457Z" fill="#112230"/>
<path d="M25.2777 82.7222C25.2777 84.1009 25.2777 85.3264 25.2777 86.3987C24.0521 89.0029 21.9073 88.237 19.4562 88.3902C19.4562 86.3987 19.4562 84.4072 19.4562 82.569C21.4477 82.7222 23.4393 82.7222 25.2777 82.7222Z" fill="#112230"/>
<path d="M5.82154 68.9351C3.82997 68.9351 2.14479 68.9351 0.306415 68.9351C0.306415 67.0969 0.306415 65.2586 0.306415 63.4203C1.6852 63.4203 2.91078 63.4203 4.13637 63.4203C4.74916 64.0331 5.20875 64.4927 5.82154 64.9522C5.82154 66.1777 5.82154 67.2501 5.82154 68.9351Z" fill="#112230"/>
<path d="M195.481 166.517C195.481 164.831 195.481 162.993 195.481 161.002C196.859 161.002 198.238 161.002 199.617 161.002C199.617 162.687 199.617 164.525 199.617 166.517C198.238 166.517 196.859 166.517 195.481 166.517Z" fill="#112230"/>
<path d="M73.535 166.67C72.1563 166.67 70.6243 166.67 68.9391 166.67C68.9391 164.525 68.9391 162.687 68.9391 160.849C70.4711 160.849 72.0031 160.849 73.535 160.849C73.535 162.84 73.535 164.678 73.535 166.67Z" fill="#112230"/>
<path d="M68.9391 160.849C67.1007 160.849 65.1091 160.849 63.1176 160.849C63.1176 159.317 63.1176 157.785 63.1176 156.253C64.9559 156.253 66.7943 156.253 68.9391 156.253C68.9391 157.938 68.9391 159.47 68.9391 160.849Z" fill="#112230"/>
<path d="M25.2777 141.394C26.8097 141.394 28.3416 141.394 29.8736 141.394C29.8736 143.385 29.8736 145.223 29.8736 147.215C28.3416 147.215 26.8097 147.215 25.2777 147.215C25.2777 145.223 25.2777 143.232 25.2777 141.394Z" fill="#112230"/>
<path d="M19.6093 141.393C19.6093 140.015 19.6093 138.789 19.6093 137.257C21.2945 136.185 23.1329 137.104 24.9713 136.645C25.7372 138.33 25.1245 139.862 25.4309 141.393C23.4393 141.393 21.4477 141.393 19.6093 141.393Z" fill="#112230"/>
<path d="M73.535 88.5434C72.1562 88.5434 70.6243 88.5433 68.9391 88.5433C68.9391 86.3987 68.9391 84.5604 68.9391 82.7221C70.4711 82.7221 72.0031 82.7221 73.535 82.7221C73.535 84.7136 73.535 86.5519 73.535 88.5434Z" fill="#112230"/>
<path d="M68.9391 82.7221C67.1007 82.7221 65.1091 82.7221 63.1176 82.7221C63.1176 81.1902 63.1176 79.6583 63.1176 78.1264C64.9559 78.1264 66.9475 78.1264 68.9391 78.1264C68.9391 79.6583 68.9391 81.1902 68.9391 82.7221Z" fill="#112230"/>
<path d="M68.9391 195.316C68.9391 197.001 68.9391 198.227 68.9391 199.759C67.2539 199.759 65.5687 199.759 63.7304 199.759C62.8112 198.84 63.424 197.461 63.424 196.235C63.424 195.163 64.3432 195.316 65.1092 195.316C66.0283 195.316 67.2539 195.316 68.9391 195.316Z" fill="#112230"/>
<path d="M121.946 195.469C123.631 195.469 125.469 195.469 127.461 195.469C127.461 196.848 127.461 198.227 127.461 199.605C125.776 199.605 123.937 199.605 121.946 199.605C121.946 198.227 121.946 196.848 121.946 195.469Z" fill="#112230"/>
<path d="M195.481 63.4203C196.706 63.4203 198.238 63.4203 199.77 63.4203C199.77 65.2586 199.77 66.7905 199.77 68.4756C198.391 69.5479 197.013 68.4756 195.481 69.0883C195.481 66.9437 195.481 65.1054 195.481 63.4203Z" fill="#112230"/>
<path d="M58.828 63.4203C60.0536 63.4203 61.5856 63.4203 63.1176 63.4203C63.1176 65.2586 63.1176 66.7905 63.1176 68.6288C61.7388 69.2415 60.36 69.0883 58.828 68.782C58.828 66.9437 58.828 65.1054 58.828 63.4203Z" fill="#112230"/>
<path d="M14.8602 68.7818C13.6346 68.7818 12.1026 68.7818 10.5707 68.7818C10.5707 66.9436 10.5707 65.2585 10.5707 63.7266C11.9494 62.6543 13.3282 63.7266 14.8602 63.1138C14.8602 65.2585 14.8602 67.0968 14.8602 68.7818Z" fill="#112230"/>
<path d="M49.483 54.0758C49.483 55.6077 49.4829 57.1396 49.4829 58.6715C47.7978 58.6715 46.1126 58.6715 44.2742 58.6715C42.8955 57.446 44.2743 55.9141 43.2019 54.0758C45.8062 54.0758 47.6446 54.0758 49.483 54.0758Z" fill="#112230"/>
<path d="M195.327 43.6589C196.706 43.6589 197.932 43.6589 199.617 43.6589C200.23 45.344 199.923 47.1822 199.923 49.0205C198.391 49.7865 196.859 49.1737 195.327 49.3269C195.327 47.4886 195.327 45.6504 195.327 43.6589Z" fill="#112230"/>
<path d="M160.858 39.0632C162.696 39.0632 164.535 39.0632 166.679 39.0632C166.679 40.7483 166.679 42.2802 166.679 43.6589C164.688 43.6589 162.85 43.6589 160.858 43.6589C160.858 42.127 160.858 40.5951 160.858 39.0632Z" fill="#112230"/>
<path d="M102.336 39.0632C102.336 37.5313 102.336 35.9994 102.336 34.4675C104.175 34.4675 106.166 34.4675 108.158 34.4675C108.158 35.9994 108.158 37.5313 108.158 39.0632C106.166 39.0632 104.175 39.0632 102.336 39.0632Z" fill="#112230"/>
<path d="M156.262 19.6082C156.262 21.2933 156.262 22.9784 156.262 24.8167C155.036 26.1954 153.504 24.8167 151.666 25.889C151.666 23.438 151.666 21.5997 151.666 19.7615C153.198 19.6083 154.73 19.6082 156.262 19.6082Z" fill="#112230"/>
<path d="M141.402 19.6083C141.402 21.4466 141.402 23.2848 141.402 25.4295C139.717 25.4295 138.185 25.4295 136.806 25.4295C136.806 23.5912 136.806 21.5997 136.806 19.6082C138.338 19.6082 139.87 19.6083 141.402 19.6083Z" fill="#112230"/>
<path d="M88.3953 10.2637C86.7101 10.2637 84.8717 10.2637 82.8801 10.2637C82.8801 8.88497 82.8801 7.50627 82.8801 6.12756C84.5653 6.12756 86.4037 6.12756 88.3953 6.12756C88.3953 7.50627 88.3953 8.88497 88.3953 10.2637Z" fill="#112230"/>
<path d="M117.043 5.66803C115.818 5.66803 114.286 5.66803 112.754 5.66803C112.754 3.82977 112.754 2.29787 112.754 0.459605C114.133 -0.153152 115.511 3.74019e-05 117.043 0.306416C117.043 2.14469 117.043 3.98295 117.043 5.66803Z" fill="#112230"/>
<path d="M93.2976 0.153152C94.8296 0.153152 96.0552 0.153152 97.5871 0.153152C97.5871 1.83823 97.5871 3.52331 97.5871 5.36158C96.5147 6.12753 94.9828 5.66796 93.2976 5.51477C93.2976 3.98288 93.2976 2.2978 93.2976 0.153152Z" fill="#112230"/>
<path d="M73.3819 5.66803C72.1563 5.66803 70.6243 5.66803 69.0923 5.66803C69.0923 3.82977 69.0923 2.29787 69.0923 0.459605C70.4711 -0.153152 71.8499 3.74019e-05 73.3819 0.306416C73.3819 2.14469 73.3819 3.98295 73.3819 5.66803Z" fill="#112230"/>
<path d="M25.2777 121.785C26.8097 121.785 28.3416 121.785 29.8736 121.785C29.8736 123.777 29.8736 125.615 29.8736 127.607C28.4948 127.607 26.9629 127.607 25.2777 127.607C25.2777 125.462 25.2777 123.624 25.2777 121.785Z" fill="#112230"/>
<path d="M19.6093 121.785C19.6093 123.624 19.6093 125.462 19.6093 127.607C17.9242 127.607 16.3922 127.607 15.0134 127.607C15.0134 125.768 15.0134 123.777 15.0134 121.785C16.5454 121.785 18.0773 121.785 19.6093 121.785Z" fill="#112230"/>
<path d="M25.2777 121.785C23.4393 121.785 21.4477 121.785 19.4562 121.785C19.4562 120.253 19.4562 118.722 19.4562 117.19C21.2945 117.19 23.1329 117.19 25.2777 117.19C25.2777 118.875 25.2777 120.407 25.2777 121.785Z" fill="#112230"/>
<path d="M97.7403 180.457C97.7403 182.142 97.7403 183.827 97.7403 185.665C96.5147 187.044 94.9828 185.665 93.1444 186.738C93.1444 184.287 93.1444 182.448 93.1444 180.61C94.6764 180.457 96.2083 180.457 97.7403 180.457Z" fill="#112230"/>
<path d="M195.481 88.3901C195.481 86.705 195.481 84.8667 195.481 82.8753C196.859 82.8753 198.238 82.8753 199.617 82.8753C199.617 84.5604 199.617 86.3986 199.617 88.3901C198.238 88.3901 196.859 88.3901 195.481 88.3901Z" fill="#112230"/>
<path d="M127.614 186.125C127.614 187.503 127.614 189.035 127.614 190.72C125.469 190.72 123.631 190.72 121.792 190.72C121.792 189.189 121.792 187.657 121.792 186.125C123.784 186.125 125.622 186.125 127.614 186.125Z" fill="#112230"/>
<path d="M195.481 180.61C196.706 180.61 198.238 180.61 199.77 180.61C199.77 182.448 199.77 183.98 199.77 185.818C198.391 186.431 197.013 186.278 195.481 185.972C195.481 184.133 195.481 182.295 195.481 180.61Z" fill="#112230"/>
<path d="M136.806 190.72C135.427 190.72 133.895 190.72 132.21 190.72C132.21 189.035 132.21 187.503 132.21 186.125C133.589 186.125 135.121 186.125 136.806 186.125C136.806 187.81 136.806 189.342 136.806 190.72Z" fill="#112230"/>
<path d="M136.653 195.469C136.653 196.695 136.653 198.227 136.653 199.759C135.274 199.759 133.895 199.759 132.516 199.759C131.904 198.38 132.057 197.001 132.363 195.469C133.895 195.469 135.274 195.469 136.653 195.469Z" fill="#112230"/>
<path d="M136.806 195.316C136.806 193.784 136.806 192.252 136.806 190.72C138.338 190.72 139.87 190.72 141.402 190.72C141.402 192.252 141.402 193.784 141.402 195.316C139.87 195.316 138.338 195.316 136.806 195.316Z" fill="#112230"/>
<path d="M93.1444 180.457C91.7656 180.457 90.54 180.457 89.0081 180.457C88.0889 179.078 88.5485 177.699 88.5485 176.167C90.0805 175.555 91.6124 176.014 92.9912 175.861C93.1444 177.393 93.1444 178.925 93.1444 180.457Z" fill="#112230"/>
<path d="M102.183 195.469C102.183 196.695 102.183 198.227 102.183 199.759C100.804 199.759 99.4255 199.759 98.0468 199.759C97.434 198.38 97.5872 197.001 97.8935 195.469C99.4255 195.469 100.804 195.469 102.183 195.469Z" fill="#112230"/>
<path d="M190.885 195.163C190.885 193.937 190.885 192.405 190.885 190.874C192.264 190.874 193.642 190.874 195.021 190.874C195.634 192.252 195.481 193.631 195.174 195.163C193.642 195.163 192.264 195.163 190.885 195.163Z" fill="#112230"/>
<path d="M102.336 180.457C100.804 180.457 99.2723 180.457 97.7403 180.457C97.7403 178.925 97.7403 177.393 97.7403 175.861C99.2723 175.861 100.804 175.861 102.336 175.861C102.336 177.393 102.336 178.925 102.336 180.457Z" fill="#112230"/>
<path d="M73.5351 175.861C72.1563 175.861 70.9307 175.861 69.3987 175.861C68.4795 174.482 68.9391 173.104 68.9391 171.572C70.4711 170.959 72.0031 171.419 73.3818 171.265C73.535 172.797 73.5351 174.329 73.5351 175.861Z" fill="#112230"/>
<path d="M93.1444 171.265C91.7656 171.265 90.54 171.265 89.0081 171.265C88.0889 169.887 88.5485 168.508 88.5485 166.976C90.0805 166.363 91.6124 166.823 92.9912 166.67C93.1444 168.202 93.1444 169.733 93.1444 171.265Z" fill="#112230"/>
<path d="M93.1444 175.861C93.1444 174.329 93.1444 172.797 93.1444 171.265C94.6764 171.265 96.2083 171.265 97.7403 171.265C97.7403 172.797 97.7403 174.329 97.7403 175.861C96.2083 175.861 94.6764 175.861 93.1444 175.861Z" fill="#112230"/>
<path d="M10.4174 93.1391C11.7962 93.1391 13.3282 93.1391 15.0134 93.1391C15.0134 94.8241 15.0134 96.356 15.0134 97.7347C13.6346 97.7347 12.1026 97.7347 10.4174 97.7347C10.4174 96.0496 10.4174 94.5178 10.4174 93.1391Z" fill="#112230"/>
<path d="M190.885 73.6839C192.11 73.6839 193.642 73.6839 195.174 73.6839C195.174 75.0626 195.174 76.4413 195.174 77.82C193.796 78.4328 192.417 78.2796 190.885 77.9732C190.885 76.4413 190.885 75.0626 190.885 73.6839Z" fill="#112230"/>
<path d="M147.07 73.5308C148.449 73.5308 149.674 73.5308 151.053 73.5308C152.432 74.7563 151.206 76.2882 151.819 77.6669C150.134 78.4328 148.602 77.9733 147.07 78.1264C147.07 76.5946 147.07 75.0627 147.07 73.5308Z" fill="#112230"/>
<path d="M63.1176 77.9733C61.892 77.9733 60.36 77.9733 58.828 77.9733C58.828 76.5946 58.828 75.2159 58.828 73.8372C60.2068 73.2245 61.5856 73.3777 63.1176 73.684C63.1176 75.2159 63.1176 76.7478 63.1176 77.9733Z" fill="#112230"/>
<path d="M190.732 73.5308C189.2 73.5308 187.668 73.5308 186.136 73.5308C186.136 72.1521 186.136 70.9266 186.136 69.3947C187.514 68.4756 188.893 68.9352 190.425 68.9352C191.191 70.6203 190.578 72.1521 190.732 73.5308Z" fill="#112230"/>
<path d="M34.4696 49.4802C34.4696 50.8589 34.4696 52.0844 34.4696 53.6163C33.0908 54.5354 31.712 54.0758 30.18 54.0758C29.5672 52.5439 30.0268 51.0121 29.8736 49.6334C31.4056 49.4802 32.9376 49.4802 34.4696 49.4802Z" fill="#112230"/>
<path d="M195.174 43.5058C193.949 43.5058 192.417 43.5058 190.885 43.5058C190.885 42.1271 190.885 40.7484 190.885 39.3697C192.264 38.7569 193.642 38.9101 195.174 39.2165C195.174 40.7484 195.174 42.2803 195.174 43.5058Z" fill="#112230"/>
<path d="M58.6748 34.4675C58.6748 35.9994 58.6748 37.5313 58.6748 39.0632C57.1428 39.0632 55.6109 39.0632 54.0789 39.0632C54.0789 37.5313 54.0789 35.9994 54.0789 34.4675C55.6109 34.4675 57.1428 34.4675 58.6748 34.4675Z" fill="#112230"/>
<path d="M136.959 30.025C138.185 30.025 139.717 30.025 141.249 30.025C141.249 31.4037 141.249 32.7824 141.249 34.1611C139.87 34.7739 138.491 34.6207 136.959 34.3143C136.959 32.7824 136.959 31.4037 136.959 30.025Z" fill="#112230"/>
<path d="M132.057 30.025C132.057 31.2505 132.057 32.7824 132.057 34.3143C130.678 34.3143 129.299 34.3143 127.92 34.3143C127.308 32.9356 127.461 31.5569 127.767 30.025C129.299 30.025 130.678 30.025 132.057 30.025Z" fill="#112230"/>
<path d="M108.005 34.4676C108.005 33.0889 108.005 31.8634 108.005 30.4847C109.23 29.106 110.762 30.3315 112.141 29.7187C112.907 31.4038 112.447 32.9357 112.601 34.4676C111.069 34.4676 109.537 34.4676 108.005 34.4676Z" fill="#112230"/>
<path d="M102.183 34.3144C100.957 34.3144 99.4255 34.3144 97.8935 34.3144C97.8935 32.9357 97.8935 31.557 97.8935 30.1783C99.2723 29.5656 100.651 29.7188 102.183 30.0251C102.183 31.557 102.183 33.0889 102.183 34.3144Z" fill="#112230"/>
<path d="M58.828 34.3143C58.828 33.0888 58.828 31.5569 58.828 30.025C60.2068 30.025 61.5856 30.025 62.9644 30.025C63.5772 31.4037 63.424 32.7824 63.1176 34.3143C61.5856 34.3143 60.0536 34.3143 58.828 34.3143Z" fill="#112230"/>
<path d="M136.806 25.2762C136.806 26.8081 136.806 28.34 136.806 29.8719C135.274 29.8719 133.742 29.8719 132.21 29.8719C132.21 28.4932 132.21 26.9613 132.21 25.2762C133.895 25.2762 135.274 25.2762 136.806 25.2762Z" fill="#112230"/>
<path d="M54.2321 19.4551C54.2321 18.2295 54.2321 16.6977 54.2321 15.1658C55.6109 15.1658 56.9897 15.1658 58.3684 15.1658C58.9812 16.5445 58.828 17.9232 58.5216 19.4551C56.9897 19.4551 55.4577 19.4551 54.2321 19.4551Z" fill="#112230"/>
<path d="M43.5082 10.2636C42.2827 10.2636 40.7507 10.2636 39.2187 10.2636C39.2187 8.88493 39.2187 7.50623 39.2187 6.12753C40.5975 5.51477 41.9763 5.66796 43.5082 5.97434C43.5082 7.50623 43.5082 8.88493 43.5082 10.2636Z" fill="#112230"/>
<path d="M190.885 156.1C190.885 154.874 190.885 153.342 190.885 151.81C192.264 151.81 193.642 151.81 195.021 151.81C195.634 153.189 195.481 154.568 195.174 156.1C193.642 156.1 192.264 156.1 190.885 156.1Z" fill="#112230"/>
<path d="M29.8736 121.785C29.8736 120.407 29.8736 119.181 29.8736 117.649C31.2524 116.73 32.6312 117.19 34.1632 117.19C34.776 118.722 34.3164 120.254 34.4696 121.632C32.9376 121.785 31.4056 121.785 29.8736 121.785Z" fill="#112230"/>
<path d="M186.136 112.594C186.136 111.215 186.136 109.99 186.136 108.611C187.361 107.386 188.893 108.611 190.272 107.845C191.038 109.683 190.578 111.215 190.732 112.594C189.2 112.594 187.668 112.594 186.136 112.594Z" fill="#112230"/>
<path d="M43.6614 117.19C42.2827 117.19 40.7507 117.19 39.0655 117.19C39.0655 115.505 39.0655 113.973 39.0655 112.594C40.5975 112.594 42.1295 112.594 43.6614 112.594C43.6614 114.126 43.6614 115.658 43.6614 117.19Z" fill="#112230"/>
<path d="M93.1444 121.785C98.0467 121.785 102.796 121.785 108.158 121.785C108.158 120.1 108.158 118.722 108.158 117.19C109.69 117.19 111.222 117.19 112.754 117.19C112.754 118.568 112.754 120.1 112.754 121.785C115.971 121.785 119.035 121.785 121.946 121.785C121.946 123.624 121.946 125.462 121.946 127.607C124.09 127.607 125.929 127.607 127.767 127.607C127.614 129.138 128.074 130.67 127.461 131.896C125.622 132.662 123.631 131.436 121.946 132.662C121.946 134.04 121.946 135.419 121.946 136.798C120.414 136.645 118.882 137.104 117.196 136.338C117.196 133.428 117.196 130.517 117.196 127.607C115.511 127.76 114.133 127.3 113.06 127.913C112.294 129.292 113.52 130.977 112.294 132.202C110.915 132.202 109.537 132.202 108.311 132.202C108.158 130.67 108.617 129.138 108.005 127.607C106.166 127.607 104.328 127.147 102.643 127.913C102.643 129.445 102.643 130.824 102.643 132.202C101.111 132.202 99.5787 132.202 98.0467 132.202C97.8935 130.67 98.3531 129.138 97.8935 127.913C96.3615 126.994 94.6764 128.372 93.4508 126.994C93.1444 125.309 93.1444 123.47 93.1444 121.785Z" fill="#112230"/>
<path d="M97.7403 136.798C92.6848 136.798 87.7825 136.798 82.7269 136.798C82.7269 131.896 82.7269 126.994 82.7269 121.938C81.0418 121.938 79.8162 121.938 78.2842 121.938C78.2842 119.028 78.2842 116.117 78.2842 113.053C79.3566 111.828 80.8886 113.207 82.1142 112.594C83.1865 114.126 82.2673 115.505 83.0333 117.036C84.4121 117.649 86.2505 117.19 88.2421 117.19C88.2421 114.279 88.2421 111.368 88.2421 108.611C89.7741 107.539 91.1528 107.998 92.9912 108.151C92.9912 112.747 92.9912 117.19 92.9912 121.785C91.4592 121.938 89.9273 121.326 88.3953 122.092C88.3953 123.777 88.2421 125.462 88.3953 127.147C88.5485 128.832 87.9357 130.517 88.8549 132.049C91.7656 132.049 94.6764 132.049 97.5872 132.049C97.7403 133.734 97.7403 135.266 97.7403 136.798Z" fill="#112230"/>
<path d="M121.792 63.2672C121.792 68.3224 121.792 73.2245 121.792 78.2797C120.414 78.2797 119.188 78.2797 117.35 78.2797C117.35 75.3691 117.35 72.4585 117.35 69.0884C113.979 69.0884 110.915 69.0884 108.005 69.0884C108.005 67.2501 108.005 65.4118 108.005 63.2672C112.907 63.2672 117.35 63.2672 121.792 63.2672Z" fill="#112230"/>
<path d="M121.792 102.33C121.792 104.322 121.792 106.16 121.792 108.152C118.882 108.152 115.818 108.152 112.601 108.152C112.601 109.837 112.601 111.369 112.601 112.747C111.069 112.747 109.537 112.747 108.005 112.747C108.005 109.377 108.005 106.007 108.005 102.33C112.907 102.33 117.35 102.33 121.792 102.33Z" fill="#112230"/>
<path d="M108.005 117.19C104.634 117.19 101.264 117.19 97.5871 117.19C97.5871 111.981 97.5871 107.079 97.5871 102.177C98.9659 102.177 100.191 102.177 102.03 102.177C102.03 105.547 102.03 108.764 102.03 112.594C104.328 112.594 106.166 112.594 108.005 112.594C108.005 114.126 108.005 115.658 108.005 117.19Z" fill="#112230"/>
<path d="M121.792 82.7221C121.792 87.7774 121.792 92.6794 121.792 97.7346C120.414 97.7346 119.188 97.7346 117.656 97.7346C116.584 94.8241 117.656 91.9135 117.043 89.0029C115.818 88.0837 114.439 89.0029 112.754 88.3901C112.141 86.8582 112.601 85.1731 112.601 82.8753C115.818 82.7221 118.882 82.7221 121.792 82.7221Z" fill="#112230"/>
<path d="M108.005 69.2414C108.005 70.3137 108.005 71.6924 108.005 73.0711C109.23 74.2966 110.915 73.0711 112.294 73.8371C112.907 75.0626 112.601 76.4413 112.601 77.9732C107.698 77.9732 102.949 77.9732 97.8935 77.9732C97.8935 76.5945 97.8935 75.369 97.8935 73.9903C99.1191 73.0711 100.804 73.9903 102.336 73.3775C102.336 71.9988 102.336 70.6201 102.336 69.2414C104.328 69.2414 106.166 69.2414 108.005 69.2414Z" fill="#112230"/>
<path d="M93.1444 82.7221C97.8935 82.7221 102.643 82.7221 107.698 82.7221C108.464 84.4072 108.005 86.2455 108.005 88.5433C102.949 88.5433 98.0467 88.5433 93.1444 88.5433C93.1444 86.5518 93.1444 84.7136 93.1444 82.7221Z" fill="#112230"/>
<path d="M97.7403 63.4203C97.7403 64.9522 97.7403 66.6373 97.7403 68.4756C96.5148 69.8543 94.8296 68.6288 93.604 69.2415C92.5316 70.467 93.7572 72.1521 92.838 73.5308C91.6124 73.5308 90.3868 73.5308 88.8549 73.5308C88.8549 70.1606 88.8549 66.9437 88.8549 63.4203C91.7656 63.4203 94.6764 63.4203 97.7403 63.4203Z" fill="#112230"/>
<path d="M112.601 93.7516C112.601 94.824 112.601 96.0495 112.601 97.7346C109.383 97.8877 106.013 97.7346 102.796 97.8877C101.877 96.509 102.489 95.1303 102.336 93.9048C103.102 92.8325 107.545 92.8325 112.601 93.7516Z" fill="#112230"/>
<path d="M97.5871 102.177C94.8296 102.177 91.7656 102.177 88.7016 102.177C88.7016 100.798 88.7016 99.4197 88.7016 98.041C91.6124 98.041 94.5232 98.041 97.5871 98.041C97.5871 99.4197 97.5871 100.798 97.5871 102.177Z" fill="#112230"/>
<path d="M127.614 82.7221C125.776 82.7221 123.784 82.7221 121.792 82.7221C121.792 81.1902 121.792 79.6583 121.792 78.1264C123.631 78.1264 125.622 78.1264 127.614 78.1264C127.614 79.6583 127.614 81.1902 127.614 82.7221Z" fill="#112230"/>
<path d="M92.9912 88.6965C92.9912 89.922 92.9912 91.4539 92.9912 92.9858C91.6124 92.9858 90.2337 92.9858 88.8549 92.9858C88.2421 91.6071 88.3953 90.2284 88.7017 88.6965C90.2337 88.6965 91.6124 88.6965 92.9912 88.6965Z" fill="#112230"/>
<path d="M121.639 58.5182C120.414 58.5182 118.882 58.5182 117.35 58.5182C117.35 57.1395 117.35 55.7608 117.35 54.3821C118.728 53.7693 120.107 53.9225 121.639 54.2289C121.639 55.7608 121.639 57.1395 121.639 58.5182Z" fill="#112230"/>
<path d="M132.21 88.5433C130.831 88.5433 129.299 88.5433 127.614 88.5433C127.614 86.3987 127.614 84.5604 127.614 82.7221C129.146 82.7221 130.678 82.7221 132.21 82.7221C132.21 84.7136 132.21 86.5518 132.21 88.5433Z" fill="#112230"/>
<path d="M132.21 73.5308C132.21 75.0627 132.21 76.5946 132.21 78.1264C130.678 78.1264 129.146 78.1264 127.614 78.1264C127.614 76.7477 127.614 75.2159 127.614 73.5308C129.299 73.5308 130.678 73.5308 132.21 73.5308Z" fill="#112230"/>
<path d="M147.07 147.061C145.232 147.061 143.393 147.061 141.402 147.061C141.402 145.07 141.402 143.385 141.402 141.547C138.338 141.547 135.427 141.547 132.21 141.547C132.21 143.385 132.21 145.223 132.21 147.061C130.678 147.061 129.146 147.061 127.614 147.061C127.614 145.223 127.614 143.385 127.614 141.24C125.469 141.24 123.631 141.24 121.792 141.24C121.792 139.708 121.792 138.177 121.792 136.645C125.163 136.645 128.533 136.645 132.21 136.645C132.21 133.428 132.21 130.364 132.21 127.453C133.742 127.606 135.274 126.994 136.653 127.76C137.265 130.823 136.193 133.887 137.265 136.645C142.168 136.645 147.07 136.645 151.819 136.645C151.819 138.177 151.819 139.708 151.819 141.24C150.44 141.24 148.908 141.24 147.223 141.24C147.07 143.538 147.07 145.223 147.07 147.061Z" fill="#112230"/>
<path d="M121.792 147.061C115.358 147.061 109.077 147.061 102.183 147.061C102.183 145.07 102.183 143.232 102.183 141.24C108.617 141.24 115.205 141.24 121.792 141.24C121.792 143.232 121.792 145.223 121.792 147.061Z" fill="#112230"/>
<path d="M121.792 160.849C121.792 162.534 121.792 164.219 121.792 166.21C118.882 167.129 115.971 166.21 112.601 166.823C112.601 164.525 112.601 162.687 112.601 160.849C115.665 160.849 118.728 160.849 121.792 160.849Z" fill="#112230"/>
<path d="M88.5484 147.061C88.5484 145.223 88.5484 143.385 88.5484 141.24C91.7656 141.24 94.8296 141.24 97.7403 141.24C97.7403 143.079 97.7403 144.917 97.7403 147.061C94.5232 147.061 91.4592 147.061 88.5484 147.061Z" fill="#112230"/>
<path d="M107.851 156.1C104.634 156.1 101.264 156.1 97.8935 156.1C97.8935 154.721 97.8935 153.342 97.8935 151.964C101.111 151.964 104.481 151.964 107.851 151.964C107.851 153.342 107.851 154.874 107.851 156.1Z" fill="#112230"/>
<path d="M127.614 160.848C125.776 160.848 123.784 160.849 121.792 160.849C121.792 159.47 121.792 158.244 121.792 156.559C123.478 155.946 125.316 156.253 127.154 156.253C127.92 157.938 127.461 159.47 127.614 160.848Z" fill="#112230"/>
<path d="M127.614 147.061C127.614 148.44 127.614 149.666 127.614 151.351C125.929 151.964 124.09 151.657 122.252 151.657C121.486 150.125 122.099 148.593 121.946 147.062C123.784 147.062 125.622 147.061 127.614 147.061Z" fill="#112230"/>
<path d="M112.601 160.849C111.069 160.849 109.537 160.849 108.005 160.849C108.005 159.317 108.005 157.785 108.005 156.253C109.383 156.253 110.915 156.253 112.601 156.253C112.601 157.938 112.601 159.47 112.601 160.849Z" fill="#112230"/>
<path d="M97.7403 141.394C97.7403 139.862 97.7403 138.33 97.7403 136.798C99.2723 136.798 100.804 136.798 102.336 136.798C102.336 138.33 102.336 139.862 102.336 141.394C100.804 141.394 99.2723 141.394 97.7403 141.394Z" fill="#112230"/>
<path d="M102.336 175.861C102.336 174.329 102.336 172.797 102.336 171.265C105.553 171.265 108.771 171.266 112.141 171.266C113.06 172.644 112.601 174.023 112.447 175.861C109.077 175.861 105.707 175.861 102.336 175.861Z" fill="#112230"/>
<path d="M151.666 180.457C153.198 180.457 154.73 180.457 156.262 180.457C156.262 182.142 156.262 183.827 156.262 185.665C155.036 187.044 153.504 185.665 151.666 186.738C151.666 184.133 151.666 182.295 151.666 180.457Z" fill="#112230"/>
<path d="M156.262 141.394C156.262 143.385 156.262 145.223 156.262 147.215C154.73 147.215 153.198 147.215 151.666 147.215C151.666 145.377 151.666 143.385 151.666 141.394C153.198 141.394 154.73 141.394 156.262 141.394Z" fill="#112230"/>
<path d="M151.666 147.062C151.666 148.44 151.666 149.666 151.666 151.044C150.44 152.27 148.908 151.044 147.53 151.81C146.764 150.125 147.376 148.593 147.07 147.061C148.602 147.061 150.134 147.062 151.666 147.062Z" fill="#112230"/>
<path d="M151.666 117.19C153.045 117.19 154.27 117.19 155.649 117.19C156.875 118.415 155.649 120.1 156.415 121.479C157.641 122.398 159.02 121.479 160.552 122.092C161.471 123.47 160.552 125.462 161.164 127.607C163.003 127.607 164.841 127.607 166.679 127.607C166.679 130.517 166.679 133.581 166.679 136.798C164.535 136.798 162.696 136.798 160.858 136.798C160.858 135.419 160.858 133.887 160.858 132.202C159.173 132.202 157.641 132.202 156.262 132.202C156.262 130.824 156.262 129.292 156.262 127.607C154.577 127.607 153.045 127.607 151.666 127.607C151.666 124.083 151.666 120.713 151.666 117.19Z" fill="#112230"/>
<path d="M160.858 136.798C160.858 138.177 160.858 139.709 160.858 141.394C159.173 141.394 157.641 141.394 156.262 141.394C156.262 139.862 156.262 138.33 156.262 136.798C157.794 136.798 159.326 136.798 160.858 136.798Z" fill="#112230"/>
<path d="M171.429 171.112C169.59 171.112 168.365 171.112 167.139 171.112C166.373 169.887 166.833 168.508 166.679 167.129C167.752 165.904 169.284 166.363 170.356 166.67C172.195 167.436 170.816 169.274 171.429 171.112Z" fill="#112230"/>
<path d="M49.6362 147.215C51.0149 147.215 52.3937 147.215 53.9257 147.215C53.9257 150.125 53.9257 152.883 53.9257 155.793C52.5469 156.406 51.1681 156.253 49.6362 155.946C49.6362 153.036 49.6362 150.125 49.6362 147.215Z" fill="#112230"/>
<path d="M58.828 141.394C60.36 141.394 61.5856 141.394 63.1176 141.394C63.1176 143.079 63.1176 144.764 63.1176 146.602C62.0452 147.368 60.5132 146.908 58.828 146.755C58.828 145.223 58.828 143.538 58.828 141.394Z" fill="#112230"/>
<path d="M63.1176 156.1C61.892 156.1 60.36 156.1 58.828 156.1C58.828 154.721 58.828 153.342 58.828 151.964C60.2068 151.351 61.5856 151.504 63.1176 151.81C63.1176 153.342 63.1176 154.874 63.1176 156.1Z" fill="#112230"/>
<path d="M29.8736 151.657C29.8736 150.125 29.8736 148.593 29.8736 147.062C31.4056 147.062 32.9376 147.062 34.4696 147.062C34.4696 148.593 34.4696 150.125 34.4696 151.657C32.9376 151.657 31.4056 151.657 29.8736 151.657Z" fill="#112230"/>
<path d="M156.262 107.998C154.73 107.998 153.198 107.998 151.666 107.998C151.666 106.16 151.666 104.169 151.666 102.177C153.198 102.177 154.73 102.177 156.262 102.177C156.262 104.169 156.262 106.16 156.262 107.998Z" fill="#112230"/>
<path d="M156.262 102.33C156.262 100.799 156.262 99.2666 156.262 97.7347C157.794 97.7347 159.326 97.7347 160.858 97.7347C160.858 99.1134 160.858 100.645 160.858 102.33C159.173 102.33 157.794 102.33 156.262 102.33Z" fill="#112230"/>
<path d="M175.871 97.7347C175.871 99.2666 175.871 100.799 175.871 102.33C174.493 102.33 172.961 102.33 171.275 102.33C171.275 100.645 171.275 99.1134 171.275 97.7347C172.807 97.7347 174.339 97.7347 175.871 97.7347Z" fill="#112230"/>
<path d="M160.858 112.594C159.479 112.594 157.947 112.594 156.262 112.594C156.262 110.909 156.262 109.377 156.262 107.998C157.641 107.998 159.173 107.998 160.858 107.998C160.858 109.683 160.858 111.215 160.858 112.594Z" fill="#112230"/>
<path d="M127.614 112.594C128.993 112.594 130.525 112.594 132.21 112.594C132.21 110.909 132.21 109.377 132.21 107.998C133.589 107.998 134.814 107.998 136.653 107.998C136.653 110.909 136.653 113.82 136.653 117.19C140.483 117.19 143.853 117.19 147.223 117.19C147.223 118.722 147.223 120.1 147.223 121.785C142.015 121.785 137.112 121.785 132.21 121.785C132.21 120.407 132.21 118.875 132.21 117.19C130.525 117.19 128.993 117.19 127.614 117.19C127.614 115.658 127.614 114.126 127.614 112.594Z" fill="#112230"/>
<path d="M151.666 107.998C151.666 111.062 151.666 114.126 151.666 117.19C150.134 117.19 148.602 117.19 147.07 117.19C147.07 115.811 147.07 114.585 147.07 113.207C145.385 111.981 143.547 113.054 141.555 112.441C141.095 111.062 141.249 109.683 141.555 107.998C145.079 107.998 148.449 107.998 151.666 107.998Z" fill="#112230"/>
<path d="M127.614 107.998C127.614 109.53 127.614 111.062 127.614 112.594C125.776 112.594 123.784 112.594 121.792 112.594C121.792 111.062 121.792 109.53 121.792 107.998C123.784 107.998 125.622 107.998 127.614 107.998Z" fill="#112230"/>
<path d="M10.5707 25.2762C10.5707 20.221 10.5707 15.4721 10.5707 10.5701C15.473 10.5701 20.3753 10.5701 25.2777 10.5701C25.2777 15.0126 25.2777 19.3019 25.2777 23.7444C24.8181 24.2039 24.2053 24.8167 23.7457 25.4294C19.4561 25.2762 15.1666 25.2762 10.5707 25.2762Z" fill="#112230"/>
<path d="M190.732 10.4169C190.732 15.4722 190.732 20.0678 190.732 24.9699C188.434 25.5827 185.982 25.1231 183.531 25.2763C181.08 25.2763 178.629 25.2763 176.025 25.2763C176.025 20.3742 176.025 15.6254 176.025 10.5701C178.322 10.1106 180.927 10.4169 183.531 10.4169C185.982 10.4169 188.434 10.4169 190.732 10.4169Z" fill="#112230"/>
<path d="M25.1245 190.72C20.2221 190.72 15.473 190.72 10.5707 190.72C10.5707 185.972 10.5707 181.223 10.5707 176.168C12.7154 175.708 15.1666 176.014 17.6178 176.014C20.0689 176.014 22.5201 176.014 25.1245 176.014C25.1245 180.763 25.1245 185.512 25.1245 190.72Z" fill="#112230"/>
<path d="M102.336 136.798C102.336 135.266 102.336 133.734 102.336 132.202C104.175 132.202 106.166 132.202 108.158 132.202C108.158 133.581 108.158 135.113 108.158 136.798C106.013 136.798 104.175 136.798 102.336 136.798Z" fill="#112230"/>
<path d="M127.614 121.785C129.146 121.785 130.678 121.785 132.21 121.785C132.21 123.777 132.21 125.615 132.21 127.607C130.678 127.607 129.146 127.607 127.614 127.607C127.614 125.615 127.614 123.777 127.614 121.785Z" fill="#112230"/>
<path d="M121.792 112.594C121.792 114.126 121.792 115.658 121.792 117.19C118.728 117.19 115.665 117.19 112.601 117.19C112.601 115.658 112.601 114.126 112.601 112.594C115.665 112.594 118.728 112.594 121.792 112.594Z" fill="#112230"/>
<path d="M127.614 117.19C127.614 118.722 127.614 120.253 127.614 121.785C125.776 121.785 123.784 121.785 121.792 121.785C121.792 120.253 121.792 118.722 121.792 117.19C123.784 117.19 125.622 117.19 127.614 117.19Z" fill="#112230"/>
<path d="M151.666 127.607C151.666 129.138 151.666 130.67 151.666 132.202C148.449 132.202 145.232 132.202 141.861 132.202C140.942 130.824 141.402 129.445 141.555 127.607C144.925 127.607 148.296 127.607 151.666 127.607Z" fill="#112230"/>
<path d="M151.666 132.202C153.198 132.202 154.73 132.202 156.262 132.202C156.262 133.734 156.262 135.266 156.262 136.798C154.73 136.798 153.198 136.798 151.666 136.798C151.666 135.266 151.666 133.734 151.666 132.202Z" fill="#112230"/>
</svg>
