<svg width="630" height="450" viewBox="0 0 630 450" fill="none" xmlns="http://www.w3.org/2000/svg">
<rect width="630" height="450" rx="5" fill="#B333CC"/>
<rect width="630" height="450" rx="5" fill="url(#paint0_radial)"/>
<rect width="630" height="450" rx="5" fill="url(#paint1_radial)"/>
<rect width="630" height="450" rx="5" fill="url(#paint2_radial)"/>
<mask id="mask0" mask-type="alpha" maskUnits="userSpaceOnUse" x="0" y="0" width="630" height="450">
<rect width="630" height="450" rx="5" fill="url(#paint3_linear)"/>
</mask>
<g mask="url(#mask0)">
<g opacity="0.5">
<path d="M-426.911 513.247C-455.909 336.817 -271.477 293.871 -259.877 182.441C-248.278 71.0122 -164.188 -7.36327 -49.6384 -24.2556C64.9111 -41.148 165.827 -14.8805 251.664 86.1022C337.501 187.085 333.2 369.639 271.071 480.658C189.874 625.748 33.2793 673.337 -79.2366 667.534C-191.752 661.73 -397.913 689.676 -426.911 513.247Z" fill="#B333CC"/>
<path d="M-426.911 513.247C-455.909 336.817 -271.477 293.871 -259.877 182.441C-248.278 71.0122 -164.188 -7.36327 -49.6384 -24.2556C64.9111 -41.148 165.827 -14.8805 251.664 86.1022C337.501 187.085 333.2 369.639 271.071 480.658C189.874 625.748 33.2793 673.337 -79.2366 667.534C-191.752 661.73 -397.913 689.676 -426.911 513.247Z" fill="url(#paint4_radial)"/>
<path d="M-426.911 513.247C-455.909 336.817 -271.477 293.871 -259.877 182.441C-248.278 71.0122 -164.188 -7.36327 -49.6384 -24.2556C64.9111 -41.148 165.827 -14.8805 251.664 86.1022C337.501 187.085 333.2 369.639 271.071 480.658C189.874 625.748 33.2793 673.337 -79.2366 667.534C-191.752 661.73 -397.913 689.676 -426.911 513.247Z" fill="url(#paint5_radial)"/>
<path d="M-426.911 513.247C-455.909 336.817 -271.477 293.871 -259.877 182.441C-248.278 71.0122 -164.188 -7.36327 -49.6384 -24.2556C64.9111 -41.148 165.827 -14.8805 251.664 86.1022C337.501 187.085 333.2 369.639 271.071 480.658C189.874 625.748 33.2793 673.337 -79.2366 667.534C-191.752 661.73 -397.913 689.676 -426.911 513.247Z" fill="url(#paint6_radial)"/>
</g>
</g>
<defs>
<radialGradient id="paint0_radial" cx="0" cy="0" r="1" gradientUnits="userSpaceOnUse" gradientTransform="translate(107.789 696.766) rotate(-75.1122) scale(656.438 841.936)">
<stop offset="0.150617" stop-color="#1AC4E6"/>
<stop offset="0.379643" stop-color="#1AA1E6"/>
<stop offset="1" stop-color="#BC36C7" stop-opacity="0"/>
</radialGradient>
<radialGradient id="paint1_radial" cx="0" cy="0" r="1" gradientUnits="userSpaceOnUse" gradientTransform="translate(453.731 -64.9432) rotate(110.973) scale(399.443 229.404)">
<stop stop-color="#FF66E6"/>
<stop offset="0.980994" stop-color="#F20DCC" stop-opacity="0"/>
</radialGradient>
<radialGradient id="paint2_radial" cx="0" cy="0" r="1" gradientUnits="userSpaceOnUse" gradientTransform="translate(560.308 450) rotate(-134.474) scale(295.17 227.263)">
<stop stop-color="#5E1AE6"/>
<stop offset="1" stop-color="#8B34A5" stop-opacity="0"/>
</radialGradient>
<linearGradient id="paint3_linear" x1="293.684" y1="-258.75" x2="26.5755" y2="497.845" gradientUnits="userSpaceOnUse">
<stop stop-color="#33AAFF"/>
<stop offset="1" stop-color="#CC30CF"/>
</linearGradient>
<radialGradient id="paint4_radial" cx="0" cy="0" r="1" gradientUnits="userSpaceOnUse" gradientTransform="translate(-302.193 1050.21) rotate(-78.4965) scale(1002.76 1012.22)">
<stop offset="0.150617" stop-color="#1AC4E6"/>
<stop offset="0.379643" stop-color="#1AA1E6"/>
<stop offset="1" stop-color="#BC36C7" stop-opacity="0"/>
</radialGradient>
<radialGradient id="paint5_radial" cx="0" cy="0" r="1" gradientUnits="userSpaceOnUse" gradientTransform="translate(107.995 -129.59) rotate(106.354) scale(602.063 279.521)">
<stop stop-color="#FF66E6"/>
<stop offset="0.980994" stop-color="#F20DCC" stop-opacity="0"/>
</radialGradient>
<radialGradient id="paint6_radial" cx="0" cy="0" r="1" gradientUnits="userSpaceOnUse" gradientTransform="translate(234.366 668) rotate(-126.928) scale(408.104 301.876)">
<stop stop-color="#5E1AE6"/>
<stop offset="1" stop-color="#8B34A5" stop-opacity="0"/>
</radialGradient>
</defs>
</svg>
