<svg width="160" height="30" viewBox="0 0 160 30" fill="none" xmlns="http://www.w3.org/2000/svg">
								<path d="M104.782 7.3023C104.857 7.17173 104.998 7.09106 105.15 7.09106C105.475 7.09106 105.679 7.43644 105.518 7.71474L93.4675 28.6258C93.3922 28.7564 93.2517 28.837 93.0993 28.837C92.7747 28.837 92.5708 28.4917 92.7312 28.2134L104.782 7.3023Z" fill="white" />
								<path
								d="M108.762 28.9354C111.068 28.9354 112.14 27.8046 112.14 26.4894C112.14 23.3306 106.854 24.6458 106.854 22.544C106.854 21.7942 107.49 21.1796 108.973 21.1796C109.746 21.1796 110.607 21.4009 111.367 21.8802L111.779 20.8969C111.055 20.4053 109.996 20.1349 108.973 20.1349C106.68 20.1349 105.632 21.2657 105.632 22.5931C105.632 25.7888 110.918 24.4614 110.918 26.5632C110.918 27.313 110.27 27.8906 108.762 27.8906C107.64 27.8906 106.53 27.4727 105.882 26.8951L105.42 27.8538C106.119 28.4929 107.428 28.9354 108.762 28.9354Z"
								fill="white" />
								<path
								d="M117.864 28.9354C119.222 28.9354 120.394 28.4683 121.192 27.5834L120.382 26.809C119.709 27.5096 118.886 27.8415 117.926 27.8415C115.956 27.8415 114.498 26.4403 114.498 24.5351C114.498 22.63 115.956 21.2288 117.926 21.2288C118.886 21.2288 119.709 21.5484 120.382 22.249L121.192 21.4746C120.394 20.5897 119.222 20.1349 117.876 20.1349C115.221 20.1349 113.251 21.9909 113.251 24.5351C113.251 27.0794 115.221 28.9354 117.864 28.9354Z"
								fill="white" />
								<path
								d="M129.229 20.2332V23.9329H124.217V20.2332H122.971V28.8371H124.217V25.0022H129.229V28.8371H130.476V20.2332H129.229Z"
								fill="white" />
								<path
								d="M137.028 28.9354C139.683 28.9354 141.653 27.0671 141.653 24.5351C141.653 22.0031 139.683 20.1349 137.028 20.1349C134.347 20.1349 132.377 22.0154 132.377 24.5351C132.377 27.0548 134.347 28.9354 137.028 28.9354ZM137.028 27.8415C135.07 27.8415 133.624 26.4403 133.624 24.5351C133.624 22.63 135.07 21.2288 137.028 21.2288C138.96 21.2288 140.406 22.63 140.406 24.5351C140.406 26.4403 138.96 27.8415 137.028 27.8415Z"
								fill="white" />
								<path
								d="M147.498 28.9354C150.153 28.9354 152.123 27.0671 152.123 24.5351C152.123 22.0031 150.153 20.1349 147.498 20.1349C144.817 20.1349 142.848 22.0154 142.848 24.5351C142.848 27.0548 144.817 28.9354 147.498 28.9354ZM147.498 27.8415C145.54 27.8415 144.094 26.4403 144.094 24.5351C144.094 22.63 145.54 21.2288 147.498 21.2288C149.43 21.2288 150.876 22.63 150.876 24.5351C150.876 26.4403 149.43 27.8415 147.498 27.8415Z"
								fill="white" />
								<path d="M154.029 28.8371H160V27.7677H155.275V20.2332H154.029V28.8371Z" fill="white" />
								<path
								d="M6.97554 23.826V28.0429H4.74108V23.826H3.82045V28.0429H1.5764V23.826H0.655762V28.8371H7.89618V23.826H6.97554Z"
								fill="white" />
								<path
								d="M13.3663 28.8371H14.45L12.3882 26.237L14.3158 23.826H13.328L11.6785 25.9439H10.6044V23.826H9.6838V28.8371H10.6044V26.7192H11.6593L13.3663 28.8371Z"
								fill="white" />
								<path
								d="M17.4236 28.8938C18.9484 28.8938 20.0609 27.8254 20.0609 26.3316C20.0609 24.8377 18.9484 23.7788 17.4236 23.7788C15.8988 23.7788 14.7768 24.8377 14.7768 26.3316C14.7768 27.8254 15.8988 28.8938 17.4236 28.8938ZM17.4236 28.0996C16.4455 28.0996 15.707 27.3999 15.707 26.3316C15.707 25.2632 16.4455 24.573 17.4236 24.573C18.4018 24.573 19.1307 25.2632 19.1307 26.3316C19.1307 27.3999 18.4018 28.0996 17.4236 28.0996Z"
								fill="white" />
							<path
								d="M21.8131 23.826L21.7268 25.6792C21.6597 26.861 21.6213 28.0901 20.7966 28.0901C20.7295 28.0901 20.6528 28.0807 20.5665 28.0618L20.5089 28.8276C20.7199 28.8843 20.9021 28.9127 21.0747 28.9127C22.2255 28.9127 22.4653 27.5039 22.5516 25.7359L22.6091 24.6202H24.7956V28.8371H25.7163V23.826H21.8131Z"
								fill="white" />
							<path
								d="M29.3089 23.7788C28.4937 23.7788 27.7361 24.0057 27.2087 24.4217L27.5923 25.1024C27.9855 24.7715 28.5992 24.5635 29.2034 24.5635C30.1145 24.5635 30.5652 25.0079 30.5652 25.7737V25.9534H29.1075C27.5923 25.9534 27.0648 26.6152 27.0648 27.4189C27.0648 28.2887 27.7937 28.8938 28.9445 28.8938C29.7404 28.8938 30.3062 28.6291 30.6131 28.1752V28.8371H31.4858V25.8115C31.4858 24.4406 30.6994 23.7788 29.3089 23.7788ZM29.0979 28.1941C28.3978 28.1941 27.9759 27.8821 27.9759 27.381C27.9759 26.9556 28.2348 26.6057 29.1459 26.6057H30.5652V27.3054C30.335 27.8821 29.7884 28.1941 29.0979 28.1941Z"
								fill="white" />
							<path
								d="M40.1112 28.0429V23.826H36.1698L36.093 25.5184C36.0259 26.7854 35.9012 28.005 35.1724 28.0429H34.9039V30H35.7766V28.8371H40.0249V30H40.888V28.0429H40.1112ZM36.937 25.5846L36.9849 24.6202H39.1906V28.0429H36.3424C36.8027 27.6458 36.8986 26.6247 36.937 25.5846Z"
								fill="white" />
							<path
								d="M42.0874 28.8371H42.9313L46.0384 25.1875V28.8371H46.9591V23.826H46.1247L43.008 27.4756V23.826H42.0874V28.8371Z"
								fill="white" />
							<path
								d="M51.414 26.2275C51.9703 26.029 52.3347 25.6224 52.3347 25.1213C52.3347 24.3082 51.4236 23.7599 50.1865 23.7599C49.5344 23.7599 48.9015 23.8922 48.2398 24.2231L48.4891 24.9228C49.0453 24.6675 49.5728 24.5351 50.0906 24.5351C50.8674 24.5351 51.3853 24.7999 51.3853 25.2537C51.3853 25.6792 50.9537 25.925 50.2728 25.925H49.4097V26.5774H50.34C51.088 26.5774 51.5291 26.8421 51.5291 27.3054C51.5291 27.816 50.9633 28.128 50.1002 28.128C49.4769 28.128 48.8056 27.9578 48.3165 27.6458L48.0384 28.336C48.6042 28.6952 49.3522 28.9033 50.1098 28.9033C51.462 28.9033 52.4785 28.2887 52.4785 27.381C52.4785 26.8043 52.0949 26.3977 51.414 26.2275Z"
								fill="white" />
							<path
								d="M55.6906 23.7788C54.8755 23.7788 54.1179 24.0057 53.5904 24.4217L53.974 25.1024C54.3672 24.7715 54.981 24.5635 55.5851 24.5635C56.4962 24.5635 56.9469 25.0079 56.9469 25.7737V25.9534H55.4892C53.974 25.9534 53.4466 26.6152 53.4466 27.4189C53.4466 28.2887 54.1754 28.8938 55.3262 28.8938C56.1222 28.8938 56.688 28.6291 56.9949 28.1752V28.8371H57.8675V25.8115C57.8675 24.4406 57.0812 23.7788 55.6906 23.7788ZM55.4797 28.1941C54.7796 28.1941 54.3576 27.8821 54.3576 27.381C54.3576 26.9556 54.6166 26.6057 55.5276 26.6057H56.9469V27.3054C56.7168 27.8821 56.1701 28.1941 55.4797 28.1941Z"
								fill="white" />
							<path
								d="M61.9036 23.1737C62.8339 23.1737 63.3997 22.7198 63.4189 21.8689H62.7763C62.7667 22.3416 62.4215 22.6442 61.8941 22.6442C61.3762 22.6442 61.031 22.3416 61.0214 21.8689H60.398C60.4076 22.7198 60.9734 23.1737 61.9036 23.1737ZM59.5253 28.8371H60.3693L63.4764 25.1875V28.8371H64.397V23.826H63.5627L60.446 27.4756V23.826H59.5253V28.8371Z"
								fill="white" />
							<path
								d="M66.184 28.8371H67.1046V26.7381H70.0008V28.8371H70.9214V23.826H70.0008V25.9534H67.1046V23.826H66.184V28.8371Z"
								fill="white" />
							<path
								d="M74.524 23.7788C73.7089 23.7788 72.9513 24.0057 72.4238 24.4217L72.8074 25.1024C73.2006 24.7715 73.8144 24.5635 74.4185 24.5635C75.3296 24.5635 75.7803 25.0079 75.7803 25.7737V25.9534H74.3226C72.8074 25.9534 72.28 26.6152 72.28 27.4189C72.28 28.2887 73.0088 28.8938 74.1596 28.8938C74.9556 28.8938 75.5214 28.6291 75.8283 28.1752V28.8371H76.701V25.8115C76.701 24.4406 75.9146 23.7788 74.524 23.7788ZM74.313 28.1941C73.613 28.1941 73.191 27.8821 73.191 27.381C73.191 26.9556 73.45 26.6057 74.361 26.6057H75.7803V27.3054C75.5501 27.8821 75.0035 28.1941 74.313 28.1941Z"
								fill="white" />
							<path
								d="M7.36029 16.7822C11.9395 16.7822 14.6966 14.1585 14.6966 9.33659V0H11.6278V9.21841C11.6278 12.6221 10.0934 14.0876 7.38426 14.0876C4.6751 14.0876 3.11673 12.6221 3.11673 9.21841V0H0V9.33659C0 14.1585 2.75711 16.7822 7.36029 16.7822Z"
								fill="white" />
							<path
								d="M30.9827 16.5459L24.6773 7.98929L30.5511 0H27.1707L22.9271 5.8856L18.6356 0H15.1113L21.0091 8.10747L14.7756 16.5459H18.3239L22.8312 10.2584L27.3864 16.5459H30.9827Z"
								fill="white" />
							<path
								d="M53.425 16.5459L53.4011 0H52.3941L44.89 12.7876L37.3858 0H36.3549V16.5459H37.5537V2.43461L44.5783 14.3476H45.1777L52.2023 2.38733L52.2263 16.5459H53.425Z"
								fill="white" />
							<path d="M56.8787 16.5459H58.1014V0H56.8787V16.5459Z" fill="white" />
							<path
								d="M73.9949 0V14.3713L62.5829 0H61.552V16.5459H62.7747V2.1746L74.2107 16.5459H75.2176V0H73.9949Z"
								fill="white" />
							<path
								d="M78.6809 16.5459H85.3219C90.6443 16.5459 94.2406 13.0949 94.2406 8.27293C94.2406 3.45099 90.6443 0 85.3219 0H78.6809V16.5459ZM79.9036 15.4586V1.0873H85.226C89.9731 1.0873 93.0179 4.06556 93.0179 8.27293C93.0179 12.4803 89.9731 15.4586 85.226 15.4586H79.9036Z"
								fill="white" />
						</svg>