<svg width="160" height="90" viewBox="0 0 160 90" fill="none" xmlns="http://www.w3.org/2000/svg">
<g clip-path="url(#clip0)">
<path d="M0 5C0 2.23858 2.23858 0 5 0H155C157.761 0 160 2.23858 160 5V85C160 87.7614 157.761 90 155 90H5C2.23858 90 0 87.7614 0 85V5Z" fill="#FCF0FF"/>
<g clip-path="url(#clip1)">
<path fill-rule="evenodd" clip-rule="evenodd" d="M73.0746 74.8628H162.862L185.233 10H97.5839C96.304 10 95.1651 10.812 94.7478 12.0219L73.0746 74.8628Z" fill="url(#paint0_linear)"/>
<path fill-rule="evenodd" clip-rule="evenodd" d="M159.907 70.9008L179.675 13.4033H97.6055L77.8387 70.9008H159.907Z" fill="white"/>
<path fill-rule="evenodd" clip-rule="evenodd" d="M135.473 54.9662L146.44 23.1317H106.352L95.3856 54.9662H135.473Z" fill="#FCF0FF"/>
<path fill-rule="evenodd" clip-rule="evenodd" d="M165.293 33.1134L167.937 25.4089H150.571L147.928 33.1134H165.293Z" fill="#FCF0FF"/>
<path fill-rule="evenodd" clip-rule="evenodd" d="M162.721 80.8317V74.8628H43.115C40.3809 74.8628 38.0001 77.7928 38.0001 80.8317H162.721Z" fill="url(#paint1_linear)"/>
<path fill-rule="evenodd" clip-rule="evenodd" d="M123.792 83.2175H118.853C115.805 83.2175 113.325 80.9117 113.325 78.0775V65.3232H123.792V68.3161H116.544V78.0775C116.544 79.2614 117.579 80.2247 118.853 80.2247H123.792V83.2175Z" fill="#F2CCFF"/>
<path fill-rule="evenodd" clip-rule="evenodd" d="M148.349 61.3468V90.4506C148.349 91.7266 147.303 92.7612 146.013 92.7612H122.103C120.812 92.7612 119.766 91.7266 119.766 90.4506V61.3468H148.349Z" fill="#F2CCFF"/>
<path fill-rule="evenodd" clip-rule="evenodd" d="M143.35 49.4364C142.298 51.7477 140.893 53.8402 140.283 55.3548C139.585 56.8695 139.681 57.8063 139.593 57.8063C139.681 57.8063 137.706 56.8695 136.526 55.3548C135.257 53.8402 134.784 51.7477 135.836 49.4364C136.888 47.1251 138.293 45.0327 138.904 43.518C139.602 42.0033 139.505 41.0665 139.593 41.0665C139.505 41.0665 141.481 42.0033 142.661 43.518C143.929 45.0327 144.402 47.1251 143.35 49.4364Z" fill="#DF99FF"/>
<path fill-rule="evenodd" clip-rule="evenodd" d="M134.281 52.034C133.492 53.9468 132.438 55.6786 131.981 56.9321C131.457 58.1856 131.53 58.9609 131.463 58.9609C131.53 58.9609 130.048 58.1856 129.163 56.9321C128.211 55.6786 127.857 53.9468 128.646 52.034C129.435 50.1213 130.489 48.3895 130.946 47.136C131.47 45.8826 131.397 45.1073 131.463 45.1073C131.398 45.1073 132.879 45.8826 133.764 47.136C134.715 48.3896 135.07 50.1213 134.281 52.034Z" fill="#DF99FF"/>
<path d="M148.349 70.7751V80.5862C146.115 82.5012 143.591 83.7642 143.591 83.7642C143.591 83.7642 135.467 80.424 135.467 75.0933C135.467 72.6345 137.46 70.6418 139.917 70.6418C141.443 70.6418 142.79 71.4103 143.591 72.5811C144.393 71.4103 145.739 70.6418 147.265 70.6418C147.639 70.6418 148.002 70.6882 148.349 70.7751Z" fill="#DF99FF"/>
</g>
</g>
<defs>
<linearGradient id="paint0_linear" x1="132.948" y1="-27.2961" x2="165.358" y2="86.0878" gradientUnits="userSpaceOnUse">
<stop stop-color="#33AAFF"/>
<stop offset="1" stop-color="#CC30CF"/>
</linearGradient>
<linearGradient id="paint1_linear" x1="104.58" y1="71.4307" x2="104.847" y2="82.7108" gradientUnits="userSpaceOnUse">
<stop stop-color="#33AAFF"/>
<stop offset="1" stop-color="#CC30CF"/>
</linearGradient>
<clipPath id="clip0">
<path d="M0 5C0 2.23858 2.23858 0 5 0H155C157.761 0 160 2.23858 160 5V85C160 87.7614 157.761 90 155 90H5C2.23858 90 0 87.7614 0 85V5Z" fill="white"/>
</clipPath>
<clipPath id="clip1">
<rect x="38" y="10" width="122.541" height="82.7612" fill="white"/>
</clipPath>
</defs>
</svg>
