<svg width="200" height="200" viewBox="0 0 200 200" fill="none"
													xmlns="http://www.w3.org/2000/svg">
													<path fill-rule="evenodd" clip-rule="evenodd"
														d="M0 17.234V34.4681H17.234H34.4681V17.234V0H17.234H0V17.234ZM43.8298 1.88511C43.8298 2.92213 43.7689 4.21468 43.6945 4.75745L43.5591 5.74468H41.354H39.1489V7.97872V10.2128H48.8298H58.5106V7.97872V5.74468H60.8511H63.1915V2.87234V0H60.8511H58.5106V2.87234V5.74468H56.2766H54.0425V2.87234V0H48.9362H43.8298V1.88511ZM68.9832 2.81915L69.0426 5.6383L71.3298 5.69872L73.617 5.75915V7.98596V10.2128H75.8511H78.0851V12.5532V14.8936H75.8511H73.617V12.6596V10.4255H71.2766H68.9362V12.6596V14.8936H71.2838H73.6315L73.5711 17.1809L73.5106 19.4681L71.2234 19.5285L68.9362 19.5889V21.6828C68.9362 22.8343 68.996 24.0757 69.0692 24.4415L69.2021 25.1064H75.8511H82.5L82.633 24.4415C82.7062 24.0757 82.766 22.8311 82.766 21.6755V19.5745H80.4255H78.0851V17.234V14.8936H80.4255H82.766V12.6885V10.4834L83.7532 10.3481C84.296 10.2736 85.1445 10.2128 85.6383 10.2128C86.1321 10.2128 86.9806 10.2736 87.5234 10.3481L88.5106 10.4834V24.8162V39.1489L86.4362 39.1466C85.2951 39.1453 84.0028 39.0849 83.5638 39.0123L82.766 38.8804V34.3338V29.7872H80.4226H78.0794L78.1353 36.7553L78.1915 43.7234L80.3472 43.7838L82.5028 43.844L82.6345 44.5019C82.7068 44.8636 82.766 47.1583 82.766 49.6011V54.0425H80.4255H78.0851V51.7021V49.3617H75.8511H73.617L73.6147 47.3936C73.6134 46.3113 73.553 45.0666 73.4804 44.6277L73.3485 43.8298H71.1423H68.9362V41.4966V39.1634L71.2234 39.103L73.5106 39.0426V34.4681V29.8936L71.2234 29.8332L68.9362 29.7728V34.4608V39.1489H67.0511C66.014 39.1489 64.7215 39.0881 64.1787 39.0136L63.1915 38.8783V31.9923V25.1064H60.9853H58.7791L58.6472 24.3085C58.5747 23.8698 58.5143 21.5717 58.513 19.2021L58.5106 14.8936H60.8511H63.1915V12.6596V10.4255H60.8511H58.5106V12.6596V14.8936H56.2766H54.0425V17.234V19.5745H48.9362H43.8298L43.8274 21.5426C43.8262 22.6251 43.7657 23.8698 43.6932 24.3085L43.5613 25.1064H41.3551H39.1489V29.7872V34.4681H41.4894H43.8298V32.2619V30.0557L44.6277 29.9238C45.0666 29.8513 46.3113 29.7909 47.3936 29.7896L49.3617 29.7872V36.8085V43.8298L47.3936 43.8274C46.3113 43.8262 45.0666 43.7657 44.6277 43.6932L43.8298 43.5613V41.3551V39.1489H36.8085H29.7872V41.4894V43.8298H27.4468H25.1064V41.4894V39.1489H12.5532H0V41.4894V43.8298H2.21915C4.35872 43.8298 4.44085 43.847 4.50638 44.3085C4.55021 44.6162 4.74553 44.8115 5.05319 44.8553C5.51468 44.9209 5.53191 45.003 5.53191 47.1426V49.3617H2.76596H0V51.7021V54.0425H2.76596H5.53191V56.2766V58.5106H7.87234H10.2128L10.2151 51.9681C10.2164 48.3696 10.2768 45.0666 10.3494 44.6277L10.4813 43.8298H12.6874H14.8936V46.5957V49.3617H17.2383H19.5828L19.5255 53.9894L19.4681 58.617L17.1809 58.6774L14.8936 58.7379V60.9647V63.1915H12.6885H10.4834L10.3481 64.1787C10.2736 64.7215 10.2128 66.014 10.2128 67.0511V68.9362H12.5532H14.8936V71.2766V73.617H12.5532H10.2128V75.8511V78.0851H7.87234H5.53191V75.8511V73.617H2.76596H0V75.8511V78.0851H2.76596H5.53191V80.4255V82.766H2.76596H0V85.6383V88.5106H2.76596H5.53191V85.6383V82.766H7.86851H10.2051L10.2621 87.9255L10.3191 93.0851L12.6064 93.1455L14.8936 93.206V95.4255V97.6451L12.6064 97.7055L10.3191 97.766L10.2587 100.053L10.1983 102.34H7.99936H5.80043L5.66851 103.138C5.59596 103.577 5.53553 105.875 5.53426 108.245L5.53191 112.553H10.2128H14.8936V114.894V117.234H7.44681H0V119.574V121.915H2.34043H4.68085V122.447C4.68085 122.837 4.79426 122.979 5.10638 122.979C5.48723 122.979 5.53191 123.121 5.53191 124.332C5.53191 125.076 5.59277 126.13 5.66723 126.672L5.80255 127.66H8.00766H10.2128L10.2151 125.585C10.2164 124.444 10.2768 123.152 10.3494 122.713L10.4813 121.915H14.8936H19.306L19.4379 122.713C19.5104 123.152 19.5709 124.444 19.5721 125.585L19.5745 127.66H22.3404H25.1064V129.891V132.122L17.7128 132.178L10.3191 132.234L10.2587 134.521L10.1983 136.809H12.546H14.8936V141.908V147.007L17.1809 147.067L19.4681 147.128L19.5285 149.415L19.5889 151.702H17.2413H14.8936V154.043V156.383H12.546H10.1983L10.2587 158.67L10.3191 160.957L12.6064 161.018L14.8936 161.078V158.731V156.383H17.234H19.5745V158.726V161.069L26.9681 161.013L34.3617 160.957L34.4221 158.67L34.4826 156.383H32.1349H29.7872V154.043V151.702H34.3617H38.9362V146.596V141.489H36.7021H34.4681V139.149V136.809H36.8085H39.1489V139.156V141.504L41.4362 141.443L43.7234 141.383L43.7838 139.096L43.8443 136.809H46.603H49.3617V139.149V141.489H46.5957H43.8298V143.723C43.8298 145.816 43.8568 145.957 44.2553 145.957C44.5674 145.957 44.6809 146.099 44.6809 146.489V147.021H47.0213H49.3617V151.702V156.383H46.603H43.8443L43.7838 158.67L43.7234 160.957L41.4362 161.018L39.1489 161.078V166.177V171.277H46.5957H54.0425V168.936V166.596H58.617H63.1915V163.83V161.064H66.0638H68.9362V163.83V166.596H71.2766H73.617V168.936V171.277H71.2766H68.9362V173.617V175.957H71.2766H73.617V178.191V180.426H71.2766H68.9362V185.638V190.851H71.2766H73.617V188.511V186.17H78.1915H82.766V183.298V180.426H80.4255H78.0851V178.191V175.957H80.4255H82.766V173.617V171.277H80.4255H78.0851V168.936V166.596H75.8511H73.617V163.83V161.064H83.4043H93.1915V163.83V166.596H90.8511H88.5106V168.936V171.277H90.8511H93.1915V173.617V175.957H90.8511H88.5106V178.184V180.411L90.7979 180.471L93.0851 180.532L93.1445 183.351L93.2038 186.17H95.4317H97.6596V183.298V180.426H100H102.34V187.979V195.532H100H97.6596V197.766V200H100H102.34V197.766V195.532H105.213H108.085V197.766V200H110.319H112.553V197.766V195.532H117.234H121.915V197.766V200H124.787H127.66V197.766V195.532H124.787H121.915V193.191V190.851H124.787H127.66V188.511V186.17H129.894H132.128V188.511V190.851H134.468H136.809V193.191V195.532H134.468H132.128V197.766V200H134.468H136.809V197.766V195.532H139.149H141.489V197.766V200H146.596H151.702V197.766V195.532H146.596H141.489V193.191V190.851H144.251H147.014L147.071 185.691L147.128 180.532L149.415 180.471L151.702 180.411L151.704 182.493C151.706 183.638 151.766 184.934 151.839 185.372L151.971 186.17H154.177H156.383V183.298V180.426H168.404H180.426V170.745V161.064H183.298H186.17V166.17V171.277H190.851H195.532V168.936V166.596H197.766H200V163.83V161.064H197.766H195.532V163.83V166.596H193.191H190.851V161.489V156.383H193.191H195.532V154.043V151.702H193.191H190.851V154.043V156.383H181.064H171.277V154.043V151.702H178.723H186.17V149.362V147.021H193.085H200V144.255V141.489H195.426H190.851V139.149V136.809H185.638H180.426V139.149V141.489H178.191H175.957V134.574V127.66H178.191H180.426V129.894V132.128H187.979H195.532V129.894V127.66H197.766H200V122.447V117.234H197.766H195.532V115V112.766H193.191H190.851V117.34V121.915H193.07H195.288L195.424 123.032C195.499 123.646 195.529 124.915 195.493 125.851L195.426 127.553L187.926 127.609L180.426 127.665V124.79V121.915H183.298H186.17V117.34V112.766H184.285C183.248 112.766 181.956 112.705 181.413 112.631L180.426 112.495V107.418V102.34H187.844H195.263L195.395 103.138C195.468 103.577 195.528 104.87 195.53 106.011L195.532 108.085H197.766H200V102.872V97.6596H197.766H195.532V93.0851V88.5106H197.766H200V85.6383V82.766H197.766H195.532V85.6383V88.5106H193.191H190.851V93.0851V97.6596H188.511H186.17V95.4317V93.2038L183.351 93.1445L180.532 93.0851L180.475 87.9255L180.418 82.766H173.507H166.596V80.5598V78.3536L165.798 78.2217C165.359 78.1491 164.114 78.0887 163.032 78.0874L161.064 78.0851V80.4255V82.766H154.043H147.021V80.4255V78.0851H149.362H151.702V75.8511V73.617H149.362H147.021V69.3915C147.021 67.0672 147.082 64.7215 147.157 64.1787L147.292 63.1915H149.497H151.702V66.0638V68.9362H154.043H156.383V66.0638V63.1915H158.723H161.064V68.4043V73.617H168.511H175.957V75.8511V78.0851H181.064H186.17V75.8511V73.617H188.511H190.851V75.8511V78.0851H193.191H195.532V75.8511V73.617H193.191H190.851V71.2766V68.9362H188.511H186.17V71.2766V73.617H181.064H175.957V71.2766V68.9362H178.166H180.374L180.462 66.2849C180.511 64.8268 180.626 63.5581 180.718 63.4657C180.811 63.3734 184.181 63.2694 188.209 63.2342L195.532 63.1706V66.0534V68.9362H197.766H200V66.0638V63.1915H197.766H195.532V56.2766V49.3617H197.766H200V46.5957V43.8298H197.766H195.532V46.5957V49.3617H193.191H190.851V54.0498V58.7379L188.564 58.6774L186.277 58.617L186.216 56.3298L186.156 54.0425H183.283H180.411L180.471 51.7553L180.532 49.4681L183.351 49.4087L186.17 49.3494V44.2491V39.1489H183.298H180.426V41.4894V43.8298H178.191H175.957V41.4894V39.1489H173.617H171.277V41.4894V43.8298H168.936H166.596V41.4894V39.1489H163.834H161.072L161.015 34.5213L160.957 29.8936L158.67 29.8332L156.383 29.7728V32.1204V34.4681H154.043H151.702V32.1204V29.7728L149.415 29.8332L147.128 29.8936L147.07 34.3891L147.013 38.8847L146.352 39.0168C145.989 39.0896 142.64 39.1489 138.91 39.1489H132.128V41.4894V43.8298H129.894H127.66V41.4894V39.1489H124.791H121.923L121.866 34.5213L121.809 29.8936L119.521 29.8332L117.234 29.7728V32.1204V34.4681H115H112.766V36.8085V39.1489H117.348H121.929L121.869 41.4362L121.809 43.7234H117.234H112.66L112.599 41.4362L112.539 39.1489H110.312H108.085V36.8085V34.4681H110.319H112.553V32.1277V29.7872H110.319H108.085V32.1277V34.4681H105.22H102.355L102.294 32.1809L102.234 29.8936L99.9468 29.8332L97.6596 29.7728V36.8013V43.8298H95.4255H93.1915V46.5957V49.3617H95.4255H97.6596V53.9362V58.5106H105.106H112.553V56.2766V54.0425H107.447H102.34V51.7004V49.3583L114.947 49.4132L127.553 49.4681L127.614 51.7553L127.674 54.0425H129.901H132.128V56.383V58.7234H127.021H121.915V60.9574V63.1915H127.021H132.128V68.4043V73.617H129.894H127.66V75.8511V78.0851H129.894H132.128V75.8511V73.617H134.468H136.809V75.8438V78.0706L134.521 78.1311L132.234 78.1915L132.174 80.4787L132.113 82.766H129.894H127.674L127.614 80.4787L127.553 78.1915L124.737 78.1321L121.92 78.0728L121.864 70.6853L121.809 63.2979L114.947 63.2417L108.085 63.1855V66.0608V68.9362H105.213H102.34L102.338 66.8617C102.337 65.7206 102.276 64.4283 102.204 63.9894L102.072 63.1915H100H97.9281L97.7962 63.9894C97.7236 64.4283 97.6632 67.7794 97.6619 71.4362L97.6596 78.0851H105.106H112.553V75.8511V73.617H110.319H108.085V71.2766V68.9362H112.66H117.234V73.5106V78.0851H119.574H121.915V80.4255V82.766H117.34H112.766V85.6383V88.5106H115H117.234V93.0851V97.6596H119.574H121.915V100V102.34H115H108.085V107.447V112.553H110.319H112.553V110.319V108.085H117.234H121.915V110.319V112.553H124.787H127.66V110.319V108.085H129.894H132.128V110.426V112.766H129.894H127.66V115V117.234H124.787H121.915V115V112.766H117.34H112.766V115V117.234H117.34H121.915V119.579V121.923L117.287 121.866L112.66 121.809L112.599 119.521L112.539 117.234H110.312H108.085V115V112.766H105.213H102.34V115V117.234H105.213H108.085V119.574V121.915H100.638H93.1915V115V108.085H90.8511H88.5106V112.66V117.234H85.6383H82.766V115V112.766H80.4255H78.0851V117.34V121.915H80.4255H82.766V124.787V127.66H78.1915H73.617L73.6147 125.585C73.6134 124.444 73.553 123.152 73.4804 122.713L73.3485 121.915H71.1423H68.9362V119.574V117.234H66.0638H63.1915V119.574V121.915H60.8468H58.5023L58.5596 117.287L58.617 112.66L63.7766 112.603L68.9362 112.546V110.315V108.085H75.8511H82.766V105.213V102.34H80.4255H78.0851V100V97.6596H80.4255H82.766V95.4328V93.206L80.4787 93.1455L78.1915 93.0851L78.1311 90.7979L78.0706 88.5106H75.8438H73.617V85.6383V82.766H83.4043H93.1915V85.6383V88.5106H90.8511H88.5106V90.8583V93.206L90.7979 93.1455L93.0851 93.0851L93.1455 90.7979L93.206 88.5106H100.646H108.085L108.083 86.4362C108.081 85.2951 108.021 84.0028 107.949 83.5638L107.817 82.766H100.511H93.206L93.1455 80.4787L93.0851 78.1915L85.5851 78.1355L78.0851 78.0796V75.8483V73.617H80.4255H82.766V71.2766V68.9362H80.4255H78.0851L78.0874 66.8617C78.0887 65.7206 78.1491 64.4283 78.2217 63.9894L78.3536 63.1915H80.5598H82.766V60.9864V58.7813L83.7532 58.646C84.296 58.5715 86.6417 58.5106 88.966 58.5106H93.1915V56.2766V54.0425H90.8511H88.5106V48.9434V43.8443L90.7979 43.7838L93.0851 43.7234L93.1394 24.734L93.1938 5.74468H95.4266H97.6596V2.87234V0H95.4255H93.1915V2.87234V5.74468H83.4043H73.617V2.87234V0H71.2704H68.9238L68.9832 2.81915ZM112.766 2.87234V5.74468H115H117.234V10.3191V14.8936H119.574H121.915V17.234V19.5745H109.787H97.6596V21.6755C97.6596 22.8311 97.7194 24.0757 97.7925 24.4415L97.9255 25.1064H109.787H121.649L121.782 24.4415C121.855 24.0757 121.915 22.8311 121.915 21.6755V19.5745H129.362H136.809V22.3332V25.0919L134.521 25.1523L132.234 25.2128L132.174 27.5L132.113 29.7872H129.886H127.66V32.1277V34.4681H129.894H132.128V32.1277V29.7872H134.468H136.809V32.1277V34.4681H139.156H141.504L141.443 32.1809L141.383 29.8936L139.096 29.8332L136.809 29.7728V27.4396V25.1064H139.015H141.221L141.353 24.3085C141.425 23.8698 141.486 22.6251 141.487 21.5426L141.489 19.5745H146.596H151.702V21.6755C151.702 22.8311 151.762 24.0757 151.835 24.4415L151.968 25.1064H154.043H156.117L156.25 24.4415C156.323 24.0757 156.383 22.8343 156.383 21.6828V19.5889L158.67 19.5285L160.957 19.4681L161.013 9.73404L161.068 0H156.379H151.69L151.749 2.81915L151.809 5.6383L154.096 5.69872L156.383 5.75915V12.6668V19.5745H154.043H151.702V12.6596V5.74468H149.362H147.021V10.3191V14.8936H144.255H141.489V17.234V19.5745H139.149H136.809V17.234V14.8936H134.461H132.113L132.174 12.6064L132.234 10.3191L134.521 10.2587L136.809 10.1983V7.97149V5.74468H134.603H132.398L132.263 4.75745C132.189 4.21468 132.128 2.92213 132.128 1.88511V0H129.894H127.66V7.44681V14.8936H124.787H121.915V10.3264V5.75915L119.628 5.69872L117.34 5.6383L117.281 2.81915L117.222 0H114.994H112.766V2.87234ZM166.596 17.234V34.4681H183.298H200V17.234V0H183.298H166.596V17.234ZM29.7872 17.766V29.7872H17.6596H5.53191V17.766V5.74468H17.6596H29.7872V17.766ZM102.294 8.03191L102.234 10.3191L99.9468 10.3796L97.6596 10.44V12.6668V14.8936H105.106H112.553V12.6596V10.4255H110.319H108.085V8.08511V5.74468H105.22H102.355L102.294 8.03191ZM195.532 17.766V29.7872H183.404H171.277V17.766V5.74468H183.404H195.532V17.766ZM10.2151 16.9681C10.2161 19.657 10.2151 25.1064 10.2151 25.1064H17.2619H25.1064V24.0426V17.234V10.4255H17.6596H10.2128L10.2151 16.9681ZM175.957 17.766V25.1064H183.404H190.851V17.766V10.4255H183.404H175.957V17.766ZM39.1489 17.234V19.5889L41.4362 19.5285L43.7234 19.4681V17.234V15L41.4362 14.9396L39.1489 14.8791V17.234ZM58.5106 32.1277V34.4681H56.2766H54.0425V32.1277V29.7872H56.2766H58.5106V32.1277ZM58.5566 41.4362L58.617 43.7234L60.9043 43.7838L63.1915 43.8443V46.5957V49.3472L60.9043 49.4077L58.617 49.4681L58.5566 51.7553L58.4962 54.0425H60.8438H63.1915V56.2766V58.5106H66.0638H68.9362V56.2766V54.0425H71.2838H73.6315L73.5711 56.3298L73.5106 58.617L71.2234 58.6774L68.9362 58.7379V60.9647V63.1915H71.1413H73.3464L73.4817 64.1787C73.5562 64.7215 73.617 66.014 73.617 67.0511V68.9362H71.2766H68.9362V73.5034V78.0706L71.2234 78.1311L73.5106 78.1915L73.5711 80.4787L73.6315 82.766H71.2838H68.9362V85.6383V88.5106H71.2838H73.6315L73.5711 90.7979L73.5106 93.0851L71.2234 93.1455L68.9362 93.206V95.4328V97.6596H71.2766H73.617V100V102.34H71.2766H68.9362V105.213V108.085H61.4894H54.0425V115V121.915H51.7021H49.3617V119.574V117.234H46.603H43.8443L43.7838 119.521L43.7234 121.809L41.4362 121.869L39.1489 121.929V124.794V127.66H41.4894H43.8298V129.894V132.128H39.1489H34.4681V134.468V136.809H32.1277H29.7872V134.468V132.128H32.1277H34.4681V129.894V127.66H29.7872H25.1064V124.787V121.915H29.7872H34.4681V119.574V117.234H27.0213H19.5745V112.667V108.1L21.8617 108.039L24.1489 107.979L24.2162 107.394C24.2636 106.983 24.4047 106.809 24.6908 106.809C25.0772 106.809 25.1009 106.579 25.1553 102.287L25.2128 97.766L27.5 97.7055L29.7872 97.6451V95.4255V93.206L27.5 93.1455L25.2128 93.0851L25.1523 90.7979L25.0919 88.5106H27.4396H29.7872L29.7896 86.4362C29.7909 85.2951 29.8513 84.0028 29.9238 83.5638L30.0557 82.766H34.4887H38.9217L38.9821 80.4787L39.0426 78.1915H41.383H43.7234V85.6383V93.0851L41.4362 93.1455L39.1489 93.206V95.4328V97.6596H44.2553H49.3617V100V102.34H51.7021H54.0425V97.766V93.1915H51.7021H49.3617V90.8511V88.5106H56.2766H63.1915V85.6383V82.766H56.2766H49.3617V80.4255V78.0851H46.5957H43.8298V75.8511V73.617H46.5957H49.3617V71.2766V68.9362H46.5957H43.8298V61.4964V54.0566L41.4362 53.9964L39.0426 53.9362L38.9821 51.6489L38.9217 49.3617H34.3545H29.7872V51.7021V54.0425H32.1277H34.4681V56.2694V58.4962L36.7553 58.5566L39.0426 58.617L39.103 60.9043L39.1634 63.1915H36.8157H34.4681V60.9617V58.7317L29.8404 58.6745L25.2128 58.617L25.1553 53.9894L25.0981 49.3617H22.3362H19.5745V46.5957V43.8298H22.3404H25.1064V46.5957V49.3617H27.4468H29.7872V46.5957V43.8298H34.3338H38.8804L39.0123 44.6277C39.0849 45.0666 39.1453 46.3113 39.1466 47.3936L39.1489 49.3617H44.2553H49.3617V46.603V43.8443L51.6489 43.7838L53.9362 43.7234L53.9966 41.4362L54.057 39.1489H56.2766H58.4962L58.5566 41.4362ZM108.039 41.4362L107.979 43.7234L106.277 43.7904C105.34 43.8272 104.072 43.7966 103.457 43.7219L102.34 43.5864V41.3677V39.1489H105.22H108.1L108.039 41.4362ZM161.064 41.4894V43.8298H163.83H166.596V46.5957V49.3617H168.936H171.277V51.7021V54.0425H173.624H175.972L175.911 56.3298L175.851 58.617L173.564 58.6774L171.277 58.7379V63.837V68.9362H168.936H166.596V66.5957V64.2553H166.064C165.638 64.2553 165.532 64.1489 165.532 63.7234V63.1915H163.298H161.064V60.9617V58.7317L156.436 58.6745L151.809 58.617L151.751 53.9894L151.694 49.3617H156.379H161.064V46.6V43.8381L156.436 43.7808L151.809 43.7234L151.748 41.4362L151.688 39.1489H156.376H161.064V41.4894ZM190.851 41.4966V43.8443L193.138 43.7838L195.426 43.7234L195.486 41.4362L195.546 39.1489H193.199H190.851V41.4966ZM145.957 44.2553C145.957 44.5674 146.099 44.6809 146.489 44.6809H147.021V47.0213V49.3617H144.255H141.489V51.7021V54.0425H144.255H147.021V56.2487V58.4549L146.223 58.5868C145.785 58.6594 144.54 58.7198 143.457 58.7211L141.489 58.7234V60.9574V63.1915H139.149H136.809V56.2766V49.3617H134.468H132.128V46.5957V43.8298H139.043C145.816 43.8298 145.957 43.8385 145.957 44.2553ZM117.234 56.2766V58.5106H119.574H121.915V56.2766V54.0425H119.574H117.234V56.2766ZM19.4391 64.1787C19.5136 64.7215 19.5745 66.014 19.5745 67.0511V68.9362H17.234H14.8936V66.0638V63.1915H17.0987H19.3038L19.4391 64.1787ZM34.4211 66.1098L34.4804 68.9219L36.7615 68.9821L39.0426 69.0426V71.2766V73.5106L36.7553 73.5711L34.4681 73.6315V75.8583V78.0851H32.1277H29.7872V75.8511V73.617H27.4468H25.1064V75.8511V78.0851H22.3404H19.5745V75.8511V73.617H22.3404H25.1064L25.1087 69.2021C25.11 66.7738 25.1706 64.4264 25.2436 63.9853L25.3762 63.1832L29.8689 63.2406L34.3617 63.2979L34.4211 66.1098ZM58.646 64.1787C58.5715 64.7215 58.5106 66.014 58.5106 67.0511V68.9362H60.8511H63.1915V66.0638V63.1915H60.9864H58.7813L58.646 64.1787ZM88.5106 68.4115V73.6315L90.7979 73.5711L93.0851 73.5106L93.1504 69.6808C93.1862 67.5745 93.1547 65.2528 93.0802 64.5213L92.9449 63.1915H90.7277H88.5106V68.4115ZM29.7872 71.2766V73.617H32.1277H34.4681V71.2766V68.9362H32.1277H29.7872V71.2766ZM49.3617 75.8511V78.0851H51.7021H54.0425V75.8511V73.617H51.7021H49.3617V75.8511ZM58.5106 75.8511V78.0851H60.8511H63.1915V80.4255V82.766H66.0638H68.9362V80.4255V78.0851H66.0638H63.1915V75.8511V73.617H60.8511H58.5106V75.8511ZM147.021 75.8511V78.0851H144.255H141.489V75.8511V73.617H144.255H147.021V75.8511ZM19.4379 83.5638C19.5104 84.0028 19.5709 85.2951 19.5721 86.4362L19.5745 88.5106H17.234H14.8936V85.6383V82.766H17.0998H19.306L19.4379 83.5638ZM127.66 85.6383V88.5106H129.894H132.128V85.6383V82.766H139.574H147.021V85.6383V88.5106H144.255H141.489V90.8511V93.1915H144.255H147.021V95.4255V97.6596H141.915H136.809V93.0851V88.5106H134.468H132.128V90.8511V93.1915H129.894H127.66V95.4255V97.6596H124.787H121.915V90.2128V82.766H124.787H127.66V85.6383ZM29.8332 90.7979L29.8936 93.0851L34.4149 93.1425L38.9362 93.2V90.8553V88.5106H34.3545H29.7728L29.8332 90.7979ZM156.383 90.8511V93.1915H158.723H161.064V90.8511V88.5106H163.83H166.596V90.7168V92.923L165.798 93.0549C165.359 93.1274 164.114 93.1879 163.032 93.1892L161.064 93.1915V95.4255V97.6596H166.17H171.277V93.0851V88.5106H173.617H175.957V93.0851V97.6596H178.191H180.426V100V102.34H178.191H175.957V105.213V108.085H171.277H166.596V110.291V112.497L165.798 112.629C165.359 112.702 164.114 112.762 163.032 112.764L161.064 112.766V115V117.234H166.163H171.262L171.323 114.947L171.383 112.66H173.617H175.851L175.911 114.947L175.972 117.234H178.199H180.426V119.574V121.915H178.191H175.957V119.574V117.234H173.617H171.277V119.574V121.915H168.936H166.596V124.787V127.66H168.936H171.277V134.574V141.489H173.617H175.957V144.248V147.007L173.67 147.067L171.383 147.128L171.323 149.415L171.262 151.702H168.929H166.596V149.496V147.29L165.798 147.158C165.359 147.085 163.061 147.025 160.691 147.024L156.383 147.021V149.354V151.688L158.67 151.748L160.957 151.809V154.043V156.277L158.677 156.337L156.397 156.397L156.337 158.677L156.277 160.957H154.043H151.809L151.748 158.67L151.688 156.383H144.248H136.809V151.702V147.021H134.468H132.128V154.043V161.064H136.809H141.489V163.83V166.596H143.59C144.746 166.596 145.991 166.656 146.356 166.729L147.021 166.862V171.41V175.957H139.574H132.128V173.617V171.277H136.809H141.489V168.936V166.596H136.943H132.396L132.264 165.798C132.192 165.359 132.131 164.114 132.13 163.032L132.128 161.064H129.896H127.665L127.609 168.457L127.553 175.851L124.734 175.91L121.915 175.97V178.198V180.426L123.989 180.428C125.13 180.429 126.423 180.49 126.862 180.562L127.66 180.694V183.432V186.17H124.787H121.915V188.511V190.851H115H108.085V188.511V186.17H115H121.915V183.298V180.426H112.128H102.34V178.191V175.957H100H97.6596V178.191V180.426H95.4255H93.1915V178.191V175.957H95.4255H97.6596V173.617V171.277H95.4255H93.1915V168.936V166.596H95.4255H97.6596V168.936V171.277H100H102.34V169.07V166.864L103.138 166.732C103.577 166.66 104.87 166.599 106.011 166.598L108.085 166.596V163.83V161.064H100.638H93.1915V158.723V156.383H85.6383H78.0851V154.043V151.702H83.2979H88.5106V149.362V147.021H83.2979H78.0851V144.255V141.489H80.4255H82.766V139.149V136.809H90.2128H97.6596V134.468V132.128H93.0851H88.5106V127.021V121.915H90.8511H93.1915V124.787V127.66H95.4255H97.6596V129.894V132.128H100H102.34V129.894V127.66H105.213H108.085V129.894V132.128H110.319H112.553V129.894V127.66H114.894H117.234V132.234V136.809H119.574H121.915V134.602V132.396L122.713 132.264C123.152 132.192 124.444 132.131 125.585 132.13L127.66 132.128V129.894V127.66L125.585 127.657C124.444 127.656 123.152 127.596 122.713 127.523L121.915 127.391V124.653V121.915H124.787H127.66V119.574V117.234H129.894H132.128V119.574V121.915H139.574H147.021V119.574V117.234H141.915H136.809V112.66V108.085H134.468H132.128L132.13 106.011C132.131 104.87 132.192 103.577 132.264 103.138L132.396 102.34H142.049H151.702V100V97.6596H154.043H156.383V95.4328V93.206L154.096 93.1455L151.809 93.0851L151.748 90.7979L151.688 88.5106H154.035H156.383V90.8511ZM0 95.4255V97.6596H2.76596H5.53191V95.4255V93.1915H2.76596H0V95.4255ZM58.5106 97.766V102.34H60.8511H63.1915V97.766V93.1915H60.8511H58.5106V97.766ZM102.34 95.4255V97.6596H107.447H112.553V95.4255V93.1915H107.447H102.34V95.4255ZM29.7872 100V102.34H32.1277H34.4681V100V97.6596H32.1277H29.7872V100ZM88.5106 100V102.34H93.0851H97.6596V107.447V112.553H100H102.34V107.447V102.34H100H97.6596V100V97.6596H93.0851H88.5106V100ZM156.383 100V102.34H154.043H151.702V105.213V108.085H146.596H141.489V110.319V112.553L143.457 112.556C144.54 112.557 145.785 112.617 146.223 112.69L147.021 112.822V115.028V117.234H149.362H151.702V122.447V127.66H146.596H141.489V129.894V132.128H146.596H151.702V134.468V136.809H144.255H136.809V132.234V127.66H134.468H132.128V124.787V121.915H129.894H127.66V124.787V127.66H129.894H132.128V132.234V136.809H127.021H121.915V139.149V141.489H112.128H102.34V139.149V136.809H105.213H108.085V134.468V132.128H105.213H102.34V134.468V136.809H100H97.6596V139.149V141.489H93.0851H88.5106V144.255V147.021H93.0851H97.6596V144.255V141.489H100H102.34V144.253V147.017L112.074 147.072L121.809 147.128L121.869 149.415L121.929 151.702H124.802H127.674L127.614 149.415L127.553 147.128L124.734 147.068L121.915 147.009V144.249V141.489H124.653H127.391L127.523 142.287C127.596 142.726 127.656 143.971 127.657 145.053L127.66 147.021H129.894H132.128V144.255V141.489H136.809H141.489V144.255V147.021H144.255H147.021L147.024 145.053C147.025 143.971 147.085 142.726 147.158 142.287L147.29 141.489H149.496H151.702V144.248V147.007L149.415 147.067L147.128 147.128L147.067 149.415L147.007 151.702H149.354H151.702V149.362V147.021H154.043H156.383V144.263V141.504L158.67 141.443L160.957 141.383L161.018 139.096L161.078 136.809H163.837H166.596V132.234V127.66H163.83H161.064L161.061 125.585C161.06 124.444 161 123.152 160.927 122.713L160.795 121.915H158.589H156.383V119.574V117.234H154.043H151.702V112.66V108.085H154.043H156.383V110.319V112.553H158.723H161.064V110.319V108.085H158.723H156.383V105.213V102.34H158.723H161.064V100V97.6596H158.723H156.383V100ZM171.277 100V102.34H173.617H175.957V100V97.6596H173.617H171.277V100ZM14.8936 105.22V108.1L12.6064 108.039L10.3191 107.979L10.2598 105.16L10.2004 102.34H12.547H14.8936V105.22ZM39.1489 104.226C39.1489 105.263 39.0881 106.555 39.0136 107.098L38.8783 108.085H34.3328H29.7872V110.315V112.545L34.4149 112.602L39.0426 112.66L39.103 114.947L39.1634 117.234H41.4966H43.8298V115.028V112.822L44.6277 112.69C45.0666 112.617 46.3113 112.557 47.3936 112.556L49.3617 112.553V107.447V102.34H44.2553H39.1489V104.226ZM127.523 103.138C127.596 103.577 127.656 104.87 127.657 106.011L127.66 108.085H124.787H121.915V105.213V102.34H124.653H127.391L127.523 103.138ZM186.17 110.319V112.553H188.511H190.851V110.319V108.085H188.511H186.17V110.319ZM63.1915 129.886V132.113L60.9043 132.174L58.617 132.234L58.5566 134.521L58.4962 136.809H63.7162H68.9362V134.468V132.128H73.5106H78.0851V134.468V136.809H73.5106H68.9362V139.149V141.489H71.2766H73.617V151.277V161.064H71.2766H68.9362V158.723V156.383H66.0638H63.1915V158.726V161.07L56.3298 161.014L49.4681 160.957L49.4077 158.67L49.3472 156.383H51.6949H54.0425V146.596V136.809H51.7021H49.3617V134.468V132.128H51.7021H54.0425V129.894V127.66H58.617H63.1915V129.886ZM156.383 129.886V132.113L158.67 132.174L160.957 132.234L161.018 134.521L161.078 136.809H158.731H156.383V139.149V141.489H154.043H151.702V139.149V136.809H154.043H156.383V134.468V132.128H154.043H151.702V129.894V127.66H154.043H156.383V129.886ZM0 146.596V161.064L1.96809 161.061C3.05064 161.06 4.29532 161 4.73404 160.927L5.53191 160.795V146.596V132.396L4.73404 132.264C4.29532 132.192 3.05064 132.131 1.96809 132.13L0 132.128V146.596ZM25.1064 139.149V141.489H29.7872H34.4681V144.248V147.007L32.1809 147.067L29.8936 147.128L29.8332 149.415L29.7728 151.702H27.4396H25.1064V153.91V156.117L24.4415 156.25C24.0757 156.323 22.8311 156.383 21.6755 156.383H19.5745V154.043V151.702H22.3404H25.1064V146.596V141.489H22.3404H19.5745V139.149V136.809H22.3404H25.1064V139.149ZM58.5106 143.59C58.5106 144.746 58.5704 145.991 58.6436 146.356L58.7766 147.021H60.984H63.1915V144.255V141.489H60.8511H58.5106V143.59ZM186.17 144.255V147.021H183.432H180.694L180.562 146.223C180.49 145.785 180.429 144.54 180.428 143.457L180.426 141.489H183.298H186.17V144.255ZM58.6525 151.844C58.5745 151.922 58.5106 152.975 58.5106 154.184V156.383H60.8511H63.1915V154.043V151.702H60.993C59.7836 151.702 58.7304 151.766 58.6525 151.844ZM97.6596 154.043V156.383H102.872H108.085V158.723V161.064H110.319H112.553V158.723V156.383H110.319H108.085V154.043V151.702H102.872H97.6596V154.043ZM121.915 158.723V161.064H117.34H112.766V163.83V166.596H117.34H121.915V163.83V161.064H124.787H127.66V158.723V156.383H124.787H121.915V158.723ZM175.957 168.511V175.957H168.511H161.064V168.511V161.064H168.511H175.957V168.511ZM0 183.298V200H17.234H34.4681V183.298V166.596H17.234H0V183.298ZM166.738 166.738C166.66 166.816 166.596 167.869 166.596 169.078V171.277H168.936H171.277V168.936V166.596H169.078C167.869 166.596 166.816 166.66 166.738 166.738ZM29.7872 183.406V195.536L17.7128 195.48L5.6383 195.426L5.5834 183.351L5.5283 171.277H17.6579H29.7872V183.406ZM58.5106 175.851V180.426H60.8511H63.1915V175.851V171.277H60.8511H58.5106V175.851ZM102.34 173.617V175.957H107.447H112.553V173.617V171.277H107.447H102.34V173.617ZM10.2128 183.404V190.851H17.6596H25.1064V183.404V175.957H17.6596H10.2128V183.404ZM39.1489 187.979V200H44.2553H49.3617V197.766V195.532L47.3936 195.53C46.3113 195.528 45.0666 195.468 44.6277 195.395L43.8298 195.263V185.61V175.957H41.4894H39.1489V187.979ZM49.3617 181.064V186.17H51.7021H54.0425V193.085V200H56.2766H58.5106V195.426V190.851H60.8511H63.1915V188.511V186.17H58.617H54.0425V181.064V175.957H51.7021H49.3617V181.064ZM156.383 178.191V180.426H154.043H151.702V178.191V175.957H154.043H156.383V178.191ZM186.17 178.185V180.413L183.351 180.473L180.532 180.532L180.473 183.351L180.413 186.17H178.185H175.957V188.511V190.851H173.617H171.277V188.511V186.17H166.17H161.064V188.511V190.851H156.376H151.688L151.748 193.138L151.809 195.426H156.383H160.957L161.018 193.138L161.078 190.851H163.837H166.596V195.426V200H171.277H175.957V195.426V190.851H181.064H186.17V185.634V180.417L190.798 180.474L195.426 180.532L195.485 183.351L195.544 186.17H197.772H200V183.298V180.426H197.766H195.532V178.191V175.957H190.851H186.17V178.185ZM141.44 185.691L141.497 190.851H139.153H136.809V188.511V186.17H134.468H132.128V183.44C132.128 181.938 132.193 180.644 132.274 180.563C132.354 180.483 134.436 180.443 136.901 180.475L141.383 180.532L141.44 185.691ZM78.0851 195.426V200H85.6383H93.1915V195.426V190.851H90.8511H88.5106V193.191V195.532L86.4362 195.53C85.2951 195.528 84.0028 195.468 83.5638 195.395L82.766 195.263V193.057V190.851H80.4255H78.0851V195.426ZM190.851 193.191V195.532H185.638H180.426V197.766V200H185.638H190.851V197.773V195.546L193.138 195.486L195.426 195.426L195.486 193.138L195.546 190.851H193.199H190.851V193.191ZM63.1915 197.766V200H66.0638H68.9362V197.766V195.532H66.0638H63.1915V197.766Z"
														fill="#27007A" />
												</svg>