<svg width="1920" height="770" viewBox="0 0 1920 770" fill="none" xmlns="http://www.w3.org/2000/svg">
<rect width="1920" height="770" transform="matrix(1 0 0 -1 0 770)" fill="#B333CC"/>
<rect width="1920" height="770" transform="matrix(1 0 0 -1 0 770)" fill="url(#paint0_radial)"/>
<rect width="1920" height="770" transform="matrix(1 0 0 -1 0 770)" fill="url(#paint1_radial)"/>
<rect width="1920" height="770" transform="matrix(1 0 0 -1 0 770)" fill="url(#paint2_radial)"/>
<path d="M960 760C375 760 0 640 0 640V770H1920V640C1920 640 1545 760 960 760Z" fill="#FCF0FF"/>
<defs>
<radialGradient id="paint0_radial" cx="0" cy="0" r="1" gradientUnits="userSpaceOnUse" gradientTransform="translate(328.5 1192.24) rotate(-64.6624) scale(1201.07 2399.62)">
<stop offset="0.150617" stop-color="#1AC4E6"/>
<stop offset="0.379643" stop-color="#1AA1E6"/>
<stop offset="1" stop-color="#BC36C7" stop-opacity="0"/>
</radialGradient>
<radialGradient id="paint1_radial" cx="0" cy="0" r="1" gradientUnits="userSpaceOnUse" gradientTransform="translate(1382.8 -111.125) rotate(124.323) scale(772.768 618.367)">
<stop stop-color="#FF66E6"/>
<stop offset="0.980994" stop-color="#F20DCC" stop-opacity="0"/>
</radialGradient>
<radialGradient id="paint2_radial" cx="0" cy="0" r="1" gradientUnits="userSpaceOnUse" gradientTransform="translate(1707.61 770) rotate(-150.236) scale(725.992 481.844)">
<stop stop-color="#5E1AE6"/>
<stop offset="1" stop-color="#8B34A5" stop-opacity="0"/>
</radialGradient>
</defs>
</svg>
