<svg width="160" height="30" viewBox="0 0 160 30" fill="none" xmlns="http://www.w3.org/2000/svg">
<path d="M104.782 7.30108C104.857 7.17051 104.998 7.08984 105.15 7.08984C105.475 7.08984 105.679 7.43522 105.518 7.71352L93.4675 28.6246C93.3922 28.7552 93.2517 28.8358 93.0993 28.8358C92.7747 28.8358 92.5708 28.4904 92.7312 28.2122L104.782 7.30108Z" fill="#CCC6D1"/>
<path d="M108.762 28.9372C111.068 28.9372 112.14 27.8064 112.14 26.4913C112.14 23.3324 106.854 24.6476 106.854 22.5458C106.854 21.796 107.49 21.1815 108.973 21.1815C109.746 21.1815 110.607 21.4027 111.367 21.8821L111.779 20.8988C111.055 20.4071 109.996 20.1367 108.973 20.1367C106.68 20.1367 105.632 21.2675 105.632 22.595C105.632 25.7907 110.918 24.4632 110.918 26.565C110.918 27.3148 110.27 27.8925 108.762 27.8925C107.64 27.8925 106.53 27.4746 105.882 26.8969L105.42 27.8556C106.119 28.4947 107.428 28.9372 108.762 28.9372Z" fill="#4D4357"/>
<path d="M117.864 28.9372C119.222 28.9372 120.394 28.4702 121.192 27.5852L120.382 26.8108C119.709 27.5114 118.886 27.8433 117.926 27.8433C115.956 27.8433 114.498 26.4421 114.498 24.537C114.498 22.6318 115.956 21.2306 117.926 21.2306C118.886 21.2306 119.709 21.5502 120.382 22.2508L121.192 21.4765C120.394 20.5915 119.222 20.1367 117.876 20.1367C115.221 20.1367 113.251 21.9927 113.251 24.537C113.251 27.0813 115.221 28.9372 117.864 28.9372Z" fill="#4D4357"/>
<path d="M129.229 20.235V23.9347H124.217V20.235H122.971V28.8389H124.217V25.004H129.229V28.8389H130.476V20.235H129.229Z" fill="#4D4357"/>
<path d="M137.028 28.9372C139.683 28.9372 141.653 27.069 141.653 24.537C141.653 22.005 139.683 20.1367 137.028 20.1367C134.347 20.1367 132.377 22.0173 132.377 24.537C132.377 27.0567 134.347 28.9372 137.028 28.9372ZM137.028 27.8433C135.07 27.8433 133.624 26.4421 133.624 24.537C133.624 22.6318 135.07 21.2306 137.028 21.2306C138.96 21.2306 140.406 22.6318 140.406 24.537C140.406 26.4421 138.96 27.8433 137.028 27.8433Z" fill="#4D4357"/>
<path d="M147.498 28.9372C150.153 28.9372 152.123 27.069 152.123 24.537C152.123 22.005 150.153 20.1367 147.498 20.1367C144.817 20.1367 142.848 22.0173 142.848 24.537C142.848 27.0567 144.817 28.9372 147.498 28.9372ZM147.498 27.8433C145.54 27.8433 144.094 26.4421 144.094 24.537C144.094 22.6318 145.54 21.2306 147.498 21.2306C149.43 21.2306 150.876 22.6318 150.876 24.537C150.876 26.4421 149.43 27.8433 147.498 27.8433Z" fill="#4D4357"/>
<path d="M154.029 28.8389H160V27.7696H155.275V20.235H154.029V28.8389Z" fill="#4D4357"/>
<path d="M6.97554 23.8243V28.0412H4.74108V23.8243H3.82045V28.0412H1.5764V23.8243H0.655762V28.8354H7.89618V23.8243H6.97554Z" fill="#4D4357"/>
<path d="M13.3663 28.8354H14.45L12.3882 26.2353L14.3158 23.8243H13.328L11.6785 25.9422H10.6044V23.8243H9.6838V28.8354H10.6044V26.7175H11.6593L13.3663 28.8354Z" fill="#4D4357"/>
<path d="M17.4236 28.8921C18.9484 28.8921 20.0609 27.8237 20.0609 26.3298C20.0609 24.836 18.9484 23.7771 17.4236 23.7771C15.8988 23.7771 14.7768 24.836 14.7768 26.3298C14.7768 27.8237 15.8988 28.8921 17.4236 28.8921ZM17.4236 28.0979C16.4455 28.0979 15.707 27.3982 15.707 26.3298C15.707 25.2615 16.4455 24.5713 17.4236 24.5713C18.4018 24.5713 19.1307 25.2615 19.1307 26.3298C19.1307 27.3982 18.4018 28.0979 17.4236 28.0979Z" fill="#4D4357"/>
<path d="M21.8131 23.8243L21.7268 25.6775C21.6597 26.8593 21.6213 28.0884 20.7966 28.0884C20.7295 28.0884 20.6528 28.079 20.5665 28.0601L20.5089 28.8259C20.7199 28.8826 20.9021 28.911 21.0747 28.911C22.2255 28.911 22.4653 27.5022 22.5516 25.7342L22.6091 24.6185H24.7956V28.8354H25.7163V23.8243H21.8131Z" fill="#4D4357"/>
<path d="M29.3089 23.7771C28.4937 23.7771 27.7361 24.004 27.2087 24.42L27.5923 25.1007C27.9855 24.7698 28.5992 24.5618 29.2034 24.5618C30.1145 24.5618 30.5652 25.0062 30.5652 25.772V25.9517H29.1075C27.5923 25.9517 27.0648 26.6135 27.0648 27.4171C27.0648 28.287 27.7937 28.8921 28.9445 28.8921C29.7404 28.8921 30.3062 28.6274 30.6131 28.1735V28.8354H31.4858V25.8098C31.4858 24.4389 30.6994 23.7771 29.3089 23.7771ZM29.0979 28.1924C28.3978 28.1924 27.9759 27.8804 27.9759 27.3793C27.9759 26.9539 28.2348 26.604 29.1459 26.604H30.5652V27.3037C30.335 27.8804 29.7884 28.1924 29.0979 28.1924Z" fill="#4D4357"/>
<path d="M40.1112 28.0412V23.8243H36.1698L36.093 25.5167C36.0259 26.7837 35.9012 28.0033 35.1724 28.0412H34.9039V29.9983H35.7766V28.8354H40.0249V29.9983H40.888V28.0412H40.1112ZM36.937 25.5829L36.9849 24.6185H39.1906V28.0412H36.3424C36.8027 27.6441 36.8986 26.6229 36.937 25.5829Z" fill="#4D4357"/>
<path d="M42.0874 28.8354H42.9313L46.0384 25.1858V28.8354H46.9591V23.8243H46.1247L43.008 27.4739V23.8243H42.0874V28.8354Z" fill="#4D4357"/>
<path d="M51.414 26.2258C51.9703 26.0273 52.3347 25.6207 52.3347 25.1196C52.3347 24.3065 51.4236 23.7581 50.1865 23.7581C49.5344 23.7581 48.9015 23.8905 48.2398 24.2214L48.4891 24.9211C49.0453 24.6658 49.5728 24.5334 50.0906 24.5334C50.8674 24.5334 51.3853 24.7982 51.3853 25.252C51.3853 25.6775 50.9537 25.9233 50.2728 25.9233H49.4097V26.5757H50.34C51.088 26.5757 51.5291 26.8404 51.5291 27.3037C51.5291 27.8142 50.9633 28.1263 50.1002 28.1263C49.4769 28.1263 48.8056 27.9561 48.3165 27.6441L48.0384 28.3343C48.6042 28.6935 49.3522 28.9015 50.1098 28.9015C51.462 28.9015 52.4785 28.287 52.4785 27.3793C52.4785 26.8026 52.0949 26.396 51.414 26.2258Z" fill="#4D4357"/>
<path d="M55.6906 23.7771C54.8755 23.7771 54.1179 24.004 53.5904 24.42L53.974 25.1007C54.3672 24.7698 54.981 24.5618 55.5851 24.5618C56.4962 24.5618 56.9469 25.0062 56.9469 25.772V25.9517H55.4892C53.974 25.9517 53.4466 26.6135 53.4466 27.4171C53.4466 28.287 54.1754 28.8921 55.3262 28.8921C56.1222 28.8921 56.688 28.6274 56.9949 28.1735V28.8354H57.8675V25.8098C57.8675 24.4389 57.0812 23.7771 55.6906 23.7771ZM55.4797 28.1924C54.7796 28.1924 54.3576 27.8804 54.3576 27.3793C54.3576 26.9539 54.6166 26.604 55.5276 26.604H56.9469V27.3037C56.7168 27.8804 56.1701 28.1924 55.4797 28.1924Z" fill="#4D4357"/>
<path d="M61.9036 23.1719C62.8339 23.1719 63.3997 22.7181 63.4189 21.8672H62.7763C62.7667 22.3399 62.4215 22.6425 61.8941 22.6425C61.3762 22.6425 61.031 22.3399 61.0214 21.8672H60.398C60.4076 22.7181 60.9734 23.1719 61.9036 23.1719ZM59.5253 28.8354H60.3693L63.4764 25.1858V28.8354H64.397V23.8243H63.5627L60.446 27.4739V23.8243H59.5253V28.8354Z" fill="#4D4357"/>
<path d="M66.184 28.8354H67.1046V26.7364H70.0008V28.8354H70.9214V23.8243H70.0008V25.9517H67.1046V23.8243H66.184V28.8354Z" fill="#4D4357"/>
<path d="M74.524 23.7771C73.7089 23.7771 72.9513 24.004 72.4238 24.42L72.8074 25.1007C73.2006 24.7698 73.8144 24.5618 74.4185 24.5618C75.3296 24.5618 75.7803 25.0062 75.7803 25.772V25.9517H74.3226C72.8074 25.9517 72.28 26.6135 72.28 27.4171C72.28 28.287 73.0088 28.8921 74.1596 28.8921C74.9556 28.8921 75.5214 28.6274 75.8283 28.1735V28.8354H76.701V25.8098C76.701 24.4389 75.9146 23.7771 74.524 23.7771ZM74.313 28.1924C73.613 28.1924 73.191 27.8804 73.191 27.3793C73.191 26.9539 73.45 26.604 74.361 26.604H75.7803V27.3037C75.5501 27.8804 75.0035 28.1924 74.313 28.1924Z" fill="#4D4357"/>
<path d="M7.36029 16.7822C11.9395 16.7822 14.6966 14.1585 14.6966 9.33659V0H11.6278V9.21841C11.6278 12.6221 10.0934 14.0876 7.38426 14.0876C4.6751 14.0876 3.11673 12.6221 3.11673 9.21841V0H0V9.33659C0 14.1585 2.75711 16.7822 7.36029 16.7822Z" fill="url(#paint0_linear)"/>
<path d="M30.9827 16.5459L24.6773 7.98929L30.5511 0H27.1707L22.9271 5.8856L18.6356 0H15.1113L21.0091 8.10747L14.7756 16.5459H18.3239L22.8312 10.2584L27.3864 16.5459H30.9827Z" fill="url(#paint1_linear)"/>
<path d="M53.425 16.5459L53.4011 0H52.3941L44.89 12.7876L37.3858 0H36.3549V16.5459H37.5537V2.43461L44.5783 14.3476H45.1777L52.2023 2.38733L52.2263 16.5459H53.425Z" fill="url(#paint2_linear)"/>
<path d="M56.8787 16.5459H58.1014V0H56.8787V16.5459Z" fill="url(#paint3_linear)"/>
<path d="M73.9949 0V14.3713L62.5829 0H61.552V16.5459H62.7747V2.1746L74.2107 16.5459H75.2176V0H73.9949Z" fill="url(#paint4_linear)"/>
<path d="M78.6809 16.5459H85.3219C90.6443 16.5459 94.2406 13.0949 94.2406 8.27293C94.2406 3.45099 90.6443 0 85.3219 0H78.6809V16.5459ZM79.9036 15.4586V1.0873H85.226C89.9731 1.0873 93.0179 4.06556 93.0179 8.27293C93.0179 12.4803 89.9731 15.4586 85.226 15.4586H79.9036Z" fill="url(#paint5_linear)"/>
<defs>
<linearGradient id="paint0_linear" x1="43.9317" y1="-9.64978" x2="41.1601" y2="21.8394" gradientUnits="userSpaceOnUse">
<stop stop-color="#33AAFF"/>
<stop offset="1" stop-color="#CC30CF"/>
</linearGradient>
<linearGradient id="paint1_linear" x1="43.9317" y1="-9.64978" x2="41.1601" y2="21.8394" gradientUnits="userSpaceOnUse">
<stop stop-color="#33AAFF"/>
<stop offset="1" stop-color="#CC30CF"/>
</linearGradient>
<linearGradient id="paint2_linear" x1="43.9317" y1="-9.64978" x2="41.1601" y2="21.8394" gradientUnits="userSpaceOnUse">
<stop stop-color="#33AAFF"/>
<stop offset="1" stop-color="#CC30CF"/>
</linearGradient>
<linearGradient id="paint3_linear" x1="43.9317" y1="-9.64978" x2="41.1601" y2="21.8394" gradientUnits="userSpaceOnUse">
<stop stop-color="#33AAFF"/>
<stop offset="1" stop-color="#CC30CF"/>
</linearGradient>
<linearGradient id="paint4_linear" x1="43.9317" y1="-9.64978" x2="41.1601" y2="21.8394" gradientUnits="userSpaceOnUse">
<stop stop-color="#33AAFF"/>
<stop offset="1" stop-color="#CC30CF"/>
</linearGradient>
<linearGradient id="paint5_linear" x1="43.9317" y1="-9.64978" x2="41.1601" y2="21.8394" gradientUnits="userSpaceOnUse">
<stop stop-color="#33AAFF"/>
<stop offset="1" stop-color="#CC30CF"/>
</linearGradient>
</defs>
</svg>
