<svg width="160" height="90" viewBox="0 0 160 90" fill="none" xmlns="http://www.w3.org/2000/svg">
<g clip-path="url(#clip0)">
<path d="M0 5C0 2.23858 2.23858 0 5 0H155C157.761 0 160 2.23858 160 5V85C160 87.7614 157.761 90 155 90H5C2.23858 90 0 87.7614 0 85V5Z" fill="#FCF0FF"/>
<path d="M42.1417 21.0474C42.1213 14.9461 47.0509 10 53.1523 10L106.463 10C112.565 10 117.527 14.9461 117.548 21.0474L117.626 44.4963H118.291L118.352 62.6288H117.687L117.981 150.868C118.002 156.97 113.072 161.916 106.971 161.916H53.6596C47.5582 161.916 42.5956 156.97 42.5752 150.868L42.2916 65.9457L41.6262 65.9457L41.5886 54.6682H42.2539L42.2465 52.457L41.5811 52.457L41.5436 41.1792L42.2089 41.1792L42.1926 36.3145L41.5273 36.3145L41.5073 30.344L42.1727 30.344L42.1417 21.0474Z" fill="url(#paint0_linear)"/>
<path d="M61.4147 14.4227L53.1838 14.4227C49.523 14.4227 46.5652 17.3904 46.5774 21.0512L47.0109 150.865C47.0231 154.526 50.0007 157.493 53.6615 157.493L106.939 157.493C110.6 157.493 113.558 154.526 113.546 150.865L113.112 21.0512C113.1 17.3904 110.123 14.4227 106.462 14.4227L98.2307 14.4227L98.2418 17.7414C98.2455 18.8396 97.3581 19.7299 96.2599 19.7299L63.421 19.7299C62.3228 19.7299 61.4295 18.8396 61.4258 17.7414L61.4147 14.4227Z" fill="white"/>
<rect width="8.87131" height="1.32678" rx="0.663389" transform="matrix(1 1.43299e-06 0.00334094 0.999994 75.1689 15.5284)" fill="white"/>
<path d="M88.0377 17.0764C88.6502 17.0764 89.145 16.5814 89.143 15.9708C89.1409 15.3601 88.6428 14.8651 88.0303 14.8651C87.4179 14.8651 86.923 15.3601 86.9251 15.9707C86.9271 16.5814 87.4253 17.0764 88.0377 17.0764Z" fill="white"/>
<rect x="50" y="53" width="59" height="35" rx="2" fill="#FCF0FF"/>
<rect x="50" y="37" width="59" height="13" rx="2" fill="#FCF0FF"/>
<circle opacity="0.5" cx="105.5" cy="29.5" r="3.5" fill="#F2CCFF"/>
<rect opacity="0.5" x="73" y="28" width="15" height="3" rx="1.5" fill="#F2CCFF"/>
</g>
<defs>
<linearGradient id="paint0_linear" x1="77.3297" y1="-77.3516" x2="-66.2591" y2="69.6013" gradientUnits="userSpaceOnUse">
<stop stop-color="#33AAFF"/>
<stop offset="1" stop-color="#CC30CF"/>
</linearGradient>
<clipPath id="clip0">
<path d="M0 5C0 2.23858 2.23858 0 5 0H155C157.761 0 160 2.23858 160 5V85C160 87.7614 157.761 90 155 90H5C2.23858 90 0 87.7614 0 85V5Z" fill="white"/>
</clipPath>
</defs>
</svg>
