<svg width="143" height="30" viewBox="0 0 143 30" fill="none" xmlns="http://www.w3.org/2000/svg">
<path d="M8 18.375C9.43333 18.375 10.6917 18.0833 11.775 17.5C12.8667 16.9167 13.7167 16.0958 14.325 15.0375C14.9417 13.9792 15.25 12.7375 15.25 11.3125V-7.15256e-07H12.2V11.2375C12.2 12.1292 12.0042 12.8958 11.6125 13.5375C11.2292 14.1792 10.7167 14.675 10.075 15.025C9.44167 15.3667 8.75 15.5375 8 15.5375C7.275 15.5375 6.59167 15.3667 5.95 15.025C5.30833 14.6833 4.7875 14.1917 4.3875 13.55C3.99583 12.9083 3.8 12.1375 3.8 11.2375V-7.15256e-07L0.75 0.024999V11.3125C0.75 12.7375 1.05417 13.9792 1.6625 15.0375C2.27917 16.0958 3.13333 16.9167 4.225 17.5C5.31667 18.0833 6.575 18.375 8 18.375ZM16.2432 18H19.9557L24.2057 11.4625L28.4432 18H32.1307L26.0557 8.9L31.9807 -7.15256e-07H28.2682L24.2057 6.3375L20.1057 -7.15256e-07H16.4182L22.3432 8.9L16.2432 18ZM37.1299 18H38.5299V3.3125L45.2424 18H46.4174L53.1174 3.3125V17.975H54.5299V-7.15256e-07H53.1424L45.8424 15.925L38.4674 -7.15256e-07H37.1299V18ZM57.2783 18H58.7158V-7.15256e-07H57.2783V18ZM61.4727 18H62.9227V2.5375L73.3477 18H74.7977V-7.15256e-07H73.3477V15.4375L62.9227 -7.15256e-07H61.4727V18ZM77.2939 18H82.6564C82.8481 18 83.1814 17.9958 83.6564 17.9875C84.1398 17.9708 84.5939 17.9333 85.0189 17.875C86.3689 17.6833 87.4898 17.1792 88.3814 16.3625C89.2731 15.5375 89.9398 14.4875 90.3814 13.2125C90.8231 11.9375 91.0439 10.5333 91.0439 9C91.0439 7.46667 90.8231 6.0625 90.3814 4.7875C89.9398 3.5125 89.2731 2.4625 88.3814 1.6375C87.4898 0.812499 86.3689 0.308332 85.0189 0.124999C84.5856 0.0583324 84.1314 0.0208326 83.6564 0.0124999C83.1898 0.00416615 82.8564 -7.15256e-07 82.6564 -7.15256e-07H77.2939V18ZM78.8064 16.5875V1.4125H82.6564C83.0064 1.4125 83.3856 1.425 83.7939 1.45C84.2106 1.46667 84.5606 1.5 84.8439 1.55C85.9606 1.74167 86.8606 2.18333 87.5439 2.875C88.2273 3.55833 88.7231 4.42917 89.0314 5.4875C89.3481 6.5375 89.5064 7.70833 89.5064 9C89.5064 10.2833 89.3481 11.4542 89.0314 12.5125C88.7231 13.5625 88.2273 14.4333 87.5439 15.125C86.8606 15.8083 85.9606 16.25 84.8439 16.45C84.5606 16.5 84.2189 16.5375 83.8189 16.5625C83.4189 16.5792 83.0314 16.5875 82.6564 16.5875H78.8064Z" fill="white"/>
<path d="M0.695 28H6.885V22.6H6.17V27.32H4.15V22.6H3.435V27.32H1.41V22.6H0.695V28ZM8.48289 28H9.22789V25.4L11.8779 28H12.9479L10.0879 25.3L12.6179 22.6H11.6379L9.22789 25.2V22.6H8.48789L8.48289 28ZM15.8062 28.15C16.3395 28.15 16.7962 28.03 17.1762 27.79C17.5595 27.55 17.8528 27.2167 18.0562 26.79C18.2628 26.36 18.3662 25.8617 18.3662 25.295C18.3662 24.7383 18.2645 24.2467 18.0612 23.82C17.8612 23.39 17.5695 23.055 17.1862 22.815C16.8062 22.5717 16.3462 22.45 15.8062 22.45C15.2795 22.45 14.8245 22.57 14.4412 22.81C14.0612 23.0467 13.7678 23.3783 13.5612 23.805C13.3545 24.2317 13.2512 24.7283 13.2512 25.295C13.2512 25.8517 13.3512 26.345 13.5512 26.775C13.7545 27.205 14.0462 27.5417 14.4262 27.785C14.8095 28.0283 15.2695 28.15 15.8062 28.15ZM15.8062 27.445C15.2228 27.445 14.7812 27.25 14.4812 26.86C14.1812 26.4667 14.0312 25.945 14.0312 25.295C14.0312 24.665 14.1762 24.1517 14.4662 23.755C14.7562 23.355 15.2028 23.155 15.8062 23.155C16.4028 23.155 16.8478 23.35 17.1412 23.74C17.4378 24.1267 17.5862 24.645 17.5862 25.295C17.5862 25.9317 17.4395 26.45 17.1462 26.85C16.8528 27.2467 16.4062 27.445 15.8062 27.445ZM19.1691 28C19.5091 28.0667 19.7758 28.0717 19.9691 28.015C20.1625 27.9583 20.3091 27.8417 20.4091 27.665C20.5091 27.4883 20.5875 27.2517 20.6441 26.955C20.6975 26.6917 20.7475 26.365 20.7941 25.975C20.8408 25.585 20.8841 25.16 20.9241 24.7C20.9641 24.24 21.0008 23.775 21.0341 23.305H23.2941V28H24.0241V22.6H20.3541C20.3008 23.4567 20.2458 24.2083 20.1891 24.855C20.1358 25.5017 20.0675 26.0683 19.9841 26.555C19.9341 26.8483 19.8608 27.0683 19.7641 27.215C19.6708 27.3617 19.4725 27.4083 19.1691 27.355V28ZM27.1661 28.15C28.1094 28.15 28.7944 27.8017 29.2211 27.105V28H29.8761V24.645C29.8761 24.445 29.8661 24.2483 29.8461 24.055C29.8261 23.8617 29.7828 23.6867 29.7161 23.53C29.5728 23.18 29.3278 22.9133 28.9811 22.73C28.6378 22.5433 28.2194 22.45 27.7261 22.45C27.1328 22.45 26.6494 22.5833 26.2761 22.85C25.9028 23.1167 25.6528 23.4917 25.5261 23.975L26.2411 24.185C26.3444 23.825 26.5228 23.5617 26.7761 23.395C27.0328 23.2283 27.3461 23.145 27.7161 23.145C28.2294 23.145 28.5961 23.265 28.8161 23.505C29.0361 23.7417 29.1494 24.1033 29.1561 24.59C28.9161 24.6233 28.6511 24.6583 28.3611 24.695C28.0744 24.7317 27.7861 24.7733 27.4961 24.82C27.2061 24.8667 26.9394 24.92 26.6961 24.98C26.2928 25.0867 25.9628 25.265 25.7061 25.515C25.4494 25.7617 25.3211 26.1067 25.3211 26.55C25.3211 26.8367 25.3894 27.1017 25.5261 27.345C25.6628 27.5883 25.8678 27.7833 26.1411 27.93C26.4178 28.0767 26.7594 28.15 27.1661 28.15ZM27.2511 27.515C26.9611 27.515 26.7278 27.4683 26.5511 27.375C26.3778 27.2783 26.2511 27.1567 26.1711 27.01C26.0944 26.86 26.0561 26.7067 26.0561 26.55C26.0561 26.2567 26.1544 26.0367 26.3511 25.89C26.5478 25.7433 26.7611 25.6367 26.9911 25.57C27.2878 25.49 27.6328 25.425 28.0261 25.375C28.4194 25.325 28.7928 25.2783 29.1461 25.235C29.1461 25.3583 29.1411 25.5 29.1311 25.66C29.1244 25.8167 29.1061 25.9617 29.0761 26.095C29.0061 26.5017 28.8128 26.84 28.4961 27.11C28.1828 27.38 27.7678 27.515 27.2511 27.515ZM33.1797 29.2H33.8847V28H37.8547V29.2H38.5647V27.37H38.0447V22.6H34.4747C34.4514 23.1667 34.4264 23.6617 34.3997 24.085C34.373 24.505 34.3414 24.8783 34.3047 25.205C34.268 25.5317 34.2214 25.8367 34.1647 26.12C34.0814 26.5567 33.973 26.875 33.8397 27.075C33.7064 27.2717 33.4864 27.37 33.1797 27.37V29.2ZM34.4247 27.37C34.5414 27.26 34.628 27.12 34.6847 26.95C34.7447 26.78 34.7997 26.575 34.8497 26.335C34.9097 26.0883 34.958 25.7867 34.9947 25.43C35.0347 25.0733 35.0664 24.7017 35.0897 24.315C35.1164 23.9283 35.138 23.5667 35.1547 23.23H37.3147V27.37H34.4247ZM44.056 22.6H43.441L40.476 26.77V22.6H39.761V28H40.381L43.341 23.795V28H44.056V22.6ZM47.6044 28.15C47.9844 28.15 48.326 28.0833 48.6294 27.95C48.936 27.8133 49.1777 27.6217 49.3544 27.375C49.5344 27.125 49.6244 26.8283 49.6244 26.485C49.6244 26.225 49.566 25.9733 49.4494 25.73C49.3327 25.4833 49.1527 25.3 48.9094 25.18C49.0927 25.04 49.2344 24.8733 49.3344 24.68C49.4344 24.4833 49.4844 24.2583 49.4844 24.005C49.4844 23.6783 49.401 23.4 49.2344 23.17C49.071 22.9367 48.8477 22.7583 48.5644 22.635C48.2844 22.5117 47.971 22.45 47.6244 22.45C47.1844 22.45 46.7827 22.5283 46.4194 22.685C46.0594 22.8383 45.7444 23.0633 45.4744 23.36L45.9444 23.855C46.141 23.6483 46.381 23.48 46.6644 23.35C46.9477 23.2167 47.2494 23.15 47.5694 23.15C47.886 23.15 48.1577 23.225 48.3844 23.375C48.6144 23.5217 48.7294 23.7483 48.7294 24.055C48.7294 24.3483 48.616 24.5617 48.3894 24.695C48.1627 24.8283 47.861 24.895 47.4844 24.895H46.8544V25.525H47.4944C47.9544 25.525 48.2994 25.5917 48.5294 25.725C48.7594 25.855 48.8744 26.085 48.8744 26.415C48.8744 26.735 48.7544 26.9867 48.5144 27.17C48.2744 27.3533 47.956 27.445 47.5594 27.445C46.7994 27.445 46.2177 27.105 45.8144 26.425L45.2244 26.8C45.4577 27.2233 45.776 27.555 46.1794 27.795C46.586 28.0317 47.061 28.15 47.6044 28.15ZM52.4727 28.15C53.4161 28.15 54.1011 27.8017 54.5277 27.105V28H55.1827V24.645C55.1827 24.445 55.1727 24.2483 55.1527 24.055C55.1327 23.8617 55.0894 23.6867 55.0227 23.53C54.8794 23.18 54.6344 22.9133 54.2877 22.73C53.9444 22.5433 53.5261 22.45 53.0327 22.45C52.4394 22.45 51.9561 22.5833 51.5827 22.85C51.2094 23.1167 50.9594 23.4917 50.8327 23.975L51.5477 24.185C51.6511 23.825 51.8294 23.5617 52.0827 23.395C52.3394 23.2283 52.6527 23.145 53.0227 23.145C53.5361 23.145 53.9027 23.265 54.1227 23.505C54.3427 23.7417 54.4561 24.1033 54.4627 24.59C54.2227 24.6233 53.9577 24.6583 53.6677 24.695C53.3811 24.7317 53.0927 24.7733 52.8027 24.82C52.5127 24.8667 52.2461 24.92 52.0027 24.98C51.5994 25.0867 51.2694 25.265 51.0127 25.515C50.7561 25.7617 50.6277 26.1067 50.6277 26.55C50.6277 26.8367 50.6961 27.1017 50.8327 27.345C50.9694 27.5883 51.1744 27.7833 51.4477 27.93C51.7244 28.0767 52.0661 28.15 52.4727 28.15ZM52.5577 27.515C52.2677 27.515 52.0344 27.4683 51.8577 27.375C51.6844 27.2783 51.5577 27.1567 51.4777 27.01C51.4011 26.86 51.3627 26.7067 51.3627 26.55C51.3627 26.2567 51.4611 26.0367 51.6577 25.89C51.8544 25.7433 52.0677 25.6367 52.2977 25.57C52.5944 25.49 52.9394 25.425 53.3327 25.375C53.7261 25.325 54.0994 25.2783 54.4527 25.235C54.4527 25.3583 54.4477 25.5 54.4377 25.66C54.4311 25.8167 54.4127 25.9617 54.3827 26.095C54.3127 26.5017 54.1194 26.84 53.8027 27.11C53.4894 27.38 53.0744 27.515 52.5577 27.515ZM58.9244 21.96C59.1644 21.96 59.381 21.9033 59.5744 21.79C59.771 21.6733 59.926 21.5167 60.0394 21.32C60.156 21.1233 60.2144 20.9067 60.2144 20.67H59.6044C59.6044 20.8567 59.5377 21.0167 59.4044 21.15C59.2744 21.2833 59.1144 21.35 58.9244 21.35C58.7377 21.35 58.5777 21.2833 58.4444 21.15C58.311 21.0167 58.2444 20.8567 58.2444 20.67H57.6344C57.6344 20.9067 57.691 21.1233 57.8044 21.32C57.921 21.5167 58.0777 21.6733 58.2744 21.79C58.471 21.9033 58.6877 21.96 58.9244 21.96ZM60.9744 22.6H60.3594L57.3944 26.77V22.6H56.6794V28H57.2994L60.2594 23.795V28H60.9744V22.6ZM62.5727 28H63.3077V25.65H66.3527V28H67.0877V22.6H66.3527V24.945H63.3077V22.6H62.5727V28ZM70.2309 28.15C71.1743 28.15 71.8593 27.8017 72.2859 27.105V28H72.9409V24.645C72.9409 24.445 72.9309 24.2483 72.9109 24.055C72.8909 23.8617 72.8476 23.6867 72.7809 23.53C72.6376 23.18 72.3926 22.9133 72.0459 22.73C71.7026 22.5433 71.2843 22.45 70.7909 22.45C70.1976 22.45 69.7143 22.5833 69.3409 22.85C68.9676 23.1167 68.7176 23.4917 68.5909 23.975L69.3059 24.185C69.4093 23.825 69.5876 23.5617 69.8409 23.395C70.0976 23.2283 70.4109 23.145 70.7809 23.145C71.2943 23.145 71.6609 23.265 71.8809 23.505C72.1009 23.7417 72.2143 24.1033 72.2209 24.59C71.9809 24.6233 71.7159 24.6583 71.4259 24.695C71.1393 24.7317 70.8509 24.7733 70.5609 24.82C70.2709 24.8667 70.0043 24.92 69.7609 24.98C69.3576 25.0867 69.0276 25.265 68.7709 25.515C68.5143 25.7617 68.3859 26.1067 68.3859 26.55C68.3859 26.8367 68.4543 27.1017 68.5909 27.345C68.7276 27.5883 68.9326 27.7833 69.2059 27.93C69.4826 28.0767 69.8243 28.15 70.2309 28.15ZM70.3159 27.515C70.0259 27.515 69.7926 27.4683 69.6159 27.375C69.4426 27.2783 69.3159 27.1567 69.2359 27.01C69.1593 26.86 69.1209 26.7067 69.1209 26.55C69.1209 26.2567 69.2193 26.0367 69.4159 25.89C69.6126 25.7433 69.8259 25.6367 70.0559 25.57C70.3526 25.49 70.6976 25.425 71.0909 25.375C71.4843 25.325 71.8576 25.2783 72.2109 25.235C72.2109 25.3583 72.2059 25.5 72.1959 25.66C72.1893 25.8167 72.1709 25.9617 72.1409 26.095C72.0709 26.5017 71.8776 26.84 71.5609 27.11C71.2476 27.38 70.8326 27.515 70.3159 27.515Z" fill="white"/>
<path d="M104.365 28.15C104.858 28.15 105.32 28.0667 105.75 27.9C106.18 27.7333 106.527 27.4833 106.79 27.15C107.057 26.8167 107.19 26.4017 107.19 25.905C107.19 25.5483 107.123 25.2533 106.99 25.02C106.86 24.7833 106.692 24.5933 106.485 24.45C106.282 24.3067 106.07 24.195 105.85 24.115C105.633 24.035 105.437 23.9717 105.26 23.925L103.97 23.565C103.81 23.5217 103.65 23.4683 103.49 23.405C103.33 23.3383 103.197 23.25 103.09 23.14C102.983 23.0267 102.93 22.8817 102.93 22.705C102.93 22.5183 102.992 22.355 103.115 22.215C103.242 22.075 103.407 21.9667 103.61 21.89C103.817 21.8133 104.04 21.7783 104.28 21.785C104.65 21.795 104.983 21.9033 105.28 22.11C105.577 22.3167 105.763 22.61 105.84 22.99L107.135 22.765C106.975 22.0983 106.647 21.5833 106.15 21.22C105.653 20.8533 105.035 20.6667 104.295 20.66C103.808 20.6567 103.365 20.735 102.965 20.895C102.568 21.0517 102.252 21.2867 102.015 21.6C101.782 21.9133 101.665 22.3017 101.665 22.765C101.665 23.0817 101.717 23.3483 101.82 23.565C101.927 23.7783 102.062 23.9533 102.225 24.09C102.392 24.2267 102.567 24.335 102.75 24.415C102.937 24.495 103.11 24.5583 103.27 24.605L105.13 25.155C105.663 25.315 105.93 25.5917 105.93 25.985C105.93 26.205 105.858 26.3933 105.715 26.55C105.575 26.7033 105.392 26.82 105.165 26.9C104.938 26.98 104.697 27.02 104.44 27.02C104.007 27.02 103.623 26.9033 103.29 26.67C102.96 26.4367 102.742 26.1067 102.635 25.68L101.385 25.87C101.462 26.34 101.635 26.7467 101.905 27.09C102.178 27.43 102.525 27.6917 102.945 27.875C103.368 28.0583 103.842 28.15 104.365 28.15ZM111.317 28.15C112.144 28.15 112.834 27.9433 113.387 27.53C113.944 27.1133 114.334 26.5533 114.557 25.85L113.342 25.515C113.202 25.9817 112.964 26.3483 112.627 26.615C112.291 26.8817 111.854 27.015 111.317 27.015C110.594 27.015 110.049 26.7767 109.682 26.3C109.319 25.82 109.137 25.1867 109.137 24.4C109.141 23.6133 109.324 22.9817 109.687 22.505C110.051 22.025 110.594 21.785 111.317 21.785C111.854 21.785 112.291 21.9183 112.627 22.185C112.964 22.4517 113.202 22.8183 113.342 23.285L114.557 22.95C114.334 22.2433 113.944 21.6833 113.387 21.27C112.834 20.8567 112.144 20.65 111.317 20.65C110.601 20.65 109.984 20.8083 109.467 21.125C108.954 21.4383 108.559 21.8767 108.282 22.44C108.009 23 107.872 23.6533 107.872 24.4C107.872 25.1433 108.009 25.7967 108.282 26.36C108.559 26.9233 108.954 27.3633 109.467 27.68C109.984 27.9933 110.601 28.15 111.317 28.15ZM115.655 28H116.86V24.96H120.27V28H121.47V20.8H120.27V23.83H116.86V20.8H115.655V28ZM125.917 28.15C126.637 28.15 127.254 27.9933 127.767 27.68C128.284 27.3633 128.679 26.9233 128.952 26.36C129.229 25.7967 129.367 25.1433 129.367 24.4C129.367 23.6533 129.229 23 128.952 22.44C128.679 21.8767 128.284 21.4383 127.767 21.125C127.254 20.8083 126.637 20.65 125.917 20.65C125.2 20.65 124.584 20.8083 124.067 21.125C123.554 21.4383 123.159 21.8767 122.882 22.44C122.609 23 122.472 23.6533 122.472 24.4C122.472 25.1433 122.609 25.7967 122.882 26.36C123.159 26.9233 123.554 27.3633 124.067 27.68C124.584 27.9933 125.2 28.15 125.917 28.15ZM125.917 27.015C125.194 27.005 124.65 26.7633 124.287 26.29C123.924 25.8167 123.744 25.1867 123.747 24.4C123.75 23.8733 123.832 23.4133 123.992 23.02C124.152 22.6267 124.392 22.3217 124.712 22.105C125.032 21.885 125.434 21.7783 125.917 21.785C126.644 21.795 127.187 22.0367 127.547 22.51C127.91 22.9833 128.092 23.6133 128.092 24.4C128.092 24.9233 128.01 25.3833 127.847 25.78C127.687 26.1733 127.445 26.4783 127.122 26.695C126.802 26.9117 126.4 27.0183 125.917 27.015ZM133.407 28.15C134.127 28.15 134.744 27.9933 135.257 27.68C135.774 27.3633 136.169 26.9233 136.442 26.36C136.719 25.7967 136.857 25.1433 136.857 24.4C136.857 23.6533 136.719 23 136.442 22.44C136.169 21.8767 135.774 21.4383 135.257 21.125C134.744 20.8083 134.127 20.65 133.407 20.65C132.69 20.65 132.074 20.8083 131.557 21.125C131.044 21.4383 130.649 21.8767 130.372 22.44C130.099 23 129.962 23.6533 129.962 24.4C129.962 25.1433 130.099 25.7967 130.372 26.36C130.649 26.9233 131.044 27.3633 131.557 27.68C132.074 27.9933 132.69 28.15 133.407 28.15ZM133.407 27.015C132.684 27.005 132.14 26.7633 131.777 26.29C131.414 25.8167 131.234 25.1867 131.237 24.4C131.24 23.8733 131.322 23.4133 131.482 23.02C131.642 22.6267 131.882 22.3217 132.202 22.105C132.522 21.885 132.924 21.7783 133.407 21.785C134.134 21.795 134.677 22.0367 135.037 22.51C135.4 22.9833 135.582 23.6133 135.582 24.4C135.582 24.9233 135.5 25.3833 135.337 25.78C135.177 26.1733 134.935 26.4783 134.612 26.695C134.292 26.9117 133.89 27.0183 133.407 27.015ZM137.952 28H142.337V26.87H139.157V20.8H137.952V28Z" fill="white"/>
<path fill-rule="evenodd" clip-rule="evenodd" d="M102.435 5.24597L89.4353 28.246L88.5647 27.7539L101.565 4.75391L102.435 5.24597Z" fill="white"/>
</svg>
