<svg width="120" height="120" viewBox="0 0 120 120" fill="none" xmlns="http://www.w3.org/2000/svg">
<path d="M0 48C0 31.1984 0 22.7976 3.2698 16.3803C6.14601 10.7354 10.7354 6.14601 16.3803 3.2698C22.7976 0 31.1984 0 48 0H72C88.8016 0 97.2024 0 103.62 3.2698C109.265 6.14601 113.854 10.7354 116.73 16.3803C120 22.7976 120 31.1984 120 48V72C120 88.8016 120 97.2024 116.73 103.62C113.854 109.265 109.265 113.854 103.62 116.73C97.2024 120 88.8016 120 72 120H48C31.1984 120 22.7976 120 16.3803 116.73C10.7354 113.854 6.14601 109.265 3.2698 103.62C0 97.2024 0 88.8016 0 72V48Z" fill="white"/>
<path d="M60.5 38C54.0609 38.0286 47.3866 39.5961 41.0685 42.5973C36.3774 44.9174 31.8056 48.1908 27.8371 52.2311C25.888 54.2936 23.4019 57.2799 23 60.4663C23.0475 63.2263 26.0081 66.6331 27.8371 68.7014C31.5586 72.5831 36.0113 75.7651 41.0685 78.3376C46.9604 81.1971 53.482 82.8434 60.5 82.9349C66.9452 82.9059 73.618 81.3203 79.9291 78.3376C84.6203 76.0175 89.1943 72.7418 93.1629 68.7014C95.1119 66.639 97.598 63.6526 98 60.4663C97.9525 57.7062 94.9919 54.2993 93.1629 52.231C89.4414 48.3494 84.9864 45.1698 79.9291 42.5972C74.0403 39.7399 67.5026 38.1049 60.5 38Z" fill="#EFD2FE"/>
<circle cx="60" cy="60" r="16" fill="white"/>
<circle cx="60" cy="60" r="9" fill="#842FFB"/>
</svg>
