<svg width="120" height="120" viewBox="0 0 120 120" fill="none" xmlns="http://www.w3.org/2000/svg">
<path d="M0 48C0 31.1984 0 22.7976 3.2698 16.3803C6.14601 10.7354 10.7354 6.14601 16.3803 3.2698C22.7976 0 31.1984 0 48 0H72C88.8016 0 97.2024 0 103.62 3.2698C109.265 6.14601 113.854 10.7354 116.73 16.3803C120 22.7976 120 31.1984 120 48V72C120 88.8016 120 97.2024 116.73 103.62C113.854 109.265 109.265 113.854 103.62 116.73C97.2024 120 88.8016 120 72 120H48C31.1984 120 22.7976 120 16.3803 116.73C10.7354 113.854 6.14601 109.265 3.2698 103.62C0 97.2024 0 88.8016 0 72V48Z" fill="white"/>
<path d="M100.5 68.5C100.5 63.1815 99.4524 57.915 97.4171 53.0013C95.3818 48.0876 92.3986 43.6229 88.6378 39.8622C84.8771 36.1014 80.4124 33.1182 75.4987 31.0829C70.585 29.0476 65.3185 28 60 28C54.6815 28 49.415 29.0476 44.5013 31.0829C39.5876 33.1182 35.1229 36.1014 31.3622 39.8622C27.6014 43.623 24.6182 48.0876 22.5829 53.0013C20.5476 57.915 19.5 63.1815 19.5 68.5L41.9854 68.5C41.9854 66.1343 42.4514 63.7918 43.3567 61.6061C44.262 59.4205 45.589 57.4346 47.2618 55.7618C48.9346 54.089 50.9205 52.762 53.1061 51.8567C55.2918 50.9514 57.6343 50.4854 60 50.4854C62.3657 50.4854 64.7082 50.9514 66.8939 51.8567C69.0795 52.762 71.0654 54.089 72.7382 55.7618C74.411 57.4346 75.738 59.4205 76.6433 61.6061C77.5486 63.7918 78.0146 66.1343 78.0146 68.5H100.5Z" fill="#EFD2FE"/>
<path d="M90 68.5C90 64.626 89.237 60.7899 87.7544 57.2108C86.2719 53.6317 84.099 50.3797 81.3596 47.6403C78.6203 44.901 75.3683 42.7281 71.7892 41.2456C68.2101 39.763 64.374 39 60.5 39C56.626 39 52.7899 39.763 49.2108 41.2456C45.6317 42.7281 42.3797 44.901 39.6403 47.6404C36.901 50.3797 34.7281 53.6317 33.2456 57.2108C31.763 60.7899 31 64.626 31 68.5H42.8C42.8 66.1756 43.2578 63.874 44.1473 61.7265C45.0368 59.579 46.3406 57.6278 47.9842 55.9842C49.6278 54.3406 51.579 53.0368 53.7265 52.1473C55.874 51.2578 58.1756 50.8 60.5 50.8C62.8244 50.8 65.126 51.2578 67.2735 52.1473C69.421 53.0368 71.3722 54.3406 73.0158 55.9842C74.6594 57.6278 75.9632 59.579 76.8527 61.7265C77.7422 63.874 78.2 66.1756 78.2 68.5H90Z" fill="#D9A6FD"/>
<path d="M88.6454 35.481C89.1513 35.0632 89.8918 35.0984 90.3558 35.5623C90.8197 36.0262 90.8549 36.7668 90.437 37.2726L63.7663 69.5583C61.7903 71.9502 58.1842 72.1215 55.9904 69.9277C53.7965 67.7339 53.9679 64.1277 56.3598 62.1518L88.6454 35.481Z" fill="#842FFB"/>
</svg>
