<svg width="120" height="120" viewBox="0 0 120 120" fill="none" xmlns="http://www.w3.org/2000/svg">
<path d="M0 48C0 31.1984 0 22.7976 3.2698 16.3803C6.14601 10.7354 10.7354 6.14601 16.3803 3.2698C22.7976 0 31.1984 0 48 0H72C88.8016 0 97.2024 0 103.62 3.2698C109.265 6.14601 113.854 10.7354 116.73 16.3803C120 22.7976 120 31.1984 120 48V72C120 88.8016 120 97.2024 116.73 103.62C113.854 109.265 109.265 113.854 103.62 116.73C97.2024 120 88.8016 120 72 120H48C31.1984 120 22.7976 120 16.3803 116.73C10.7354 113.854 6.14601 109.265 3.2698 103.62C0 97.2024 0 88.8016 0 72V48Z" fill="white"/>
<path d="M34.4707 69.9117C34.4707 55.5361 46.1245 43.8823 60.5001 43.8823C74.8758 43.8823 86.5295 55.5361 86.5295 69.9117V78.5882H34.4707V69.9117Z" fill="#D9A6FD"/>
<mask id="mask0" mask-type="alpha" maskUnits="userSpaceOnUse" x="34" y="43" width="53" height="36">
<path d="M34.4707 69.9117C34.4707 55.5361 46.1245 43.8823 60.5001 43.8823C74.8758 43.8823 86.5295 55.5361 86.5295 69.9117V78.5882H34.4707V69.9117Z" fill="#F0FBFF"/>
</mask>
<g mask="url(#mask0)">
<rect x="34.4707" y="43.8823" width="25.451" height="34.7059" fill="#D9A6FD"/>
</g>
<path d="M59.9996 44C41.5996 47.2 37.9996 67.6667 38.4996 77.5L59.9996 75.5V44Z" fill="#EFD2FE"/>
<path d="M60 44C78.7898 47.2478 82.4661 68.0199 81.9555 78L60 75.9701V44Z" fill="white"/>
<path d="M60 73C48.4314 73 34.4707 78.5883 34.4707 78.5883C45 96 44.6511 81 59.9217 81C75.1923 81 75 96 86.5295 78.5883C86.5295 78.5883 71.5686 73 60 73Z" fill="#842FFB"/>
<path d="M41 32.0001C41 27.3754 53 29.1097 59 30.5549V33.445C53 34.8902 41 36.6247 41 32.0001Z" fill="#842FFB"/>
<path d="M78 32.0001C78 27.3754 66.6667 29.1097 61 30.5549V33.445C66.6667 34.8902 78 36.6247 78 32.0001Z" fill="#842FFB"/>
<rect x="59" y="34" width="2" height="10" fill="#C17AFC"/>
<circle cx="60" cy="32" r="3" fill="#842FFB"/>
</svg>
